solid AutoCAD
   facet normal 1.1196448e-01 -9.9371221e-01 0.0000000e+00
      outer loop
         vertex 5.6000001e+01 5.2000001e+01 1.0000000e-06
         vertex 5.6000001e+01 5.2000001e+01 4.0000001e+01
         vertex 5.2439666e+01 5.1598848e+01 1.0000000e-06
      endloop
   endfacet
   facet normal 3.3027906e-01 -9.4388333e-01 0.0000000e+00
      outer loop
         vertex 4.9057861e+01 5.0415503e+01 4.0000001e+01
         vertex 4.9057861e+01 5.0415503e+01 1.0000000e-06
         vertex 5.2439666e+01 5.1598848e+01 4.0000001e+01
      endloop
   endfacet
   facet normal 5.3203208e-01 -8.4672420e-01 0.0000000e+00
      outer loop
         vertex 4.9057861e+01 5.0415503e+01 1.0000000e-06
         vertex 4.9057861e+01 5.0415503e+01 4.0000001e+01
         vertex 4.6024164e+01 4.8509305e+01 1.0000000e-06
      endloop
   endfacet
   facet normal 7.0710678e-01 -7.0710678e-01 0.0000000e+00
      outer loop
         vertex 4.3490697e+01 4.5975838e+01 4.0000001e+01
         vertex 4.3490697e+01 4.5975838e+01 1.0000000e-06
         vertex 4.6024164e+01 4.8509305e+01 4.0000001e+01
      endloop
   endfacet
   facet normal 8.4672420e-01 -5.3203208e-01 0.0000000e+00
      outer loop
         vertex 4.3490697e+01 4.5975838e+01 1.0000000e-06
         vertex 4.3490697e+01 4.5975838e+01 4.0000001e+01
         vertex 4.1584499e+01 4.2942141e+01 1.0000000e-06
      endloop
   endfacet
   facet normal 9.4388333e-01 -3.3027906e-01 0.0000000e+00
      outer loop
         vertex 4.0401154e+01 3.9560336e+01 4.0000001e+01
         vertex 4.0401154e+01 3.9560336e+01 1.0000000e-06
         vertex 4.1584499e+01 4.2942141e+01 4.0000001e+01
      endloop
   endfacet
   facet normal 9.9371221e-01 -1.1196448e-01 0.0000000e+00
      outer loop
         vertex 4.0401154e+01 3.9560336e+01 1.0000000e-06
         vertex 4.0401154e+01 3.9560336e+01 4.0000001e+01
         vertex 4.0000001e+01 3.6000001e+01 1.0000000e-06
      endloop
   endfacet
   facet normal 9.9371221e-01 1.1196448e-01 0.0000000e+00
      outer loop
         vertex 4.0401154e+01 3.2439666e+01 4.0000001e+01
         vertex 4.0401154e+01 3.2439666e+01 1.0000000e-06
         vertex 4.0000001e+01 3.6000001e+01 4.0000001e+01
      endloop
   endfacet
   facet normal 9.4388333e-01 3.3027906e-01 -0.0000000e+00
      outer loop
         vertex 4.0401154e+01 3.2439666e+01 1.0000000e-06
         vertex 4.0401154e+01 3.2439666e+01 4.0000001e+01
         vertex 4.1584499e+01 2.9057861e+01 1.0000000e-06
      endloop
   endfacet
   facet normal 8.4672420e-01 5.3203208e-01 0.0000000e+00
      outer loop
         vertex 4.3490697e+01 2.6024164e+01 4.0000001e+01
         vertex 4.3490697e+01 2.6024164e+01 1.0000000e-06
         vertex 4.1584499e+01 2.9057861e+01 4.0000001e+01
      endloop
   endfacet
   facet normal 7.0710678e-01 7.0710678e-01 -0.0000000e+00
      outer loop
         vertex 4.3490697e+01 2.6024164e+01 1.0000000e-06
         vertex 4.3490697e+01 2.6024164e+01 4.0000001e+01
         vertex 4.6024164e+01 2.3490697e+01 1.0000000e-06
      endloop
   endfacet
   facet normal 5.3203208e-01 8.4672420e-01 0.0000000e+00
      outer loop
         vertex 4.9057861e+01 2.1584499e+01 4.0000001e+01
         vertex 4.9057861e+01 2.1584499e+01 1.0000000e-06
         vertex 4.6024164e+01 2.3490697e+01 4.0000001e+01
      endloop
   endfacet
   facet normal 3.3027906e-01 9.4388333e-01 -0.0000000e+00
      outer loop
         vertex 4.9057861e+01 2.1584499e+01 1.0000000e-06
         vertex 4.9057861e+01 2.1584499e+01 4.0000001e+01
         vertex 5.2439666e+01 2.0401154e+01 1.0000000e-06
      endloop
   endfacet
   facet normal 1.1196448e-01 9.9371221e-01 0.0000000e+00
      outer loop
         vertex 5.6000001e+01 2.0000001e+01 4.0000001e+01
         vertex 5.6000001e+01 2.0000001e+01 1.0000000e-06
         vertex 5.2439666e+01 2.0401154e+01 4.0000001e+01
      endloop
   endfacet
   facet normal 1.1196448e-01 9.9371221e-01 -0.0000000e+00
      outer loop
         vertex 5.6000001e+01 2.0000001e+01 1.0000000e-06
         vertex 5.2439666e+01 2.0401154e+01 1.0000000e-06
         vertex 5.2439666e+01 2.0401154e+01 4.0000001e+01
      endloop
   endfacet
   facet normal 3.3027906e-01 9.4388333e-01 0.0000000e+00
      outer loop
         vertex 5.2439666e+01 2.0401154e+01 4.0000001e+01
         vertex 5.2439666e+01 2.0401154e+01 1.0000000e-06
         vertex 4.9057861e+01 2.1584499e+01 4.0000001e+01
      endloop
   endfacet
   facet normal 5.3203208e-01 8.4672420e-01 -0.0000000e+00
      outer loop
         vertex 4.9057861e+01 2.1584499e+01 1.0000000e-06
         vertex 4.6024164e+01 2.3490697e+01 1.0000000e-06
         vertex 4.6024164e+01 2.3490697e+01 4.0000001e+01
      endloop
   endfacet
   facet normal 7.0710678e-01 7.0710678e-01 0.0000000e+00
      outer loop
         vertex 4.6024164e+01 2.3490697e+01 4.0000001e+01
         vertex 4.6024164e+01 2.3490697e+01 1.0000000e-06
         vertex 4.3490697e+01 2.6024164e+01 4.0000001e+01
      endloop
   endfacet
   facet normal 8.4672420e-01 5.3203208e-01 -0.0000000e+00
      outer loop
         vertex 4.3490697e+01 2.6024164e+01 1.0000000e-06
         vertex 4.1584499e+01 2.9057861e+01 1.0000000e-06
         vertex 4.1584499e+01 2.9057861e+01 4.0000001e+01
      endloop
   endfacet
   facet normal 9.4388333e-01 3.3027906e-01 0.0000000e+00
      outer loop
         vertex 4.1584499e+01 2.9057861e+01 4.0000001e+01
         vertex 4.1584499e+01 2.9057861e+01 1.0000000e-06
         vertex 4.0401154e+01 3.2439666e+01 4.0000001e+01
      endloop
   endfacet
   facet normal 9.9371221e-01 1.1196448e-01 -0.0000000e+00
      outer loop
         vertex 4.0401154e+01 3.2439666e+01 1.0000000e-06
         vertex 4.0000001e+01 3.6000001e+01 1.0000000e-06
         vertex 4.0000001e+01 3.6000001e+01 4.0000001e+01
      endloop
   endfacet
   facet normal 9.9371221e-01 -1.1196448e-01 0.0000000e+00
      outer loop
         vertex 4.0000001e+01 3.6000001e+01 4.0000001e+01
         vertex 4.0000001e+01 3.6000001e+01 1.0000000e-06
         vertex 4.0401154e+01 3.9560336e+01 4.0000001e+01
      endloop
   endfacet
   facet normal 9.4388333e-01 -3.3027906e-01 0.0000000e+00
      outer loop
         vertex 4.0401154e+01 3.9560336e+01 1.0000000e-06
         vertex 4.1584499e+01 4.2942141e+01 1.0000000e-06
         vertex 4.1584499e+01 4.2942141e+01 4.0000001e+01
      endloop
   endfacet
   facet normal 8.4672420e-01 -5.3203208e-01 0.0000000e+00
      outer loop
         vertex 4.1584499e+01 4.2942141e+01 4.0000001e+01
         vertex 4.1584499e+01 4.2942141e+01 1.0000000e-06
         vertex 4.3490697e+01 4.5975838e+01 4.0000001e+01
      endloop
   endfacet
   facet normal 7.0710678e-01 -7.0710678e-01 0.0000000e+00
      outer loop
         vertex 4.3490697e+01 4.5975838e+01 1.0000000e-06
         vertex 4.6024164e+01 4.8509305e+01 1.0000000e-06
         vertex 4.6024164e+01 4.8509305e+01 4.0000001e+01
      endloop
   endfacet
   facet normal 5.3203208e-01 -8.4672420e-01 0.0000000e+00
      outer loop
         vertex 4.6024164e+01 4.8509305e+01 4.0000001e+01
         vertex 4.6024164e+01 4.8509305e+01 1.0000000e-06
         vertex 4.9057861e+01 5.0415503e+01 4.0000001e+01
      endloop
   endfacet
   facet normal 3.3027906e-01 -9.4388333e-01 0.0000000e+00
      outer loop
         vertex 4.9057861e+01 5.0415503e+01 1.0000000e-06
         vertex 5.2439666e+01 5.1598848e+01 1.0000000e-06
         vertex 5.2439666e+01 5.1598848e+01 4.0000001e+01
      endloop
   endfacet
   facet normal 1.1196448e-01 -9.9371221e-01 0.0000000e+00
      outer loop
         vertex 5.2439666e+01 5.1598848e+01 4.0000001e+01
         vertex 5.2439666e+01 5.1598848e+01 1.0000000e-06
         vertex 5.6000001e+01 5.2000001e+01 4.0000001e+01
      endloop
   endfacet
   facet normal -5.8008077e-16 1.0000000e+00 0.0000000e+00
      outer loop
         vertex 6.8249032e+01 2.0000001e+01 4.0000001e+01
         vertex 6.8249032e+01 2.0000001e+01 1.0000000e-06
         vertex 5.6000001e+01 2.0000001e+01 4.0000001e+01
      endloop
   endfacet
   facet normal -5.8008077e-16 1.0000000e+00 0.0000000e+00
      outer loop
         vertex 6.8249032e+01 2.0000001e+01 1.0000000e-06
         vertex 5.6000001e+01 2.0000001e+01 1.0000000e-06
         vertex 5.6000001e+01 2.0000001e+01 4.0000001e+01
      endloop
   endfacet
   facet normal 8.5916788e-01 -5.1169382e-01 0.0000000e+00
      outer loop
         vertex 6.8249032e+01 2.0000001e+01 4.0000001e+01
         vertex 6.5429657e+01 1.5266083e+01 4.0000001e+01
         vertex 6.8249032e+01 2.0000001e+01 1.0000000e-06
      endloop
   endfacet
   facet normal 8.5916788e-01 -5.1169382e-01 -1.6889513e-16
      outer loop
         vertex 6.8249032e+01 2.0000001e+01 1.0000000e-06
         vertex 6.5429657e+01 1.5266083e+01 4.0000001e+01
         vertex 6.5429657e+01 1.5266083e+01 1.0000000e-06
      endloop
   endfacet
   facet normal 6.6480803e-01 -7.4701424e-01 -6.6348193e-17
      outer loop
         vertex 5.7804926e+01 7.3548400e+00 4.0000001e+01
         vertex 6.1920890e+01 1.1017857e+01 1.0000000e-06
         vertex 6.1920890e+01 1.1017857e+01 4.0000001e+01
      endloop
   endfacet
   facet normal 6.6480803e-01 -7.4701424e-01 -5.1745437e-17
      outer loop
         vertex 6.1920890e+01 1.1017857e+01 1.0000000e-06
         vertex 5.7804926e+01 7.3548400e+00 4.0000001e+01
         vertex 5.7804926e+01 7.3548400e+00 1.0000000e-06
      endloop
   endfacet
   facet normal 4.0852036e-01 -9.1274921e-01 9.8069657e-17
      outer loop
         vertex 4.8149035e+01 2.1119356e+00 4.0000001e+01
         vertex 5.3178180e+01 4.3628368e+00 1.0000000e-06
         vertex 5.3178180e+01 4.3628368e+00 4.0000001e+01
      endloop
   endfacet
   facet normal 4.0852036e-01 -9.1274921e-01 7.2567794e-17
      outer loop
         vertex 5.3178180e+01 4.3628368e+00 1.0000000e-06
         vertex 4.8149035e+01 2.1119356e+00 4.0000001e+01
         vertex 4.8149035e+01 2.1119356e+00 1.0000000e-06
      endloop
   endfacet
   facet normal 1.1417842e-01 -9.9346026e-01 -2.0282162e-17
      outer loop
         vertex 3.7361444e+01 2.5753627e-02 4.0000001e+01
         vertex 4.2835298e+01 6.5486388e-01 1.0000000e-06
         vertex 4.2835298e+01 6.5486388e-01 4.0000001e+01
      endloop
   endfacet
   facet normal 1.1417842e-01 -9.9346026e-01 6.0846487e-17
      outer loop
         vertex 4.2835298e+01 6.5486388e-01 1.0000000e-06
         vertex 3.7361444e+01 2.5753627e-02 4.0000001e+01
         vertex 3.7361444e+01 2.5753627e-02 1.0000000e-06
      endloop
   endfacet
   facet normal -1.9079940e-01 -9.8162905e-01 0.0000000e+00
      outer loop
         vertex 2.6447032e+01 1.2906250e+00 4.0000001e+01
         vertex 3.1855698e+01 2.3934176e-01 1.0000000e-06
         vertex 3.1855698e+01 2.3934176e-01 4.0000001e+01
      endloop
   endfacet
   facet normal -1.9079940e-01 -9.8162905e-01 -1.0658678e-16
      outer loop
         vertex 3.1855698e+01 2.3934176e-01 1.0000000e-06
         vertex 2.6447032e+01 1.2906250e+00 4.0000001e+01
         vertex 2.6447032e+01 1.2906250e+00 1.0000000e-06
      endloop
   endfacet
   facet normal -4.7800398e-01 -8.7835767e-01 1.1357238e-16
      outer loop
         vertex 1.6422493e+01 5.7887251e+00 4.0000001e+01
         vertex 2.1262145e+01 3.1549769e+00 1.0000000e-06
         vertex 2.1262145e+01 3.1549769e+00 4.0000001e+01
      endloop
   endfacet
   facet normal -4.7800398e-01 -8.7835767e-01 -2.8661818e-17
      outer loop
         vertex 2.1262145e+01 3.1549769e+00 1.0000000e-06
         vertex 1.6422493e+01 5.7887251e+00 4.0000001e+01
         vertex 1.6422493e+01 5.7887251e+00 1.0000000e-06
      endloop
   endfacet
   facet normal -7.2068180e-01 -6.9326600e-01 -1.2175064e-17
      outer loop
         vertex 8.2216279e+00 1.3101049e+01 4.0000001e+01
         vertex 1.2041445e+01 9.1301737e+00 1.0000000e-06
         vertex 1.2041445e+01 9.1301737e+00 4.0000001e+01
      endloop
   endfacet
   facet normal -7.2068180e-01 -6.9326600e-01 -2.4350128e-18
      outer loop
         vertex 1.2041445e+01 9.1301737e+00 1.0000000e-06
         vertex 8.2216279e+00 1.3101049e+01 4.0000001e+01
         vertex 8.2216279e+00 1.3101049e+01 1.0000000e-06
      endloop
   endfacet
   facet normal -8.9622707e-01 -4.4359559e-01 1.1819761e-16
      outer loop
         vertex 2.6083582e+00 2.2546444e+01 4.0000001e+01
         vertex 5.0525200e+00 1.7608334e+01 1.0000000e-06
         vertex 5.0525200e+00 1.7608334e+01 4.0000001e+01
      endloop
   endfacet
   facet normal -8.9622707e-01 -4.4359559e-01 7.7193311e-17
      outer loop
         vertex 5.0525200e+00 1.7608334e+01 1.0000000e-06
         vertex 2.6083582e+00 2.2546444e+01 4.0000001e+01
         vertex 2.6083582e+00 2.2546444e+01 1.0000000e-06
      endloop
   endfacet
   facet normal -9.8828748e-01 -1.5260361e-01 2.7107847e-17
      outer loop
         vertex 1.0556849e-01 3.3245057e+01 4.0000001e+01
         vertex 9.4639722e-01 2.7799705e+01 1.0000000e-06
         vertex 9.4639722e-01 2.7799705e+01 4.0000001e+01
      endloop
   endfacet
   facet normal -9.8828748e-01 -1.5260361e-01 2.7107847e-17
      outer loop
         vertex 9.4639722e-01 2.7799705e+01 1.0000000e-06
         vertex 1.0556849e-01 3.3245057e+01 4.0000001e+01
         vertex 1.0556849e-01 3.3245057e+01 1.0000000e-06
      endloop
   endfacet
   facet normal -9.8828748e-01 1.5260361e-01 2.7107847e-17
      outer loop
         vertex 9.4639722e-01 4.4200297e+01 4.0000001e+01
         vertex 1.0556849e-01 3.8754945e+01 1.0000000e-06
         vertex 1.0556849e-01 3.8754945e+01 4.0000001e+01
      endloop
   endfacet
   facet normal -9.8828748e-01 1.5260361e-01 1.4844727e-16
      outer loop
         vertex 1.0556849e-01 3.8754945e+01 1.0000000e-06
         vertex 9.4639722e-01 4.4200297e+01 4.0000001e+01
         vertex 9.4639722e-01 4.4200297e+01 1.0000000e-06
      endloop
   endfacet
   facet normal -8.9622707e-01 4.4359559e-01 -7.7193311e-17
      outer loop
         vertex 5.0525200e+00 5.4391668e+01 4.0000001e+01
         vertex 2.6083582e+00 4.9453558e+01 1.0000000e-06
         vertex 2.6083582e+00 4.9453558e+01 4.0000001e+01
      endloop
   endfacet
   facet normal -8.9622707e-01 4.4359559e-01 8.0403502e-17
      outer loop
         vertex 2.6083582e+00 4.9453558e+01 1.0000000e-06
         vertex 5.0525200e+00 5.4391668e+01 4.0000001e+01
         vertex 5.0525200e+00 5.4391668e+01 1.0000000e-06
      endloop
   endfacet
   facet normal -7.2068180e-01 6.9326600e-01 4.8700255e-18
      outer loop
         vertex 1.2041445e+01 6.2869828e+01 4.0000001e+01
         vertex 8.2216279e+00 5.8898953e+01 1.0000000e-06
         vertex 8.2216279e+00 5.8898953e+01 4.0000001e+01
      endloop
   endfacet
   facet normal -7.2068180e-01 6.9326600e-01 -4.9399326e-17
      outer loop
         vertex 8.2216279e+00 5.8898953e+01 1.0000000e-06
         vertex 1.2041445e+01 6.2869828e+01 4.0000001e+01
         vertex 1.2041445e+01 6.2869828e+01 1.0000000e-06
      endloop
   endfacet
   facet normal -4.7800398e-01 8.7835767e-01 0.0000000e+00
      outer loop
         vertex 2.1262145e+01 6.8845025e+01 4.0000001e+01
         vertex 1.6422493e+01 6.6211277e+01 1.0000000e-06
         vertex 1.6422493e+01 6.6211277e+01 4.0000001e+01
      endloop
   endfacet
   facet normal -4.7800398e-01 8.7835767e-01 -1.4223420e-16
      outer loop
         vertex 1.6422493e+01 6.6211277e+01 1.0000000e-06
         vertex 2.1262145e+01 6.8845025e+01 4.0000001e+01
         vertex 2.1262145e+01 6.8845025e+01 1.0000000e-06
      endloop
   endfacet
   facet normal -1.9079940e-01 9.8162905e-01 -3.3892782e-17
      outer loop
         vertex 3.1855698e+01 7.1760660e+01 4.0000001e+01
         vertex 2.6447032e+01 7.0709377e+01 1.0000000e-06
         vertex 2.6447032e+01 7.0709377e+01 4.0000001e+01
      endloop
   endfacet
   facet normal -1.9079940e-01 9.8162905e-01 5.0839173e-17
      outer loop
         vertex 2.6447032e+01 7.0709377e+01 1.0000000e-06
         vertex 3.1855698e+01 7.1760660e+01 4.0000001e+01
         vertex 3.1855698e+01 7.1760660e+01 1.0000000e-06
      endloop
   endfacet
   facet normal 1.1417842e-01 9.9346026e-01 -8.1128649e-17
      outer loop
         vertex 4.2835298e+01 7.1345138e+01 4.0000001e+01
         vertex 3.7361444e+01 7.1974248e+01 1.0000000e-06
         vertex 3.7361444e+01 7.1974248e+01 4.0000001e+01
      endloop
   endfacet
   facet normal 1.1417842e-01 9.9346026e-01 0.0000000e+00
      outer loop
         vertex 3.7361444e+01 7.1974248e+01 1.0000000e-06
         vertex 4.2835298e+01 7.1345138e+01 4.0000001e+01
         vertex 4.2835298e+01 7.1345138e+01 1.0000000e-06
      endloop
   endfacet
   facet normal 4.0852036e-01 9.1274921e-01 -7.2567794e-17
      outer loop
         vertex 5.3178180e+01 6.7637165e+01 4.0000001e+01
         vertex 4.8149035e+01 6.9888066e+01 1.0000000e-06
         vertex 4.8149035e+01 6.9888066e+01 4.0000001e+01
      endloop
   endfacet
   facet normal 4.0852036e-01 9.1274921e-01 7.2567794e-17
      outer loop
         vertex 4.8149035e+01 6.9888066e+01 1.0000000e-06
         vertex 5.3178180e+01 6.7637165e+01 4.0000001e+01
         vertex 5.3178180e+01 6.7637165e+01 1.0000000e-06
      endloop
   endfacet
   facet normal 6.6480803e-01 7.4701424e-01 -0.0000000e+00
      outer loop
         vertex 6.1920890e+01 6.0982145e+01 4.0000001e+01
         vertex 5.7804926e+01 6.4645162e+01 1.0000000e-06
         vertex 5.7804926e+01 6.4645162e+01 4.0000001e+01
      endloop
   endfacet
   facet normal 6.6480803e-01 7.4701424e-01 1.4602756e-17
      outer loop
         vertex 5.7804926e+01 6.4645162e+01 1.0000000e-06
         vertex 6.1920890e+01 6.0982145e+01 4.0000001e+01
         vertex 6.1920890e+01 6.0982145e+01 1.0000000e-06
      endloop
   endfacet
   facet normal 8.5916788e-01 5.1169382e-01 -0.0000000e+00
      outer loop
         vertex 6.8249032e+01 5.2000001e+01 4.0000001e+01
         vertex 6.5429657e+01 5.6733919e+01 1.0000000e-06
         vertex 6.5429657e+01 5.6733919e+01 4.0000001e+01
      endloop
   endfacet
   facet normal 8.5916788e-01 5.1169382e-01 0.0000000e+00
      outer loop
         vertex 6.8249032e+01 5.2000001e+01 4.0000001e+01
         vertex 6.8249032e+01 5.2000001e+01 1.0000000e-06
         vertex 6.5429657e+01 5.6733919e+01 1.0000000e-06
      endloop
   endfacet
   facet normal 7.7101853e-01 6.3681271e-01 0.0000000e+00
      outer loop
         vertex 6.5429657e+01 5.6733919e+01 1.0000000e-06
         vertex 6.1920890e+01 6.0982145e+01 1.0000000e-06
         vertex 6.5429657e+01 5.6733919e+01 4.0000001e+01
      endloop
   endfacet
   facet normal 7.7101853e-01 6.3681271e-01 -2.3839742e-17
      outer loop
         vertex 6.5429657e+01 5.6733919e+01 4.0000001e+01
         vertex 6.1920890e+01 6.0982145e+01 1.0000000e-06
         vertex 6.1920890e+01 6.0982145e+01 4.0000001e+01
      endloop
   endfacet
   facet normal 5.4302438e-01 8.3971693e-01 0.0000000e+00
      outer loop
         vertex 5.7804926e+01 6.4645162e+01 1.0000000e-06
         vertex 5.3178180e+01 6.7637165e+01 1.0000000e-06
         vertex 5.7804926e+01 6.4645162e+01 4.0000001e+01
      endloop
   endfacet
   facet normal 5.4302438e-01 8.3971693e-01 9.6460508e-17
      outer loop
         vertex 5.7804926e+01 6.4645162e+01 4.0000001e+01
         vertex 5.3178180e+01 6.7637165e+01 1.0000000e-06
         vertex 5.3178180e+01 6.7637165e+01 4.0000001e+01
      endloop
   endfacet
   facet normal 2.6444673e-01 9.6440029e-01 -4.4329230e-17
      outer loop
         vertex 4.8149035e+01 6.9888066e+01 1.0000000e-06
         vertex 4.2835298e+01 7.1345138e+01 1.0000000e-06
         vertex 4.8149035e+01 6.9888066e+01 4.0000001e+01
      endloop
   endfacet
   facet normal 2.6444673e-01 9.6440029e-01 -0.0000000e+00
      outer loop
         vertex 4.8149035e+01 6.9888066e+01 4.0000001e+01
         vertex 4.2835298e+01 7.1345138e+01 1.0000000e-06
         vertex 4.2835298e+01 7.1345138e+01 4.0000001e+01
      endloop
   endfacet
   facet normal -3.8764519e-02 9.9924837e-01 2.7202027e-17
      outer loop
         vertex 3.7361444e+01 7.1974248e+01 1.0000000e-06
         vertex 3.1855698e+01 7.1760660e+01 1.0000000e-06
         vertex 3.7361444e+01 7.1974248e+01 4.0000001e+01
      endloop
   endfacet
   facet normal -3.8764519e-02 9.9924837e-01 1.0328943e-17
      outer loop
         vertex 3.7361444e+01 7.1974248e+01 4.0000001e+01
         vertex 3.1855698e+01 7.1760660e+01 1.0000000e-06
         vertex 3.1855698e+01 7.1760660e+01 4.0000001e+01
      endloop
   endfacet
   facet normal -3.3836480e-01 9.4101502e-01 -5.6419020e-17
      outer loop
         vertex 2.6447032e+01 7.0709377e+01 1.0000000e-06
         vertex 2.1262145e+01 6.8845025e+01 1.0000000e-06
         vertex 2.6447032e+01 7.0709377e+01 4.0000001e+01
      endloop
   endfacet
   facet normal -3.3836480e-01 9.4101502e-01 -2.1410437e-16
      outer loop
         vertex 2.6447032e+01 7.0709377e+01 4.0000001e+01
         vertex 2.1262145e+01 6.8845025e+01 1.0000000e-06
         vertex 2.1262145e+01 6.8845025e+01 4.0000001e+01
      endloop
   endfacet
   facet normal -6.0644590e-01 7.9512475e-01 0.0000000e+00
      outer loop
         vertex 1.6422493e+01 6.6211277e+01 1.0000000e-06
         vertex 1.2041445e+01 6.2869828e+01 1.0000000e-06
         vertex 1.6422493e+01 6.6211277e+01 4.0000001e+01
      endloop
   endfacet
   facet normal -6.0644590e-01 7.9512475e-01 -1.5441150e-16
      outer loop
         vertex 1.6422493e+01 6.6211277e+01 4.0000001e+01
         vertex 1.2041445e+01 6.2869828e+01 1.0000000e-06
         vertex 1.2041445e+01 6.2869828e+01 4.0000001e+01
      endloop
   endfacet
   facet normal -8.1803570e-01 5.7516745e-01 4.0299300e-17
      outer loop
         vertex 8.2216279e+00 5.8898953e+01 1.0000000e-06
         vertex 5.0525200e+00 5.4391668e+01 1.0000000e-06
         vertex 8.2216279e+00 5.8898953e+01 4.0000001e+01
      endloop
   endfacet
   facet normal -8.1803570e-01 5.7516745e-01 4.3142066e-17
      outer loop
         vertex 8.2216279e+00 5.8898953e+01 4.0000001e+01
         vertex 5.0525200e+00 5.4391668e+01 1.0000000e-06
         vertex 5.0525200e+00 5.4391668e+01 4.0000001e+01
      endloop
   endfacet
   facet normal -9.5342427e-01 3.0163248e-01 8.0598600e-18
      outer loop
         vertex 2.6083582e+00 4.9453558e+01 1.0000000e-06
         vertex 9.4639722e-01 4.4200297e+01 1.0000000e-06
         vertex 2.6083582e+00 4.9453558e+01 4.0000001e+01
      endloop
   endfacet
   facet normal -9.5342427e-01 3.0163248e-01 1.1578148e-16
      outer loop
         vertex 2.6083582e+00 4.9453558e+01 4.0000001e+01
         vertex 9.4639722e-01 4.4200297e+01 1.0000000e-06
         vertex 9.4639722e-01 4.4200297e+01 4.0000001e+01
      endloop
   endfacet
   facet normal -1.0000000e+00 0.0000000e+00 0.0000000e+00
      outer loop
         vertex 1.0556849e-01 3.8754945e+01 1.0000000e-06
         vertex 1.0556849e-01 3.3245057e+01 1.0000000e-06
         vertex 1.0556849e-01 3.8754945e+01 4.0000001e+01
      endloop
   endfacet
   facet normal -1.0000000e+00 -0.0000000e+00 0.0000000e+00
      outer loop
         vertex 1.0556849e-01 3.8754945e+01 4.0000001e+01
         vertex 1.0556849e-01 3.3245057e+01 1.0000000e-06
         vertex 1.0556849e-01 3.3245057e+01 4.0000001e+01
      endloop
   endfacet
   facet normal -9.5342427e-01 -3.0163248e-01 5.6419020e-17
      outer loop
         vertex 9.4639722e-01 2.7799705e+01 1.0000000e-06
         vertex 2.6083582e+00 2.2546444e+01 1.0000000e-06
         vertex 9.4639722e-01 2.7799705e+01 4.0000001e+01
      endloop
   endfacet
   facet normal -9.5342427e-01 -3.0163248e-01 -8.6200980e-18
      outer loop
         vertex 9.4639722e-01 2.7799705e+01 4.0000001e+01
         vertex 2.6083582e+00 2.2546444e+01 1.0000000e-06
         vertex 2.6083582e+00 2.2546444e+01 4.0000001e+01
      endloop
   endfacet
   facet normal -8.1803570e-01 -5.7516745e-01 1.5313734e-16
      outer loop
         vertex 5.0525200e+00 1.7608334e+01 1.0000000e-06
         vertex 8.2216279e+00 1.3101049e+01 1.0000000e-06
         vertex 5.0525200e+00 1.7608334e+01 4.0000001e+01
      endloop
   endfacet
   facet normal -8.1803570e-01 -5.7516745e-01 -2.1571033e-17
      outer loop
         vertex 5.0525200e+00 1.7608334e+01 4.0000001e+01
         vertex 8.2216279e+00 1.3101049e+01 1.0000000e-06
         vertex 8.2216279e+00 1.3101049e+01 4.0000001e+01
      endloop
   endfacet
   facet normal -6.0644590e-01 -7.9512475e-01 8.8658460e-17
      outer loop
         vertex 1.2041445e+01 9.1301737e+00 1.0000000e-06
         vertex 1.6422493e+01 5.7887251e+00 1.0000000e-06
         vertex 1.2041445e+01 9.1301737e+00 4.0000001e+01
      endloop
   endfacet
   facet normal -6.0644590e-01 -7.9512475e-01 2.0347121e-17
      outer loop
         vertex 1.2041445e+01 9.1301737e+00 4.0000001e+01
         vertex 1.6422493e+01 5.7887251e+00 1.0000000e-06
         vertex 1.6422493e+01 5.7887251e+00 4.0000001e+01
      endloop
   endfacet
   facet normal -3.3836480e-01 -9.4101502e-01 1.3701762e-16
      outer loop
         vertex 2.1262145e+01 3.1549769e+00 1.0000000e-06
         vertex 2.6447032e+01 1.2906250e+00 1.0000000e-06
         vertex 2.1262145e+01 3.1549769e+00 4.0000001e+01
      endloop
   endfacet
   facet normal -3.3836480e-01 -9.4101502e-01 -4.6946522e-17
      outer loop
         vertex 2.1262145e+01 3.1549769e+00 4.0000001e+01
         vertex 2.6447032e+01 1.2906250e+00 1.0000000e-06
         vertex 2.6447032e+01 1.2906250e+00 4.0000001e+01
      endloop
   endfacet
   facet normal -3.8764519e-02 -9.9924837e-01 0.0000000e+00
      outer loop
         vertex 3.1855698e+01 2.3934176e-01 1.0000000e-06
         vertex 3.7361444e+01 2.5753627e-02 1.0000000e-06
         vertex 3.1855698e+01 2.3934176e-01 4.0000001e+01
      endloop
   endfacet
   facet normal -3.8764519e-02 -9.9924837e-01 -2.0657886e-17
      outer loop
         vertex 3.1855698e+01 2.3934176e-01 4.0000001e+01
         vertex 3.7361444e+01 2.5753627e-02 1.0000000e-06
         vertex 3.7361444e+01 2.5753627e-02 4.0000001e+01
      endloop
   endfacet
   facet normal 2.6444673e-01 -9.6440029e-01 -4.4329230e-17
      outer loop
         vertex 4.2835298e+01 6.5486388e-01 1.0000000e-06
         vertex 4.8149035e+01 2.1119356e+00 1.0000000e-06
         vertex 4.2835298e+01 6.5486388e-01 4.0000001e+01
      endloop
   endfacet
   facet normal 2.6444673e-01 -9.6440029e-01 4.6975176e-17
      outer loop
         vertex 4.2835298e+01 6.5486388e-01 4.0000001e+01
         vertex 4.8149035e+01 2.1119356e+00 1.0000000e-06
         vertex 4.8149035e+01 2.1119356e+00 4.0000001e+01
      endloop
   endfacet
   facet normal 5.4302438e-01 -8.3971693e-01 3.2239440e-17
      outer loop
         vertex 5.3178180e+01 4.3628368e+00 1.0000000e-06
         vertex 5.7804926e+01 7.3548400e+00 1.0000000e-06
         vertex 5.3178180e+01 4.3628368e+00 4.0000001e+01
      endloop
   endfacet
   facet normal 5.4302438e-01 -8.3971693e-01 -2.1878662e-17
      outer loop
         vertex 5.3178180e+01 4.3628368e+00 4.0000001e+01
         vertex 5.7804926e+01 7.3548400e+00 1.0000000e-06
         vertex 5.7804926e+01 7.3548400e+00 4.0000001e+01
      endloop
   endfacet
   facet normal 7.7101853e-01 -6.3681271e-01 -5.6419020e-17
      outer loop
         vertex 6.1920890e+01 1.1017857e+01 1.0000000e-06
         vertex 6.5429657e+01 1.5266083e+01 1.0000000e-06
         vertex 6.1920890e+01 1.1017857e+01 4.0000001e+01
      endloop
   endfacet
   facet normal 7.7101853e-01 -6.3681271e-01 -1.0423981e-16
      outer loop
         vertex 6.1920890e+01 1.1017857e+01 4.0000001e+01
         vertex 6.5429657e+01 1.5266083e+01 1.0000000e-06
         vertex 6.5429657e+01 1.5266083e+01 4.0000001e+01
      endloop
   endfacet
   facet normal 0.0000000e+00 -1.0000000e+00 0.0000000e+00
      outer loop
         vertex 5.6000001e+01 5.2000001e+01 4.0000001e+01
         vertex 5.6000001e+01 5.2000001e+01 1.0000000e-06
         vertex 6.8249032e+01 5.2000001e+01 4.0000001e+01
      endloop
   endfacet
   facet normal 0.0000000e+00 -1.0000000e+00 0.0000000e+00
      outer loop
         vertex 5.6000001e+01 5.2000001e+01 1.0000000e-06
         vertex 6.8249032e+01 5.2000001e+01 1.0000000e-06
         vertex 6.8249032e+01 5.2000001e+01 4.0000001e+01
      endloop
   endfacet
   facet normal -0.0000000e+00 -0.0000000e+00 1.0000000e+00
      outer loop
         vertex 5.2439666e+01 2.0401154e+01 4.0000001e+01
         vertex 5.7804926e+01 7.3548400e+00 4.0000001e+01
         vertex 5.6000001e+01 2.0000001e+01 4.0000001e+01
      endloop
   endfacet
   facet normal 0.0000000e+00 0.0000000e+00 1.0000000e+00
      outer loop
         vertex 5.7804926e+01 7.3548400e+00 4.0000001e+01
         vertex 5.2439666e+01 2.0401154e+01 4.0000001e+01
         vertex 5.3178180e+01 4.3628368e+00 4.0000001e+01
      endloop
   endfacet
   facet normal -0.0000000e+00 0.0000000e+00 1.0000000e+00
      outer loop
         vertex 4.6024164e+01 2.3490697e+01 4.0000001e+01
         vertex 4.2835298e+01 6.5486388e-01 4.0000001e+01
         vertex 4.9057861e+01 2.1584499e+01 4.0000001e+01
      endloop
   endfacet
   facet normal 0.0000000e+00 -0.0000000e+00 1.0000000e+00
      outer loop
         vertex 4.2835298e+01 6.5486388e-01 4.0000001e+01
         vertex 4.6024164e+01 2.3490697e+01 4.0000001e+01
         vertex 3.7361444e+01 2.5753627e-02 4.0000001e+01
      endloop
   endfacet
   facet normal -0.0000000e+00 0.0000000e+00 1.0000000e+00
      outer loop
         vertex 4.1584499e+01 2.9057861e+01 4.0000001e+01
         vertex 2.1262145e+01 3.1549769e+00 4.0000001e+01
         vertex 4.3490697e+01 2.6024164e+01 4.0000001e+01
      endloop
   endfacet
   facet normal -0.0000000e+00 0.0000000e+00 1.0000000e+00
      outer loop
         vertex 4.0401154e+01 3.2439666e+01 4.0000001e+01
         vertex 1.2041445e+01 9.1301737e+00 4.0000001e+01
         vertex 4.1584499e+01 2.9057861e+01 4.0000001e+01
      endloop
   endfacet
   facet normal -0.0000000e+00 0.0000000e+00 1.0000000e+00
      outer loop
         vertex 4.0000001e+01 3.6000001e+01 4.0000001e+01
         vertex 9.4639722e-01 2.7799705e+01 4.0000001e+01
         vertex 4.0401154e+01 3.2439666e+01 4.0000001e+01
      endloop
   endfacet
   facet normal 0.0000000e+00 0.0000000e+00 1.0000000e+00
      outer loop
         vertex 4.0401154e+01 3.9560336e+01 4.0000001e+01
         vertex 9.4639722e-01 4.4200297e+01 4.0000001e+01
         vertex 4.0000001e+01 3.6000001e+01 4.0000001e+01
      endloop
   endfacet
   facet normal 0.0000000e+00 0.0000000e+00 1.0000000e+00
      outer loop
         vertex 4.1584499e+01 4.2942141e+01 4.0000001e+01
         vertex 1.2041445e+01 6.2869828e+01 4.0000001e+01
         vertex 4.0401154e+01 3.9560336e+01 4.0000001e+01
      endloop
   endfacet
   facet normal 0.0000000e+00 0.0000000e+00 1.0000000e+00
      outer loop
         vertex 4.3490697e+01 4.5975838e+01 4.0000001e+01
         vertex 2.1262145e+01 6.8845025e+01 4.0000001e+01
         vertex 4.1584499e+01 4.2942141e+01 4.0000001e+01
      endloop
   endfacet
   facet normal 0.0000000e+00 0.0000000e+00 1.0000000e+00
      outer loop
         vertex 4.6024164e+01 4.8509305e+01 4.0000001e+01
         vertex 3.7361444e+01 7.1974248e+01 4.0000001e+01
         vertex 4.3490697e+01 4.5975838e+01 4.0000001e+01
      endloop
   endfacet
   facet normal -0.0000000e+00 -0.0000000e+00 1.0000000e+00
      outer loop
         vertex 3.7361444e+01 7.1974248e+01 4.0000001e+01
         vertex 4.6024164e+01 4.8509305e+01 4.0000001e+01
         vertex 4.2835298e+01 7.1345138e+01 4.0000001e+01
      endloop
   endfacet
   facet normal 0.0000000e+00 -0.0000000e+00 1.0000000e+00
      outer loop
         vertex 5.2439666e+01 5.1598848e+01 4.0000001e+01
         vertex 5.3178180e+01 6.7637165e+01 4.0000001e+01
         vertex 4.9057861e+01 5.0415503e+01 4.0000001e+01
      endloop
   endfacet
   facet normal -0.0000000e+00 0.0000000e+00 1.0000000e+00
      outer loop
         vertex 5.3178180e+01 6.7637165e+01 4.0000001e+01
         vertex 5.2439666e+01 5.1598848e+01 4.0000001e+01
         vertex 5.7804926e+01 6.4645162e+01 4.0000001e+01
      endloop
   endfacet
   facet normal 0.0000000e+00 0.0000000e+00 1.0000000e+00
      outer loop
         vertex 6.8249032e+01 5.2000001e+01 4.0000001e+01
         vertex 6.5429657e+01 5.6733919e+01 4.0000001e+01
         vertex 5.6000001e+01 5.2000001e+01 4.0000001e+01
      endloop
   endfacet
   facet normal 0.0000000e+00 0.0000000e+00 1.0000000e+00
      outer loop
         vertex 6.5429657e+01 5.6733919e+01 4.0000001e+01
         vertex 6.1920890e+01 6.0982145e+01 4.0000001e+01
         vertex 5.6000001e+01 5.2000001e+01 4.0000001e+01
      endloop
   endfacet
   facet normal 0.0000000e+00 0.0000000e+00 1.0000000e+00
      outer loop
         vertex 6.1920890e+01 6.0982145e+01 4.0000001e+01
         vertex 5.7804926e+01 6.4645162e+01 4.0000001e+01
         vertex 5.6000001e+01 5.2000001e+01 4.0000001e+01
      endloop
   endfacet
   facet normal 0.0000000e+00 -0.0000000e+00 1.0000000e+00
      outer loop
         vertex 5.6000001e+01 5.2000001e+01 4.0000001e+01
         vertex 5.7804926e+01 6.4645162e+01 4.0000001e+01
         vertex 5.2439666e+01 5.1598848e+01 4.0000001e+01
      endloop
   endfacet
   facet normal 0.0000000e+00 0.0000000e+00 1.0000000e+00
      outer loop
         vertex 5.3178180e+01 6.7637165e+01 4.0000001e+01
         vertex 4.8149035e+01 6.9888066e+01 4.0000001e+01
         vertex 4.9057861e+01 5.0415503e+01 4.0000001e+01
      endloop
   endfacet
   facet normal 0.0000000e+00 0.0000000e+00 1.0000000e+00
      outer loop
         vertex 4.8149035e+01 6.9888066e+01 4.0000001e+01
         vertex 4.2835298e+01 7.1345138e+01 4.0000001e+01
         vertex 4.9057861e+01 5.0415503e+01 4.0000001e+01
      endloop
   endfacet
   facet normal 0.0000000e+00 0.0000000e+00 1.0000000e+00
      outer loop
         vertex 4.9057861e+01 5.0415503e+01 4.0000001e+01
         vertex 4.2835298e+01 7.1345138e+01 4.0000001e+01
         vertex 4.6024164e+01 4.8509305e+01 4.0000001e+01
      endloop
   endfacet
   facet normal 0.0000000e+00 0.0000000e+00 1.0000000e+00
      outer loop
         vertex 3.7361444e+01 7.1974248e+01 4.0000001e+01
         vertex 3.1855698e+01 7.1760660e+01 4.0000001e+01
         vertex 4.3490697e+01 4.5975838e+01 4.0000001e+01
      endloop
   endfacet
   facet normal 0.0000000e+00 0.0000000e+00 1.0000000e+00
      outer loop
         vertex 3.1855698e+01 7.1760660e+01 4.0000001e+01
         vertex 2.6447032e+01 7.0709377e+01 4.0000001e+01
         vertex 4.3490697e+01 4.5975838e+01 4.0000001e+01
      endloop
   endfacet
   facet normal 0.0000000e+00 0.0000000e+00 1.0000000e+00
      outer loop
         vertex 2.6447032e+01 7.0709377e+01 4.0000001e+01
         vertex 2.1262145e+01 6.8845025e+01 4.0000001e+01
         vertex 4.3490697e+01 4.5975838e+01 4.0000001e+01
      endloop
   endfacet
   facet normal 0.0000000e+00 0.0000000e+00 1.0000000e+00
      outer loop
         vertex 2.1262145e+01 6.8845025e+01 4.0000001e+01
         vertex 1.6422493e+01 6.6211277e+01 4.0000001e+01
         vertex 4.1584499e+01 4.2942141e+01 4.0000001e+01
      endloop
   endfacet
   facet normal 0.0000000e+00 0.0000000e+00 1.0000000e+00
      outer loop
         vertex 1.6422493e+01 6.6211277e+01 4.0000001e+01
         vertex 1.2041445e+01 6.2869828e+01 4.0000001e+01
         vertex 4.1584499e+01 4.2942141e+01 4.0000001e+01
      endloop
   endfacet
   facet normal 0.0000000e+00 0.0000000e+00 1.0000000e+00
      outer loop
         vertex 1.2041445e+01 6.2869828e+01 4.0000001e+01
         vertex 8.2216279e+00 5.8898953e+01 4.0000001e+01
         vertex 4.0401154e+01 3.9560336e+01 4.0000001e+01
      endloop
   endfacet
   facet normal 0.0000000e+00 0.0000000e+00 1.0000000e+00
      outer loop
         vertex 8.2216279e+00 5.8898953e+01 4.0000001e+01
         vertex 5.0525200e+00 5.4391668e+01 4.0000001e+01
         vertex 4.0401154e+01 3.9560336e+01 4.0000001e+01
      endloop
   endfacet
   facet normal 0.0000000e+00 0.0000000e+00 1.0000000e+00
      outer loop
         vertex 5.0525200e+00 5.4391668e+01 4.0000001e+01
         vertex 2.6083582e+00 4.9453558e+01 4.0000001e+01
         vertex 4.0401154e+01 3.9560336e+01 4.0000001e+01
      endloop
   endfacet
   facet normal 0.0000000e+00 0.0000000e+00 1.0000000e+00
      outer loop
         vertex 2.6083582e+00 4.9453558e+01 4.0000001e+01
         vertex 9.4639722e-01 4.4200297e+01 4.0000001e+01
         vertex 4.0401154e+01 3.9560336e+01 4.0000001e+01
      endloop
   endfacet
   facet normal 0.0000000e+00 0.0000000e+00 1.0000000e+00
      outer loop
         vertex 9.4639722e-01 4.4200297e+01 4.0000001e+01
         vertex 1.0556849e-01 3.8754945e+01 4.0000001e+01
         vertex 4.0000001e+01 3.6000001e+01 4.0000001e+01
      endloop
   endfacet
   facet normal -0.0000000e+00 0.0000000e+00 1.0000000e+00
      outer loop
         vertex 1.0556849e-01 3.8754945e+01 4.0000001e+01
         vertex 1.0556849e-01 3.3245057e+01 4.0000001e+01
         vertex 4.0000001e+01 3.6000001e+01 4.0000001e+01
      endloop
   endfacet
   facet normal -0.0000000e+00 0.0000000e+00 1.0000000e+00
      outer loop
         vertex 1.0556849e-01 3.3245057e+01 4.0000001e+01
         vertex 9.4639722e-01 2.7799705e+01 4.0000001e+01
         vertex 4.0000001e+01 3.6000001e+01 4.0000001e+01
      endloop
   endfacet
   facet normal -0.0000000e+00 0.0000000e+00 1.0000000e+00
      outer loop
         vertex 9.4639722e-01 2.7799705e+01 4.0000001e+01
         vertex 2.6083582e+00 2.2546444e+01 4.0000001e+01
         vertex 4.0401154e+01 3.2439666e+01 4.0000001e+01
      endloop
   endfacet
   facet normal -0.0000000e+00 0.0000000e+00 1.0000000e+00
      outer loop
         vertex 2.6083582e+00 2.2546444e+01 4.0000001e+01
         vertex 5.0525200e+00 1.7608334e+01 4.0000001e+01
         vertex 4.0401154e+01 3.2439666e+01 4.0000001e+01
      endloop
   endfacet
   facet normal -0.0000000e+00 0.0000000e+00 1.0000000e+00
      outer loop
         vertex 5.0525200e+00 1.7608334e+01 4.0000001e+01
         vertex 8.2216279e+00 1.3101049e+01 4.0000001e+01
         vertex 4.0401154e+01 3.2439666e+01 4.0000001e+01
      endloop
   endfacet
   facet normal -0.0000000e+00 0.0000000e+00 1.0000000e+00
      outer loop
         vertex 8.2216279e+00 1.3101049e+01 4.0000001e+01
         vertex 1.2041445e+01 9.1301737e+00 4.0000001e+01
         vertex 4.0401154e+01 3.2439666e+01 4.0000001e+01
      endloop
   endfacet
   facet normal -0.0000000e+00 0.0000000e+00 1.0000000e+00
      outer loop
         vertex 1.2041445e+01 9.1301737e+00 4.0000001e+01
         vertex 1.6422493e+01 5.7887251e+00 4.0000001e+01
         vertex 4.1584499e+01 2.9057861e+01 4.0000001e+01
      endloop
   endfacet
   facet normal -0.0000000e+00 0.0000000e+00 1.0000000e+00
      outer loop
         vertex 1.6422493e+01 5.7887251e+00 4.0000001e+01
         vertex 2.1262145e+01 3.1549769e+00 4.0000001e+01
         vertex 4.1584499e+01 2.9057861e+01 4.0000001e+01
      endloop
   endfacet
   facet normal -0.0000000e+00 0.0000000e+00 1.0000000e+00
      outer loop
         vertex 2.1262145e+01 3.1549769e+00 4.0000001e+01
         vertex 2.6447032e+01 1.2906250e+00 4.0000001e+01
         vertex 4.3490697e+01 2.6024164e+01 4.0000001e+01
      endloop
   endfacet
   facet normal -0.0000000e+00 0.0000000e+00 1.0000000e+00
      outer loop
         vertex 2.6447032e+01 1.2906250e+00 4.0000001e+01
         vertex 3.1855698e+01 2.3934176e-01 4.0000001e+01
         vertex 4.3490697e+01 2.6024164e+01 4.0000001e+01
      endloop
   endfacet
   facet normal -0.0000000e+00 0.0000000e+00 1.0000000e+00
      outer loop
         vertex 3.1855698e+01 2.3934176e-01 4.0000001e+01
         vertex 3.7361444e+01 2.5753627e-02 4.0000001e+01
         vertex 4.3490697e+01 2.6024164e+01 4.0000001e+01
      endloop
   endfacet
   facet normal -0.0000000e+00 0.0000000e+00 1.0000000e+00
      outer loop
         vertex 4.3490697e+01 2.6024164e+01 4.0000001e+01
         vertex 3.7361444e+01 2.5753627e-02 4.0000001e+01
         vertex 4.6024164e+01 2.3490697e+01 4.0000001e+01
      endloop
   endfacet
   facet normal 0.0000000e+00 0.0000000e+00 1.0000000e+00
      outer loop
         vertex 4.2835298e+01 6.5486388e-01 4.0000001e+01
         vertex 4.8149035e+01 2.1119356e+00 4.0000001e+01
         vertex 4.9057861e+01 2.1584499e+01 4.0000001e+01
      endloop
   endfacet
   facet normal 0.0000000e+00 -0.0000000e+00 1.0000000e+00
      outer loop
         vertex 4.8149035e+01 2.1119356e+00 4.0000001e+01
         vertex 5.3178180e+01 4.3628368e+00 4.0000001e+01
         vertex 4.9057861e+01 2.1584499e+01 4.0000001e+01
      endloop
   endfacet
   facet normal -0.0000000e+00 -0.0000000e+00 1.0000000e+00
      outer loop
         vertex 4.9057861e+01 2.1584499e+01 4.0000001e+01
         vertex 5.3178180e+01 4.3628368e+00 4.0000001e+01
         vertex 5.2439666e+01 2.0401154e+01 4.0000001e+01
      endloop
   endfacet
   facet normal 0.0000000e+00 -0.0000000e+00 1.0000000e+00
      outer loop
         vertex 5.7804926e+01 7.3548400e+00 4.0000001e+01
         vertex 6.1920890e+01 1.1017857e+01 4.0000001e+01
         vertex 5.6000001e+01 2.0000001e+01 4.0000001e+01
      endloop
   endfacet
   facet normal 0.0000000e+00 -0.0000000e+00 1.0000000e+00
      outer loop
         vertex 6.1920890e+01 1.1017857e+01 4.0000001e+01
         vertex 6.5429657e+01 1.5266083e+01 4.0000001e+01
         vertex 5.6000001e+01 2.0000001e+01 4.0000001e+01
      endloop
   endfacet
   facet normal 0.0000000e+00 -0.0000000e+00 1.0000000e+00
      outer loop
         vertex 6.5429657e+01 1.5266083e+01 4.0000001e+01
         vertex 6.8249032e+01 2.0000001e+01 4.0000001e+01
         vertex 5.6000001e+01 2.0000001e+01 4.0000001e+01
      endloop
   endfacet
   facet normal 0.0000000e+00 0.0000000e+00 -1.0000000e+00
      outer loop
         vertex 6.8249032e+01 5.2000001e+01 1.0000000e-06
         vertex 5.6000001e+01 5.2000001e+01 1.0000000e-06
         vertex 6.5429657e+01 5.6733919e+01 1.0000000e-06
      endloop
   endfacet
   facet normal 0.0000000e+00 -0.0000000e+00 -1.0000000e+00
      outer loop
         vertex 5.2439666e+01 5.1598848e+01 1.0000000e-06
         vertex 5.7804926e+01 6.4645162e+01 1.0000000e-06
         vertex 5.6000001e+01 5.2000001e+01 1.0000000e-06
      endloop
   endfacet
   facet normal -0.0000000e+00 0.0000000e+00 -1.0000000e+00
      outer loop
         vertex 5.7804926e+01 6.4645162e+01 1.0000000e-06
         vertex 5.2439666e+01 5.1598848e+01 1.0000000e-06
         vertex 5.3178180e+01 6.7637165e+01 1.0000000e-06
      endloop
   endfacet
   facet normal 0.0000000e+00 0.0000000e+00 -1.0000000e+00
      outer loop
         vertex 4.6024164e+01 4.8509305e+01 1.0000000e-06
         vertex 4.2835298e+01 7.1345138e+01 1.0000000e-06
         vertex 4.9057861e+01 5.0415503e+01 1.0000000e-06
      endloop
   endfacet
   facet normal -0.0000000e+00 -0.0000000e+00 -1.0000000e+00
      outer loop
         vertex 4.2835298e+01 7.1345138e+01 1.0000000e-06
         vertex 4.6024164e+01 4.8509305e+01 1.0000000e-06
         vertex 3.7361444e+01 7.1974248e+01 1.0000000e-06
      endloop
   endfacet
   facet normal 0.0000000e+00 0.0000000e+00 -1.0000000e+00
      outer loop
         vertex 4.1584499e+01 4.2942141e+01 1.0000000e-06
         vertex 2.1262145e+01 6.8845025e+01 1.0000000e-06
         vertex 4.3490697e+01 4.5975838e+01 1.0000000e-06
      endloop
   endfacet
   facet normal 0.0000000e+00 0.0000000e+00 -1.0000000e+00
      outer loop
         vertex 4.0401154e+01 3.9560336e+01 1.0000000e-06
         vertex 1.2041445e+01 6.2869828e+01 1.0000000e-06
         vertex 4.1584499e+01 4.2942141e+01 1.0000000e-06
      endloop
   endfacet
   facet normal 0.0000000e+00 0.0000000e+00 -1.0000000e+00
      outer loop
         vertex 4.0000001e+01 3.6000001e+01 1.0000000e-06
         vertex 9.4639722e-01 4.4200297e+01 1.0000000e-06
         vertex 4.0401154e+01 3.9560336e+01 1.0000000e-06
      endloop
   endfacet
   facet normal -0.0000000e+00 0.0000000e+00 -1.0000000e+00
      outer loop
         vertex 4.0401154e+01 3.2439666e+01 1.0000000e-06
         vertex 9.4639722e-01 2.7799705e+01 1.0000000e-06
         vertex 4.0000001e+01 3.6000001e+01 1.0000000e-06
      endloop
   endfacet
   facet normal -0.0000000e+00 0.0000000e+00 -1.0000000e+00
      outer loop
         vertex 4.1584499e+01 2.9057861e+01 1.0000000e-06
         vertex 1.2041445e+01 9.1301737e+00 1.0000000e-06
         vertex 4.0401154e+01 3.2439666e+01 1.0000000e-06
      endloop
   endfacet
   facet normal -0.0000000e+00 0.0000000e+00 -1.0000000e+00
      outer loop
         vertex 4.3490697e+01 2.6024164e+01 1.0000000e-06
         vertex 2.1262145e+01 3.1549769e+00 1.0000000e-06
         vertex 4.1584499e+01 2.9057861e+01 1.0000000e-06
      endloop
   endfacet
   facet normal -0.0000000e+00 0.0000000e+00 -1.0000000e+00
      outer loop
         vertex 4.6024164e+01 2.3490697e+01 1.0000000e-06
         vertex 3.7361444e+01 2.5753627e-02 1.0000000e-06
         vertex 4.3490697e+01 2.6024164e+01 1.0000000e-06
      endloop
   endfacet
   facet normal 0.0000000e+00 -0.0000000e+00 -1.0000000e+00
      outer loop
         vertex 3.7361444e+01 2.5753627e-02 1.0000000e-06
         vertex 4.6024164e+01 2.3490697e+01 1.0000000e-06
         vertex 4.2835298e+01 6.5486388e-01 1.0000000e-06
      endloop
   endfacet
   facet normal -0.0000000e+00 -0.0000000e+00 -1.0000000e+00
      outer loop
         vertex 5.2439666e+01 2.0401154e+01 1.0000000e-06
         vertex 5.3178180e+01 4.3628368e+00 1.0000000e-06
         vertex 4.9057861e+01 2.1584499e+01 1.0000000e-06
      endloop
   endfacet
   facet normal 0.0000000e+00 0.0000000e+00 -1.0000000e+00
      outer loop
         vertex 5.3178180e+01 4.3628368e+00 1.0000000e-06
         vertex 5.2439666e+01 2.0401154e+01 1.0000000e-06
         vertex 5.7804926e+01 7.3548400e+00 1.0000000e-06
      endloop
   endfacet
   facet normal -0.0000000e+00 0.0000000e+00 -1.0000000e+00
      outer loop
         vertex 6.8249032e+01 2.0000001e+01 1.0000000e-06
         vertex 6.5429657e+01 1.5266083e+01 1.0000000e-06
         vertex 5.6000001e+01 2.0000001e+01 1.0000000e-06
      endloop
   endfacet
   facet normal -0.0000000e+00 0.0000000e+00 -1.0000000e+00
      outer loop
         vertex 6.5429657e+01 1.5266083e+01 1.0000000e-06
         vertex 6.1920890e+01 1.1017857e+01 1.0000000e-06
         vertex 5.6000001e+01 2.0000001e+01 1.0000000e-06
      endloop
   endfacet
   facet normal -0.0000000e+00 0.0000000e+00 -1.0000000e+00
      outer loop
         vertex 6.1920890e+01 1.1017857e+01 1.0000000e-06
         vertex 5.7804926e+01 7.3548400e+00 1.0000000e-06
         vertex 5.6000001e+01 2.0000001e+01 1.0000000e-06
      endloop
   endfacet
   facet normal -0.0000000e+00 -0.0000000e+00 -1.0000000e+00
      outer loop
         vertex 5.6000001e+01 2.0000001e+01 1.0000000e-06
         vertex 5.7804926e+01 7.3548400e+00 1.0000000e-06
         vertex 5.2439666e+01 2.0401154e+01 1.0000000e-06
      endloop
   endfacet
   facet normal -0.0000000e+00 0.0000000e+00 -1.0000000e+00
      outer loop
         vertex 5.3178180e+01 4.3628368e+00 1.0000000e-06
         vertex 4.8149035e+01 2.1119356e+00 1.0000000e-06
         vertex 4.9057861e+01 2.1584499e+01 1.0000000e-06
      endloop
   endfacet
   facet normal -0.0000000e+00 0.0000000e+00 -1.0000000e+00
      outer loop
         vertex 4.8149035e+01 2.1119356e+00 1.0000000e-06
         vertex 4.2835298e+01 6.5486388e-01 1.0000000e-06
         vertex 4.9057861e+01 2.1584499e+01 1.0000000e-06
      endloop
   endfacet
   facet normal -0.0000000e+00 0.0000000e+00 -1.0000000e+00
      outer loop
         vertex 4.9057861e+01 2.1584499e+01 1.0000000e-06
         vertex 4.2835298e+01 6.5486388e-01 1.0000000e-06
         vertex 4.6024164e+01 2.3490697e+01 1.0000000e-06
      endloop
   endfacet
   facet normal 0.0000000e+00 0.0000000e+00 -1.0000000e+00
      outer loop
         vertex 3.7361444e+01 2.5753627e-02 1.0000000e-06
         vertex 3.1855698e+01 2.3934176e-01 1.0000000e-06
         vertex 4.3490697e+01 2.6024164e+01 1.0000000e-06
      endloop
   endfacet
   facet normal 0.0000000e+00 0.0000000e+00 -1.0000000e+00
      outer loop
         vertex 3.1855698e+01 2.3934176e-01 1.0000000e-06
         vertex 2.6447032e+01 1.2906250e+00 1.0000000e-06
         vertex 4.3490697e+01 2.6024164e+01 1.0000000e-06
      endloop
   endfacet
   facet normal 0.0000000e+00 0.0000000e+00 -1.0000000e+00
      outer loop
         vertex 2.6447032e+01 1.2906250e+00 1.0000000e-06
         vertex 2.1262145e+01 3.1549769e+00 1.0000000e-06
         vertex 4.3490697e+01 2.6024164e+01 1.0000000e-06
      endloop
   endfacet
   facet normal 0.0000000e+00 0.0000000e+00 -1.0000000e+00
      outer loop
         vertex 2.1262145e+01 3.1549769e+00 1.0000000e-06
         vertex 1.6422493e+01 5.7887251e+00 1.0000000e-06
         vertex 4.1584499e+01 2.9057861e+01 1.0000000e-06
      endloop
   endfacet
   facet normal 0.0000000e+00 0.0000000e+00 -1.0000000e+00
      outer loop
         vertex 1.6422493e+01 5.7887251e+00 1.0000000e-06
         vertex 1.2041445e+01 9.1301737e+00 1.0000000e-06
         vertex 4.1584499e+01 2.9057861e+01 1.0000000e-06
      endloop
   endfacet
   facet normal 0.0000000e+00 0.0000000e+00 -1.0000000e+00
      outer loop
         vertex 1.2041445e+01 9.1301737e+00 1.0000000e-06
         vertex 8.2216279e+00 1.3101049e+01 1.0000000e-06
         vertex 4.0401154e+01 3.2439666e+01 1.0000000e-06
      endloop
   endfacet
   facet normal 0.0000000e+00 0.0000000e+00 -1.0000000e+00
      outer loop
         vertex 8.2216279e+00 1.3101049e+01 1.0000000e-06
         vertex 5.0525200e+00 1.7608334e+01 1.0000000e-06
         vertex 4.0401154e+01 3.2439666e+01 1.0000000e-06
      endloop
   endfacet
   facet normal 0.0000000e+00 0.0000000e+00 -1.0000000e+00
      outer loop
         vertex 5.0525200e+00 1.7608334e+01 1.0000000e-06
         vertex 2.6083582e+00 2.2546444e+01 1.0000000e-06
         vertex 4.0401154e+01 3.2439666e+01 1.0000000e-06
      endloop
   endfacet
   facet normal 0.0000000e+00 0.0000000e+00 -1.0000000e+00
      outer loop
         vertex 2.6083582e+00 2.2546444e+01 1.0000000e-06
         vertex 9.4639722e-01 2.7799705e+01 1.0000000e-06
         vertex 4.0401154e+01 3.2439666e+01 1.0000000e-06
      endloop
   endfacet
   facet normal 0.0000000e+00 0.0000000e+00 -1.0000000e+00
      outer loop
         vertex 9.4639722e-01 2.7799705e+01 1.0000000e-06
         vertex 1.0556849e-01 3.3245057e+01 1.0000000e-06
         vertex 4.0000001e+01 3.6000001e+01 1.0000000e-06
      endloop
   endfacet
   facet normal 0.0000000e+00 0.0000000e+00 -1.0000000e+00
      outer loop
         vertex 1.0556849e-01 3.3245057e+01 1.0000000e-06
         vertex 1.0556849e-01 3.8754945e+01 1.0000000e-06
         vertex 4.0000001e+01 3.6000001e+01 1.0000000e-06
      endloop
   endfacet
   facet normal 0.0000000e+00 0.0000000e+00 -1.0000000e+00
      outer loop
         vertex 1.0556849e-01 3.8754945e+01 1.0000000e-06
         vertex 9.4639722e-01 4.4200297e+01 1.0000000e-06
         vertex 4.0000001e+01 3.6000001e+01 1.0000000e-06
      endloop
   endfacet
   facet normal 0.0000000e+00 0.0000000e+00 -1.0000000e+00
      outer loop
         vertex 9.4639722e-01 4.4200297e+01 1.0000000e-06
         vertex 2.6083582e+00 4.9453558e+01 1.0000000e-06
         vertex 4.0401154e+01 3.9560336e+01 1.0000000e-06
      endloop
   endfacet
   facet normal 0.0000000e+00 0.0000000e+00 -1.0000000e+00
      outer loop
         vertex 2.6083582e+00 4.9453558e+01 1.0000000e-06
         vertex 5.0525200e+00 5.4391668e+01 1.0000000e-06
         vertex 4.0401154e+01 3.9560336e+01 1.0000000e-06
      endloop
   endfacet
   facet normal 0.0000000e+00 0.0000000e+00 -1.0000000e+00
      outer loop
         vertex 5.0525200e+00 5.4391668e+01 1.0000000e-06
         vertex 8.2216279e+00 5.8898953e+01 1.0000000e-06
         vertex 4.0401154e+01 3.9560336e+01 1.0000000e-06
      endloop
   endfacet
   facet normal 0.0000000e+00 0.0000000e+00 -1.0000000e+00
      outer loop
         vertex 8.2216279e+00 5.8898953e+01 1.0000000e-06
         vertex 1.2041445e+01 6.2869828e+01 1.0000000e-06
         vertex 4.0401154e+01 3.9560336e+01 1.0000000e-06
      endloop
   endfacet
   facet normal 0.0000000e+00 0.0000000e+00 -1.0000000e+00
      outer loop
         vertex 1.2041445e+01 6.2869828e+01 1.0000000e-06
         vertex 1.6422493e+01 6.6211277e+01 1.0000000e-06
         vertex 4.1584499e+01 4.2942141e+01 1.0000000e-06
      endloop
   endfacet
   facet normal 0.0000000e+00 0.0000000e+00 -1.0000000e+00
      outer loop
         vertex 1.6422493e+01 6.6211277e+01 1.0000000e-06
         vertex 2.1262145e+01 6.8845025e+01 1.0000000e-06
         vertex 4.1584499e+01 4.2942141e+01 1.0000000e-06
      endloop
   endfacet
   facet normal 0.0000000e+00 0.0000000e+00 -1.0000000e+00
      outer loop
         vertex 2.1262145e+01 6.8845025e+01 1.0000000e-06
         vertex 2.6447032e+01 7.0709377e+01 1.0000000e-06
         vertex 4.3490697e+01 4.5975838e+01 1.0000000e-06
      endloop
   endfacet
   facet normal 0.0000000e+00 0.0000000e+00 -1.0000000e+00
      outer loop
         vertex 2.6447032e+01 7.0709377e+01 1.0000000e-06
         vertex 3.1855698e+01 7.1760660e+01 1.0000000e-06
         vertex 4.3490697e+01 4.5975838e+01 1.0000000e-06
      endloop
   endfacet
   facet normal 0.0000000e+00 0.0000000e+00 -1.0000000e+00
      outer loop
         vertex 3.1855698e+01 7.1760660e+01 1.0000000e-06
         vertex 3.7361444e+01 7.1974248e+01 1.0000000e-06
         vertex 4.3490697e+01 4.5975838e+01 1.0000000e-06
      endloop
   endfacet
   facet normal 0.0000000e+00 0.0000000e+00 -1.0000000e+00
      outer loop
         vertex 4.3490697e+01 4.5975838e+01 1.0000000e-06
         vertex 3.7361444e+01 7.1974248e+01 1.0000000e-06
         vertex 4.6024164e+01 4.8509305e+01 1.0000000e-06
      endloop
   endfacet
   facet normal 0.0000000e+00 0.0000000e+00 -1.0000000e+00
      outer loop
         vertex 4.2835298e+01 7.1345138e+01 1.0000000e-06
         vertex 4.8149035e+01 6.9888066e+01 1.0000000e-06
         vertex 4.9057861e+01 5.0415503e+01 1.0000000e-06
      endloop
   endfacet
   facet normal 0.0000000e+00 -0.0000000e+00 -1.0000000e+00
      outer loop
         vertex 4.8149035e+01 6.9888066e+01 1.0000000e-06
         vertex 5.3178180e+01 6.7637165e+01 1.0000000e-06
         vertex 4.9057861e+01 5.0415503e+01 1.0000000e-06
      endloop
   endfacet
   facet normal 0.0000000e+00 -0.0000000e+00 -1.0000000e+00
      outer loop
         vertex 4.9057861e+01 5.0415503e+01 1.0000000e-06
         vertex 5.3178180e+01 6.7637165e+01 1.0000000e-06
         vertex 5.2439666e+01 5.1598848e+01 1.0000000e-06
      endloop
   endfacet
   facet normal 0.0000000e+00 -0.0000000e+00 -1.0000000e+00
      outer loop
         vertex 5.7804926e+01 6.4645162e+01 1.0000000e-06
         vertex 6.1920890e+01 6.0982145e+01 1.0000000e-06
         vertex 5.6000001e+01 5.2000001e+01 1.0000000e-06
      endloop
   endfacet
   facet normal 0.0000000e+00 -0.0000000e+00 -1.0000000e+00
      outer loop
         vertex 6.1920890e+01 6.0982145e+01 1.0000000e-06
         vertex 6.5429657e+01 5.6733919e+01 1.0000000e-06
         vertex 5.6000001e+01 5.2000001e+01 1.0000000e-06
      endloop
   endfacet
endsolid AutoCAD
