solid AutoCAD
   facet normal 9.9270887e-01 1.2053668e-01 -4.5190725e-17
      outer loop
         vertex 4.9995458e+01 6.6743351e+01 2.4594820e+02
         vertex 4.9995458e+01 6.6743351e+01 8.5394800e+01
         vertex 4.8804200e+01 7.6554240e+01 2.4594820e+02
      endloop
   endfacet
   facet normal 9.3501624e-01 3.5460489e-01 4.2786849e-17
      outer loop
         vertex 4.9995458e+01 6.6743351e+01 8.5394800e+01
         vertex 4.9995458e+01 6.6743351e+01 2.4594820e+02
         vertex 5.3499999e+01 5.7502635e+01 8.5394800e+01
      endloop
   endfacet
   facet normal 8.2298387e-01 5.6806475e-01 7.7997430e-17
      outer loop
         vertex 5.9114153e+01 4.9369129e+01 2.4594820e+02
         vertex 5.9114153e+01 4.9369129e+01 8.5394800e+01
         vertex 5.3499999e+01 5.7502635e+01 2.4594820e+02
      endloop
   endfacet
   facet normal 6.6312266e-01 7.4851075e-01 1.4006177e-16
      outer loop
         vertex 5.9114153e+01 4.9369129e+01 8.5394800e+01
         vertex 5.9114153e+01 4.9369129e+01 2.4594820e+02
         vertex 6.6511645e+01 4.2815523e+01 8.5394800e+01
      endloop
   endfacet
   facet normal 4.6472317e-01 8.8545603e-01 7.8373220e-17
      outer loop
         vertex 7.5262560e+01 3.8222688e+01 2.4594820e+02
         vertex 7.5262560e+01 3.8222688e+01 8.5394800e+01
         vertex 6.6511645e+01 4.2815523e+01 2.4594820e+02
      endloop
   endfacet
   facet normal 2.3931566e-01 9.7094182e-01 8.5939713e-17
      outer loop
         vertex 7.5262560e+01 3.8222688e+01 8.5394800e+01
         vertex 7.5262560e+01 3.8222688e+01 2.4594820e+02
         vertex 8.4858326e+01 3.5857544e+01 8.5394800e+01
      endloop
   endfacet
   facet normal 0.0000000e+00 1.0000000e+00 8.8511702e-17
      outer loop
         vertex 9.4741273e+01 3.5857544e+01 2.4594820e+02
         vertex 9.4741273e+01 3.5857544e+01 8.5394800e+01
         vertex 8.4858326e+01 3.5857544e+01 2.4594820e+02
      endloop
   endfacet
   facet normal -2.3931566e-01 9.7094182e-01 1.4948642e-16
      outer loop
         vertex 9.4741273e+01 3.5857544e+01 8.5394800e+01
         vertex 9.4741273e+01 3.5857544e+01 2.4594820e+02
         vertex 1.0433704e+02 3.8222688e+01 8.5394800e+01
      endloop
   endfacet
   facet normal -4.6472317e-01 8.8545603e-01 8.0320049e-17
      outer loop
         vertex 1.1308796e+02 4.2815523e+01 2.4594820e+02
         vertex 1.1308796e+02 4.2815523e+01 8.5394800e+01
         vertex 1.0433704e+02 3.8222688e+01 2.4594820e+02
      endloop
   endfacet
   facet normal -6.6312266e-01 7.4851075e-01 9.1820095e-17
      outer loop
         vertex 1.1308796e+02 4.2815523e+01 8.5394800e+01
         vertex 1.1308796e+02 4.2815523e+01 2.4594820e+02
         vertex 1.2048545e+02 4.9369129e+01 8.5394800e+01
      endloop
   endfacet
   facet normal -8.2298387e-01 5.6806475e-01 -5.0280378e-17
      outer loop
         vertex 1.2609960e+02 5.7502635e+01 2.4594820e+02
         vertex 1.2609960e+02 5.7502635e+01 8.5394800e+01
         vertex 1.2048545e+02 4.9369129e+01 2.4594820e+02
      endloop
   endfacet
   facet normal -9.3501624e-01 3.5460489e-01 -3.1386682e-17
      outer loop
         vertex 1.2609960e+02 5.7502635e+01 8.5394800e+01
         vertex 1.2609960e+02 5.7502635e+01 2.4594820e+02
         vertex 1.2960414e+02 6.6743351e+01 8.5394800e+01
      endloop
   endfacet
   facet normal -9.9270887e-01 1.2053668e-01 1.0668907e-17
      outer loop
         vertex 1.3079540e+02 7.6554240e+01 2.4594820e+02
         vertex 1.3079540e+02 7.6554240e+01 8.5394800e+01
         vertex 1.2960414e+02 6.6743351e+01 2.4594820e+02
      endloop
   endfacet
   facet normal -9.9270887e-01 -1.2053668e-01 -1.0668907e-17
      outer loop
         vertex 1.3079540e+02 7.6554240e+01 8.5394800e+01
         vertex 1.3079540e+02 7.6554240e+01 2.4594820e+02
         vertex 1.2960414e+02 8.6365130e+01 8.5394800e+01
      endloop
   endfacet
   facet normal -9.3501624e-01 -3.5460489e-01 -3.1386682e-17
      outer loop
         vertex 1.2609960e+02 9.5605846e+01 2.4594820e+02
         vertex 1.2609960e+02 9.5605846e+01 8.5394800e+01
         vertex 1.2960414e+02 8.6365130e+01 2.4594820e+02
      endloop
   endfacet
   facet normal -8.2298387e-01 -5.6806475e-01 -5.0280378e-17
      outer loop
         vertex 1.2609960e+02 9.5605846e+01 8.5394800e+01
         vertex 1.2609960e+02 9.5605846e+01 2.4594820e+02
         vertex 1.2048545e+02 1.0373935e+02 8.5394800e+01
      endloop
   endfacet
   facet normal -6.6312266e-01 -7.4851075e-01 -6.6251960e-17
      outer loop
         vertex 1.1308796e+02 1.1029296e+02 2.4594820e+02
         vertex 1.1308796e+02 1.1029296e+02 8.5394800e+01
         vertex 1.2048545e+02 1.0373935e+02 2.4594820e+02
      endloop
   endfacet
   facet normal -4.6472317e-01 -8.8545603e-01 -7.8373220e-17
      outer loop
         vertex 1.1308796e+02 1.1029296e+02 8.5394800e+01
         vertex 1.1308796e+02 1.1029296e+02 2.4594820e+02
         vertex 1.0433704e+02 1.1488579e+02 8.5394800e+01
      endloop
   endfacet
   facet normal -2.3931566e-01 -9.7094182e-01 -1.7187943e-16
      outer loop
         vertex 9.4741273e+01 1.1725094e+02 2.4594820e+02
         vertex 9.4741273e+01 1.1725094e+02 8.5394800e+01
         vertex 1.0433704e+02 1.1488579e+02 2.4594820e+02
      endloop
   endfacet
   facet normal 0.0000000e+00 -1.0000000e+00 -1.7702340e-16
      outer loop
         vertex 9.4741273e+01 1.1725094e+02 8.5394800e+01
         vertex 9.4741273e+01 1.1725094e+02 2.4594820e+02
         vertex 8.4858326e+01 1.1725094e+02 8.5394800e+01
      endloop
   endfacet
   facet normal 2.3931566e-01 -9.7094182e-01 -6.4757476e-17
      outer loop
         vertex 7.5262560e+01 1.1488579e+02 2.4594820e+02
         vertex 7.5262560e+01 1.1488579e+02 8.5394800e+01
         vertex 8.4858326e+01 1.1725094e+02 2.4594820e+02
      endloop
   endfacet
   facet normal 4.6472317e-01 -8.8545603e-01 -3.7239781e-17
      outer loop
         vertex 7.5262560e+01 1.1488579e+02 8.5394800e+01
         vertex 7.5262560e+01 1.1488579e+02 2.4594820e+02
         vertex 6.6511645e+01 1.1029296e+02 8.5394800e+01
      endloop
   endfacet
   facet normal 6.6312266e-01 -7.4851075e-01 -7.3809806e-17
      outer loop
         vertex 5.9114153e+01 1.0373935e+02 2.4594820e+02
         vertex 5.9114153e+01 1.0373935e+02 8.5394800e+01
         vertex 6.6511645e+01 1.1029296e+02 2.4594820e+02
      endloop
   endfacet
   facet normal 8.2298387e-01 -5.6806475e-01 -2.7717053e-17
      outer loop
         vertex 5.9114153e+01 1.0373935e+02 8.5394800e+01
         vertex 5.9114153e+01 1.0373935e+02 2.4594820e+02
         vertex 5.3499999e+01 9.5605846e+01 8.5394800e+01
      endloop
   endfacet
   facet normal 9.3501624e-01 -3.5460489e-01 -9.4160046e-17
      outer loop
         vertex 4.9995458e+01 8.6365130e+01 2.4594820e+02
         vertex 4.9995458e+01 8.6365130e+01 8.5394800e+01
         vertex 5.3499999e+01 9.5605846e+01 2.4594820e+02
      endloop
   endfacet
   facet normal 9.9270887e-01 -1.2053668e-01 -3.2006720e-17
      outer loop
         vertex 4.9995458e+01 8.6365130e+01 8.5394800e+01
         vertex 4.9995458e+01 8.6365130e+01 2.4594820e+02
         vertex 4.8804200e+01 7.6554240e+01 8.5394800e+01
      endloop
   endfacet
   facet normal -9.9270887e-01 1.2053668e-01 -2.1337813e-17
      outer loop
         vertex 1.3079540e+02 7.6554240e+01 8.5394800e+01
         vertex 1.2960414e+02 6.6743351e+01 8.5394800e+01
         vertex 1.2960414e+02 6.6743351e+01 2.4594820e+02
      endloop
   endfacet
   facet normal -9.3501624e-01 3.5460489e-01 -6.2773364e-17
      outer loop
         vertex 1.2960414e+02 6.6743351e+01 2.4594820e+02
         vertex 1.2960414e+02 6.6743351e+01 8.5394800e+01
         vertex 1.2609960e+02 5.7502635e+01 2.4594820e+02
      endloop
   endfacet
   facet normal -8.2298387e-01 5.6806475e-01 7.2843703e-17
      outer loop
         vertex 1.2609960e+02 5.7502635e+01 8.5394800e+01
         vertex 1.2048545e+02 4.9369129e+01 8.5394800e+01
         vertex 1.2048545e+02 4.9369129e+01 2.4594820e+02
      endloop
   endfacet
   facet normal -6.6312266e-01 7.4851075e-01 5.8694115e-17
      outer loop
         vertex 1.2048545e+02 4.9369129e+01 2.4594820e+02
         vertex 1.2048545e+02 4.9369129e+01 8.5394800e+01
         vertex 1.1308796e+02 4.2815523e+01 2.4594820e+02
      endloop
   endfacet
   facet normal -4.6472317e-01 8.8545603e-01 7.8373220e-17
      outer loop
         vertex 1.1308796e+02 4.2815523e+01 8.5394800e+01
         vertex 1.0433704e+02 3.8222688e+01 8.5394800e+01
         vertex 1.0433704e+02 3.8222688e+01 2.4594820e+02
      endloop
   endfacet
   facet normal -2.3931566e-01 9.7094182e-01 8.5939713e-17
      outer loop
         vertex 1.0433704e+02 3.8222688e+01 2.4594820e+02
         vertex 1.0433704e+02 3.8222688e+01 8.5394800e+01
         vertex 9.4741273e+01 3.5857544e+01 2.4594820e+02
      endloop
   endfacet
   facet normal 0.0000000e+00 1.0000000e+00 8.8511702e-17
      outer loop
         vertex 9.4741273e+01 3.5857544e+01 8.5394800e+01
         vertex 8.4858326e+01 3.5857544e+01 8.5394800e+01
         vertex 8.4858326e+01 3.5857544e+01 2.4594820e+02
      endloop
   endfacet
   facet normal 2.3931566e-01 9.7094182e-01 2.2393003e-17
      outer loop
         vertex 8.4858326e+01 3.5857544e+01 2.4594820e+02
         vertex 8.4858326e+01 3.5857544e+01 8.5394800e+01
         vertex 7.5262560e+01 3.8222688e+01 2.4594820e+02
      endloop
   endfacet
   facet normal 4.6472317e-01 8.8545603e-01 7.6426391e-17
      outer loop
         vertex 7.5262560e+01 3.8222688e+01 8.5394800e+01
         vertex 6.6511645e+01 4.2815523e+01 8.5394800e+01
         vertex 6.6511645e+01 4.2815523e+01 2.4594820e+02
      endloop
   endfacet
   facet normal 6.6312266e-01 7.4851075e-01 4.0683825e-17
      outer loop
         vertex 6.6511645e+01 4.2815523e+01 2.4594820e+02
         vertex 6.6511645e+01 4.2815523e+01 8.5394800e+01
         vertex 5.9114153e+01 4.9369129e+01 2.4594820e+02
      endloop
   endfacet
   facet normal 8.2298387e-01 5.6806475e-01 5.2857241e-17
      outer loop
         vertex 5.9114153e+01 4.9369129e+01 8.5394800e+01
         vertex 5.3499999e+01 5.7502635e+01 8.5394800e+01
         vertex 5.3499999e+01 5.7502635e+01 2.4594820e+02
      endloop
   endfacet
   facet normal 9.3501624e-01 3.5460489e-01 -4.2931738e-18
      outer loop
         vertex 5.3499999e+01 5.7502635e+01 2.4594820e+02
         vertex 5.3499999e+01 5.7502635e+01 8.5394800e+01
         vertex 4.9995458e+01 6.6743351e+01 2.4594820e+02
      endloop
   endfacet
   facet normal 9.9270887e-01 1.2053668e-01 1.0668907e-17
      outer loop
         vertex 4.9995458e+01 6.6743351e+01 8.5394800e+01
         vertex 4.8804200e+01 7.6554240e+01 8.5394800e+01
         vertex 4.8804200e+01 7.6554240e+01 2.4594820e+02
      endloop
   endfacet
   facet normal 9.9270887e-01 -1.2053668e-01 -1.0668907e-17
      outer loop
         vertex 4.8804200e+01 7.6554240e+01 2.4594820e+02
         vertex 4.8804200e+01 7.6554240e+01 8.5394800e+01
         vertex 4.9995458e+01 8.6365130e+01 2.4594820e+02
      endloop
   endfacet
   facet normal 9.3501624e-01 -3.5460489e-01 -3.1386682e-17
      outer loop
         vertex 4.9995458e+01 8.6365130e+01 8.5394800e+01
         vertex 5.3499999e+01 9.5605846e+01 8.5394800e+01
         vertex 5.3499999e+01 9.5605846e+01 2.4594820e+02
      endloop
   endfacet
   facet normal 8.2298387e-01 -5.6806475e-01 -5.0280378e-17
      outer loop
         vertex 5.3499999e+01 9.5605846e+01 2.4594820e+02
         vertex 5.3499999e+01 9.5605846e+01 8.5394800e+01
         vertex 5.9114153e+01 1.0373935e+02 2.4594820e+02
      endloop
   endfacet
   facet normal 6.6312266e-01 -7.4851075e-01 0.0000000e+00
      outer loop
         vertex 5.9114153e+01 1.0373935e+02 8.5394800e+01
         vertex 6.6511645e+01 1.1029296e+02 8.5394800e+01
         vertex 6.6511645e+01 1.1029296e+02 2.4594820e+02
      endloop
   endfacet
   facet normal 4.6472317e-01 -8.8545603e-01 0.0000000e+00
      outer loop
         vertex 6.6511645e+01 1.1029296e+02 2.4594820e+02
         vertex 6.6511645e+01 1.1029296e+02 8.5394800e+01
         vertex 7.5262560e+01 1.1488579e+02 2.4594820e+02
      endloop
   endfacet
   facet normal 2.3931566e-01 -9.7094182e-01 -1.5069719e-16
      outer loop
         vertex 7.5262560e+01 1.1488579e+02 8.5394800e+01
         vertex 8.4858326e+01 1.1725094e+02 8.5394800e+01
         vertex 8.4858326e+01 1.1725094e+02 2.4594820e+02
      endloop
   endfacet
   facet normal 0.0000000e+00 -1.0000000e+00 -1.7702340e-16
      outer loop
         vertex 8.4858326e+01 1.1725094e+02 2.4594820e+02
         vertex 8.4858326e+01 1.1725094e+02 8.5394800e+01
         vertex 9.4741273e+01 1.1725094e+02 2.4594820e+02
      endloop
   endfacet
   facet normal -2.3931566e-01 -9.7094182e-01 -8.5939713e-17
      outer loop
         vertex 9.4741273e+01 1.1725094e+02 8.5394800e+01
         vertex 1.0433704e+02 1.1488579e+02 8.5394800e+01
         vertex 1.0433704e+02 1.1488579e+02 2.4594820e+02
      endloop
   endfacet
   facet normal -4.6472317e-01 -8.8545603e-01 -7.8373220e-17
      outer loop
         vertex 1.0433704e+02 1.1488579e+02 2.4594820e+02
         vertex 1.0433704e+02 1.1488579e+02 8.5394800e+01
         vertex 1.1308796e+02 1.1029296e+02 2.4594820e+02
      endloop
   endfacet
   facet normal -6.6312266e-01 -7.4851075e-01 -5.8694115e-17
      outer loop
         vertex 1.1308796e+02 1.1029296e+02 8.5394800e+01
         vertex 1.2048545e+02 1.0373935e+02 8.5394800e+01
         vertex 1.2048545e+02 1.0373935e+02 2.4594820e+02
      endloop
   endfacet
   facet normal -8.2298387e-01 -5.6806475e-01 -7.2843703e-17
      outer loop
         vertex 1.2048545e+02 1.0373935e+02 2.4594820e+02
         vertex 1.2048545e+02 1.0373935e+02 8.5394800e+01
         vertex 1.2609960e+02 9.5605846e+01 2.4594820e+02
      endloop
   endfacet
   facet normal -9.3501624e-01 -3.5460489e-01 -3.1386682e-17
      outer loop
         vertex 1.2609960e+02 9.5605846e+01 8.5394800e+01
         vertex 1.2960414e+02 8.6365130e+01 8.5394800e+01
         vertex 1.2960414e+02 8.6365130e+01 2.4594820e+02
      endloop
   endfacet
   facet normal -9.9270887e-01 -1.2053668e-01 -1.0668907e-17
      outer loop
         vertex 1.2960414e+02 8.6365130e+01 2.4594820e+02
         vertex 1.2960414e+02 8.6365130e+01 8.5394800e+01
         vertex 1.3079540e+02 7.6554240e+01 2.4594820e+02
      endloop
   endfacet
   facet normal 1.2803001e-15 -1.6173952e-16 1.0000000e+00
      outer loop
         vertex 5.3228992e+01 8.5944028e+01 6.0553600e+01
         vertex 5.2042786e+01 7.6554240e+01 6.0553600e+01
         vertex 5.7592600e+01 7.6554240e+01 6.0553600e+01
      endloop
   endfacet
   facet normal 1.2688724e-15 -1.6705022e-16 1.0000000e+00
      outer loop
         vertex 5.3228992e+01 8.5944028e+01 6.0553600e+01
         vertex 5.7592600e+01 7.6554240e+01 6.0553600e+01
         vertex 5.8690034e+01 8.4890077e+01 6.0553600e+01
      endloop
   endfacet
   facet normal 1.2087493e-15 -4.7857770e-16 1.0000000e+00
      outer loop
         vertex 5.3228992e+01 8.5944028e+01 6.0553600e+01
         vertex 5.8690034e+01 8.4890077e+01 6.0553600e+01
         vertex 5.6713077e+01 9.4743820e+01 6.0553600e+01
      endloop
   endfacet
   facet normal 1.2087493e-15 4.7857770e-16 1.0000000e+00
      outer loop
         vertex 5.6713077e+01 5.8364660e+01 6.0553600e+01
         vertex 5.8690034e+01 6.8218404e+01 6.0553600e+01
         vertex 5.3228992e+01 6.7164453e+01 6.0553600e+01
      endloop
   endfacet
   facet normal 1.1728009e-15 4.8579003e-16 1.0000000e+00
      outer loop
         vertex 5.8690034e+01 6.8218404e+01 6.0553600e+01
         vertex 5.6713077e+01 5.8364660e+01 6.0553600e+01
         vertex 6.1907547e+01 6.0450640e+01 6.0553600e+01
      endloop
   endfacet
   facet normal 4.1194738e-16 1.6757490e-15 1.0000000e+00
      outer loop
         vertex 6.9568580e+01 4.4674939e+01 6.0553600e+01
         vertex 6.7025870e+01 5.3780311e+01 6.0553600e+01
         vertex 6.2276121e+01 5.0707786e+01 6.0553600e+01
      endloop
   endfacet
   facet normal 1.5241743e-15 1.9863426e-15 1.0000000e+00
      outer loop
         vertex 6.7025870e+01 5.3780311e+01 6.0553600e+01
         vertex 6.9568580e+01 4.4674939e+01 6.0553600e+01
         vertex 7.3696200e+01 4.8661987e+01 6.0553600e+01
      endloop
   endfacet
   facet normal 2.4939664e-16 1.3073830e-15 1.0000000e+00
      outer loop
         vertex 8.7429017e+01 3.8871731e+01 6.0553600e+01
         vertex 8.1463963e+01 4.5444474e+01 6.0553600e+01
         vertex 7.8132241e+01 4.0645186e+01 6.0553600e+01
      endloop
   endfacet
   facet normal 1.6163435e-16 1.2277348e-15 1.0000000e+00
      outer loop
         vertex 8.1463963e+01 4.5444474e+01 6.0553600e+01
         vertex 8.7429017e+01 3.8871731e+01 6.0553600e+01
         vertex 8.9799800e+01 4.4347040e+01 6.0553600e+01
      endloop
   endfacet
   facet normal -4.1457771e-16 1.2759390e-15 1.0000000e+00
      outer loop
         vertex 1.0587595e+02 4.2390673e+01 6.0553600e+01
         vertex 9.8135637e+01 4.5444474e+01 6.0553600e+01
         vertex 9.6874759e+01 3.9466007e+01 6.0553600e+01
      endloop
   endfacet
   facet normal -2.3922313e-17 2.2661138e-15 1.0000000e+00
      outer loop
         vertex 9.8135637e+01 4.5444474e+01 6.0553600e+01
         vertex 1.0587595e+02 4.2390673e+01 6.0553600e+01
         vertex 1.0590340e+02 4.8661987e+01 6.0553600e+01
      endloop
   endfacet
   facet normal -1.0660167e-15 2.0309384e-15 1.0000000e+00
      outer loop
         vertex 1.2034587e+02 5.4361224e+01 6.0553600e+01
         vertex 1.1257373e+02 5.3780311e+01 6.0553600e+01
         vertex 1.1386703e+02 4.7461961e+01 6.0553600e+01
      endloop
   endfacet
   facet normal -9.6984075e-16 7.4418498e-16 1.0000000e+00
      outer loop
         vertex 1.1257373e+02 5.3780311e+01 6.0553600e+01
         vertex 1.2034587e+02 5.4361224e+01 6.0553600e+01
         vertex 1.1769205e+02 6.0450640e+01 6.0553600e+01
      endloop
   endfacet
   facet normal -1.3099330e-15 3.3633363e-16 1.0000000e+00
      outer loop
         vertex 1.2725909e+02 7.1822032e+01 6.0553600e+01
         vertex 1.2090957e+02 6.8218404e+01 6.0553600e+01
         vertex 1.2490538e+02 6.2654956e+01 6.0553600e+01
      endloop
   endfacet
   facet normal -1.2094148e-15 1.5922247e-16 1.0000000e+00
      outer loop
         vertex 1.2090957e+02 6.8218404e+01 6.0553600e+01
         vertex 1.2725909e+02 7.1822032e+01 6.0553600e+01
         vertex 1.2200700e+02 7.6554240e+01 6.0553600e+01
      endloop
   endfacet
   facet normal -1.3099330e-15 -3.3633363e-16 1.0000000e+00
      outer loop
         vertex 1.2490538e+02 9.0453524e+01 6.0553600e+01
         vertex 1.2090957e+02 8.4890077e+01 6.0553600e+01
         vertex 1.2725909e+02 8.1286449e+01 6.0553600e+01
      endloop
   endfacet
   facet normal -1.1277968e-15 -4.6714874e-16 1.0000000e+00
      outer loop
         vertex 1.2090957e+02 8.4890077e+01 6.0553600e+01
         vertex 1.2490538e+02 9.0453524e+01 6.0553600e+01
         vertex 1.1769205e+02 9.2657840e+01 6.0553600e+01
      endloop
   endfacet
   facet normal -9.0044211e-16 1.8431062e-16 1.0000000e+00
      outer loop
         vertex 1.1386703e+02 1.0564652e+02 6.0553600e+01
         vertex 1.1257373e+02 9.9328170e+01 6.0553600e+01
         vertex 1.2034587e+02 9.8747256e+01 6.0553600e+01
      endloop
   endfacet
   facet normal 0.0000000e+00 -0.0000000e+00 1.0000000e+00
      outer loop
         vertex 1.1257373e+02 9.9328170e+01 6.0553600e+01
         vertex 1.1386703e+02 1.0564652e+02 6.0553600e+01
         vertex 1.0590340e+02 1.0444649e+02 6.0553600e+01
      endloop
   endfacet
   facet normal -4.1457771e-16 -1.2759390e-15 1.0000000e+00
      outer loop
         vertex 9.6874759e+01 1.1364247e+02 6.0553600e+01
         vertex 9.8135637e+01 1.0766401e+02 6.0553600e+01
         vertex 1.0587595e+02 1.1071781e+02 6.0553600e+01
      endloop
   endfacet
   facet normal -1.6093801e-16 -1.2224456e-15 1.0000000e+00
      outer loop
         vertex 9.8135637e+01 1.0766401e+02 6.0553600e+01
         vertex 9.6874759e+01 1.1364247e+02 6.0553600e+01
         vertex 8.9799800e+01 1.0876144e+02 6.0553600e+01
      endloop
   endfacet
   facet normal 2.4939664e-16 -1.3073830e-15 1.0000000e+00
      outer loop
         vertex 7.8132241e+01 1.1246329e+02 6.0553600e+01
         vertex 8.1463963e+01 1.0766401e+02 6.0553600e+01
         vertex 8.7429017e+01 1.1423675e+02 6.0553600e+01
      endloop
   endfacet
   facet normal 1.1867350e-15 -6.5667160e-16 1.0000000e+00
      outer loop
         vertex 8.1463963e+01 1.0766401e+02 6.0553600e+01
         vertex 7.8132241e+01 1.1246329e+02 6.0553600e+01
         vertex 7.3696200e+01 1.0444649e+02 6.0553600e+01
      endloop
   endfacet
   facet normal 1.2670698e-15 -3.5383407e-16 1.0000000e+00
      outer loop
         vertex 6.2276121e+01 1.0240069e+02 6.0553600e+01
         vertex 6.7025870e+01 9.9328170e+01 6.0553600e+01
         vertex 6.9568580e+01 1.0843354e+02 6.0553600e+01
      endloop
   endfacet
   facet normal 9.9972521e-16 -7.6711613e-16 1.0000000e+00
      outer loop
         vertex 6.7025870e+01 9.9328170e+01 6.0553600e+01
         vertex 6.2276121e+01 1.0240069e+02 6.0553600e+01
         vertex 6.1907547e+01 9.2657840e+01 6.0553600e+01
      endloop
   endfacet
   facet normal -1.1277968e-15 4.6714874e-16 1.0000000e+00
      outer loop
         vertex 1.2090957e+02 6.8218404e+01 6.0553600e+01
         vertex 1.1769205e+02 6.0450640e+01 6.0553600e+01
         vertex 1.2490538e+02 6.2654956e+01 6.0553600e+01
      endloop
   endfacet
   facet normal -1.1839425e-15 6.5087788e-16 1.0000000e+00
      outer loop
         vertex 1.2490538e+02 6.2654956e+01 6.0553600e+01
         vertex 1.1769205e+02 6.0450640e+01 6.0553600e+01
         vertex 1.2034587e+02 5.4361224e+01 6.0553600e+01
      endloop
   endfacet
   facet normal -1.4915570e-15 1.9438349e-15 1.0000000e+00
      outer loop
         vertex 1.1257373e+02 5.3780311e+01 6.0553600e+01
         vertex 1.0590340e+02 4.8661987e+01 6.0553600e+01
         vertex 1.1386703e+02 4.7461961e+01 6.0553600e+01
      endloop
   endfacet
   facet normal -1.4420581e-15 2.2723200e-15 1.0000000e+00
      outer loop
         vertex 1.1386703e+02 4.7461961e+01 6.0553600e+01
         vertex 1.0590340e+02 4.8661987e+01 6.0553600e+01
         vertex 1.0587595e+02 4.2390673e+01 6.0553600e+01
      endloop
   endfacet
   facet normal -1.6093801e-16 1.2224456e-15 1.0000000e+00
      outer loop
         vertex 9.8135637e+01 4.5444474e+01 6.0553600e+01
         vertex 8.9799800e+01 4.4347040e+01 6.0553600e+01
         vertex 9.6874759e+01 3.9466007e+01 6.0553600e+01
      endloop
   endfacet
   facet normal -8.3932189e-17 1.3340639e-15 1.0000000e+00
      outer loop
         vertex 9.6874759e+01 3.9466007e+01 6.0553600e+01
         vertex 8.9799800e+01 4.4347040e+01 6.0553600e+01
         vertex 8.7429017e+01 3.8871731e+01 6.0553600e+01
      endloop
   endfacet
   facet normal -2.3415172e-16 1.6430679e-15 1.0000000e+00
      outer loop
         vertex 8.1463963e+01 4.5444474e+01 6.0553600e+01
         vertex 7.3696200e+01 4.8661987e+01 6.0553600e+01
         vertex 7.8132241e+01 4.0645186e+01 6.0553600e+01
      endloop
   endfacet
   facet normal 1.1277984e-15 2.3966936e-15 1.0000000e+00
      outer loop
         vertex 7.8132241e+01 4.0645186e+01 6.0553600e+01
         vertex 7.3696200e+01 4.8661987e+01 6.0553600e+01
         vertex 6.9568580e+01 4.4674939e+01 6.0553600e+01
      endloop
   endfacet
   facet normal 9.9972521e-16 7.6711613e-16 1.0000000e+00
      outer loop
         vertex 6.7025870e+01 5.3780311e+01 6.0553600e+01
         vertex 6.1907547e+01 6.0450640e+01 6.0553600e+01
         vertex 6.2276121e+01 5.0707786e+01 6.0553600e+01
      endloop
   endfacet
   facet normal 1.0589274e-15 7.6935577e-16 1.0000000e+00
      outer loop
         vertex 6.2276121e+01 5.0707786e+01 6.0553600e+01
         vertex 6.1907547e+01 6.0450640e+01 6.0553600e+01
         vertex 5.6713077e+01 5.8364660e+01 6.0553600e+01
      endloop
   endfacet
   facet normal 1.2688724e-15 1.6705022e-16 1.0000000e+00
      outer loop
         vertex 5.8690034e+01 6.8218404e+01 6.0553600e+01
         vertex 5.7592600e+01 7.6554240e+01 6.0553600e+01
         vertex 5.3228992e+01 6.7164453e+01 6.0553600e+01
      endloop
   endfacet
   facet normal 1.1728009e-15 -4.8579003e-16 1.0000000e+00
      outer loop
         vertex 5.8690034e+01 8.4890077e+01 6.0553600e+01
         vertex 6.1907547e+01 9.2657840e+01 6.0553600e+01
         vertex 5.6713077e+01 9.4743820e+01 6.0553600e+01
      endloop
   endfacet
   facet normal 1.0589274e-15 -7.6935577e-16 1.0000000e+00
      outer loop
         vertex 5.6713077e+01 9.4743820e+01 6.0553600e+01
         vertex 6.1907547e+01 9.2657840e+01 6.0553600e+01
         vertex 6.2276121e+01 1.0240069e+02 6.0553600e+01
      endloop
   endfacet
   facet normal 0.0000000e+00 -0.0000000e+00 1.0000000e+00
      outer loop
         vertex 6.7025870e+01 9.9328170e+01 6.0553600e+01
         vertex 7.3696200e+01 1.0444649e+02 6.0553600e+01
         vertex 6.9568580e+01 1.0843354e+02 6.0553600e+01
      endloop
   endfacet
   facet normal -0.0000000e+00 0.0000000e+00 1.0000000e+00
      outer loop
         vertex 6.9568580e+01 1.0843354e+02 6.0553600e+01
         vertex 7.3696200e+01 1.0444649e+02 6.0553600e+01
         vertex 7.8132241e+01 1.1246329e+02 6.0553600e+01
      endloop
   endfacet
   facet normal 1.6163435e-16 -1.2277348e-15 1.0000000e+00
      outer loop
         vertex 8.1463963e+01 1.0766401e+02 6.0553600e+01
         vertex 8.9799800e+01 1.0876144e+02 6.0553600e+01
         vertex 8.7429017e+01 1.1423675e+02 6.0553600e+01
      endloop
   endfacet
   facet normal -8.3932189e-17 -1.3340639e-15 1.0000000e+00
      outer loop
         vertex 8.7429017e+01 1.1423675e+02 6.0553600e+01
         vertex 8.9799800e+01 1.0876144e+02 6.0553600e+01
         vertex 9.6874759e+01 1.1364247e+02 6.0553600e+01
      endloop
   endfacet
   facet normal -9.1639392e-16 -4.0104510e-18 1.0000000e+00
      outer loop
         vertex 9.8135637e+01 1.0766401e+02 6.0553600e+01
         vertex 1.0590340e+02 1.0444649e+02 6.0553600e+01
         vertex 1.0587595e+02 1.1071781e+02 6.0553600e+01
      endloop
   endfacet
   facet normal -0.0000000e+00 0.0000000e+00 1.0000000e+00
      outer loop
         vertex 1.0587595e+02 1.1071781e+02 6.0553600e+01
         vertex 1.0590340e+02 1.0444649e+02 6.0553600e+01
         vertex 1.1386703e+02 1.0564652e+02 6.0553600e+01
      endloop
   endfacet
   facet normal -9.6984075e-16 -7.4418498e-16 1.0000000e+00
      outer loop
         vertex 1.1257373e+02 9.9328170e+01 6.0553600e+01
         vertex 1.1769205e+02 9.2657840e+01 6.0553600e+01
         vertex 1.2034587e+02 9.8747256e+01 6.0553600e+01
      endloop
   endfacet
   facet normal -1.1839425e-15 -6.5087788e-16 1.0000000e+00
      outer loop
         vertex 1.2034587e+02 9.8747256e+01 6.0553600e+01
         vertex 1.1769205e+02 9.2657840e+01 6.0553600e+01
         vertex 1.2490538e+02 9.0453524e+01 6.0553600e+01
      endloop
   endfacet
   facet normal -1.2094148e-15 -1.5922247e-16 1.0000000e+00
      outer loop
         vertex 1.2090957e+02 8.4890077e+01 6.0553600e+01
         vertex 1.2200700e+02 7.6554240e+01 6.0553600e+01
         vertex 1.2725909e+02 8.1286449e+01 6.0553600e+01
      endloop
   endfacet
   facet normal 1.2803001e-15 1.6173952e-16 1.0000000e+00
      outer loop
         vertex 5.7592600e+01 7.6554240e+01 6.0553600e+01
         vertex 5.2042786e+01 7.6554240e+01 6.0553600e+01
         vertex 5.3228992e+01 6.7164453e+01 6.0553600e+01
      endloop
   endfacet
   facet normal -1.3528765e-15 0.0000000e+00 1.0000000e+00
      outer loop
         vertex 1.2725909e+02 8.1286449e+01 6.0553600e+01
         vertex 1.2200700e+02 7.6554240e+01 6.0553600e+01
         vertex 1.2725909e+02 7.1822032e+01 6.0553600e+01
      endloop
   endfacet
   facet normal 9.8367610e-01 -1.2426719e-01 1.3014990e-01
      outer loop
         vertex 5.3228992e+01 8.5944028e+01 6.0553600e+01
         vertex 4.9995458e+01 8.6365130e+01 8.5394800e+01
         vertex 5.2042786e+01 7.6554240e+01 6.0553600e+01
      endloop
   endfacet
   facet normal 9.2748205e-01 -3.5174754e-01 1.2669141e-01
      outer loop
         vertex 4.9995458e+01 8.6365130e+01 8.5394800e+01
         vertex 5.3228992e+01 8.5944028e+01 6.0553600e+01
         vertex 5.3499999e+01 9.5605846e+01 8.5394800e+01
      endloop
   endfacet
   facet normal 8.0178099e-01 -5.8252798e-01 1.3344812e-01
      outer loop
         vertex 6.2276121e+01 1.0240069e+02 6.0553600e+01
         vertex 5.9114153e+01 1.0373935e+02 8.5394800e+01
         vertex 5.6713077e+01 9.4743820e+01 6.0553600e+01
      endloop
   endfacet
   facet normal 6.5802272e-01 -7.4275410e-01 1.2378387e-01
      outer loop
         vertex 5.9114153e+01 1.0373935e+02 8.5394800e+01
         vertex 6.2276121e+01 1.0240069e+02 6.0553600e+01
         vertex 6.6511645e+01 1.1029296e+02 8.5394800e+01
      endloop
   endfacet
   facet normal 4.2181482e-01 -8.9640213e-01 1.3614504e-01
      outer loop
         vertex 7.8132241e+01 1.1246329e+02 6.0553600e+01
         vertex 7.5262560e+01 1.1488579e+02 8.5394800e+01
         vertex 6.9568580e+01 1.0843354e+02 6.0553600e+01
      endloop
   endfacet
   facet normal 2.3754483e-01 -9.6375727e-01 1.2142641e-01
      outer loop
         vertex 7.5262560e+01 1.1488579e+02 8.5394800e+01
         vertex 7.8132241e+01 1.1246329e+02 6.0553600e+01
         vertex 8.4858326e+01 1.1725094e+02 8.5394800e+01
      endloop
   endfacet
   facet normal -6.2187639e-02 -9.8844421e-01 1.3824161e-01
      outer loop
         vertex 9.6874759e+01 1.1364247e+02 6.0553600e+01
         vertex 9.4741273e+01 1.1725094e+02 8.5394800e+01
         vertex 8.7429017e+01 1.1423675e+02 6.0553600e+01
      endloop
   endfacet
   facet normal -2.3759728e-01 -9.6397005e-01 1.1962142e-01
      outer loop
         vertex 9.4741273e+01 1.1725094e+02 8.5394800e+01
         vertex 9.6874759e+01 1.1364247e+02 6.0553600e+01
         vertex 1.0433704e+02 1.1488579e+02 8.5394800e+01
      endloop
   endfacet
   facet normal -5.3056949e-01 -8.3604374e-01 1.3973859e-01
      outer loop
         vertex 1.1386703e+02 1.0564652e+02 6.0553600e+01
         vertex 1.1308796e+02 1.1029296e+02 8.5394800e+01
         vertex 1.0587595e+02 1.1071781e+02 6.0553600e+01
      endloop
   endfacet
   facet normal -6.5846056e-01 -7.4324833e-01 1.1837068e-01
      outer loop
         vertex 1.1308796e+02 1.1029296e+02 8.5394800e+01
         vertex 1.1386703e+02 1.0564652e+02 6.0553600e+01
         vertex 1.2048545e+02 1.0373935e+02 8.5394800e+01
      endloop
   endfacet
   facet normal -8.6759733e-01 -4.7696567e-01 1.4063653e-01
      outer loop
         vertex 1.2490538e+02 9.0453524e+01 6.0553600e+01
         vertex 1.2609960e+02 9.5605846e+01 8.5394800e+01
         vertex 1.2034587e+02 9.8747256e+01 6.0553600e+01
      endloop
   endfacet
   facet normal -9.2851985e-01 -3.5214113e-01 1.1767543e-01
      outer loop
         vertex 1.2609960e+02 9.5605846e+01 8.5394800e+01
         vertex 1.2490538e+02 9.0453524e+01 6.0553600e+01
         vertex 1.2960414e+02 8.6365130e+01 8.5394800e+01
      endloop
   endfacet
   facet normal -9.9001874e-01 0.0000000e+00 1.4093581e-01
      outer loop
         vertex 1.2725909e+02 7.1822032e+01 6.0553600e+01
         vertex 1.3079540e+02 7.6554240e+01 8.5394800e+01
         vertex 1.2725909e+02 8.1286449e+01 6.0553600e+01
      endloop
   endfacet
   facet normal -9.8582799e-01 1.1970119e-01 1.1753635e-01
      outer loop
         vertex 1.3079540e+02 7.6554240e+01 8.5394800e+01
         vertex 1.2725909e+02 7.1822032e+01 6.0553600e+01
         vertex 1.2960414e+02 6.6743351e+01 8.5394800e+01
      endloop
   endfacet
   facet normal -8.6759733e-01 4.7696567e-01 1.4063653e-01
      outer loop
         vertex 1.2034587e+02 5.4361224e+01 6.0553600e+01
         vertex 1.2609960e+02 5.7502635e+01 8.5394800e+01
         vertex 1.2490538e+02 6.2654956e+01 6.0553600e+01
      endloop
   endfacet
   facet normal -8.1723871e-01 5.6409915e-01 1.1795356e-01
      outer loop
         vertex 1.2609960e+02 5.7502635e+01 8.5394800e+01
         vertex 1.2034587e+02 5.4361224e+01 6.0553600e+01
         vertex 1.2048545e+02 4.9369129e+01 8.5394800e+01
      endloop
   endfacet
   facet normal -5.3056949e-01 8.3604374e-01 1.3973859e-01
      outer loop
         vertex 1.0587595e+02 4.2390673e+01 6.0553600e+01
         vertex 1.1308796e+02 4.2815523e+01 8.5394800e+01
         vertex 1.1386703e+02 4.7461961e+01 6.0553600e+01
      endloop
   endfacet
   facet normal -4.6142505e-01 8.7917198e-01 1.1892668e-01
      outer loop
         vertex 1.1308796e+02 4.2815523e+01 8.5394800e+01
         vertex 1.0587595e+02 4.2390673e+01 6.0553600e+01
         vertex 1.0433704e+02 3.8222688e+01 8.5394800e+01
      endloop
   endfacet
   facet normal -6.2187639e-02 9.8844421e-01 1.3824161e-01
      outer loop
         vertex 8.7429017e+01 3.8871731e+01 6.0553600e+01
         vertex 9.4741273e+01 3.5857544e+01 8.5394800e+01
         vertex 9.6874759e+01 3.9466007e+01 6.0553600e+01
      endloop
   endfacet
   facet normal 0.0000000e+00 9.9271882e-01 1.2045473e-01
      outer loop
         vertex 9.4741273e+01 3.5857544e+01 8.5394800e+01
         vertex 8.7429017e+01 3.8871731e+01 6.0553600e+01
         vertex 8.4858326e+01 3.5857544e+01 8.5394800e+01
      endloop
   endfacet
   facet normal 4.2181482e-01 8.9640213e-01 1.3614504e-01
      outer loop
         vertex 6.9568580e+01 4.4674939e+01 6.0553600e+01
         vertex 7.5262560e+01 3.8222688e+01 8.5394800e+01
         vertex 7.8132241e+01 4.0645186e+01 6.0553600e+01
      endloop
   endfacet
   facet normal 4.6122104e-01 8.7878327e-01 1.2253622e-01
      outer loop
         vertex 7.5262560e+01 3.8222688e+01 8.5394800e+01
         vertex 6.9568580e+01 4.4674939e+01 6.0553600e+01
         vertex 6.6511645e+01 4.2815523e+01 8.5394800e+01
      endloop
   endfacet
   facet normal 8.0178099e-01 5.8252798e-01 1.3344812e-01
      outer loop
         vertex 5.6713077e+01 5.8364660e+01 6.0553600e+01
         vertex 5.9114153e+01 4.9369129e+01 8.5394800e+01
         vertex 6.2276121e+01 5.0707786e+01 6.0553600e+01
      endloop
   endfacet
   facet normal 8.1651145e-01 5.6359716e-01 1.2516906e-01
      outer loop
         vertex 5.9114153e+01 4.9369129e+01 8.5394800e+01
         vertex 5.6713077e+01 5.8364660e+01 6.0553600e+01
         vertex 5.3499999e+01 5.7502635e+01 8.5394800e+01
      endloop
   endfacet
   facet normal 9.8367610e-01 1.2426719e-01 1.3014990e-01
      outer loop
         vertex 5.2042786e+01 7.6554240e+01 6.0553600e+01
         vertex 4.9995458e+01 6.6743351e+01 8.5394800e+01
         vertex 5.3228992e+01 6.7164453e+01 6.0553600e+01
      endloop
   endfacet
   facet normal -9.8582799e-01 -1.1970119e-01 1.1753635e-01
      outer loop
         vertex 1.3079540e+02 7.6554240e+01 8.5394800e+01
         vertex 1.2960414e+02 8.6365130e+01 8.5394800e+01
         vertex 1.2725909e+02 8.1286449e+01 6.0553600e+01
      endloop
   endfacet
   facet normal -9.5892579e-01 -2.4621030e-01 1.4086099e-01
      outer loop
         vertex 1.2725909e+02 8.1286449e+01 6.0553600e+01
         vertex 1.2960414e+02 8.6365130e+01 8.5394800e+01
         vertex 1.2490538e+02 9.0453524e+01 6.0553600e+01
      endloop
   endfacet
   facet normal -8.1723871e-01 -5.6409915e-01 1.1795356e-01
      outer loop
         vertex 1.2609960e+02 9.5605846e+01 8.5394800e+01
         vertex 1.2048545e+02 1.0373935e+02 8.5394800e+01
         vertex 1.2034587e+02 9.8747256e+01 6.0553600e+01
      endloop
   endfacet
   facet normal -7.2176231e-01 -6.7777992e-01 1.4026241e-01
      outer loop
         vertex 1.2034587e+02 9.8747256e+01 6.0553600e+01
         vertex 1.2048545e+02 1.0373935e+02 8.5394800e+01
         vertex 1.1386703e+02 1.0564652e+02 6.0553600e+01
      endloop
   endfacet
   facet normal -4.6142505e-01 -8.7917198e-01 1.1892668e-01
      outer loop
         vertex 1.1308796e+02 1.1029296e+02 8.5394800e+01
         vertex 1.0433704e+02 1.1488579e+02 8.5394800e+01
         vertex 1.0587595e+02 1.1071781e+02 6.0553600e+01
      endloop
   endfacet
   facet normal -3.0601435e-01 -9.4181534e-01 1.3906501e-01
      outer loop
         vertex 1.0587595e+02 1.1071781e+02 6.0553600e+01
         vertex 1.0433704e+02 1.1488579e+02 8.5394800e+01
         vertex 9.6874759e+01 1.1364247e+02 6.0553600e+01
      endloop
   endfacet
   facet normal 0.0000000e+00 -9.9271882e-01 1.2045473e-01
      outer loop
         vertex 9.4741273e+01 1.1725094e+02 8.5394800e+01
         vertex 8.4858326e+01 1.1725094e+02 8.5394800e+01
         vertex 8.7429017e+01 1.1423675e+02 6.0553600e+01
      endloop
   endfacet
   facet normal 1.8560754e-01 -9.7298882e-01 1.3726832e-01
      outer loop
         vertex 8.7429017e+01 1.1423675e+02 6.0553600e+01
         vertex 8.4858326e+01 1.1725094e+02 8.5394800e+01
         vertex 7.8132241e+01 1.1246329e+02 6.0553600e+01
      endloop
   endfacet
   facet normal 4.6122104e-01 -8.7878327e-01 1.2253622e-01
      outer loop
         vertex 7.5262560e+01 1.1488579e+02 8.5394800e+01
         vertex 6.6511645e+01 1.1029296e+02 8.5394800e+01
         vertex 6.9568580e+01 1.0843354e+02 6.0553600e+01
      endloop
   endfacet
   facet normal 6.3159989e-01 -7.6347312e-01 1.3487168e-01
      outer loop
         vertex 6.9568580e+01 1.0843354e+02 6.0553600e+01
         vertex 6.6511645e+01 1.1029296e+02 8.5394800e+01
         vertex 6.2276121e+01 1.0240069e+02 6.0553600e+01
      endloop
   endfacet
   facet normal 8.1651145e-01 -5.6359716e-01 1.2516906e-01
      outer loop
         vertex 5.9114153e+01 1.0373935e+02 8.5394800e+01
         vertex 5.3499999e+01 9.5605846e+01 8.5394800e+01
         vertex 5.6713077e+01 9.4743820e+01 6.0553600e+01
      endloop
   endfacet
   facet normal 9.2165624e-01 -3.6490952e-01 1.3187423e-01
      outer loop
         vertex 5.6713077e+01 9.4743820e+01 6.0553600e+01
         vertex 5.3499999e+01 9.5605846e+01 8.5394800e+01
         vertex 5.3228992e+01 8.5944028e+01 6.0553600e+01
      endloop
   endfacet
   facet normal 9.8449804e-01 -1.1953970e-01 1.2835055e-01
      outer loop
         vertex 4.9995458e+01 8.6365130e+01 8.5394800e+01
         vertex 4.8804200e+01 7.6554240e+01 8.5394800e+01
         vertex 5.2042786e+01 7.6554240e+01 6.0553600e+01
      endloop
   endfacet
   facet normal 9.8449804e-01 1.1953970e-01 1.2835055e-01
      outer loop
         vertex 4.8804200e+01 7.6554240e+01 8.5394800e+01
         vertex 4.9995458e+01 6.6743351e+01 8.5394800e+01
         vertex 5.2042786e+01 7.6554240e+01 6.0553600e+01
      endloop
   endfacet
   facet normal 9.2748205e-01 3.5174754e-01 1.2669141e-01
      outer loop
         vertex 4.9995458e+01 6.6743351e+01 8.5394800e+01
         vertex 5.3499999e+01 5.7502635e+01 8.5394800e+01
         vertex 5.3228992e+01 6.7164453e+01 6.0553600e+01
      endloop
   endfacet
   facet normal 9.2165624e-01 3.6490952e-01 1.3187423e-01
      outer loop
         vertex 5.3228992e+01 6.7164453e+01 6.0553600e+01
         vertex 5.3499999e+01 5.7502635e+01 8.5394800e+01
         vertex 5.6713077e+01 5.8364660e+01 6.0553600e+01
      endloop
   endfacet
   facet normal 6.5802272e-01 7.4275410e-01 1.2378387e-01
      outer loop
         vertex 5.9114153e+01 4.9369129e+01 8.5394800e+01
         vertex 6.6511645e+01 4.2815523e+01 8.5394800e+01
         vertex 6.2276121e+01 5.0707786e+01 6.0553600e+01
      endloop
   endfacet
   facet normal 6.3159989e-01 7.6347312e-01 1.3487168e-01
      outer loop
         vertex 6.2276121e+01 5.0707786e+01 6.0553600e+01
         vertex 6.6511645e+01 4.2815523e+01 8.5394800e+01
         vertex 6.9568580e+01 4.4674939e+01 6.0553600e+01
      endloop
   endfacet
   facet normal 2.3754483e-01 9.6375727e-01 1.2142641e-01
      outer loop
         vertex 7.5262560e+01 3.8222688e+01 8.5394800e+01
         vertex 8.4858326e+01 3.5857544e+01 8.5394800e+01
         vertex 7.8132241e+01 4.0645186e+01 6.0553600e+01
      endloop
   endfacet
   facet normal 1.8560754e-01 9.7298882e-01 1.3726832e-01
      outer loop
         vertex 7.8132241e+01 4.0645186e+01 6.0553600e+01
         vertex 8.4858326e+01 3.5857544e+01 8.5394800e+01
         vertex 8.7429017e+01 3.8871731e+01 6.0553600e+01
      endloop
   endfacet
   facet normal -2.3759728e-01 9.6397005e-01 1.1962142e-01
      outer loop
         vertex 9.4741273e+01 3.5857544e+01 8.5394800e+01
         vertex 1.0433704e+02 3.8222688e+01 8.5394800e+01
         vertex 9.6874759e+01 3.9466007e+01 6.0553600e+01
      endloop
   endfacet
   facet normal -3.0601435e-01 9.4181534e-01 1.3906501e-01
      outer loop
         vertex 9.6874759e+01 3.9466007e+01 6.0553600e+01
         vertex 1.0433704e+02 3.8222688e+01 8.5394800e+01
         vertex 1.0587595e+02 4.2390673e+01 6.0553600e+01
      endloop
   endfacet
   facet normal -6.5846056e-01 7.4324833e-01 1.1837068e-01
      outer loop
         vertex 1.1308796e+02 4.2815523e+01 8.5394800e+01
         vertex 1.2048545e+02 4.9369129e+01 8.5394800e+01
         vertex 1.1386703e+02 4.7461961e+01 6.0553600e+01
      endloop
   endfacet
   facet normal -7.2176231e-01 6.7777992e-01 1.4026241e-01
      outer loop
         vertex 1.1386703e+02 4.7461961e+01 6.0553600e+01
         vertex 1.2048545e+02 4.9369129e+01 8.5394800e+01
         vertex 1.2034587e+02 5.4361224e+01 6.0553600e+01
      endloop
   endfacet
   facet normal -9.2851985e-01 3.5214113e-01 1.1767543e-01
      outer loop
         vertex 1.2609960e+02 5.7502635e+01 8.5394800e+01
         vertex 1.2960414e+02 6.6743351e+01 8.5394800e+01
         vertex 1.2490538e+02 6.2654956e+01 6.0553600e+01
      endloop
   endfacet
   facet normal -9.5892579e-01 2.4621030e-01 1.4086099e-01
      outer loop
         vertex 1.2490538e+02 6.2654956e+01 6.0553600e+01
         vertex 1.2960414e+02 6.6743351e+01 8.5394800e+01
         vertex 1.2725909e+02 7.1822032e+01 6.0553600e+01
      endloop
   endfacet
   facet normal 9.8310318e-01 -1.2942799e-01 1.2944702e-01
      outer loop
         vertex 6.2505260e+01 8.3867790e+01 3.0556200e+01
         vertex 5.8690034e+01 8.4890077e+01 6.0553600e+01
         vertex 6.1542413e+01 7.6554240e+01 3.0556200e+01
      endloop
   endfacet
   facet normal 9.1610632e-01 -3.7946366e-01 1.2944702e-01
      outer loop
         vertex 5.8690034e+01 8.4890077e+01 6.0553600e+01
         vertex 6.2505260e+01 8.3867790e+01 3.0556200e+01
         vertex 6.1907547e+01 9.2657840e+01 6.0553600e+01
      endloop
   endfacet
   facet normal 7.8667833e-01 -6.0363952e-01 1.2944702e-01
      outer loop
         vertex 6.9818810e+01 9.6535230e+01 3.0556200e+01
         vertex 6.7025870e+01 9.9328170e+01 6.0553600e+01
         vertex 6.5328185e+01 9.0682934e+01 3.0556200e+01
      endloop
   endfacet
   facet normal 6.0363952e-01 -7.8667833e-01 1.2944702e-01
      outer loop
         vertex 6.7025870e+01 9.9328170e+01 6.0553600e+01
         vertex 6.9818810e+01 9.6535230e+01 3.0556200e+01
         vertex 7.3696200e+01 1.0444649e+02 6.0553600e+01
      endloop
   endfacet
   facet normal 3.7946366e-01 -9.1610632e-01 1.2944702e-01
      outer loop
         vertex 8.2486250e+01 1.0384878e+02 3.0556200e+01
         vertex 8.1463963e+01 1.0766401e+02 6.0553600e+01
         vertex 7.5671107e+01 1.0102585e+02 3.0556200e+01
      endloop
   endfacet
   facet normal 1.2942799e-01 -9.8310318e-01 1.2944702e-01
      outer loop
         vertex 8.1463963e+01 1.0766401e+02 6.0553600e+01
         vertex 8.2486250e+01 1.0384878e+02 3.0556200e+01
         vertex 8.9799800e+01 1.0876144e+02 6.0553600e+01
      endloop
   endfacet
   facet normal -1.2942799e-01 -9.8310318e-01 1.2944702e-01
      outer loop
         vertex 9.7113350e+01 1.0384878e+02 3.0556200e+01
         vertex 9.8135637e+01 1.0766401e+02 6.0553600e+01
         vertex 8.9799800e+01 1.0481163e+02 3.0556200e+01
      endloop
   endfacet
   facet normal -3.7946366e-01 -9.1610632e-01 1.2944702e-01
      outer loop
         vertex 9.8135637e+01 1.0766401e+02 6.0553600e+01
         vertex 9.7113350e+01 1.0384878e+02 3.0556200e+01
         vertex 1.0590340e+02 1.0444649e+02 6.0553600e+01
      endloop
   endfacet
   facet normal -6.0363952e-01 -7.8667833e-01 1.2944702e-01
      outer loop
         vertex 1.0978079e+02 9.6535230e+01 3.0556200e+01
         vertex 1.1257373e+02 9.9328170e+01 6.0553600e+01
         vertex 1.0392849e+02 1.0102585e+02 3.0556200e+01
      endloop
   endfacet
   facet normal -7.8667833e-01 -6.0363952e-01 1.2944702e-01
      outer loop
         vertex 1.1257373e+02 9.9328170e+01 6.0553600e+01
         vertex 1.0978079e+02 9.6535230e+01 3.0556200e+01
         vertex 1.1769205e+02 9.2657840e+01 6.0553600e+01
      endloop
   endfacet
   facet normal -9.1610632e-01 -3.7946366e-01 1.2944702e-01
      outer loop
         vertex 1.1709434e+02 8.3867790e+01 3.0556200e+01
         vertex 1.2090957e+02 8.4890077e+01 6.0553600e+01
         vertex 1.1427141e+02 9.0682934e+01 3.0556200e+01
      endloop
   endfacet
   facet normal -9.8310318e-01 -1.2942799e-01 1.2944702e-01
      outer loop
         vertex 1.2090957e+02 8.4890077e+01 6.0553600e+01
         vertex 1.1709434e+02 8.3867790e+01 3.0556200e+01
         vertex 1.2200700e+02 7.6554240e+01 6.0553600e+01
      endloop
   endfacet
   facet normal -9.8310318e-01 1.2942799e-01 1.2944702e-01
      outer loop
         vertex 1.1709434e+02 6.9240690e+01 3.0556200e+01
         vertex 1.2090957e+02 6.8218404e+01 6.0553600e+01
         vertex 1.1805719e+02 7.6554240e+01 3.0556200e+01
      endloop
   endfacet
   facet normal -9.1610632e-01 3.7946366e-01 1.2944702e-01
      outer loop
         vertex 1.2090957e+02 6.8218404e+01 6.0553600e+01
         vertex 1.1709434e+02 6.9240690e+01 3.0556200e+01
         vertex 1.1769205e+02 6.0450640e+01 6.0553600e+01
      endloop
   endfacet
   facet normal -7.8667833e-01 6.0363952e-01 1.2944702e-01
      outer loop
         vertex 1.0978079e+02 5.6573251e+01 3.0556200e+01
         vertex 1.1257373e+02 5.3780311e+01 6.0553600e+01
         vertex 1.1427141e+02 6.2425547e+01 3.0556200e+01
      endloop
   endfacet
   facet normal -6.0363952e-01 7.8667833e-01 1.2944702e-01
      outer loop
         vertex 1.1257373e+02 5.3780311e+01 6.0553600e+01
         vertex 1.0978079e+02 5.6573251e+01 3.0556200e+01
         vertex 1.0590340e+02 4.8661987e+01 6.0553600e+01
      endloop
   endfacet
   facet normal -3.7946366e-01 9.1610632e-01 1.2944702e-01
      outer loop
         vertex 9.7113350e+01 4.9259701e+01 3.0556200e+01
         vertex 9.8135637e+01 4.5444474e+01 6.0553600e+01
         vertex 1.0392849e+02 5.2082626e+01 3.0556200e+01
      endloop
   endfacet
   facet normal -1.2942799e-01 9.8310318e-01 1.2944702e-01
      outer loop
         vertex 9.8135637e+01 4.5444474e+01 6.0553600e+01
         vertex 9.7113350e+01 4.9259701e+01 3.0556200e+01
         vertex 8.9799800e+01 4.4347040e+01 6.0553600e+01
      endloop
   endfacet
   facet normal 1.2942799e-01 9.8310318e-01 1.2944702e-01
      outer loop
         vertex 8.2486250e+01 4.9259701e+01 3.0556200e+01
         vertex 8.1463963e+01 4.5444474e+01 6.0553600e+01
         vertex 8.9799800e+01 4.8296854e+01 3.0556200e+01
      endloop
   endfacet
   facet normal 3.7946366e-01 9.1610632e-01 1.2944702e-01
      outer loop
         vertex 8.1463963e+01 4.5444474e+01 6.0553600e+01
         vertex 8.2486250e+01 4.9259701e+01 3.0556200e+01
         vertex 7.3696200e+01 4.8661987e+01 6.0553600e+01
      endloop
   endfacet
   facet normal 6.0363952e-01 7.8667833e-01 1.2944702e-01
      outer loop
         vertex 6.9818810e+01 5.6573251e+01 3.0556200e+01
         vertex 6.7025870e+01 5.3780311e+01 6.0553600e+01
         vertex 7.5671107e+01 5.2082626e+01 3.0556200e+01
      endloop
   endfacet
   facet normal 7.8667833e-01 6.0363952e-01 1.2944702e-01
      outer loop
         vertex 6.7025870e+01 5.3780311e+01 6.0553600e+01
         vertex 6.9818810e+01 5.6573251e+01 3.0556200e+01
         vertex 6.1907547e+01 6.0450640e+01 6.0553600e+01
      endloop
   endfacet
   facet normal 9.1610632e-01 3.7946366e-01 1.2944702e-01
      outer loop
         vertex 6.2505260e+01 6.9240690e+01 3.0556200e+01
         vertex 5.8690034e+01 6.8218404e+01 6.0553600e+01
         vertex 6.5328185e+01 6.2425547e+01 3.0556200e+01
      endloop
   endfacet
   facet normal 9.8310318e-01 1.2942799e-01 1.2944702e-01
      outer loop
         vertex 5.8690034e+01 6.8218404e+01 6.0553600e+01
         vertex 6.2505260e+01 6.9240690e+01 3.0556200e+01
         vertex 5.7592600e+01 7.6554240e+01 6.0553600e+01
      endloop
   endfacet
   facet normal -9.1610632e-01 -3.7946366e-01 1.2944702e-01
      outer loop
         vertex 1.2090957e+02 8.4890077e+01 6.0553600e+01
         vertex 1.1769205e+02 9.2657840e+01 6.0553600e+01
         vertex 1.1427141e+02 9.0682934e+01 3.0556200e+01
      endloop
   endfacet
   facet normal -7.8667833e-01 -6.0363952e-01 1.2944702e-01
      outer loop
         vertex 1.1427141e+02 9.0682934e+01 3.0556200e+01
         vertex 1.1769205e+02 9.2657840e+01 6.0553600e+01
         vertex 1.0978079e+02 9.6535230e+01 3.0556200e+01
      endloop
   endfacet
   facet normal -6.0363952e-01 -7.8667833e-01 1.2944702e-01
      outer loop
         vertex 1.1257373e+02 9.9328170e+01 6.0553600e+01
         vertex 1.0590340e+02 1.0444649e+02 6.0553600e+01
         vertex 1.0392849e+02 1.0102585e+02 3.0556200e+01
      endloop
   endfacet
   facet normal -3.7946366e-01 -9.1610632e-01 1.2944702e-01
      outer loop
         vertex 1.0392849e+02 1.0102585e+02 3.0556200e+01
         vertex 1.0590340e+02 1.0444649e+02 6.0553600e+01
         vertex 9.7113350e+01 1.0384878e+02 3.0556200e+01
      endloop
   endfacet
   facet normal -1.2942799e-01 -9.8310318e-01 1.2944702e-01
      outer loop
         vertex 9.8135637e+01 1.0766401e+02 6.0553600e+01
         vertex 8.9799800e+01 1.0876144e+02 6.0553600e+01
         vertex 8.9799800e+01 1.0481163e+02 3.0556200e+01
      endloop
   endfacet
   facet normal 1.2942799e-01 -9.8310318e-01 1.2944702e-01
      outer loop
         vertex 8.9799800e+01 1.0481163e+02 3.0556200e+01
         vertex 8.9799800e+01 1.0876144e+02 6.0553600e+01
         vertex 8.2486250e+01 1.0384878e+02 3.0556200e+01
      endloop
   endfacet
   facet normal 3.7946366e-01 -9.1610632e-01 1.2944702e-01
      outer loop
         vertex 8.1463963e+01 1.0766401e+02 6.0553600e+01
         vertex 7.3696200e+01 1.0444649e+02 6.0553600e+01
         vertex 7.5671107e+01 1.0102585e+02 3.0556200e+01
      endloop
   endfacet
   facet normal 6.0363952e-01 -7.8667833e-01 1.2944702e-01
      outer loop
         vertex 7.5671107e+01 1.0102585e+02 3.0556200e+01
         vertex 7.3696200e+01 1.0444649e+02 6.0553600e+01
         vertex 6.9818810e+01 9.6535230e+01 3.0556200e+01
      endloop
   endfacet
   facet normal 7.8667833e-01 -6.0363952e-01 1.2944702e-01
      outer loop
         vertex 6.7025870e+01 9.9328170e+01 6.0553600e+01
         vertex 6.1907547e+01 9.2657840e+01 6.0553600e+01
         vertex 6.5328185e+01 9.0682934e+01 3.0556200e+01
      endloop
   endfacet
   facet normal 9.1610632e-01 -3.7946366e-01 1.2944702e-01
      outer loop
         vertex 6.5328185e+01 9.0682934e+01 3.0556200e+01
         vertex 6.1907547e+01 9.2657840e+01 6.0553600e+01
         vertex 6.2505260e+01 8.3867790e+01 3.0556200e+01
      endloop
   endfacet
   facet normal 9.8310318e-01 -1.2942799e-01 1.2944702e-01
      outer loop
         vertex 5.8690034e+01 8.4890077e+01 6.0553600e+01
         vertex 5.7592600e+01 7.6554240e+01 6.0553600e+01
         vertex 6.1542413e+01 7.6554240e+01 3.0556200e+01
      endloop
   endfacet
   facet normal 9.8310318e-01 1.2942799e-01 1.2944702e-01
      outer loop
         vertex 6.1542413e+01 7.6554240e+01 3.0556200e+01
         vertex 5.7592600e+01 7.6554240e+01 6.0553600e+01
         vertex 6.2505260e+01 6.9240690e+01 3.0556200e+01
      endloop
   endfacet
   facet normal 9.1610632e-01 3.7946366e-01 1.2944702e-01
      outer loop
         vertex 5.8690034e+01 6.8218404e+01 6.0553600e+01
         vertex 6.1907547e+01 6.0450640e+01 6.0553600e+01
         vertex 6.5328185e+01 6.2425547e+01 3.0556200e+01
      endloop
   endfacet
   facet normal 7.8667833e-01 6.0363952e-01 1.2944702e-01
      outer loop
         vertex 6.5328185e+01 6.2425547e+01 3.0556200e+01
         vertex 6.1907547e+01 6.0450640e+01 6.0553600e+01
         vertex 6.9818810e+01 5.6573251e+01 3.0556200e+01
      endloop
   endfacet
   facet normal 6.0363952e-01 7.8667833e-01 1.2944702e-01
      outer loop
         vertex 6.7025870e+01 5.3780311e+01 6.0553600e+01
         vertex 7.3696200e+01 4.8661987e+01 6.0553600e+01
         vertex 7.5671107e+01 5.2082626e+01 3.0556200e+01
      endloop
   endfacet
   facet normal 3.7946366e-01 9.1610632e-01 1.2944702e-01
      outer loop
         vertex 7.5671107e+01 5.2082626e+01 3.0556200e+01
         vertex 7.3696200e+01 4.8661987e+01 6.0553600e+01
         vertex 8.2486250e+01 4.9259701e+01 3.0556200e+01
      endloop
   endfacet
   facet normal 1.2942799e-01 9.8310318e-01 1.2944702e-01
      outer loop
         vertex 8.1463963e+01 4.5444474e+01 6.0553600e+01
         vertex 8.9799800e+01 4.4347040e+01 6.0553600e+01
         vertex 8.9799800e+01 4.8296854e+01 3.0556200e+01
      endloop
   endfacet
   facet normal -1.2942799e-01 9.8310318e-01 1.2944702e-01
      outer loop
         vertex 8.9799800e+01 4.8296854e+01 3.0556200e+01
         vertex 8.9799800e+01 4.4347040e+01 6.0553600e+01
         vertex 9.7113350e+01 4.9259701e+01 3.0556200e+01
      endloop
   endfacet
   facet normal -3.7946366e-01 9.1610632e-01 1.2944702e-01
      outer loop
         vertex 9.8135637e+01 4.5444474e+01 6.0553600e+01
         vertex 1.0590340e+02 4.8661987e+01 6.0553600e+01
         vertex 1.0392849e+02 5.2082626e+01 3.0556200e+01
      endloop
   endfacet
   facet normal -6.0363952e-01 7.8667833e-01 1.2944702e-01
      outer loop
         vertex 1.0392849e+02 5.2082626e+01 3.0556200e+01
         vertex 1.0590340e+02 4.8661987e+01 6.0553600e+01
         vertex 1.0978079e+02 5.6573251e+01 3.0556200e+01
      endloop
   endfacet
   facet normal -7.8667833e-01 6.0363952e-01 1.2944702e-01
      outer loop
         vertex 1.1257373e+02 5.3780311e+01 6.0553600e+01
         vertex 1.1769205e+02 6.0450640e+01 6.0553600e+01
         vertex 1.1427141e+02 6.2425547e+01 3.0556200e+01
      endloop
   endfacet
   facet normal -9.1610632e-01 3.7946366e-01 1.2944702e-01
      outer loop
         vertex 1.1427141e+02 6.2425547e+01 3.0556200e+01
         vertex 1.1769205e+02 6.0450640e+01 6.0553600e+01
         vertex 1.1709434e+02 6.9240690e+01 3.0556200e+01
      endloop
   endfacet
   facet normal -9.8310318e-01 1.2942799e-01 1.2944702e-01
      outer loop
         vertex 1.2090957e+02 6.8218404e+01 6.0553600e+01
         vertex 1.2200700e+02 7.6554240e+01 6.0553600e+01
         vertex 1.1805719e+02 7.6554240e+01 3.0556200e+01
      endloop
   endfacet
   facet normal -9.8310318e-01 -1.2942799e-01 1.2944702e-01
      outer loop
         vertex 1.1805719e+02 7.6554240e+01 3.0556200e+01
         vertex 1.2200700e+02 7.6554240e+01 6.0553600e+01
         vertex 1.1709434e+02 8.3867790e+01 3.0556200e+01
      endloop
   endfacet
   facet normal 1.7310821e-15 2.1019142e-16 1.0000000e+00
      outer loop
         vertex 4.9995458e+01 6.6743351e+01 2.4594820e+02
         vertex 4.8804200e+01 7.6554240e+01 2.4594820e+02
         vertex 1.0000000e-06 7.2838322e+01 2.4594820e+02
      endloop
   endfacet
   facet normal 1.7881310e-15 6.7814863e-16 1.0000000e+00
      outer loop
         vertex 4.9995458e+01 6.6743351e+01 2.4594820e+02
         vertex 1.0000000e-06 7.2838322e+01 2.4594820e+02
         vertex 5.3499999e+01 5.7502635e+01 2.4594820e+02
      endloop
   endfacet
   facet normal 1.7633884e-15 -2.1411412e-16 1.0000000e+00
      outer loop
         vertex 4.8804200e+01 7.6554240e+01 2.4594820e+02
         vertex 4.9995458e+01 8.6365130e+01 2.4594820e+02
         vertex 1.0000000e-06 7.2838322e+01 2.4594820e+02
      endloop
   endfacet
   facet normal 1.7659555e-15 -1.2189511e-15 1.0000000e+00
      outer loop
         vertex 5.9114153e+01 1.0373935e+02 2.4594820e+02
         vertex 4.4910207e+01 1.5311097e+02 2.4594820e+02
         vertex 5.3499999e+01 9.5605846e+01 2.4594820e+02
      endloop
   endfacet
   facet normal 1.2192405e-15 -1.3762380e-15 1.0000000e+00
      outer loop
         vertex 5.9114153e+01 1.0373935e+02 2.4594820e+02
         vertex 6.6511645e+01 1.1029296e+02 2.4594820e+02
         vertex 4.4910207e+01 1.5311097e+02 2.4594820e+02
      endloop
   endfacet
   facet normal 8.2633781e-16 -1.5744551e-15 1.0000000e+00
      outer loop
         vertex 6.6511645e+01 1.1029296e+02 2.4594820e+02
         vertex 7.5262560e+01 1.1488579e+02 2.4594820e+02
         vertex 4.4910207e+01 1.5311097e+02 2.4594820e+02
      endloop
   endfacet
   facet normal 4.5980395e-16 -1.8654980e-15 1.0000000e+00
      outer loop
         vertex 7.5262560e+01 1.1488579e+02 2.4594820e+02
         vertex 8.4858326e+01 1.1725094e+02 2.4594820e+02
         vertex 4.4910207e+01 1.5311097e+02 2.4594820e+02
      endloop
   endfacet
   facet normal 0.0000000e+00 -2.3777201e-15 1.0000000e+00
      outer loop
         vertex 8.4858326e+01 1.1725094e+02 2.4594820e+02
         vertex 9.4741273e+01 1.1725094e+02 2.4594820e+02
         vertex 4.4910207e+01 1.5311097e+02 2.4594820e+02
      endloop
   endfacet
   facet normal -1.4693988e-30 -2.3777201e-15 1.0000000e+00
      outer loop
         vertex 4.4910207e+01 1.5311097e+02 2.4594820e+02
         vertex 9.4741273e+01 1.1725094e+02 2.4594820e+02
         vertex 1.3689186e+02 1.5311097e+02 2.4594820e+02
      endloop
   endfacet
   facet normal -4.5440691e-16 -1.8436013e-15 1.0000000e+00
      outer loop
         vertex 9.4741273e+01 1.1725094e+02 2.4594820e+02
         vertex 1.0433704e+02 1.1488579e+02 2.4594820e+02
         vertex 1.3689186e+02 1.5311097e+02 2.4594820e+02
      endloop
   endfacet
   facet normal -8.0906824e-16 -1.5415507e-15 1.0000000e+00
      outer loop
         vertex 1.0433704e+02 1.1488579e+02 2.4594820e+02
         vertex 1.1308796e+02 1.1029296e+02 2.4594820e+02
         vertex 1.3689186e+02 1.5311097e+02 2.4594820e+02
      endloop
   endfacet
   facet normal -1.1820141e-15 -1.3342182e-15 1.0000000e+00
      outer loop
         vertex 1.1308796e+02 1.1029296e+02 2.4594820e+02
         vertex 1.2048545e+02 1.0373935e+02 2.4594820e+02
         vertex 1.3689186e+02 1.5311097e+02 2.4594820e+02
      endloop
   endfacet
   facet normal -1.7879357e-15 -6.7807456e-16 1.0000000e+00
      outer loop
         vertex 1.2960414e+02 8.6365130e+01 2.4594820e+02
         vertex 1.7960386e+02 8.0272651e+01 2.4594820e+02
         vertex 1.2609960e+02 9.5605846e+01 2.4594820e+02
      endloop
   endfacet
   facet normal -1.7309216e-15 -2.1017194e-16 1.0000000e+00
      outer loop
         vertex 1.2960414e+02 8.6365130e+01 2.4594820e+02
         vertex 1.3079540e+02 7.6554240e+01 2.4594820e+02
         vertex 1.7960386e+02 8.0272651e+01 2.4594820e+02
      endloop
   endfacet
   facet normal -1.7632440e-15 2.1409658e-16 1.0000000e+00
      outer loop
         vertex 1.3079540e+02 7.6554240e+01 2.4594820e+02
         vertex 1.2960414e+02 6.6743351e+01 2.4594820e+02
         vertex 1.7960386e+02 8.0272651e+01 2.4594820e+02
      endloop
   endfacet
   facet normal -1.9003240e-15 7.2069782e-16 1.0000000e+00
      outer loop
         vertex 1.2960414e+02 6.6743351e+01 2.4594820e+02
         vertex 1.2609960e+02 5.7502635e+01 2.4594820e+02
         vertex 1.7960386e+02 8.0272651e+01 2.4594820e+02
      endloop
   endfacet
   facet normal -2.0916207e-15 1.1702007e-15 1.0000000e+00
      outer loop
         vertex 1.7960386e+02 8.0272651e+01 2.4594820e+02
         vertex 1.2609960e+02 5.7502635e+01 2.4594820e+02
         vertex 1.3469366e+02 1.0000000e-06 2.4594820e+02
      endloop
   endfacet
   facet normal -1.7658626e-15 1.2188869e-15 1.0000000e+00
      outer loop
         vertex 1.2609960e+02 5.7502635e+01 2.4594820e+02
         vertex 1.2048545e+02 4.9369129e+01 2.4594820e+02
         vertex 1.3469366e+02 1.0000000e-06 2.4594820e+02
      endloop
   endfacet
   facet normal -1.2192152e-15 1.3762095e-15 1.0000000e+00
      outer loop
         vertex 1.2048545e+02 4.9369129e+01 2.4594820e+02
         vertex 1.1308796e+02 4.2815523e+01 2.4594820e+02
         vertex 1.3469366e+02 1.0000000e-06 2.4594820e+02
      endloop
   endfacet
   facet normal -8.2634170e-16 1.5744626e-15 1.0000000e+00
      outer loop
         vertex 1.1308796e+02 4.2815523e+01 2.4594820e+02
         vertex 1.0433704e+02 3.8222688e+01 2.4594820e+02
         vertex 1.3469366e+02 1.0000000e-06 2.4594820e+02
      endloop
   endfacet
   facet normal -4.5981846e-16 1.8655568e-15 1.0000000e+00
      outer loop
         vertex 1.0433704e+02 3.8222688e+01 2.4594820e+02
         vertex 9.4741273e+01 3.5857544e+01 2.4594820e+02
         vertex 1.3469366e+02 1.0000000e-06 2.4594820e+02
      endloop
   endfacet
   facet normal 4.5444173e-16 1.8437426e-15 1.0000000e+00
      outer loop
         vertex 7.5262560e+01 3.8222688e+01 2.4594820e+02
         vertex 4.2712000e+01 1.0000001e-06 2.4594820e+02
         vertex 8.4858326e+01 3.5857544e+01 2.4594820e+02
      endloop
   endfacet
   facet normal 8.0913744e-16 1.5416826e-15 1.0000000e+00
      outer loop
         vertex 7.5262560e+01 3.8222688e+01 2.4594820e+02
         vertex 6.6511645e+01 4.2815523e+01 2.4594820e+02
         vertex 4.2712000e+01 1.0000001e-06 2.4594820e+02
      endloop
   endfacet
   facet normal 1.1821301e-15 1.3343491e-15 1.0000000e+00
      outer loop
         vertex 6.6511645e+01 4.2815523e+01 2.4594820e+02
         vertex 5.9114153e+01 4.9369129e+01 2.4594820e+02
         vertex 4.2712000e+01 1.0000001e-06 2.4594820e+02
      endloop
   endfacet
   facet normal 1.6891141e-15 1.1659112e-15 1.0000000e+00
      outer loop
         vertex 5.9114153e+01 4.9369129e+01 2.4594820e+02
         vertex 5.3499999e+01 5.7502635e+01 2.4594820e+02
         vertex 4.2712000e+01 1.0000001e-06 2.4594820e+02
      endloop
   endfacet
   facet normal 1.9157589e-15 1.1233907e-15 1.0000000e+00
      outer loop
         vertex 4.2712000e+01 1.0000001e-06 2.4594820e+02
         vertex 5.3499999e+01 5.7502635e+01 2.4594820e+02
         vertex 1.0000000e-06 7.2838322e+01 2.4594820e+02
      endloop
   endfacet
   facet normal 2.0917679e-15 -1.1702831e-15 1.0000000e+00
      outer loop
         vertex 4.4910207e+01 1.5311097e+02 2.4594820e+02
         vertex 1.0000000e-06 7.2838322e+01 2.4594820e+02
         vertex 5.3499999e+01 9.5605846e+01 2.4594820e+02
      endloop
   endfacet
   facet normal 1.4695010e-30 2.3778854e-15 1.0000000e+00
      outer loop
         vertex 4.2712000e+01 1.0000001e-06 2.4594820e+02
         vertex 1.3469366e+02 1.0000000e-06 2.4594820e+02
         vertex 8.4858326e+01 3.5857544e+01 2.4594820e+02
      endloop
   endfacet
   facet normal -1.9155125e-15 -1.1232462e-15 1.0000000e+00
      outer loop
         vertex 1.7960386e+02 8.0272651e+01 2.4594820e+02
         vertex 1.3689186e+02 1.5311097e+02 2.4594820e+02
         vertex 1.2609960e+02 9.5605846e+01 2.4594820e+02
      endloop
   endfacet
   facet normal 1.9004645e-15 -7.2075111e-16 1.0000000e+00
      outer loop
         vertex 5.3499999e+01 9.5605846e+01 2.4594820e+02
         vertex 1.0000000e-06 7.2838322e+01 2.4594820e+02
         vertex 4.9995458e+01 8.6365130e+01 2.4594820e+02
      endloop
   endfacet
   facet normal -1.6889139e-15 -1.1657731e-15 1.0000000e+00
      outer loop
         vertex 1.3689186e+02 1.5311097e+02 2.4594820e+02
         vertex 1.2048545e+02 1.0373935e+02 2.4594820e+02
         vertex 1.2609960e+02 9.5605846e+01 2.4594820e+02
      endloop
   endfacet
   facet normal 0.0000000e+00 2.3778854e-15 1.0000000e+00
      outer loop
         vertex 1.3469366e+02 1.0000000e-06 2.4594820e+02
         vertex 9.4741273e+01 3.5857544e+01 2.4594820e+02
         vertex 8.4858326e+01 3.5857544e+01 2.4594820e+02
      endloop
   endfacet
   facet normal -8.4831321e-01 -4.9744629e-01 -1.8141634e-01
      outer loop
         vertex 4.2712000e+01 1.0000001e-06 2.4594820e+02
         vertex 1.0000000e-06 7.2838322e+01 2.4594820e+02
         vertex 6.6293446e+01 3.8338162e+01 3.0556200e+01
      endloop
   endfacet
   facet normal -8.4831321e-01 -4.9744629e-01 -1.8141634e-01
      outer loop
         vertex 1.0000000e-06 7.2838322e+01 2.4594820e+02
         vertex 4.4971504e+01 7.4699244e+01 3.0556200e+01
         vertex 6.6293446e+01 3.8338162e+01 3.0556200e+01
      endloop
   endfacet
   facet normal 6.3273841e-16 9.8452507e-01 -1.7524379e-01
      outer loop
         vertex 1.3689186e+02 1.5311097e+02 2.4594820e+02
         vertex 1.1330828e+02 1.1477156e+02 3.0556200e+01
         vertex 4.4910207e+01 1.5311097e+02 2.4594820e+02
      endloop
   endfacet
   facet normal 6.0939499e-16 9.8452507e-01 -1.7524379e-01
      outer loop
         vertex 1.1330828e+02 1.1477156e+02 3.0556200e+01
         vertex 6.7390797e+01 1.1477156e+02 3.0556200e+01
         vertex 4.4910207e+01 1.5311097e+02 2.4594820e+02
      endloop
   endfacet
   facet normal 8.4831147e-01 4.9744528e-01 -1.8142726e-01
      outer loop
         vertex 1.3689186e+02 1.5311097e+02 2.4594820e+02
         vertex 1.7960386e+02 8.0272651e+01 2.4594820e+02
         vertex 1.1330828e+02 1.1477156e+02 3.0556200e+01
      endloop
   endfacet
   facet normal 8.4831147e-01 4.9744528e-01 -1.8142726e-01
      outer loop
         vertex 1.7960386e+02 8.0272651e+01 2.4594820e+02
         vertex 1.3463022e+02 7.8410481e+01 3.0556200e+01
         vertex 1.1330828e+02 1.1477156e+02 3.0556200e+01
      endloop
   endfacet
   facet normal -7.2428537e-16 -9.8452606e-01 -1.7523826e-01
      outer loop
         vertex 1.1221093e+02 3.8338162e+01 3.0556200e+01
         vertex 1.3469366e+02 1.0000000e-06 2.4594820e+02
         vertex 6.6293446e+01 3.8338162e+01 3.0556200e+01
      endloop
   endfacet
   facet normal -6.0842378e-16 -9.8452606e-01 -1.7523826e-01
      outer loop
         vertex 1.3469366e+02 1.0000000e-06 2.4594820e+02
         vertex 4.2712000e+01 1.0000001e-06 2.4594820e+02
         vertex 6.6293446e+01 3.8338162e+01 3.0556200e+01
      endloop
   endfacet
   facet normal 0.0000000e+00 0.0000000e+00 -1.0000000e+00
      outer loop
         vertex 6.2505260e+01 8.3867790e+01 3.0556200e+01
         vertex 6.1542413e+01 7.6554240e+01 3.0556200e+01
         vertex 4.4971504e+01 7.4699244e+01 3.0556200e+01
      endloop
   endfacet
   facet normal -0.0000000e+00 0.0000000e+00 -1.0000000e+00
      outer loop
         vertex 6.2505260e+01 8.3867790e+01 3.0556200e+01
         vertex 4.4971504e+01 7.4699244e+01 3.0556200e+01
         vertex 6.5328185e+01 9.0682934e+01 3.0556200e+01
      endloop
   endfacet
   facet normal -0.0000000e+00 -0.0000000e+00 -1.0000000e+00
      outer loop
         vertex 6.1542413e+01 7.6554240e+01 3.0556200e+01
         vertex 6.2505260e+01 6.9240690e+01 3.0556200e+01
         vertex 4.4971504e+01 7.4699244e+01 3.0556200e+01
      endloop
   endfacet
   facet normal -0.0000000e+00 0.0000000e+00 -1.0000000e+00
      outer loop
         vertex 6.9818810e+01 5.6573251e+01 3.0556200e+01
         vertex 6.6293446e+01 3.8338162e+01 3.0556200e+01
         vertex 6.5328185e+01 6.2425547e+01 3.0556200e+01
      endloop
   endfacet
   facet normal 0.0000000e+00 -0.0000000e+00 -1.0000000e+00
      outer loop
         vertex 6.9818810e+01 5.6573251e+01 3.0556200e+01
         vertex 7.5671107e+01 5.2082626e+01 3.0556200e+01
         vertex 6.6293446e+01 3.8338162e+01 3.0556200e+01
      endloop
   endfacet
   facet normal 0.0000000e+00 -0.0000000e+00 -1.0000000e+00
      outer loop
         vertex 7.5671107e+01 5.2082626e+01 3.0556200e+01
         vertex 8.2486250e+01 4.9259701e+01 3.0556200e+01
         vertex 6.6293446e+01 3.8338162e+01 3.0556200e+01
      endloop
   endfacet
   facet normal 0.0000000e+00 -0.0000000e+00 -1.0000000e+00
      outer loop
         vertex 8.2486250e+01 4.9259701e+01 3.0556200e+01
         vertex 8.9799800e+01 4.8296854e+01 3.0556200e+01
         vertex 6.6293446e+01 3.8338162e+01 3.0556200e+01
      endloop
   endfacet
   facet normal 0.0000000e+00 0.0000000e+00 -1.0000000e+00
      outer loop
         vertex 6.6293446e+01 3.8338162e+01 3.0556200e+01
         vertex 8.9799800e+01 4.8296854e+01 3.0556200e+01
         vertex 1.1221093e+02 3.8338162e+01 3.0556200e+01
      endloop
   endfacet
   facet normal 0.0000000e+00 0.0000000e+00 -1.0000000e+00
      outer loop
         vertex 8.9799800e+01 4.8296854e+01 3.0556200e+01
         vertex 9.7113350e+01 4.9259701e+01 3.0556200e+01
         vertex 1.1221093e+02 3.8338162e+01 3.0556200e+01
      endloop
   endfacet
   facet normal 0.0000000e+00 0.0000000e+00 -1.0000000e+00
      outer loop
         vertex 9.7113350e+01 4.9259701e+01 3.0556200e+01
         vertex 1.0392849e+02 5.2082626e+01 3.0556200e+01
         vertex 1.1221093e+02 3.8338162e+01 3.0556200e+01
      endloop
   endfacet
   facet normal 0.0000000e+00 0.0000000e+00 -1.0000000e+00
      outer loop
         vertex 1.0392849e+02 5.2082626e+01 3.0556200e+01
         vertex 1.0978079e+02 5.6573251e+01 3.0556200e+01
         vertex 1.1221093e+02 3.8338162e+01 3.0556200e+01
      endloop
   endfacet
   facet normal 0.0000000e+00 -0.0000000e+00 -1.0000000e+00
      outer loop
         vertex 1.1709434e+02 6.9240690e+01 3.0556200e+01
         vertex 1.3463022e+02 7.8410481e+01 3.0556200e+01
         vertex 1.1427141e+02 6.2425547e+01 3.0556200e+01
      endloop
   endfacet
   facet normal 0.0000000e+00 0.0000000e+00 -1.0000000e+00
      outer loop
         vertex 1.1709434e+02 6.9240690e+01 3.0556200e+01
         vertex 1.1805719e+02 7.6554240e+01 3.0556200e+01
         vertex 1.3463022e+02 7.8410481e+01 3.0556200e+01
      endloop
   endfacet
   facet normal 0.0000000e+00 0.0000000e+00 -1.0000000e+00
      outer loop
         vertex 1.1805719e+02 7.6554240e+01 3.0556200e+01
         vertex 1.1709434e+02 8.3867790e+01 3.0556200e+01
         vertex 1.3463022e+02 7.8410481e+01 3.0556200e+01
      endloop
   endfacet
   facet normal 0.0000000e+00 0.0000000e+00 -1.0000000e+00
      outer loop
         vertex 1.1709434e+02 8.3867790e+01 3.0556200e+01
         vertex 1.1427141e+02 9.0682934e+01 3.0556200e+01
         vertex 1.3463022e+02 7.8410481e+01 3.0556200e+01
      endloop
   endfacet
   facet normal 0.0000000e+00 0.0000000e+00 -1.0000000e+00
      outer loop
         vertex 1.3463022e+02 7.8410481e+01 3.0556200e+01
         vertex 1.1427141e+02 9.0682934e+01 3.0556200e+01
         vertex 1.1330828e+02 1.1477156e+02 3.0556200e+01
      endloop
   endfacet
   facet normal 0.0000000e+00 0.0000000e+00 -1.0000000e+00
      outer loop
         vertex 1.1427141e+02 9.0682934e+01 3.0556200e+01
         vertex 1.0978079e+02 9.6535230e+01 3.0556200e+01
         vertex 1.1330828e+02 1.1477156e+02 3.0556200e+01
      endloop
   endfacet
   facet normal 0.0000000e+00 0.0000000e+00 -1.0000000e+00
      outer loop
         vertex 1.0978079e+02 9.6535230e+01 3.0556200e+01
         vertex 1.0392849e+02 1.0102585e+02 3.0556200e+01
         vertex 1.1330828e+02 1.1477156e+02 3.0556200e+01
      endloop
   endfacet
   facet normal 0.0000000e+00 0.0000000e+00 -1.0000000e+00
      outer loop
         vertex 1.0392849e+02 1.0102585e+02 3.0556200e+01
         vertex 9.7113350e+01 1.0384878e+02 3.0556200e+01
         vertex 1.1330828e+02 1.1477156e+02 3.0556200e+01
      endloop
   endfacet
   facet normal 0.0000000e+00 0.0000000e+00 -1.0000000e+00
      outer loop
         vertex 8.2486250e+01 1.0384878e+02 3.0556200e+01
         vertex 6.7390797e+01 1.1477156e+02 3.0556200e+01
         vertex 8.9799800e+01 1.0481163e+02 3.0556200e+01
      endloop
   endfacet
   facet normal -0.0000000e+00 0.0000000e+00 -1.0000000e+00
      outer loop
         vertex 8.2486250e+01 1.0384878e+02 3.0556200e+01
         vertex 7.5671107e+01 1.0102585e+02 3.0556200e+01
         vertex 6.7390797e+01 1.1477156e+02 3.0556200e+01
      endloop
   endfacet
   facet normal -0.0000000e+00 0.0000000e+00 -1.0000000e+00
      outer loop
         vertex 7.5671107e+01 1.0102585e+02 3.0556200e+01
         vertex 6.9818810e+01 9.6535230e+01 3.0556200e+01
         vertex 6.7390797e+01 1.1477156e+02 3.0556200e+01
      endloop
   endfacet
   facet normal -0.0000000e+00 0.0000000e+00 -1.0000000e+00
      outer loop
         vertex 6.9818810e+01 9.6535230e+01 3.0556200e+01
         vertex 6.5328185e+01 9.0682934e+01 3.0556200e+01
         vertex 6.7390797e+01 1.1477156e+02 3.0556200e+01
      endloop
   endfacet
   facet normal 0.0000000e+00 0.0000000e+00 -1.0000000e+00
      outer loop
         vertex 6.7390797e+01 1.1477156e+02 3.0556200e+01
         vertex 6.5328185e+01 9.0682934e+01 3.0556200e+01
         vertex 4.4971504e+01 7.4699244e+01 3.0556200e+01
      endloop
   endfacet
   facet normal -0.0000000e+00 0.0000000e+00 -1.0000000e+00
      outer loop
         vertex 1.3463022e+02 7.8410481e+01 3.0556200e+01
         vertex 1.1221093e+02 3.8338162e+01 3.0556200e+01
         vertex 1.1427141e+02 6.2425547e+01 3.0556200e+01
      endloop
   endfacet
   facet normal 0.0000000e+00 0.0000000e+00 -1.0000000e+00
      outer loop
         vertex 6.6293446e+01 3.8338162e+01 3.0556200e+01
         vertex 4.4971504e+01 7.4699244e+01 3.0556200e+01
         vertex 6.5328185e+01 6.2425547e+01 3.0556200e+01
      endloop
   endfacet
   facet normal 0.0000000e+00 -0.0000000e+00 -1.0000000e+00
      outer loop
         vertex 6.7390797e+01 1.1477156e+02 3.0556200e+01
         vertex 1.1330828e+02 1.1477156e+02 3.0556200e+01
         vertex 8.9799800e+01 1.0481163e+02 3.0556200e+01
      endloop
   endfacet
   facet normal 0.0000000e+00 0.0000000e+00 -1.0000000e+00
      outer loop
         vertex 6.5328185e+01 6.2425547e+01 3.0556200e+01
         vertex 4.4971504e+01 7.4699244e+01 3.0556200e+01
         vertex 6.2505260e+01 6.9240690e+01 3.0556200e+01
      endloop
   endfacet
   facet normal 0.0000000e+00 0.0000000e+00 -1.0000000e+00
      outer loop
         vertex 1.1221093e+02 3.8338162e+01 3.0556200e+01
         vertex 1.0978079e+02 5.6573251e+01 3.0556200e+01
         vertex 1.1427141e+02 6.2425547e+01 3.0556200e+01
      endloop
   endfacet
   facet normal -0.0000000e+00 0.0000000e+00 -1.0000000e+00
      outer loop
         vertex 1.1330828e+02 1.1477156e+02 3.0556200e+01
         vertex 9.7113350e+01 1.0384878e+02 3.0556200e+01
         vertex 8.9799800e+01 1.0481163e+02 3.0556200e+01
      endloop
   endfacet
   facet normal 8.5919780e-01 -4.8069611e-01 -1.7524380e-01
      outer loop
         vertex 1.3469366e+02 1.0000000e-06 2.4594820e+02
         vertex 1.1221093e+02 3.8338162e+01 3.0556200e+01
         vertex 1.7960386e+02 8.0272651e+01 2.4594820e+02
      endloop
   endfacet
   facet normal 8.5919780e-01 -4.8069611e-01 -1.7524380e-01
      outer loop
         vertex 1.1221093e+02 3.8338162e+01 3.0556200e+01
         vertex 1.3463022e+02 7.8410481e+01 3.0556200e+01
         vertex 1.7960386e+02 8.0272651e+01 2.4594820e+02
      endloop
   endfacet
   facet normal -8.5919867e-01 4.8069659e-01 -1.7523825e-01
      outer loop
         vertex 4.4910207e+01 1.5311097e+02 2.4594820e+02
         vertex 6.7390797e+01 1.1477156e+02 3.0556200e+01
         vertex 1.0000000e-06 7.2838322e+01 2.4594820e+02
      endloop
   endfacet
   facet normal -8.5919867e-01 4.8069659e-01 -1.7523825e-01
      outer loop
         vertex 6.7390797e+01 1.1477156e+02 3.0556200e+01
         vertex 4.4971504e+01 7.4699244e+01 3.0556200e+01
         vertex 1.0000000e-06 7.2838322e+01 2.4594820e+02
      endloop
   endfacet
endsolid AutoCAD
