solid AutoCAD
   facet normal 9.9270887e-01 1.2053668e-01 -4.5190725e-17
      outer loop
         vertex 5.0020595e+01 6.9534927e+01 2.4594820e+02
         vertex 5.0020595e+01 6.9534927e+01 8.5394800e+01
         vertex 4.8829337e+01 7.9345816e+01 2.4594820e+02
      endloop
   endfacet
   facet normal 9.3501624e-01 3.5460489e-01 4.0302013e-17
      outer loop
         vertex 5.0020595e+01 6.9534927e+01 2.4594820e+02
         vertex 5.3525136e+01 6.0294211e+01 2.4594820e+02
         vertex 5.0020595e+01 6.9534927e+01 8.5394800e+01
      endloop
   endfacet
   facet normal 9.3501624e-01 3.5460489e-01 -4.2931738e-18
      outer loop
         vertex 5.0020595e+01 6.9534927e+01 8.5394800e+01
         vertex 5.3525136e+01 6.0294211e+01 2.4594820e+02
         vertex 5.3525136e+01 6.0294211e+01 8.5394800e+01
      endloop
   endfacet
   facet normal 6.6312266e-01 7.4851075e-01 1.4006177e-16
      outer loop
         vertex 6.6536782e+01 4.5607098e+01 2.4594820e+02
         vertex 5.9139290e+01 5.2160705e+01 8.5394800e+01
         vertex 5.9139290e+01 5.2160705e+01 2.4594820e+02
      endloop
   endfacet
   facet normal 6.6312266e-01 7.4851075e-01 4.0683825e-17
      outer loop
         vertex 5.9139290e+01 5.2160705e+01 8.5394800e+01
         vertex 6.6536782e+01 4.5607098e+01 2.4594820e+02
         vertex 6.6536782e+01 4.5607098e+01 8.5394800e+01
      endloop
   endfacet
   facet normal 2.3931566e-01 9.7094182e-01 6.4757476e-17
      outer loop
         vertex 8.4883464e+01 3.8649120e+01 2.4594820e+02
         vertex 7.5287697e+01 4.1014264e+01 8.5394800e+01
         vertex 7.5287697e+01 4.1014264e+01 2.4594820e+02
      endloop
   endfacet
   facet normal 2.3931566e-01 9.7094182e-01 2.2393003e-17
      outer loop
         vertex 7.5287697e+01 4.1014264e+01 8.5394800e+01
         vertex 8.4883464e+01 3.8649120e+01 2.4594820e+02
         vertex 8.4883464e+01 3.8649120e+01 8.5394800e+01
      endloop
   endfacet
   facet normal -2.3931566e-01 9.7094182e-01 1.4948642e-16
      outer loop
         vertex 1.0436218e+02 4.1014264e+01 2.4594820e+02
         vertex 9.4766411e+01 3.8649120e+01 8.5394800e+01
         vertex 9.4766411e+01 3.8649120e+01 2.4594820e+02
      endloop
   endfacet
   facet normal -2.3931566e-01 9.7094182e-01 8.5939713e-17
      outer loop
         vertex 9.4766411e+01 3.8649120e+01 8.5394800e+01
         vertex 1.0436218e+02 4.1014264e+01 2.4594820e+02
         vertex 1.0436218e+02 4.1014264e+01 8.5394800e+01
      endloop
   endfacet
   facet normal -6.6312266e-01 7.4851075e-01 9.1820095e-17
      outer loop
         vertex 1.2051058e+02 5.2160705e+01 2.4594820e+02
         vertex 1.1311309e+02 4.5607098e+01 8.5394800e+01
         vertex 1.1311309e+02 4.5607098e+01 2.4594820e+02
      endloop
   endfacet
   facet normal -6.6312266e-01 7.4851075e-01 5.8694115e-17
      outer loop
         vertex 1.1311309e+02 4.5607098e+01 8.5394800e+01
         vertex 1.2051058e+02 5.2160705e+01 2.4594820e+02
         vertex 1.2051058e+02 5.2160705e+01 8.5394800e+01
      endloop
   endfacet
   facet normal -9.3501624e-01 3.5460489e-01 1.3413308e-16
      outer loop
         vertex 1.2962928e+02 6.9534927e+01 2.4594820e+02
         vertex 1.2612474e+02 6.0294211e+01 8.5394800e+01
         vertex 1.2612474e+02 6.0294211e+01 2.4594820e+02
      endloop
   endfacet
   facet normal -9.3501624e-01 3.5460489e-01 1.0274639e-16
      outer loop
         vertex 1.2612474e+02 6.0294211e+01 8.5394800e+01
         vertex 1.2962928e+02 6.9534927e+01 2.4594820e+02
         vertex 1.2962928e+02 6.9534927e+01 8.5394800e+01
      endloop
   endfacet
   facet normal -9.9270887e-01 -1.2053668e-01 -1.0668907e-17
      outer loop
         vertex 1.2962928e+02 8.9156705e+01 2.4594820e+02
         vertex 1.3082054e+02 7.9345816e+01 8.5394800e+01
         vertex 1.3082054e+02 7.9345816e+01 2.4594820e+02
      endloop
   endfacet
   facet normal -9.9270887e-01 -1.2053668e-01 -1.0668907e-17
      outer loop
         vertex 1.3082054e+02 7.9345816e+01 8.5394800e+01
         vertex 1.2962928e+02 8.9156705e+01 2.4594820e+02
         vertex 1.2962928e+02 8.9156705e+01 8.5394800e+01
      endloop
   endfacet
   facet normal -8.2298387e-01 -5.6806475e-01 -5.0280378e-17
      outer loop
         vertex 1.2051058e+02 1.0653093e+02 2.4594820e+02
         vertex 1.2612474e+02 9.8397421e+01 8.5394800e+01
         vertex 1.2612474e+02 9.8397421e+01 2.4594820e+02
      endloop
   endfacet
   facet normal -8.2298387e-01 -5.6806475e-01 -7.2843703e-17
      outer loop
         vertex 1.2612474e+02 9.8397421e+01 8.5394800e+01
         vertex 1.2051058e+02 1.0653093e+02 2.4594820e+02
         vertex 1.2051058e+02 1.0653093e+02 8.5394800e+01
      endloop
   endfacet
   facet normal -4.6472317e-01 -8.8545603e-01 -7.8373220e-17
      outer loop
         vertex 1.0436218e+02 1.1767737e+02 2.4594820e+02
         vertex 1.1311309e+02 1.1308453e+02 8.5394800e+01
         vertex 1.1311309e+02 1.1308453e+02 2.4594820e+02
      endloop
   endfacet
   facet normal -4.6472317e-01 -8.8545603e-01 -7.8373220e-17
      outer loop
         vertex 1.1311309e+02 1.1308453e+02 8.5394800e+01
         vertex 1.0436218e+02 1.1767737e+02 2.4594820e+02
         vertex 1.0436218e+02 1.1767737e+02 8.5394800e+01
      endloop
   endfacet
   facet normal 0.0000000e+00 -1.0000000e+00 -1.7702340e-16
      outer loop
         vertex 8.4883464e+01 1.2004251e+02 2.4594820e+02
         vertex 9.4766411e+01 1.2004251e+02 8.5394800e+01
         vertex 9.4766411e+01 1.2004251e+02 2.4594820e+02
      endloop
   endfacet
   facet normal 0.0000000e+00 -1.0000000e+00 -1.7702340e-16
      outer loop
         vertex 9.4766411e+01 1.2004251e+02 8.5394800e+01
         vertex 8.4883464e+01 1.2004251e+02 2.4594820e+02
         vertex 8.4883464e+01 1.2004251e+02 8.5394800e+01
      endloop
   endfacet
   facet normal 4.6472317e-01 -8.8545603e-01 -3.7239781e-17
      outer loop
         vertex 6.6536782e+01 1.1308453e+02 2.4594820e+02
         vertex 7.5287697e+01 1.1767737e+02 8.5394800e+01
         vertex 7.5287697e+01 1.1767737e+02 2.4594820e+02
      endloop
   endfacet
   facet normal 4.6472317e-01 -8.8545603e-01 0.0000000e+00
      outer loop
         vertex 7.5287697e+01 1.1767737e+02 8.5394800e+01
         vertex 6.6536782e+01 1.1308453e+02 2.4594820e+02
         vertex 6.6536782e+01 1.1308453e+02 8.5394800e+01
      endloop
   endfacet
   facet normal 8.2298387e-01 -5.6806475e-01 -2.7717053e-17
      outer loop
         vertex 5.3525136e+01 9.8397421e+01 2.4594820e+02
         vertex 5.9139290e+01 1.0653093e+02 8.5394800e+01
         vertex 5.9139290e+01 1.0653093e+02 2.4594820e+02
      endloop
   endfacet
   facet normal 8.2298387e-01 -5.6806475e-01 -5.0280378e-17
      outer loop
         vertex 5.9139290e+01 1.0653093e+02 8.5394800e+01
         vertex 5.3525136e+01 9.8397421e+01 2.4594820e+02
         vertex 5.3525136e+01 9.8397421e+01 8.5394800e+01
      endloop
   endfacet
   facet normal 9.9270887e-01 -1.2053668e-01 -1.0668907e-17
      outer loop
         vertex 4.8829337e+01 7.9345816e+01 2.4594820e+02
         vertex 4.8829337e+01 7.9345816e+01 8.5394800e+01
         vertex 5.0020595e+01 8.9156705e+01 2.4594820e+02
      endloop
   endfacet
   facet normal -9.9270887e-01 1.2053668e-01 1.1195004e-17
      outer loop
         vertex 1.3082054e+02 7.9345816e+01 8.5394800e+01
         vertex 1.2962928e+02 6.9534927e+01 8.5394800e+01
         vertex 1.3082054e+02 7.9345816e+01 2.4594820e+02
      endloop
   endfacet
   facet normal -9.9270887e-01 1.2053668e-01 1.5439489e-16
      outer loop
         vertex 1.3082054e+02 7.9345816e+01 2.4594820e+02
         vertex 1.2962928e+02 6.9534927e+01 8.5394800e+01
         vertex 1.2962928e+02 6.9534927e+01 2.4594820e+02
      endloop
   endfacet
   facet normal -8.2298387e-01 5.6806475e-01 9.4038030e-17
      outer loop
         vertex 1.2612474e+02 6.0294211e+01 8.5394800e+01
         vertex 1.2051058e+02 5.2160705e+01 8.5394800e+01
         vertex 1.2612474e+02 6.0294211e+01 2.4594820e+02
      endloop
   endfacet
   facet normal -8.2298387e-01 5.6806475e-01 7.2843703e-17
      outer loop
         vertex 1.2612474e+02 6.0294211e+01 2.4594820e+02
         vertex 1.2051058e+02 5.2160705e+01 8.5394800e+01
         vertex 1.2051058e+02 5.2160705e+01 2.4594820e+02
      endloop
   endfacet
   facet normal -4.6472317e-01 8.8545603e-01 8.0604026e-17
      outer loop
         vertex 1.1311309e+02 4.5607098e+01 8.5394800e+01
         vertex 1.0436218e+02 4.1014264e+01 8.5394800e+01
         vertex 1.1311309e+02 4.5607098e+01 2.4594820e+02
      endloop
   endfacet
   facet normal -4.6472317e-01 8.8545603e-01 7.8373220e-17
      outer loop
         vertex 1.1311309e+02 4.5607098e+01 2.4594820e+02
         vertex 1.0436218e+02 4.1014264e+01 8.5394800e+01
         vertex 1.0436218e+02 4.1014264e+01 2.4594820e+02
      endloop
   endfacet
   facet normal 0.0000000e+00 1.0000000e+00 8.8511702e-17
      outer loop
         vertex 9.4766411e+01 3.8649120e+01 8.5394800e+01
         vertex 8.4883464e+01 3.8649120e+01 8.5394800e+01
         vertex 9.4766411e+01 3.8649120e+01 2.4594820e+02
      endloop
   endfacet
   facet normal 0.0000000e+00 1.0000000e+00 8.8511702e-17
      outer loop
         vertex 9.4766411e+01 3.8649120e+01 2.4594820e+02
         vertex 8.4883464e+01 3.8649120e+01 8.5394800e+01
         vertex 8.4883464e+01 3.8649120e+01 2.4594820e+02
      endloop
   endfacet
   facet normal 4.6472317e-01 8.8545603e-01 3.5824011e-17
      outer loop
         vertex 7.5287697e+01 4.1014264e+01 8.5394800e+01
         vertex 6.6536782e+01 4.5607098e+01 8.5394800e+01
         vertex 7.5287697e+01 4.1014264e+01 2.4594820e+02
      endloop
   endfacet
   facet normal 4.6472317e-01 8.8545603e-01 7.6426391e-17
      outer loop
         vertex 7.5287697e+01 4.1014264e+01 2.4594820e+02
         vertex 6.6536782e+01 4.5607098e+01 8.5394800e+01
         vertex 6.6536782e+01 4.5607098e+01 2.4594820e+02
      endloop
   endfacet
   facet normal 8.2298387e-01 5.6806475e-01 7.6126024e-17
      outer loop
         vertex 5.9139290e+01 5.2160705e+01 8.5394800e+01
         vertex 5.3525136e+01 6.0294211e+01 8.5394800e+01
         vertex 5.9139290e+01 5.2160705e+01 2.4594820e+02
      endloop
   endfacet
   facet normal 8.2298387e-01 5.6806475e-01 5.2857241e-17
      outer loop
         vertex 5.9139290e+01 5.2160705e+01 2.4594820e+02
         vertex 5.3525136e+01 6.0294211e+01 8.5394800e+01
         vertex 5.3525136e+01 6.0294211e+01 2.4594820e+02
      endloop
   endfacet
   facet normal 9.9270887e-01 1.2053668e-01 1.0668907e-17
      outer loop
         vertex 5.0020595e+01 6.9534927e+01 8.5394800e+01
         vertex 4.8829337e+01 7.9345816e+01 8.5394800e+01
         vertex 4.8829337e+01 7.9345816e+01 2.4594820e+02
      endloop
   endfacet
   facet normal 9.9270887e-01 -1.2053668e-01 -3.2006720e-17
      outer loop
         vertex 4.8829337e+01 7.9345816e+01 8.5394800e+01
         vertex 5.0020595e+01 8.9156705e+01 8.5394800e+01
         vertex 5.0020595e+01 8.9156705e+01 2.4594820e+02
      endloop
   endfacet
   facet normal 9.3501624e-01 -3.5460489e-01 -9.4038030e-17
      outer loop
         vertex 5.0020595e+01 8.9156705e+01 8.5394800e+01
         vertex 5.3525136e+01 9.8397421e+01 8.5394800e+01
         vertex 5.0020595e+01 8.9156705e+01 2.4594820e+02
      endloop
   endfacet
   facet normal 9.3501624e-01 -3.5460489e-01 -3.1386682e-17
      outer loop
         vertex 5.0020595e+01 8.9156705e+01 2.4594820e+02
         vertex 5.3525136e+01 9.8397421e+01 8.5394800e+01
         vertex 5.3525136e+01 9.8397421e+01 2.4594820e+02
      endloop
   endfacet
   facet normal 6.6312266e-01 -7.4851075e-01 -7.6126024e-17
      outer loop
         vertex 5.9139290e+01 1.0653093e+02 8.5394800e+01
         vertex 6.6536782e+01 1.1308453e+02 8.5394800e+01
         vertex 5.9139290e+01 1.0653093e+02 2.4594820e+02
      endloop
   endfacet
   facet normal 6.6312266e-01 -7.4851075e-01 0.0000000e+00
      outer loop
         vertex 5.9139290e+01 1.0653093e+02 2.4594820e+02
         vertex 6.6536782e+01 1.1308453e+02 8.5394800e+01
         vertex 6.6536782e+01 1.1308453e+02 2.4594820e+02
      endloop
   endfacet
   facet normal 2.3931566e-01 -9.7094182e-01 -6.2692020e-17
      outer loop
         vertex 7.5287697e+01 1.1767737e+02 8.5394800e+01
         vertex 8.4883464e+01 1.2004251e+02 8.5394800e+01
         vertex 7.5287697e+01 1.1767737e+02 2.4594820e+02
      endloop
   endfacet
   facet normal 2.3931566e-01 -9.7094182e-01 -1.5069719e-16
      outer loop
         vertex 7.5287697e+01 1.1767737e+02 2.4594820e+02
         vertex 8.4883464e+01 1.2004251e+02 8.5394800e+01
         vertex 8.4883464e+01 1.2004251e+02 2.4594820e+02
      endloop
   endfacet
   facet normal -2.3931566e-01 -9.7094182e-01 -1.7240306e-16
      outer loop
         vertex 9.4766411e+01 1.2004251e+02 8.5394800e+01
         vertex 1.0436218e+02 1.1767737e+02 8.5394800e+01
         vertex 9.4766411e+01 1.2004251e+02 2.4594820e+02
      endloop
   endfacet
   facet normal -2.3931566e-01 -9.7094182e-01 -8.5939713e-17
      outer loop
         vertex 9.4766411e+01 1.2004251e+02 2.4594820e+02
         vertex 1.0436218e+02 1.1767737e+02 8.5394800e+01
         vertex 1.0436218e+02 1.1767737e+02 2.4594820e+02
      endloop
   endfacet
   facet normal -6.6312266e-01 -7.4851075e-01 -6.7170021e-17
      outer loop
         vertex 1.1311309e+02 1.1308453e+02 8.5394800e+01
         vertex 1.2051058e+02 1.0653093e+02 8.5394800e+01
         vertex 1.1311309e+02 1.1308453e+02 2.4594820e+02
      endloop
   endfacet
   facet normal -6.6312266e-01 -7.4851075e-01 -5.8694115e-17
      outer loop
         vertex 1.1311309e+02 1.1308453e+02 2.4594820e+02
         vertex 1.2051058e+02 1.0653093e+02 8.5394800e+01
         vertex 1.2051058e+02 1.0653093e+02 2.4594820e+02
      endloop
   endfacet
   facet normal -9.3501624e-01 -3.5460489e-01 -3.1346010e-17
      outer loop
         vertex 1.2612474e+02 9.8397421e+01 8.5394800e+01
         vertex 1.2962928e+02 8.9156705e+01 8.5394800e+01
         vertex 1.2612474e+02 9.8397421e+01 2.4594820e+02
      endloop
   endfacet
   facet normal -9.3501624e-01 -3.5460489e-01 -3.1386682e-17
      outer loop
         vertex 1.2612474e+02 9.8397421e+01 2.4594820e+02
         vertex 1.2962928e+02 8.9156705e+01 8.5394800e+01
         vertex 1.2962928e+02 8.9156705e+01 2.4594820e+02
      endloop
   endfacet
   facet normal 1.2803001e-15 -1.6173952e-16 1.0000000e+00
      outer loop
         vertex 5.3254129e+01 8.8735603e+01 6.0553600e+01
         vertex 5.2067923e+01 7.9345816e+01 6.0553600e+01
         vertex 5.7617737e+01 7.9345816e+01 6.0553600e+01
      endloop
   endfacet
   facet normal 1.2688724e-15 -1.6705022e-16 1.0000000e+00
      outer loop
         vertex 5.3254129e+01 8.8735603e+01 6.0553600e+01
         vertex 5.7617737e+01 7.9345816e+01 6.0553600e+01
         vertex 5.8715171e+01 8.7681653e+01 6.0553600e+01
      endloop
   endfacet
   facet normal 1.2087493e-15 -4.7857770e-16 1.0000000e+00
      outer loop
         vertex 5.3254129e+01 8.8735603e+01 6.0553600e+01
         vertex 5.8715171e+01 8.7681653e+01 6.0553600e+01
         vertex 5.6738214e+01 9.7535396e+01 6.0553600e+01
      endloop
   endfacet
   facet normal 1.2087493e-15 4.7857770e-16 1.0000000e+00
      outer loop
         vertex 5.6738214e+01 6.1156236e+01 6.0553600e+01
         vertex 5.8715171e+01 7.1009979e+01 6.0553600e+01
         vertex 5.3254129e+01 6.9956028e+01 6.0553600e+01
      endloop
   endfacet
   facet normal 1.1728009e-15 4.8579003e-16 1.0000000e+00
      outer loop
         vertex 5.8715171e+01 7.1009979e+01 6.0553600e+01
         vertex 5.6738214e+01 6.1156236e+01 6.0553600e+01
         vertex 6.1932684e+01 6.3242216e+01 6.0553600e+01
      endloop
   endfacet
   facet normal 4.1194738e-16 1.6757490e-15 1.0000000e+00
      outer loop
         vertex 6.9593717e+01 4.7466515e+01 6.0553600e+01
         vertex 6.7051008e+01 5.6571886e+01 6.0553600e+01
         vertex 6.2301259e+01 5.3499361e+01 6.0553600e+01
      endloop
   endfacet
   facet normal 1.5241743e-15 1.9863426e-15 1.0000000e+00
      outer loop
         vertex 6.7051008e+01 5.6571886e+01 6.0553600e+01
         vertex 6.9593717e+01 4.7466515e+01 6.0553600e+01
         vertex 7.3721337e+01 5.1453562e+01 6.0553600e+01
      endloop
   endfacet
   facet normal 2.4939664e-16 1.3073830e-15 1.0000000e+00
      outer loop
         vertex 8.7454155e+01 4.1663307e+01 6.0553600e+01
         vertex 8.1489100e+01 4.8236050e+01 6.0553600e+01
         vertex 7.8157378e+01 4.3436762e+01 6.0553600e+01
      endloop
   endfacet
   facet normal 1.6163435e-16 1.2277348e-15 1.0000000e+00
      outer loop
         vertex 8.1489100e+01 4.8236050e+01 6.0553600e+01
         vertex 8.7454155e+01 4.1663307e+01 6.0553600e+01
         vertex 8.9824937e+01 4.7138616e+01 6.0553600e+01
      endloop
   endfacet
   facet normal -4.1457771e-16 1.2759390e-15 1.0000000e+00
      outer loop
         vertex 1.0590109e+02 4.5182248e+01 6.0553600e+01
         vertex 9.8160774e+01 4.8236050e+01 6.0553600e+01
         vertex 9.6899896e+01 4.2257583e+01 6.0553600e+01
      endloop
   endfacet
   facet normal -2.3922313e-17 2.2661138e-15 1.0000000e+00
      outer loop
         vertex 9.8160774e+01 4.8236050e+01 6.0553600e+01
         vertex 1.0590109e+02 4.5182248e+01 6.0553600e+01
         vertex 1.0592854e+02 5.1453562e+01 6.0553600e+01
      endloop
   endfacet
   facet normal -1.0660167e-15 2.0309384e-15 1.0000000e+00
      outer loop
         vertex 1.2037100e+02 5.7152800e+01 6.0553600e+01
         vertex 1.1259887e+02 5.6571886e+01 6.0553600e+01
         vertex 1.1389216e+02 5.0253537e+01 6.0553600e+01
      endloop
   endfacet
   facet normal -9.6984075e-16 7.4418498e-16 1.0000000e+00
      outer loop
         vertex 1.1259887e+02 5.6571886e+01 6.0553600e+01
         vertex 1.2037100e+02 5.7152800e+01 6.0553600e+01
         vertex 1.1771719e+02 6.3242216e+01 6.0553600e+01
      endloop
   endfacet
   facet normal -1.3099330e-15 3.3633363e-16 1.0000000e+00
      outer loop
         vertex 1.2728423e+02 7.4613607e+01 6.0553600e+01
         vertex 1.2093470e+02 7.1009979e+01 6.0553600e+01
         vertex 1.2493052e+02 6.5446532e+01 6.0553600e+01
      endloop
   endfacet
   facet normal -1.2094148e-15 1.5922247e-16 1.0000000e+00
      outer loop
         vertex 1.2093470e+02 7.1009979e+01 6.0553600e+01
         vertex 1.2728423e+02 7.4613607e+01 6.0553600e+01
         vertex 1.2203214e+02 7.9345816e+01 6.0553600e+01
      endloop
   endfacet
   facet normal -1.3099330e-15 -3.3633363e-16 1.0000000e+00
      outer loop
         vertex 1.2493052e+02 9.3245100e+01 6.0553600e+01
         vertex 1.2093470e+02 8.7681653e+01 6.0553600e+01
         vertex 1.2728423e+02 8.4078024e+01 6.0553600e+01
      endloop
   endfacet
   facet normal -1.1277968e-15 -4.6714874e-16 1.0000000e+00
      outer loop
         vertex 1.2093470e+02 8.7681653e+01 6.0553600e+01
         vertex 1.2493052e+02 9.3245100e+01 6.0553600e+01
         vertex 1.1771719e+02 9.5449416e+01 6.0553600e+01
      endloop
   endfacet
   facet normal -9.0044211e-16 1.8431062e-16 1.0000000e+00
      outer loop
         vertex 1.1389216e+02 1.0843810e+02 6.0553600e+01
         vertex 1.1259887e+02 1.0211975e+02 6.0553600e+01
         vertex 1.2037100e+02 1.0153883e+02 6.0553600e+01
      endloop
   endfacet
   facet normal 0.0000000e+00 -0.0000000e+00 1.0000000e+00
      outer loop
         vertex 1.1259887e+02 1.0211975e+02 6.0553600e+01
         vertex 1.1389216e+02 1.0843810e+02 6.0553600e+01
         vertex 1.0592854e+02 1.0723807e+02 6.0553600e+01
      endloop
   endfacet
   facet normal -4.1457771e-16 -1.2759390e-15 1.0000000e+00
      outer loop
         vertex 9.6899896e+01 1.1643405e+02 6.0553600e+01
         vertex 9.8160774e+01 1.1045558e+02 6.0553600e+01
         vertex 1.0590109e+02 1.1350938e+02 6.0553600e+01
      endloop
   endfacet
   facet normal -1.6093801e-16 -1.2224456e-15 1.0000000e+00
      outer loop
         vertex 9.8160774e+01 1.1045558e+02 6.0553600e+01
         vertex 9.6899896e+01 1.1643405e+02 6.0553600e+01
         vertex 8.9824937e+01 1.1155302e+02 6.0553600e+01
      endloop
   endfacet
   facet normal 2.4939664e-16 -1.3073830e-15 1.0000000e+00
      outer loop
         vertex 7.8157378e+01 1.1525487e+02 6.0553600e+01
         vertex 8.1489100e+01 1.1045558e+02 6.0553600e+01
         vertex 8.7454155e+01 1.1702832e+02 6.0553600e+01
      endloop
   endfacet
   facet normal 1.1867350e-15 -6.5667160e-16 1.0000000e+00
      outer loop
         vertex 8.1489100e+01 1.1045558e+02 6.0553600e+01
         vertex 7.8157378e+01 1.1525487e+02 6.0553600e+01
         vertex 7.3721337e+01 1.0723807e+02 6.0553600e+01
      endloop
   endfacet
   facet normal 1.2670698e-15 -3.5383407e-16 1.0000000e+00
      outer loop
         vertex 6.2301259e+01 1.0519227e+02 6.0553600e+01
         vertex 6.7051008e+01 1.0211975e+02 6.0553600e+01
         vertex 6.9593717e+01 1.1122512e+02 6.0553600e+01
      endloop
   endfacet
   facet normal 9.9972521e-16 -7.6711613e-16 1.0000000e+00
      outer loop
         vertex 6.7051008e+01 1.0211975e+02 6.0553600e+01
         vertex 6.2301259e+01 1.0519227e+02 6.0553600e+01
         vertex 6.1932684e+01 9.5449416e+01 6.0553600e+01
      endloop
   endfacet
   facet normal -1.1277968e-15 4.6714874e-16 1.0000000e+00
      outer loop
         vertex 1.2093470e+02 7.1009979e+01 6.0553600e+01
         vertex 1.1771719e+02 6.3242216e+01 6.0553600e+01
         vertex 1.2493052e+02 6.5446532e+01 6.0553600e+01
      endloop
   endfacet
   facet normal -1.1839425e-15 6.5087788e-16 1.0000000e+00
      outer loop
         vertex 1.2493052e+02 6.5446532e+01 6.0553600e+01
         vertex 1.1771719e+02 6.3242216e+01 6.0553600e+01
         vertex 1.2037100e+02 5.7152800e+01 6.0553600e+01
      endloop
   endfacet
   facet normal -1.4915570e-15 1.9438349e-15 1.0000000e+00
      outer loop
         vertex 1.1259887e+02 5.6571886e+01 6.0553600e+01
         vertex 1.0592854e+02 5.1453562e+01 6.0553600e+01
         vertex 1.1389216e+02 5.0253537e+01 6.0553600e+01
      endloop
   endfacet
   facet normal -1.4420581e-15 2.2723200e-15 1.0000000e+00
      outer loop
         vertex 1.1389216e+02 5.0253537e+01 6.0553600e+01
         vertex 1.0592854e+02 5.1453562e+01 6.0553600e+01
         vertex 1.0590109e+02 4.5182248e+01 6.0553600e+01
      endloop
   endfacet
   facet normal -1.6093801e-16 1.2224456e-15 1.0000000e+00
      outer loop
         vertex 9.8160774e+01 4.8236050e+01 6.0553600e+01
         vertex 8.9824937e+01 4.7138616e+01 6.0553600e+01
         vertex 9.6899896e+01 4.2257583e+01 6.0553600e+01
      endloop
   endfacet
   facet normal -8.3932189e-17 1.3340639e-15 1.0000000e+00
      outer loop
         vertex 9.6899896e+01 4.2257583e+01 6.0553600e+01
         vertex 8.9824937e+01 4.7138616e+01 6.0553600e+01
         vertex 8.7454155e+01 4.1663307e+01 6.0553600e+01
      endloop
   endfacet
   facet normal -2.3415172e-16 1.6430679e-15 1.0000000e+00
      outer loop
         vertex 8.1489100e+01 4.8236050e+01 6.0553600e+01
         vertex 7.3721337e+01 5.1453562e+01 6.0553600e+01
         vertex 7.8157378e+01 4.3436762e+01 6.0553600e+01
      endloop
   endfacet
   facet normal 1.1277984e-15 2.3966936e-15 1.0000000e+00
      outer loop
         vertex 7.8157378e+01 4.3436762e+01 6.0553600e+01
         vertex 7.3721337e+01 5.1453562e+01 6.0553600e+01
         vertex 6.9593717e+01 4.7466515e+01 6.0553600e+01
      endloop
   endfacet
   facet normal 9.9972521e-16 7.6711613e-16 1.0000000e+00
      outer loop
         vertex 6.7051008e+01 5.6571886e+01 6.0553600e+01
         vertex 6.1932684e+01 6.3242216e+01 6.0553600e+01
         vertex 6.2301259e+01 5.3499361e+01 6.0553600e+01
      endloop
   endfacet
   facet normal 1.0589274e-15 7.6935577e-16 1.0000000e+00
      outer loop
         vertex 6.2301259e+01 5.3499361e+01 6.0553600e+01
         vertex 6.1932684e+01 6.3242216e+01 6.0553600e+01
         vertex 5.6738214e+01 6.1156236e+01 6.0553600e+01
      endloop
   endfacet
   facet normal 1.2688724e-15 1.6705022e-16 1.0000000e+00
      outer loop
         vertex 5.8715171e+01 7.1009979e+01 6.0553600e+01
         vertex 5.7617737e+01 7.9345816e+01 6.0553600e+01
         vertex 5.3254129e+01 6.9956028e+01 6.0553600e+01
      endloop
   endfacet
   facet normal 1.1728009e-15 -4.8579003e-16 1.0000000e+00
      outer loop
         vertex 5.8715171e+01 8.7681653e+01 6.0553600e+01
         vertex 6.1932684e+01 9.5449416e+01 6.0553600e+01
         vertex 5.6738214e+01 9.7535396e+01 6.0553600e+01
      endloop
   endfacet
   facet normal 1.0589274e-15 -7.6935577e-16 1.0000000e+00
      outer loop
         vertex 5.6738214e+01 9.7535396e+01 6.0553600e+01
         vertex 6.1932684e+01 9.5449416e+01 6.0553600e+01
         vertex 6.2301259e+01 1.0519227e+02 6.0553600e+01
      endloop
   endfacet
   facet normal 0.0000000e+00 -0.0000000e+00 1.0000000e+00
      outer loop
         vertex 6.7051008e+01 1.0211975e+02 6.0553600e+01
         vertex 7.3721337e+01 1.0723807e+02 6.0553600e+01
         vertex 6.9593717e+01 1.1122512e+02 6.0553600e+01
      endloop
   endfacet
   facet normal -0.0000000e+00 0.0000000e+00 1.0000000e+00
      outer loop
         vertex 6.9593717e+01 1.1122512e+02 6.0553600e+01
         vertex 7.3721337e+01 1.0723807e+02 6.0553600e+01
         vertex 7.8157378e+01 1.1525487e+02 6.0553600e+01
      endloop
   endfacet
   facet normal 1.6163435e-16 -1.2277348e-15 1.0000000e+00
      outer loop
         vertex 8.1489100e+01 1.1045558e+02 6.0553600e+01
         vertex 8.9824937e+01 1.1155302e+02 6.0553600e+01
         vertex 8.7454155e+01 1.1702832e+02 6.0553600e+01
      endloop
   endfacet
   facet normal -8.3932189e-17 -1.3340639e-15 1.0000000e+00
      outer loop
         vertex 8.7454155e+01 1.1702832e+02 6.0553600e+01
         vertex 8.9824937e+01 1.1155302e+02 6.0553600e+01
         vertex 9.6899896e+01 1.1643405e+02 6.0553600e+01
      endloop
   endfacet
   facet normal -9.1639392e-16 -4.0104510e-18 1.0000000e+00
      outer loop
         vertex 9.8160774e+01 1.1045558e+02 6.0553600e+01
         vertex 1.0592854e+02 1.0723807e+02 6.0553600e+01
         vertex 1.0590109e+02 1.1350938e+02 6.0553600e+01
      endloop
   endfacet
   facet normal -0.0000000e+00 0.0000000e+00 1.0000000e+00
      outer loop
         vertex 1.0590109e+02 1.1350938e+02 6.0553600e+01
         vertex 1.0592854e+02 1.0723807e+02 6.0553600e+01
         vertex 1.1389216e+02 1.0843810e+02 6.0553600e+01
      endloop
   endfacet
   facet normal -9.6984075e-16 -7.4418498e-16 1.0000000e+00
      outer loop
         vertex 1.1259887e+02 1.0211975e+02 6.0553600e+01
         vertex 1.1771719e+02 9.5449416e+01 6.0553600e+01
         vertex 1.2037100e+02 1.0153883e+02 6.0553600e+01
      endloop
   endfacet
   facet normal -1.1839425e-15 -6.5087788e-16 1.0000000e+00
      outer loop
         vertex 1.2037100e+02 1.0153883e+02 6.0553600e+01
         vertex 1.1771719e+02 9.5449416e+01 6.0553600e+01
         vertex 1.2493052e+02 9.3245100e+01 6.0553600e+01
      endloop
   endfacet
   facet normal -1.2094148e-15 -1.5922247e-16 1.0000000e+00
      outer loop
         vertex 1.2093470e+02 8.7681653e+01 6.0553600e+01
         vertex 1.2203214e+02 7.9345816e+01 6.0553600e+01
         vertex 1.2728423e+02 8.4078024e+01 6.0553600e+01
      endloop
   endfacet
   facet normal 1.2803001e-15 1.6173952e-16 1.0000000e+00
      outer loop
         vertex 5.7617737e+01 7.9345816e+01 6.0553600e+01
         vertex 5.2067923e+01 7.9345816e+01 6.0553600e+01
         vertex 5.3254129e+01 6.9956028e+01 6.0553600e+01
      endloop
   endfacet
   facet normal -1.3528765e-15 -2.0313487e-30 1.0000000e+00
      outer loop
         vertex 1.2728423e+02 8.4078024e+01 6.0553600e+01
         vertex 1.2203214e+02 7.9345816e+01 6.0553600e+01
         vertex 1.2728423e+02 7.4613607e+01 6.0553600e+01
      endloop
   endfacet
   facet normal 9.8367610e-01 -1.2426719e-01 1.3014990e-01
      outer loop
         vertex 5.3254129e+01 8.8735603e+01 6.0553600e+01
         vertex 5.0020595e+01 8.9156705e+01 8.5394800e+01
         vertex 5.2067923e+01 7.9345816e+01 6.0553600e+01
      endloop
   endfacet
   facet normal 9.2748205e-01 -3.5174754e-01 1.2669141e-01
      outer loop
         vertex 5.0020595e+01 8.9156705e+01 8.5394800e+01
         vertex 5.3254129e+01 8.8735603e+01 6.0553600e+01
         vertex 5.3525136e+01 9.8397421e+01 8.5394800e+01
      endloop
   endfacet
   facet normal 8.0178099e-01 -5.8252798e-01 1.3344812e-01
      outer loop
         vertex 6.2301259e+01 1.0519227e+02 6.0553600e+01
         vertex 5.9139290e+01 1.0653093e+02 8.5394800e+01
         vertex 5.6738214e+01 9.7535396e+01 6.0553600e+01
      endloop
   endfacet
   facet normal 6.5802272e-01 -7.4275410e-01 1.2378387e-01
      outer loop
         vertex 5.9139290e+01 1.0653093e+02 8.5394800e+01
         vertex 6.2301259e+01 1.0519227e+02 6.0553600e+01
         vertex 6.6536782e+01 1.1308453e+02 8.5394800e+01
      endloop
   endfacet
   facet normal 4.2181482e-01 -8.9640213e-01 1.3614504e-01
      outer loop
         vertex 7.8157378e+01 1.1525487e+02 6.0553600e+01
         vertex 7.5287697e+01 1.1767737e+02 8.5394800e+01
         vertex 6.9593717e+01 1.1122512e+02 6.0553600e+01
      endloop
   endfacet
   facet normal 2.3754483e-01 -9.6375727e-01 1.2142641e-01
      outer loop
         vertex 7.5287697e+01 1.1767737e+02 8.5394800e+01
         vertex 7.8157378e+01 1.1525487e+02 6.0553600e+01
         vertex 8.4883464e+01 1.2004251e+02 8.5394800e+01
      endloop
   endfacet
   facet normal -6.2187639e-02 -9.8844421e-01 1.3824161e-01
      outer loop
         vertex 9.6899896e+01 1.1643405e+02 6.0553600e+01
         vertex 9.4766411e+01 1.2004251e+02 8.5394800e+01
         vertex 8.7454155e+01 1.1702832e+02 6.0553600e+01
      endloop
   endfacet
   facet normal -2.3759728e-01 -9.6397005e-01 1.1962142e-01
      outer loop
         vertex 9.4766411e+01 1.2004251e+02 8.5394800e+01
         vertex 9.6899896e+01 1.1643405e+02 6.0553600e+01
         vertex 1.0436218e+02 1.1767737e+02 8.5394800e+01
      endloop
   endfacet
   facet normal -5.3056949e-01 -8.3604374e-01 1.3973859e-01
      outer loop
         vertex 1.1389216e+02 1.0843810e+02 6.0553600e+01
         vertex 1.1311309e+02 1.1308453e+02 8.5394800e+01
         vertex 1.0590109e+02 1.1350938e+02 6.0553600e+01
      endloop
   endfacet
   facet normal -6.5846056e-01 -7.4324833e-01 1.1837068e-01
      outer loop
         vertex 1.1311309e+02 1.1308453e+02 8.5394800e+01
         vertex 1.1389216e+02 1.0843810e+02 6.0553600e+01
         vertex 1.2051058e+02 1.0653093e+02 8.5394800e+01
      endloop
   endfacet
   facet normal -8.6759733e-01 -4.7696567e-01 1.4063653e-01
      outer loop
         vertex 1.2493052e+02 9.3245100e+01 6.0553600e+01
         vertex 1.2612474e+02 9.8397421e+01 8.5394800e+01
         vertex 1.2037100e+02 1.0153883e+02 6.0553600e+01
      endloop
   endfacet
   facet normal -9.2851985e-01 -3.5214113e-01 1.1767543e-01
      outer loop
         vertex 1.2612474e+02 9.8397421e+01 8.5394800e+01
         vertex 1.2493052e+02 9.3245100e+01 6.0553600e+01
         vertex 1.2962928e+02 8.9156705e+01 8.5394800e+01
      endloop
   endfacet
   facet normal -9.9001874e-01 -1.4960192e-15 1.4093581e-01
      outer loop
         vertex 1.2728423e+02 7.4613607e+01 6.0553600e+01
         vertex 1.3082054e+02 7.9345816e+01 8.5394800e+01
         vertex 1.2728423e+02 8.4078024e+01 6.0553600e+01
      endloop
   endfacet
   facet normal -9.8582799e-01 1.1970119e-01 1.1753635e-01
      outer loop
         vertex 1.3082054e+02 7.9345816e+01 8.5394800e+01
         vertex 1.2728423e+02 7.4613607e+01 6.0553600e+01
         vertex 1.2962928e+02 6.9534927e+01 8.5394800e+01
      endloop
   endfacet
   facet normal -8.6759733e-01 4.7696567e-01 1.4063653e-01
      outer loop
         vertex 1.2037100e+02 5.7152800e+01 6.0553600e+01
         vertex 1.2612474e+02 6.0294211e+01 8.5394800e+01
         vertex 1.2493052e+02 6.5446532e+01 6.0553600e+01
      endloop
   endfacet
   facet normal -8.1723871e-01 5.6409915e-01 1.1795356e-01
      outer loop
         vertex 1.2612474e+02 6.0294211e+01 8.5394800e+01
         vertex 1.2037100e+02 5.7152800e+01 6.0553600e+01
         vertex 1.2051058e+02 5.2160705e+01 8.5394800e+01
      endloop
   endfacet
   facet normal -5.3056949e-01 8.3604374e-01 1.3973859e-01
      outer loop
         vertex 1.0590109e+02 4.5182248e+01 6.0553600e+01
         vertex 1.1311309e+02 4.5607098e+01 8.5394800e+01
         vertex 1.1389216e+02 5.0253537e+01 6.0553600e+01
      endloop
   endfacet
   facet normal -4.6142505e-01 8.7917198e-01 1.1892668e-01
      outer loop
         vertex 1.1311309e+02 4.5607098e+01 8.5394800e+01
         vertex 1.0590109e+02 4.5182248e+01 6.0553600e+01
         vertex 1.0436218e+02 4.1014264e+01 8.5394800e+01
      endloop
   endfacet
   facet normal -6.2187639e-02 9.8844421e-01 1.3824161e-01
      outer loop
         vertex 8.7454155e+01 4.1663307e+01 6.0553600e+01
         vertex 9.4766411e+01 3.8649120e+01 8.5394800e+01
         vertex 9.6899896e+01 4.2257583e+01 6.0553600e+01
      endloop
   endfacet
   facet normal 0.0000000e+00 9.9271882e-01 1.2045473e-01
      outer loop
         vertex 9.4766411e+01 3.8649120e+01 8.5394800e+01
         vertex 8.7454155e+01 4.1663307e+01 6.0553600e+01
         vertex 8.4883464e+01 3.8649120e+01 8.5394800e+01
      endloop
   endfacet
   facet normal 4.2181482e-01 8.9640213e-01 1.3614504e-01
      outer loop
         vertex 6.9593717e+01 4.7466515e+01 6.0553600e+01
         vertex 7.5287697e+01 4.1014264e+01 8.5394800e+01
         vertex 7.8157378e+01 4.3436762e+01 6.0553600e+01
      endloop
   endfacet
   facet normal 4.6122104e-01 8.7878327e-01 1.2253622e-01
      outer loop
         vertex 7.5287697e+01 4.1014264e+01 8.5394800e+01
         vertex 6.9593717e+01 4.7466515e+01 6.0553600e+01
         vertex 6.6536782e+01 4.5607098e+01 8.5394800e+01
      endloop
   endfacet
   facet normal 8.0178099e-01 5.8252798e-01 1.3344812e-01
      outer loop
         vertex 5.6738214e+01 6.1156236e+01 6.0553600e+01
         vertex 5.9139290e+01 5.2160705e+01 8.5394800e+01
         vertex 6.2301259e+01 5.3499361e+01 6.0553600e+01
      endloop
   endfacet
   facet normal 8.1651145e-01 5.6359716e-01 1.2516906e-01
      outer loop
         vertex 5.9139290e+01 5.2160705e+01 8.5394800e+01
         vertex 5.6738214e+01 6.1156236e+01 6.0553600e+01
         vertex 5.3525136e+01 6.0294211e+01 8.5394800e+01
      endloop
   endfacet
   facet normal 9.8367610e-01 1.2426719e-01 1.3014990e-01
      outer loop
         vertex 5.2067923e+01 7.9345816e+01 6.0553600e+01
         vertex 5.0020595e+01 6.9534927e+01 8.5394800e+01
         vertex 5.3254129e+01 6.9956028e+01 6.0553600e+01
      endloop
   endfacet
   facet normal -9.8582799e-01 -1.1970119e-01 1.1753635e-01
      outer loop
         vertex 1.3082054e+02 7.9345816e+01 8.5394800e+01
         vertex 1.2962928e+02 8.9156705e+01 8.5394800e+01
         vertex 1.2728423e+02 8.4078024e+01 6.0553600e+01
      endloop
   endfacet
   facet normal -9.5892579e-01 -2.4621030e-01 1.4086099e-01
      outer loop
         vertex 1.2728423e+02 8.4078024e+01 6.0553600e+01
         vertex 1.2962928e+02 8.9156705e+01 8.5394800e+01
         vertex 1.2493052e+02 9.3245100e+01 6.0553600e+01
      endloop
   endfacet
   facet normal -8.1723871e-01 -5.6409915e-01 1.1795356e-01
      outer loop
         vertex 1.2612474e+02 9.8397421e+01 8.5394800e+01
         vertex 1.2051058e+02 1.0653093e+02 8.5394800e+01
         vertex 1.2037100e+02 1.0153883e+02 6.0553600e+01
      endloop
   endfacet
   facet normal -7.2176231e-01 -6.7777992e-01 1.4026241e-01
      outer loop
         vertex 1.2037100e+02 1.0153883e+02 6.0553600e+01
         vertex 1.2051058e+02 1.0653093e+02 8.5394800e+01
         vertex 1.1389216e+02 1.0843810e+02 6.0553600e+01
      endloop
   endfacet
   facet normal -4.6142505e-01 -8.7917198e-01 1.1892668e-01
      outer loop
         vertex 1.1311309e+02 1.1308453e+02 8.5394800e+01
         vertex 1.0436218e+02 1.1767737e+02 8.5394800e+01
         vertex 1.0590109e+02 1.1350938e+02 6.0553600e+01
      endloop
   endfacet
   facet normal -3.0601435e-01 -9.4181534e-01 1.3906501e-01
      outer loop
         vertex 1.0590109e+02 1.1350938e+02 6.0553600e+01
         vertex 1.0436218e+02 1.1767737e+02 8.5394800e+01
         vertex 9.6899896e+01 1.1643405e+02 6.0553600e+01
      endloop
   endfacet
   facet normal 0.0000000e+00 -9.9271882e-01 1.2045473e-01
      outer loop
         vertex 9.4766411e+01 1.2004251e+02 8.5394800e+01
         vertex 8.4883464e+01 1.2004251e+02 8.5394800e+01
         vertex 8.7454155e+01 1.1702832e+02 6.0553600e+01
      endloop
   endfacet
   facet normal 1.8560754e-01 -9.7298882e-01 1.3726832e-01
      outer loop
         vertex 8.7454155e+01 1.1702832e+02 6.0553600e+01
         vertex 8.4883464e+01 1.2004251e+02 8.5394800e+01
         vertex 7.8157378e+01 1.1525487e+02 6.0553600e+01
      endloop
   endfacet
   facet normal 4.6122104e-01 -8.7878327e-01 1.2253622e-01
      outer loop
         vertex 7.5287697e+01 1.1767737e+02 8.5394800e+01
         vertex 6.6536782e+01 1.1308453e+02 8.5394800e+01
         vertex 6.9593717e+01 1.1122512e+02 6.0553600e+01
      endloop
   endfacet
   facet normal 6.3159989e-01 -7.6347312e-01 1.3487168e-01
      outer loop
         vertex 6.9593717e+01 1.1122512e+02 6.0553600e+01
         vertex 6.6536782e+01 1.1308453e+02 8.5394800e+01
         vertex 6.2301259e+01 1.0519227e+02 6.0553600e+01
      endloop
   endfacet
   facet normal 8.1651145e-01 -5.6359716e-01 1.2516906e-01
      outer loop
         vertex 5.9139290e+01 1.0653093e+02 8.5394800e+01
         vertex 5.3525136e+01 9.8397421e+01 8.5394800e+01
         vertex 5.6738214e+01 9.7535396e+01 6.0553600e+01
      endloop
   endfacet
   facet normal 9.2165624e-01 -3.6490952e-01 1.3187423e-01
      outer loop
         vertex 5.6738214e+01 9.7535396e+01 6.0553600e+01
         vertex 5.3525136e+01 9.8397421e+01 8.5394800e+01
         vertex 5.3254129e+01 8.8735603e+01 6.0553600e+01
      endloop
   endfacet
   facet normal 9.8449804e-01 -1.1953970e-01 1.2835055e-01
      outer loop
         vertex 5.0020595e+01 8.9156705e+01 8.5394800e+01
         vertex 4.8829337e+01 7.9345816e+01 8.5394800e+01
         vertex 5.2067923e+01 7.9345816e+01 6.0553600e+01
      endloop
   endfacet
   facet normal 9.8449804e-01 1.1953970e-01 1.2835055e-01
      outer loop
         vertex 4.8829337e+01 7.9345816e+01 8.5394800e+01
         vertex 5.0020595e+01 6.9534927e+01 8.5394800e+01
         vertex 5.2067923e+01 7.9345816e+01 6.0553600e+01
      endloop
   endfacet
   facet normal 9.2748205e-01 3.5174754e-01 1.2669141e-01
      outer loop
         vertex 5.0020595e+01 6.9534927e+01 8.5394800e+01
         vertex 5.3525136e+01 6.0294211e+01 8.5394800e+01
         vertex 5.3254129e+01 6.9956028e+01 6.0553600e+01
      endloop
   endfacet
   facet normal 9.2165624e-01 3.6490952e-01 1.3187423e-01
      outer loop
         vertex 5.3254129e+01 6.9956028e+01 6.0553600e+01
         vertex 5.3525136e+01 6.0294211e+01 8.5394800e+01
         vertex 5.6738214e+01 6.1156236e+01 6.0553600e+01
      endloop
   endfacet
   facet normal 6.5802272e-01 7.4275410e-01 1.2378387e-01
      outer loop
         vertex 5.9139290e+01 5.2160705e+01 8.5394800e+01
         vertex 6.6536782e+01 4.5607098e+01 8.5394800e+01
         vertex 6.2301259e+01 5.3499361e+01 6.0553600e+01
      endloop
   endfacet
   facet normal 6.3159989e-01 7.6347312e-01 1.3487168e-01
      outer loop
         vertex 6.2301259e+01 5.3499361e+01 6.0553600e+01
         vertex 6.6536782e+01 4.5607098e+01 8.5394800e+01
         vertex 6.9593717e+01 4.7466515e+01 6.0553600e+01
      endloop
   endfacet
   facet normal 2.3754483e-01 9.6375727e-01 1.2142641e-01
      outer loop
         vertex 7.5287697e+01 4.1014264e+01 8.5394800e+01
         vertex 8.4883464e+01 3.8649120e+01 8.5394800e+01
         vertex 7.8157378e+01 4.3436762e+01 6.0553600e+01
      endloop
   endfacet
   facet normal 1.8560754e-01 9.7298882e-01 1.3726832e-01
      outer loop
         vertex 7.8157378e+01 4.3436762e+01 6.0553600e+01
         vertex 8.4883464e+01 3.8649120e+01 8.5394800e+01
         vertex 8.7454155e+01 4.1663307e+01 6.0553600e+01
      endloop
   endfacet
   facet normal -2.3759728e-01 9.6397005e-01 1.1962142e-01
      outer loop
         vertex 9.4766411e+01 3.8649120e+01 8.5394800e+01
         vertex 1.0436218e+02 4.1014264e+01 8.5394800e+01
         vertex 9.6899896e+01 4.2257583e+01 6.0553600e+01
      endloop
   endfacet
   facet normal -3.0601435e-01 9.4181534e-01 1.3906501e-01
      outer loop
         vertex 9.6899896e+01 4.2257583e+01 6.0553600e+01
         vertex 1.0436218e+02 4.1014264e+01 8.5394800e+01
         vertex 1.0590109e+02 4.5182248e+01 6.0553600e+01
      endloop
   endfacet
   facet normal -6.5846056e-01 7.4324833e-01 1.1837068e-01
      outer loop
         vertex 1.1311309e+02 4.5607098e+01 8.5394800e+01
         vertex 1.2051058e+02 5.2160705e+01 8.5394800e+01
         vertex 1.1389216e+02 5.0253537e+01 6.0553600e+01
      endloop
   endfacet
   facet normal -7.2176231e-01 6.7777992e-01 1.4026241e-01
      outer loop
         vertex 1.1389216e+02 5.0253537e+01 6.0553600e+01
         vertex 1.2051058e+02 5.2160705e+01 8.5394800e+01
         vertex 1.2037100e+02 5.7152800e+01 6.0553600e+01
      endloop
   endfacet
   facet normal -9.2851985e-01 3.5214113e-01 1.1767543e-01
      outer loop
         vertex 1.2612474e+02 6.0294211e+01 8.5394800e+01
         vertex 1.2962928e+02 6.9534927e+01 8.5394800e+01
         vertex 1.2493052e+02 6.5446532e+01 6.0553600e+01
      endloop
   endfacet
   facet normal -9.5892579e-01 2.4621030e-01 1.4086099e-01
      outer loop
         vertex 1.2493052e+02 6.5446532e+01 6.0553600e+01
         vertex 1.2962928e+02 6.9534927e+01 8.5394800e+01
         vertex 1.2728423e+02 7.4613607e+01 6.0553600e+01
      endloop
   endfacet
   facet normal 9.8310318e-01 -1.2942799e-01 1.2944702e-01
      outer loop
         vertex 6.2530398e+01 8.6659366e+01 3.0556200e+01
         vertex 5.8715171e+01 8.7681653e+01 6.0553600e+01
         vertex 6.1567551e+01 7.9345816e+01 3.0556200e+01
      endloop
   endfacet
   facet normal 9.1610632e-01 -3.7946366e-01 1.2944702e-01
      outer loop
         vertex 5.8715171e+01 8.7681653e+01 6.0553600e+01
         vertex 6.2530398e+01 8.6659366e+01 3.0556200e+01
         vertex 6.1932684e+01 9.5449416e+01 6.0553600e+01
      endloop
   endfacet
   facet normal 7.8667833e-01 -6.0363952e-01 1.2944702e-01
      outer loop
         vertex 6.9843948e+01 9.9326806e+01 3.0556200e+01
         vertex 6.7051008e+01 1.0211975e+02 6.0553600e+01
         vertex 6.5353323e+01 9.3474509e+01 3.0556200e+01
      endloop
   endfacet
   facet normal 6.0363952e-01 -7.8667833e-01 1.2944702e-01
      outer loop
         vertex 6.7051008e+01 1.0211975e+02 6.0553600e+01
         vertex 6.9843948e+01 9.9326806e+01 3.0556200e+01
         vertex 7.3721337e+01 1.0723807e+02 6.0553600e+01
      endloop
   endfacet
   facet normal 3.7946366e-01 -9.1610632e-01 1.2944702e-01
      outer loop
         vertex 8.2511387e+01 1.0664036e+02 3.0556200e+01
         vertex 8.1489100e+01 1.1045558e+02 6.0553600e+01
         vertex 7.5696244e+01 1.0381743e+02 3.0556200e+01
      endloop
   endfacet
   facet normal 1.2942799e-01 -9.8310318e-01 1.2944702e-01
      outer loop
         vertex 8.1489100e+01 1.1045558e+02 6.0553600e+01
         vertex 8.2511387e+01 1.0664036e+02 3.0556200e+01
         vertex 8.9824937e+01 1.1155302e+02 6.0553600e+01
      endloop
   endfacet
   facet normal -1.2942799e-01 -9.8310318e-01 1.2944702e-01
      outer loop
         vertex 9.7138487e+01 1.0664036e+02 3.0556200e+01
         vertex 9.8160774e+01 1.1045558e+02 6.0553600e+01
         vertex 8.9824937e+01 1.0760320e+02 3.0556200e+01
      endloop
   endfacet
   facet normal -3.7946366e-01 -9.1610632e-01 1.2944702e-01
      outer loop
         vertex 9.8160774e+01 1.1045558e+02 6.0553600e+01
         vertex 9.7138487e+01 1.0664036e+02 3.0556200e+01
         vertex 1.0592854e+02 1.0723807e+02 6.0553600e+01
      endloop
   endfacet
   facet normal -6.0363952e-01 -7.8667833e-01 1.2944702e-01
      outer loop
         vertex 1.0980593e+02 9.9326806e+01 3.0556200e+01
         vertex 1.1259887e+02 1.0211975e+02 6.0553600e+01
         vertex 1.0395363e+02 1.0381743e+02 3.0556200e+01
      endloop
   endfacet
   facet normal -7.8667833e-01 -6.0363952e-01 1.2944702e-01
      outer loop
         vertex 1.1259887e+02 1.0211975e+02 6.0553600e+01
         vertex 1.0980593e+02 9.9326806e+01 3.0556200e+01
         vertex 1.1771719e+02 9.5449416e+01 6.0553600e+01
      endloop
   endfacet
   facet normal -9.1610632e-01 -3.7946366e-01 1.2944702e-01
      outer loop
         vertex 1.1711948e+02 8.6659366e+01 3.0556200e+01
         vertex 1.2093470e+02 8.7681653e+01 6.0553600e+01
         vertex 1.1429655e+02 9.3474509e+01 3.0556200e+01
      endloop
   endfacet
   facet normal -9.8310318e-01 -1.2942799e-01 1.2944702e-01
      outer loop
         vertex 1.2093470e+02 8.7681653e+01 6.0553600e+01
         vertex 1.1711948e+02 8.6659366e+01 3.0556200e+01
         vertex 1.2203214e+02 7.9345816e+01 6.0553600e+01
      endloop
   endfacet
   facet normal -9.8310318e-01 1.2942799e-01 1.2944702e-01
      outer loop
         vertex 1.1711948e+02 7.2032266e+01 3.0556200e+01
         vertex 1.2093470e+02 7.1009979e+01 6.0553600e+01
         vertex 1.1808232e+02 7.9345816e+01 3.0556200e+01
      endloop
   endfacet
   facet normal -9.1610632e-01 3.7946366e-01 1.2944702e-01
      outer loop
         vertex 1.2093470e+02 7.1009979e+01 6.0553600e+01
         vertex 1.1711948e+02 7.2032266e+01 3.0556200e+01
         vertex 1.1771719e+02 6.3242216e+01 6.0553600e+01
      endloop
   endfacet
   facet normal -7.8667833e-01 6.0363952e-01 1.2944702e-01
      outer loop
         vertex 1.0980593e+02 5.9364826e+01 3.0556200e+01
         vertex 1.1259887e+02 5.6571886e+01 6.0553600e+01
         vertex 1.1429655e+02 6.5217123e+01 3.0556200e+01
      endloop
   endfacet
   facet normal -6.0363952e-01 7.8667833e-01 1.2944702e-01
      outer loop
         vertex 1.1259887e+02 5.6571886e+01 6.0553600e+01
         vertex 1.0980593e+02 5.9364826e+01 3.0556200e+01
         vertex 1.0592854e+02 5.1453562e+01 6.0553600e+01
      endloop
   endfacet
   facet normal -3.7946366e-01 9.1610632e-01 1.2944702e-01
      outer loop
         vertex 9.7138487e+01 5.2051276e+01 3.0556200e+01
         vertex 9.8160774e+01 4.8236050e+01 6.0553600e+01
         vertex 1.0395363e+02 5.4874201e+01 3.0556200e+01
      endloop
   endfacet
   facet normal -1.2942799e-01 9.8310318e-01 1.2944702e-01
      outer loop
         vertex 9.8160774e+01 4.8236050e+01 6.0553600e+01
         vertex 9.7138487e+01 5.2051276e+01 3.0556200e+01
         vertex 8.9824937e+01 4.7138616e+01 6.0553600e+01
      endloop
   endfacet
   facet normal 1.2942799e-01 9.8310318e-01 1.2944702e-01
      outer loop
         vertex 8.2511387e+01 5.2051276e+01 3.0556200e+01
         vertex 8.1489100e+01 4.8236050e+01 6.0553600e+01
         vertex 8.9824937e+01 5.1088429e+01 3.0556200e+01
      endloop
   endfacet
   facet normal 3.7946366e-01 9.1610632e-01 1.2944702e-01
      outer loop
         vertex 8.1489100e+01 4.8236050e+01 6.0553600e+01
         vertex 8.2511387e+01 5.2051276e+01 3.0556200e+01
         vertex 7.3721337e+01 5.1453562e+01 6.0553600e+01
      endloop
   endfacet
   facet normal 6.0363952e-01 7.8667833e-01 1.2944702e-01
      outer loop
         vertex 6.9843948e+01 5.9364826e+01 3.0556200e+01
         vertex 6.7051008e+01 5.6571886e+01 6.0553600e+01
         vertex 7.5696244e+01 5.4874201e+01 3.0556200e+01
      endloop
   endfacet
   facet normal 7.8667833e-01 6.0363952e-01 1.2944702e-01
      outer loop
         vertex 6.7051008e+01 5.6571886e+01 6.0553600e+01
         vertex 6.9843948e+01 5.9364826e+01 3.0556200e+01
         vertex 6.1932684e+01 6.3242216e+01 6.0553600e+01
      endloop
   endfacet
   facet normal 9.1610632e-01 3.7946366e-01 1.2944702e-01
      outer loop
         vertex 6.2530398e+01 7.2032266e+01 3.0556200e+01
         vertex 5.8715171e+01 7.1009979e+01 6.0553600e+01
         vertex 6.5353323e+01 6.5217123e+01 3.0556200e+01
      endloop
   endfacet
   facet normal 9.8310318e-01 1.2942799e-01 1.2944702e-01
      outer loop
         vertex 5.8715171e+01 7.1009979e+01 6.0553600e+01
         vertex 6.2530398e+01 7.2032266e+01 3.0556200e+01
         vertex 5.7617737e+01 7.9345816e+01 6.0553600e+01
      endloop
   endfacet
   facet normal -9.1610632e-01 -3.7946366e-01 1.2944702e-01
      outer loop
         vertex 1.2093470e+02 8.7681653e+01 6.0553600e+01
         vertex 1.1771719e+02 9.5449416e+01 6.0553600e+01
         vertex 1.1429655e+02 9.3474509e+01 3.0556200e+01
      endloop
   endfacet
   facet normal -7.8667833e-01 -6.0363952e-01 1.2944702e-01
      outer loop
         vertex 1.1429655e+02 9.3474509e+01 3.0556200e+01
         vertex 1.1771719e+02 9.5449416e+01 6.0553600e+01
         vertex 1.0980593e+02 9.9326806e+01 3.0556200e+01
      endloop
   endfacet
   facet normal -6.0363952e-01 -7.8667833e-01 1.2944702e-01
      outer loop
         vertex 1.1259887e+02 1.0211975e+02 6.0553600e+01
         vertex 1.0592854e+02 1.0723807e+02 6.0553600e+01
         vertex 1.0395363e+02 1.0381743e+02 3.0556200e+01
      endloop
   endfacet
   facet normal -3.7946366e-01 -9.1610632e-01 1.2944702e-01
      outer loop
         vertex 1.0395363e+02 1.0381743e+02 3.0556200e+01
         vertex 1.0592854e+02 1.0723807e+02 6.0553600e+01
         vertex 9.7138487e+01 1.0664036e+02 3.0556200e+01
      endloop
   endfacet
   facet normal -1.2942799e-01 -9.8310318e-01 1.2944702e-01
      outer loop
         vertex 9.8160774e+01 1.1045558e+02 6.0553600e+01
         vertex 8.9824937e+01 1.1155302e+02 6.0553600e+01
         vertex 8.9824937e+01 1.0760320e+02 3.0556200e+01
      endloop
   endfacet
   facet normal 1.2942799e-01 -9.8310318e-01 1.2944702e-01
      outer loop
         vertex 8.9824937e+01 1.0760320e+02 3.0556200e+01
         vertex 8.9824937e+01 1.1155302e+02 6.0553600e+01
         vertex 8.2511387e+01 1.0664036e+02 3.0556200e+01
      endloop
   endfacet
   facet normal 3.7946366e-01 -9.1610632e-01 1.2944702e-01
      outer loop
         vertex 8.1489100e+01 1.1045558e+02 6.0553600e+01
         vertex 7.3721337e+01 1.0723807e+02 6.0553600e+01
         vertex 7.5696244e+01 1.0381743e+02 3.0556200e+01
      endloop
   endfacet
   facet normal 6.0363952e-01 -7.8667833e-01 1.2944702e-01
      outer loop
         vertex 7.5696244e+01 1.0381743e+02 3.0556200e+01
         vertex 7.3721337e+01 1.0723807e+02 6.0553600e+01
         vertex 6.9843948e+01 9.9326806e+01 3.0556200e+01
      endloop
   endfacet
   facet normal 7.8667833e-01 -6.0363952e-01 1.2944702e-01
      outer loop
         vertex 6.7051008e+01 1.0211975e+02 6.0553600e+01
         vertex 6.1932684e+01 9.5449416e+01 6.0553600e+01
         vertex 6.5353323e+01 9.3474509e+01 3.0556200e+01
      endloop
   endfacet
   facet normal 9.1610632e-01 -3.7946366e-01 1.2944702e-01
      outer loop
         vertex 6.5353323e+01 9.3474509e+01 3.0556200e+01
         vertex 6.1932684e+01 9.5449416e+01 6.0553600e+01
         vertex 6.2530398e+01 8.6659366e+01 3.0556200e+01
      endloop
   endfacet
   facet normal 9.8310318e-01 -1.2942799e-01 1.2944702e-01
      outer loop
         vertex 5.8715171e+01 8.7681653e+01 6.0553600e+01
         vertex 5.7617737e+01 7.9345816e+01 6.0553600e+01
         vertex 6.1567551e+01 7.9345816e+01 3.0556200e+01
      endloop
   endfacet
   facet normal 9.8310318e-01 1.2942799e-01 1.2944702e-01
      outer loop
         vertex 6.1567551e+01 7.9345816e+01 3.0556200e+01
         vertex 5.7617737e+01 7.9345816e+01 6.0553600e+01
         vertex 6.2530398e+01 7.2032266e+01 3.0556200e+01
      endloop
   endfacet
   facet normal 9.1610632e-01 3.7946366e-01 1.2944702e-01
      outer loop
         vertex 5.8715171e+01 7.1009979e+01 6.0553600e+01
         vertex 6.1932684e+01 6.3242216e+01 6.0553600e+01
         vertex 6.5353323e+01 6.5217123e+01 3.0556200e+01
      endloop
   endfacet
   facet normal 7.8667833e-01 6.0363952e-01 1.2944702e-01
      outer loop
         vertex 6.5353323e+01 6.5217123e+01 3.0556200e+01
         vertex 6.1932684e+01 6.3242216e+01 6.0553600e+01
         vertex 6.9843948e+01 5.9364826e+01 3.0556200e+01
      endloop
   endfacet
   facet normal 6.0363952e-01 7.8667833e-01 1.2944702e-01
      outer loop
         vertex 6.7051008e+01 5.6571886e+01 6.0553600e+01
         vertex 7.3721337e+01 5.1453562e+01 6.0553600e+01
         vertex 7.5696244e+01 5.4874201e+01 3.0556200e+01
      endloop
   endfacet
   facet normal 3.7946366e-01 9.1610632e-01 1.2944702e-01
      outer loop
         vertex 7.5696244e+01 5.4874201e+01 3.0556200e+01
         vertex 7.3721337e+01 5.1453562e+01 6.0553600e+01
         vertex 8.2511387e+01 5.2051276e+01 3.0556200e+01
      endloop
   endfacet
   facet normal 1.2942799e-01 9.8310318e-01 1.2944702e-01
      outer loop
         vertex 8.1489100e+01 4.8236050e+01 6.0553600e+01
         vertex 8.9824937e+01 4.7138616e+01 6.0553600e+01
         vertex 8.9824937e+01 5.1088429e+01 3.0556200e+01
      endloop
   endfacet
   facet normal -1.2942799e-01 9.8310318e-01 1.2944702e-01
      outer loop
         vertex 8.9824937e+01 5.1088429e+01 3.0556200e+01
         vertex 8.9824937e+01 4.7138616e+01 6.0553600e+01
         vertex 9.7138487e+01 5.2051276e+01 3.0556200e+01
      endloop
   endfacet
   facet normal -3.7946366e-01 9.1610632e-01 1.2944702e-01
      outer loop
         vertex 9.8160774e+01 4.8236050e+01 6.0553600e+01
         vertex 1.0592854e+02 5.1453562e+01 6.0553600e+01
         vertex 1.0395363e+02 5.4874201e+01 3.0556200e+01
      endloop
   endfacet
   facet normal -6.0363952e-01 7.8667833e-01 1.2944702e-01
      outer loop
         vertex 1.0395363e+02 5.4874201e+01 3.0556200e+01
         vertex 1.0592854e+02 5.1453562e+01 6.0553600e+01
         vertex 1.0980593e+02 5.9364826e+01 3.0556200e+01
      endloop
   endfacet
   facet normal -7.8667833e-01 6.0363952e-01 1.2944702e-01
      outer loop
         vertex 1.1259887e+02 5.6571886e+01 6.0553600e+01
         vertex 1.1771719e+02 6.3242216e+01 6.0553600e+01
         vertex 1.1429655e+02 6.5217123e+01 3.0556200e+01
      endloop
   endfacet
   facet normal -9.1610632e-01 3.7946366e-01 1.2944702e-01
      outer loop
         vertex 1.1429655e+02 6.5217123e+01 3.0556200e+01
         vertex 1.1771719e+02 6.3242216e+01 6.0553600e+01
         vertex 1.1711948e+02 7.2032266e+01 3.0556200e+01
      endloop
   endfacet
   facet normal -9.8310318e-01 1.2942799e-01 1.2944702e-01
      outer loop
         vertex 1.2093470e+02 7.1009979e+01 6.0553600e+01
         vertex 1.2203214e+02 7.9345816e+01 6.0553600e+01
         vertex 1.1808232e+02 7.9345816e+01 3.0556200e+01
      endloop
   endfacet
   facet normal -9.8310318e-01 -1.2942799e-01 1.2944702e-01
      outer loop
         vertex 1.1808232e+02 7.9345816e+01 3.0556200e+01
         vertex 1.2203214e+02 7.9345816e+01 6.0553600e+01
         vertex 1.1711948e+02 8.6659366e+01 3.0556200e+01
      endloop
   endfacet
   facet normal 5.8659909e-16 7.1226025e-17 1.0000000e+00
      outer loop
         vertex 5.0020595e+01 6.9534927e+01 2.4594820e+02
         vertex 4.8829337e+01 7.9345816e+01 2.4594820e+02
         vertex 1.0000000e-06 8.2456123e+01 2.4594820e+02
      endloop
   endfacet
   facet normal 6.2991056e-16 2.3889356e-16 1.0000000e+00
      outer loop
         vertex 5.0020595e+01 6.9534927e+01 2.4594820e+02
         vertex 1.0000000e-06 8.2456123e+01 2.4594820e+02
         vertex 5.3525136e+01 6.0294211e+01 2.4594820e+02
      endloop
   endfacet
   facet normal 5.7759489e-16 -7.0132717e-17 1.0000000e+00
      outer loop
         vertex 4.8829337e+01 7.9345816e+01 2.4594820e+02
         vertex 5.0020595e+01 8.9156705e+01 2.4594820e+02
         vertex 1.0000000e-06 8.2456123e+01 2.4594820e+02
      endloop
   endfacet
   facet normal 5.5973058e-16 -3.8635412e-16 1.0000000e+00
      outer loop
         vertex 5.9139290e+01 1.0653093e+02 2.4594820e+02
         vertex 4.2218873e+01 1.5558135e+02 2.4594820e+02
         vertex 5.3525136e+01 9.8397421e+01 2.4594820e+02
      endloop
   endfacet
   facet normal 3.9317923e-16 -4.4380761e-16 1.0000000e+00
      outer loop
         vertex 5.9139290e+01 1.0653093e+02 2.4594820e+02
         vertex 6.6536782e+01 1.1308453e+02 2.4594820e+02
         vertex 4.2218873e+01 1.5558135e+02 2.4594820e+02
      endloop
   endfacet
   facet normal 2.6994039e-16 -5.1432844e-16 1.0000000e+00
      outer loop
         vertex 6.6536782e+01 1.1308453e+02 2.4594820e+02
         vertex 7.5287697e+01 1.1767737e+02 2.4594820e+02
         vertex 4.2218873e+01 1.5558135e+02 2.4594820e+02
      endloop
   endfacet
   facet normal 1.5210867e-16 -6.1712914e-16 1.0000000e+00
      outer loop
         vertex 7.5287697e+01 1.1767737e+02 2.4594820e+02
         vertex 8.4883464e+01 1.2004251e+02 2.4594820e+02
         vertex 4.2218873e+01 1.5558135e+02 2.4594820e+02
      endloop
   endfacet
   facet normal 0.0000000e+00 -7.9973650e-16 1.0000000e+00
      outer loop
         vertex 8.4883464e+01 1.2004251e+02 2.4594820e+02
         vertex 9.4766411e+01 1.2004251e+02 2.4594820e+02
         vertex 4.2218873e+01 1.5558135e+02 2.4594820e+02
      endloop
   endfacet
   facet normal 0.0000000e+00 -7.9973650e-16 1.0000000e+00
      outer loop
         vertex 4.2218873e+01 1.5558135e+02 2.4594820e+02
         vertex 9.4766411e+01 1.2004251e+02 2.4594820e+02
         vertex 1.3743100e+02 1.5558135e+02 2.4594820e+02
      endloop
   endfacet
   facet normal -1.5210867e-16 -6.1712914e-16 1.0000000e+00
      outer loop
         vertex 9.4766411e+01 1.2004251e+02 2.4594820e+02
         vertex 1.0436218e+02 1.1767737e+02 2.4594820e+02
         vertex 1.3743100e+02 1.5558135e+02 2.4594820e+02
      endloop
   endfacet
   facet normal -2.6994039e-16 -5.1432844e-16 1.0000000e+00
      outer loop
         vertex 1.0436218e+02 1.1767737e+02 2.4594820e+02
         vertex 1.1311309e+02 1.1308453e+02 2.4594820e+02
         vertex 1.3743100e+02 1.5558135e+02 2.4594820e+02
      endloop
   endfacet
   facet normal -3.9317923e-16 -4.4380761e-16 1.0000000e+00
      outer loop
         vertex 1.1311309e+02 1.1308453e+02 2.4594820e+02
         vertex 1.2051058e+02 1.0653093e+02 2.4594820e+02
         vertex 1.3743100e+02 1.5558135e+02 2.4594820e+02
      endloop
   endfacet
   facet normal -5.9861141e-16 -2.2702336e-16 1.0000000e+00
      outer loop
         vertex 1.2962928e+02 8.9156705e+01 2.4594820e+02
         vertex 1.7964987e+02 8.2456123e+01 2.4594820e+02
         vertex 1.2612474e+02 9.8397421e+01 2.4594820e+02
      endloop
   endfacet
   facet normal -5.7759489e-16 -7.0132717e-17 1.0000000e+00
      outer loop
         vertex 1.2962928e+02 8.9156705e+01 2.4594820e+02
         vertex 1.3082054e+02 7.9345816e+01 2.4594820e+02
         vertex 1.7964987e+02 8.2456123e+01 2.4594820e+02
      endloop
   endfacet
   facet normal -5.8659909e-16 7.1226025e-17 1.0000000e+00
      outer loop
         vertex 1.3082054e+02 7.9345816e+01 2.4594820e+02
         vertex 1.2962928e+02 6.9534927e+01 2.4594820e+02
         vertex 1.7964987e+02 8.2456123e+01 2.4594820e+02
      endloop
   endfacet
   facet normal -6.2991056e-16 2.3889356e-16 1.0000000e+00
      outer loop
         vertex 1.2962928e+02 6.9534927e+01 2.4594820e+02
         vertex 1.2612474e+02 6.0294211e+01 2.4594820e+02
         vertex 1.7964987e+02 8.2456123e+01 2.4594820e+02
      endloop
   endfacet
   facet normal -6.9780862e-16 4.0287999e-16 1.0000000e+00
      outer loop
         vertex 1.7964987e+02 8.2456123e+01 2.4594820e+02
         vertex 1.2612474e+02 6.0294211e+01 2.4594820e+02
         vertex 1.3204381e+02 1.0000000e-06 2.4594820e+02
      endloop
   endfacet
   facet normal -5.9788406e-16 4.1268957e-16 1.0000000e+00
      outer loop
         vertex 1.2612474e+02 6.0294211e+01 2.4594820e+02
         vertex 1.2051058e+02 5.2160705e+01 2.4594820e+02
         vertex 1.3204381e+02 1.0000000e-06 2.4594820e+02
      endloop
   endfacet
   facet normal -4.0365733e-16 4.5563493e-16 1.0000000e+00
      outer loop
         vertex 1.2051058e+02 5.2160705e+01 2.4594820e+02
         vertex 1.1311309e+02 4.5607098e+01 2.4594820e+02
         vertex 1.3204381e+02 1.0000000e-06 2.4594820e+02
      endloop
   endfacet
   facet normal -2.6856568e-16 5.1170914e-16 1.0000000e+00
      outer loop
         vertex 1.1311309e+02 4.5607098e+01 2.4594820e+02
         vertex 1.0436218e+02 4.1014264e+01 2.4594820e+02
         vertex 1.3204381e+02 1.0000000e-06 2.4594820e+02
      endloop
   endfacet
   facet normal -1.4644098e-16 5.9413439e-16 1.0000000e+00
      outer loop
         vertex 1.0436218e+02 4.1014264e+01 2.4594820e+02
         vertex 9.4766411e+01 3.8649120e+01 2.4594820e+02
         vertex 1.3204381e+02 1.0000000e-06 2.4594820e+02
      endloop
   endfacet
   facet normal 1.4644098e-16 5.9413439e-16 1.0000000e+00
      outer loop
         vertex 7.5287697e+01 4.1014264e+01 2.4594820e+02
         vertex 4.7606065e+01 1.0000000e-06 2.4594820e+02
         vertex 8.4883464e+01 3.8649120e+01 2.4594820e+02
      endloop
   endfacet
   facet normal 2.6856568e-16 5.1170914e-16 1.0000000e+00
      outer loop
         vertex 7.5287697e+01 4.1014264e+01 2.4594820e+02
         vertex 6.6536782e+01 4.5607098e+01 2.4594820e+02
         vertex 4.7606065e+01 1.0000000e-06 2.4594820e+02
      endloop
   endfacet
   facet normal 4.0365733e-16 4.5563493e-16 1.0000000e+00
      outer loop
         vertex 6.6536782e+01 4.5607098e+01 2.4594820e+02
         vertex 5.9139290e+01 5.2160705e+01 2.4594820e+02
         vertex 4.7606065e+01 1.0000000e-06 2.4594820e+02
      endloop
   endfacet
   facet normal 5.9788406e-16 4.1268957e-16 1.0000000e+00
      outer loop
         vertex 5.9139290e+01 5.2160705e+01 2.4594820e+02
         vertex 5.3525136e+01 6.0294211e+01 2.4594820e+02
         vertex 4.7606065e+01 1.0000000e-06 2.4594820e+02
      endloop
   endfacet
   facet normal 6.9780862e-16 4.0287999e-16 1.0000000e+00
      outer loop
         vertex 4.7606065e+01 1.0000000e-06 2.4594820e+02
         vertex 5.3525136e+01 6.0294211e+01 2.4594820e+02
         vertex 1.0000000e-06 8.2456123e+01 2.4594820e+02
      endloop
   endfacet
   facet normal -6.4126348e-16 -3.7023364e-16 1.0000000e+00
      outer loop
         vertex 1.7964987e+02 8.2456123e+01 2.4594820e+02
         vertex 1.3743100e+02 1.5558135e+02 2.4594820e+02
         vertex 1.2612474e+02 9.8397421e+01 2.4594820e+02
      endloop
   endfacet
   facet normal 6.4126348e-16 -3.7023364e-16 1.0000000e+00
      outer loop
         vertex 4.2218873e+01 1.5558135e+02 2.4594820e+02
         vertex 1.0000000e-06 8.2456123e+01 2.4594820e+02
         vertex 5.3525136e+01 9.8397421e+01 2.4594820e+02
      endloop
   endfacet
   facet normal -0.0000000e+00 7.3537794e-16 1.0000000e+00
      outer loop
         vertex 4.7606065e+01 1.0000000e-06 2.4594820e+02
         vertex 1.3204381e+02 1.0000000e-06 2.4594820e+02
         vertex 8.4883464e+01 3.8649120e+01 2.4594820e+02
      endloop
   endfacet
   facet normal 5.9861141e-16 -2.2702336e-16 1.0000000e+00
      outer loop
         vertex 5.3525136e+01 9.8397421e+01 2.4594820e+02
         vertex 1.0000000e-06 8.2456123e+01 2.4594820e+02
         vertex 5.0020595e+01 8.9156705e+01 2.4594820e+02
      endloop
   endfacet
   facet normal -5.5973058e-16 -3.8635412e-16 1.0000000e+00
      outer loop
         vertex 1.3743100e+02 1.5558135e+02 2.4594820e+02
         vertex 1.2051058e+02 1.0653093e+02 2.4594820e+02
         vertex 1.2612474e+02 9.8397421e+01 2.4594820e+02
      endloop
   endfacet
   facet normal 0.0000000e+00 7.3537794e-16 1.0000000e+00
      outer loop
         vertex 1.3204381e+02 1.0000000e-06 2.4594820e+02
         vertex 9.4766411e+01 3.8649120e+01 2.4594820e+02
         vertex 8.4883464e+01 3.8649120e+01 2.4594820e+02
      endloop
   endfacet
   facet normal -0.0000000e+00 0.0000000e+00 -1.0000000e+00
      outer loop
         vertex 6.2530398e+01 8.6659366e+01 3.0556200e+01
         vertex 6.1567551e+01 7.9345816e+01 3.0556200e+01
         vertex 4.4984082e+01 8.0898490e+01 3.0556200e+01
      endloop
   endfacet
   facet normal -0.0000000e+00 0.0000000e+00 -1.0000000e+00
      outer loop
         vertex 6.2530398e+01 8.6659366e+01 3.0556200e+01
         vertex 4.4984082e+01 8.0898490e+01 3.0556200e+01
         vertex 6.5353323e+01 9.3474509e+01 3.0556200e+01
      endloop
   endfacet
   facet normal -0.0000000e+00 -0.0000000e+00 -1.0000000e+00
      outer loop
         vertex 6.1567551e+01 7.9345816e+01 3.0556200e+01
         vertex 6.2530398e+01 7.2032266e+01 3.0556200e+01
         vertex 4.4984082e+01 8.0898490e+01 3.0556200e+01
      endloop
   endfacet
   facet normal -0.0000000e+00 0.0000000e+00 -1.0000000e+00
      outer loop
         vertex 6.9843948e+01 5.9364826e+01 3.0556200e+01
         vertex 6.8749160e+01 3.9736167e+01 3.0556200e+01
         vertex 6.5353323e+01 6.5217123e+01 3.0556200e+01
      endloop
   endfacet
   facet normal 0.0000000e+00 -0.0000000e+00 -1.0000000e+00
      outer loop
         vertex 6.9843948e+01 5.9364826e+01 3.0556200e+01
         vertex 7.5696244e+01 5.4874201e+01 3.0556200e+01
         vertex 6.8749160e+01 3.9736167e+01 3.0556200e+01
      endloop
   endfacet
   facet normal 0.0000000e+00 -0.0000000e+00 -1.0000000e+00
      outer loop
         vertex 7.5696244e+01 5.4874201e+01 3.0556200e+01
         vertex 8.2511387e+01 5.2051276e+01 3.0556200e+01
         vertex 6.8749160e+01 3.9736167e+01 3.0556200e+01
      endloop
   endfacet
   facet normal 0.0000000e+00 -0.0000000e+00 -1.0000000e+00
      outer loop
         vertex 8.2511387e+01 5.2051276e+01 3.0556200e+01
         vertex 8.9824937e+01 5.1088429e+01 3.0556200e+01
         vertex 6.8749160e+01 3.9736167e+01 3.0556200e+01
      endloop
   endfacet
   facet normal 0.0000000e+00 0.0000000e+00 -1.0000000e+00
      outer loop
         vertex 6.8749160e+01 3.9736167e+01 3.0556200e+01
         vertex 8.9824937e+01 5.1088429e+01 3.0556200e+01
         vertex 1.1090071e+02 3.9736167e+01 3.0556200e+01
      endloop
   endfacet
   facet normal 0.0000000e+00 0.0000000e+00 -1.0000000e+00
      outer loop
         vertex 8.9824937e+01 5.1088429e+01 3.0556200e+01
         vertex 9.7138487e+01 5.2051276e+01 3.0556200e+01
         vertex 1.1090071e+02 3.9736167e+01 3.0556200e+01
      endloop
   endfacet
   facet normal 0.0000000e+00 0.0000000e+00 -1.0000000e+00
      outer loop
         vertex 9.7138487e+01 5.2051276e+01 3.0556200e+01
         vertex 1.0395363e+02 5.4874201e+01 3.0556200e+01
         vertex 1.1090071e+02 3.9736167e+01 3.0556200e+01
      endloop
   endfacet
   facet normal 0.0000000e+00 0.0000000e+00 -1.0000000e+00
      outer loop
         vertex 1.0395363e+02 5.4874201e+01 3.0556200e+01
         vertex 1.0980593e+02 5.9364826e+01 3.0556200e+01
         vertex 1.1090071e+02 3.9736167e+01 3.0556200e+01
      endloop
   endfacet
   facet normal 0.0000000e+00 -0.0000000e+00 -1.0000000e+00
      outer loop
         vertex 1.1711948e+02 7.2032266e+01 3.0556200e+01
         vertex 1.3466579e+02 8.0898490e+01 3.0556200e+01
         vertex 1.1429655e+02 6.5217123e+01 3.0556200e+01
      endloop
   endfacet
   facet normal 0.0000000e+00 0.0000000e+00 -1.0000000e+00
      outer loop
         vertex 1.1711948e+02 7.2032266e+01 3.0556200e+01
         vertex 1.1808232e+02 7.9345816e+01 3.0556200e+01
         vertex 1.3466579e+02 8.0898490e+01 3.0556200e+01
      endloop
   endfacet
   facet normal 0.0000000e+00 0.0000000e+00 -1.0000000e+00
      outer loop
         vertex 1.1808232e+02 7.9345816e+01 3.0556200e+01
         vertex 1.1711948e+02 8.6659366e+01 3.0556200e+01
         vertex 1.3466579e+02 8.0898490e+01 3.0556200e+01
      endloop
   endfacet
   facet normal 0.0000000e+00 0.0000000e+00 -1.0000000e+00
      outer loop
         vertex 1.1711948e+02 8.6659366e+01 3.0556200e+01
         vertex 1.1429655e+02 9.3474509e+01 3.0556200e+01
         vertex 1.3466579e+02 8.0898490e+01 3.0556200e+01
      endloop
   endfacet
   facet normal 0.0000000e+00 0.0000000e+00 -1.0000000e+00
      outer loop
         vertex 1.3466579e+02 8.0898490e+01 3.0556200e+01
         vertex 1.1429655e+02 9.3474509e+01 3.0556200e+01
         vertex 1.1359002e+02 1.1740281e+02 3.0556200e+01
      endloop
   endfacet
   facet normal 0.0000000e+00 0.0000000e+00 -1.0000000e+00
      outer loop
         vertex 1.1429655e+02 9.3474509e+01 3.0556200e+01
         vertex 1.0980593e+02 9.9326806e+01 3.0556200e+01
         vertex 1.1359002e+02 1.1740281e+02 3.0556200e+01
      endloop
   endfacet
   facet normal 0.0000000e+00 0.0000000e+00 -1.0000000e+00
      outer loop
         vertex 1.0980593e+02 9.9326806e+01 3.0556200e+01
         vertex 1.0395363e+02 1.0381743e+02 3.0556200e+01
         vertex 1.1359002e+02 1.1740281e+02 3.0556200e+01
      endloop
   endfacet
   facet normal 0.0000000e+00 0.0000000e+00 -1.0000000e+00
      outer loop
         vertex 1.0395363e+02 1.0381743e+02 3.0556200e+01
         vertex 9.7138487e+01 1.0664036e+02 3.0556200e+01
         vertex 1.1359002e+02 1.1740281e+02 3.0556200e+01
      endloop
   endfacet
   facet normal 0.0000000e+00 0.0000000e+00 -1.0000000e+00
      outer loop
         vertex 8.2511387e+01 1.0664036e+02 3.0556200e+01
         vertex 6.6059859e+01 1.1740281e+02 3.0556200e+01
         vertex 8.9824937e+01 1.0760320e+02 3.0556200e+01
      endloop
   endfacet
   facet normal -0.0000000e+00 0.0000000e+00 -1.0000000e+00
      outer loop
         vertex 8.2511387e+01 1.0664036e+02 3.0556200e+01
         vertex 7.5696244e+01 1.0381743e+02 3.0556200e+01
         vertex 6.6059859e+01 1.1740281e+02 3.0556200e+01
      endloop
   endfacet
   facet normal -0.0000000e+00 0.0000000e+00 -1.0000000e+00
      outer loop
         vertex 7.5696244e+01 1.0381743e+02 3.0556200e+01
         vertex 6.9843948e+01 9.9326806e+01 3.0556200e+01
         vertex 6.6059859e+01 1.1740281e+02 3.0556200e+01
      endloop
   endfacet
   facet normal -0.0000000e+00 0.0000000e+00 -1.0000000e+00
      outer loop
         vertex 6.9843948e+01 9.9326806e+01 3.0556200e+01
         vertex 6.5353323e+01 9.3474509e+01 3.0556200e+01
         vertex 6.6059859e+01 1.1740281e+02 3.0556200e+01
      endloop
   endfacet
   facet normal 0.0000000e+00 0.0000000e+00 -1.0000000e+00
      outer loop
         vertex 6.6059859e+01 1.1740281e+02 3.0556200e+01
         vertex 6.5353323e+01 9.3474509e+01 3.0556200e+01
         vertex 4.4984082e+01 8.0898490e+01 3.0556200e+01
      endloop
   endfacet
   facet normal 0.0000000e+00 -0.0000000e+00 -1.0000000e+00
      outer loop
         vertex 6.6059859e+01 1.1740281e+02 3.0556200e+01
         vertex 1.1359002e+02 1.1740281e+02 3.0556200e+01
         vertex 8.9824937e+01 1.0760320e+02 3.0556200e+01
      endloop
   endfacet
   facet normal -0.0000000e+00 0.0000000e+00 -1.0000000e+00
      outer loop
         vertex 1.3466579e+02 8.0898490e+01 3.0556200e+01
         vertex 1.1090071e+02 3.9736167e+01 3.0556200e+01
         vertex 1.1429655e+02 6.5217123e+01 3.0556200e+01
      endloop
   endfacet
   facet normal 0.0000000e+00 0.0000000e+00 -1.0000000e+00
      outer loop
         vertex 6.8749160e+01 3.9736167e+01 3.0556200e+01
         vertex 4.4984082e+01 8.0898490e+01 3.0556200e+01
         vertex 6.5353323e+01 6.5217123e+01 3.0556200e+01
      endloop
   endfacet
   facet normal 0.0000000e+00 -0.0000000e+00 -1.0000000e+00
      outer loop
         vertex 8.9824937e+01 1.0760320e+02 3.0556200e+01
         vertex 1.1359002e+02 1.1740281e+02 3.0556200e+01
         vertex 9.7138487e+01 1.0664036e+02 3.0556200e+01
      endloop
   endfacet
   facet normal 0.0000000e+00 0.0000000e+00 -1.0000000e+00
      outer loop
         vertex 6.5353323e+01 6.5217123e+01 3.0556200e+01
         vertex 4.4984082e+01 8.0898490e+01 3.0556200e+01
         vertex 6.2530398e+01 7.2032266e+01 3.0556200e+01
      endloop
   endfacet
   facet normal 0.0000000e+00 0.0000000e+00 -1.0000000e+00
      outer loop
         vertex 1.1090071e+02 3.9736167e+01 3.0556200e+01
         vertex 1.0980593e+02 5.9364826e+01 3.0556200e+01
         vertex 1.1429655e+02 6.5217123e+01 3.0556200e+01
      endloop
   endfacet
   facet normal 8.5165406e-01 4.9170270e-01 -1.8142163e-01
      outer loop
         vertex 1.3466579e+02 8.0898490e+01 3.0556200e+01
         vertex 1.1359002e+02 1.1740281e+02 3.0556200e+01
         vertex 1.7964987e+02 8.2456123e+01 2.4594820e+02
      endloop
   endfacet
   facet normal 8.5165406e-01 4.9170270e-01 -1.8142163e-01
      outer loop
         vertex 1.1359002e+02 1.1740281e+02 3.0556200e+01
         vertex 1.3743100e+02 1.5558135e+02 2.4594820e+02
         vertex 1.7964987e+02 8.2456123e+01 2.4594820e+02
      endloop
   endfacet
   facet normal 0.0000000e+00 9.8465169e-01 -1.7453096e-01
      outer loop
         vertex 6.6059859e+01 1.1740281e+02 3.0556200e+01
         vertex 4.2218873e+01 1.5558135e+02 2.4594820e+02
         vertex 1.1359002e+02 1.1740281e+02 3.0556200e+01
      endloop
   endfacet
   facet normal 0.0000000e+00 9.8465169e-01 -1.7453096e-01
      outer loop
         vertex 4.2218873e+01 1.5558135e+02 2.4594820e+02
         vertex 1.3743100e+02 1.5558135e+02 2.4594820e+02
         vertex 1.1359002e+02 1.1740281e+02 3.0556200e+01
      endloop
   endfacet
   facet normal -8.5165406e-01 4.9170270e-01 -1.8142163e-01
      outer loop
         vertex 4.4984082e+01 8.0898490e+01 3.0556200e+01
         vertex 1.0000000e-06 8.2456123e+01 2.4594820e+02
         vertex 6.6059859e+01 1.1740281e+02 3.0556200e+01
      endloop
   endfacet
   facet normal -8.5165406e-01 4.9170270e-01 -1.8142163e-01
      outer loop
         vertex 1.0000000e-06 8.2456123e+01 2.4594820e+02
         vertex 4.2218873e+01 1.5558135e+02 2.4594820e+02
         vertex 6.6059859e+01 1.1740281e+02 3.0556200e+01
      endloop
   endfacet
   facet normal -8.5273338e-01 -4.9232585e-01 -1.7453092e-01
      outer loop
         vertex 4.4984082e+01 8.0898490e+01 3.0556200e+01
         vertex 6.8749160e+01 3.9736167e+01 3.0556200e+01
         vertex 1.0000000e-06 8.2456123e+01 2.4594820e+02
      endloop
   endfacet
   facet normal -8.5273338e-01 -4.9232585e-01 -1.7453092e-01
      outer loop
         vertex 6.8749160e+01 3.9736167e+01 3.0556200e+01
         vertex 4.7606065e+01 1.0000000e-06 2.4594820e+02
         vertex 1.0000000e-06 8.2456123e+01 2.4594820e+02
      endloop
   endfacet
   facet normal 0.0000000e+00 -9.8340541e-01 -1.8142160e-01
      outer loop
         vertex 6.8749160e+01 3.9736167e+01 3.0556200e+01
         vertex 1.1090071e+02 3.9736167e+01 3.0556200e+01
         vertex 4.7606065e+01 1.0000000e-06 2.4594820e+02
      endloop
   endfacet
   facet normal -0.0000000e+00 -9.8340541e-01 -1.8142160e-01
      outer loop
         vertex 1.1090071e+02 3.9736167e+01 3.0556200e+01
         vertex 1.3204381e+02 1.0000000e-06 2.4594820e+02
         vertex 4.7606065e+01 1.0000000e-06 2.4594820e+02
      endloop
   endfacet
   facet normal 8.5273338e-01 -4.9232585e-01 -1.7453092e-01
      outer loop
         vertex 1.3466579e+02 8.0898490e+01 3.0556200e+01
         vertex 1.7964987e+02 8.2456123e+01 2.4594820e+02
         vertex 1.1090071e+02 3.9736167e+01 3.0556200e+01
      endloop
   endfacet
   facet normal 8.5273338e-01 -4.9232585e-01 -1.7453092e-01
      outer loop
         vertex 1.7964987e+02 8.2456123e+01 2.4594820e+02
         vertex 1.3204381e+02 1.0000000e-06 2.4594820e+02
         vertex 1.1090071e+02 3.9736167e+01 3.0556200e+01
      endloop
   endfacet
endsolid AutoCAD
