solid AutoCAD
   facet normal 9.9270887e-01 1.2053668e-01 -4.5190725e-17
      outer loop
         vertex 4.9969256e+01 6.6430825e+01 2.4594820e+02
         vertex 4.9969256e+01 6.6430825e+01 8.5394800e+01
         vertex 4.8777998e+01 7.6241714e+01 2.4594820e+02
      endloop
   endfacet
   facet normal 9.3501624e-01 3.5460489e-01 4.2786849e-17
      outer loop
         vertex 4.9969256e+01 6.6430825e+01 8.5394800e+01
         vertex 4.9969256e+01 6.6430825e+01 2.4594820e+02
         vertex 5.3473797e+01 5.7190109e+01 8.5394800e+01
      endloop
   endfacet
   facet normal 8.2298387e-01 5.6806475e-01 7.7997430e-17
      outer loop
         vertex 5.9087951e+01 4.9056603e+01 2.4594820e+02
         vertex 5.9087951e+01 4.9056603e+01 8.5394800e+01
         vertex 5.3473797e+01 5.7190109e+01 2.4594820e+02
      endloop
   endfacet
   facet normal 6.6312266e-01 7.4851075e-01 1.4006177e-16
      outer loop
         vertex 5.9087951e+01 4.9056603e+01 8.5394800e+01
         vertex 5.9087951e+01 4.9056603e+01 2.4594820e+02
         vertex 6.6485443e+01 4.2502996e+01 8.5394800e+01
      endloop
   endfacet
   facet normal 4.6472317e-01 8.8545603e-01 3.7239781e-17
      outer loop
         vertex 7.5236358e+01 3.7910162e+01 2.4594820e+02
         vertex 7.5236358e+01 3.7910162e+01 8.5394800e+01
         vertex 6.6485443e+01 4.2502996e+01 2.4594820e+02
      endloop
   endfacet
   facet normal 2.3931566e-01 9.7094182e-01 6.4757476e-17
      outer loop
         vertex 7.5236358e+01 3.7910162e+01 8.5394800e+01
         vertex 7.5236358e+01 3.7910162e+01 2.4594820e+02
         vertex 8.4832124e+01 3.5545018e+01 8.5394800e+01
      endloop
   endfacet
   facet normal 0.0000000e+00 1.0000000e+00 8.8511702e-17
      outer loop
         vertex 9.4715071e+01 3.5545018e+01 2.4594820e+02
         vertex 9.4715071e+01 3.5545018e+01 8.5394800e+01
         vertex 8.4832124e+01 3.5545018e+01 2.4594820e+02
      endloop
   endfacet
   facet normal -2.3931566e-01 9.7094182e-01 1.4948642e-16
      outer loop
         vertex 9.4715071e+01 3.5545018e+01 8.5394800e+01
         vertex 9.4715071e+01 3.5545018e+01 2.4594820e+02
         vertex 1.0431084e+02 3.7910162e+01 8.5394800e+01
      endloop
   endfacet
   facet normal -4.6472317e-01 8.8545603e-01 8.0320049e-17
      outer loop
         vertex 1.1306175e+02 4.2502996e+01 2.4594820e+02
         vertex 1.1306175e+02 4.2502996e+01 8.5394800e+01
         vertex 1.0431084e+02 3.7910162e+01 2.4594820e+02
      endloop
   endfacet
   facet normal -6.6312266e-01 7.4851075e-01 9.1820095e-17
      outer loop
         vertex 1.1306175e+02 4.2502996e+01 8.5394800e+01
         vertex 1.1306175e+02 4.2502996e+01 2.4594820e+02
         vertex 1.2045925e+02 4.9056603e+01 8.5394800e+01
      endloop
   endfacet
   facet normal -8.2298387e-01 5.6806475e-01 9.5407028e-17
      outer loop
         vertex 1.2607340e+02 5.7190109e+01 2.4594820e+02
         vertex 1.2607340e+02 5.7190109e+01 8.5394800e+01
         vertex 1.2045925e+02 4.9056603e+01 2.4594820e+02
      endloop
   endfacet
   facet normal -9.3501624e-01 3.5460489e-01 1.3413308e-16
      outer loop
         vertex 1.2607340e+02 5.7190109e+01 8.5394800e+01
         vertex 1.2607340e+02 5.7190109e+01 2.4594820e+02
         vertex 1.2957794e+02 6.6430825e+01 8.5394800e+01
      endloop
   endfacet
   facet normal -9.9270887e-01 1.2053668e-01 1.0668907e-17
      outer loop
         vertex 1.3076920e+02 7.6241714e+01 2.4594820e+02
         vertex 1.3076920e+02 7.6241714e+01 8.5394800e+01
         vertex 1.2957794e+02 6.6430825e+01 2.4594820e+02
      endloop
   endfacet
   facet normal -9.9270887e-01 -1.2053668e-01 -1.0668907e-17
      outer loop
         vertex 1.3076920e+02 7.6241714e+01 8.5394800e+01
         vertex 1.3076920e+02 7.6241714e+01 2.4594820e+02
         vertex 1.2957794e+02 8.6052603e+01 8.5394800e+01
      endloop
   endfacet
   facet normal -9.3501624e-01 -3.5460489e-01 -3.1386682e-17
      outer loop
         vertex 1.2607340e+02 9.5293319e+01 2.4594820e+02
         vertex 1.2607340e+02 9.5293319e+01 8.5394800e+01
         vertex 1.2957794e+02 8.6052603e+01 2.4594820e+02
      endloop
   endfacet
   facet normal -8.2298387e-01 -5.6806475e-01 -5.0280378e-17
      outer loop
         vertex 1.2607340e+02 9.5293319e+01 8.5394800e+01
         vertex 1.2607340e+02 9.5293319e+01 2.4594820e+02
         vertex 1.2045925e+02 1.0342683e+02 8.5394800e+01
      endloop
   endfacet
   facet normal -6.6312266e-01 -7.4851075e-01 -6.6251960e-17
      outer loop
         vertex 1.1306175e+02 1.0998043e+02 2.4594820e+02
         vertex 1.1306175e+02 1.0998043e+02 8.5394800e+01
         vertex 1.2045925e+02 1.0342683e+02 2.4594820e+02
      endloop
   endfacet
   facet normal -4.6472317e-01 -8.8545603e-01 -7.8373220e-17
      outer loop
         vertex 1.1306175e+02 1.0998043e+02 8.5394800e+01
         vertex 1.1306175e+02 1.0998043e+02 2.4594820e+02
         vertex 1.0431084e+02 1.1457327e+02 8.5394800e+01
      endloop
   endfacet
   facet normal -2.3931566e-01 -9.7094182e-01 -0.0000000e+00
      outer loop
         vertex 9.4715071e+01 1.1693841e+02 2.4594820e+02
         vertex 9.4715071e+01 1.1693841e+02 8.5394800e+01
         vertex 1.0431084e+02 1.1457327e+02 2.4594820e+02
      endloop
   endfacet
   facet normal -0.0000000e+00 -1.0000000e+00 0.0000000e+00
      outer loop
         vertex 9.4715071e+01 1.1693841e+02 8.5394800e+01
         vertex 9.4715071e+01 1.1693841e+02 2.4594820e+02
         vertex 8.4832124e+01 1.1693841e+02 8.5394800e+01
      endloop
   endfacet
   facet normal 2.3931566e-01 -9.7094182e-01 -1.5069719e-16
      outer loop
         vertex 7.5236358e+01 1.1457327e+02 2.4594820e+02
         vertex 7.5236358e+01 1.1457327e+02 8.5394800e+01
         vertex 8.4832124e+01 1.1693841e+02 2.4594820e+02
      endloop
   endfacet
   facet normal 4.6472317e-01 -8.8545603e-01 -1.1561300e-16
      outer loop
         vertex 7.5236358e+01 1.1457327e+02 8.5394800e+01
         vertex 7.5236358e+01 1.1457327e+02 2.4594820e+02
         vertex 6.6485443e+01 1.0998043e+02 8.5394800e+01
      endloop
   endfacet
   facet normal 6.6312266e-01 -7.4851075e-01 -7.3809806e-17
      outer loop
         vertex 5.9087951e+01 1.0342683e+02 2.4594820e+02
         vertex 5.9087951e+01 1.0342683e+02 8.5394800e+01
         vertex 6.6485443e+01 1.0998043e+02 2.4594820e+02
      endloop
   endfacet
   facet normal 8.2298387e-01 -5.6806475e-01 -2.7717053e-17
      outer loop
         vertex 5.9087951e+01 1.0342683e+02 8.5394800e+01
         vertex 5.9087951e+01 1.0342683e+02 2.4594820e+02
         vertex 5.3473797e+01 9.5293319e+01 8.5394800e+01
      endloop
   endfacet
   facet normal 9.3501624e-01 -3.5460489e-01 -9.4160046e-17
      outer loop
         vertex 4.9969256e+01 8.6052603e+01 2.4594820e+02
         vertex 4.9969256e+01 8.6052603e+01 8.5394800e+01
         vertex 5.3473797e+01 9.5293319e+01 2.4594820e+02
      endloop
   endfacet
   facet normal 9.9270887e-01 -1.2053668e-01 -3.2006720e-17
      outer loop
         vertex 4.9969256e+01 8.6052603e+01 8.5394800e+01
         vertex 4.9969256e+01 8.6052603e+01 2.4594820e+02
         vertex 4.8777998e+01 7.6241714e+01 8.5394800e+01
      endloop
   endfacet
   facet normal -9.9270887e-01 1.2053668e-01 1.5439489e-16
      outer loop
         vertex 1.3076920e+02 7.6241714e+01 8.5394800e+01
         vertex 1.2957794e+02 6.6430825e+01 8.5394800e+01
         vertex 1.2957794e+02 6.6430825e+01 2.4594820e+02
      endloop
   endfacet
   facet normal -9.3501624e-01 3.5460489e-01 1.0274639e-16
      outer loop
         vertex 1.2957794e+02 6.6430825e+01 2.4594820e+02
         vertex 1.2957794e+02 6.6430825e+01 8.5394800e+01
         vertex 1.2607340e+02 5.7190109e+01 2.4594820e+02
      endloop
   endfacet
   facet normal -8.2298387e-01 5.6806475e-01 7.2843703e-17
      outer loop
         vertex 1.2607340e+02 5.7190109e+01 8.5394800e+01
         vertex 1.2045925e+02 4.9056603e+01 8.5394800e+01
         vertex 1.2045925e+02 4.9056603e+01 2.4594820e+02
      endloop
   endfacet
   facet normal -6.6312266e-01 7.4851075e-01 5.8694115e-17
      outer loop
         vertex 1.2045925e+02 4.9056603e+01 2.4594820e+02
         vertex 1.2045925e+02 4.9056603e+01 8.5394800e+01
         vertex 1.1306175e+02 4.2502996e+01 2.4594820e+02
      endloop
   endfacet
   facet normal -4.6472317e-01 8.8545603e-01 7.8373220e-17
      outer loop
         vertex 1.1306175e+02 4.2502996e+01 8.5394800e+01
         vertex 1.0431084e+02 3.7910162e+01 8.5394800e+01
         vertex 1.0431084e+02 3.7910162e+01 2.4594820e+02
      endloop
   endfacet
   facet normal -2.3931566e-01 9.7094182e-01 8.5939713e-17
      outer loop
         vertex 1.0431084e+02 3.7910162e+01 2.4594820e+02
         vertex 1.0431084e+02 3.7910162e+01 8.5394800e+01
         vertex 9.4715071e+01 3.5545018e+01 2.4594820e+02
      endloop
   endfacet
   facet normal 0.0000000e+00 1.0000000e+00 8.8511702e-17
      outer loop
         vertex 9.4715071e+01 3.5545018e+01 8.5394800e+01
         vertex 8.4832124e+01 3.5545018e+01 8.5394800e+01
         vertex 8.4832124e+01 3.5545018e+01 2.4594820e+02
      endloop
   endfacet
   facet normal 2.3931566e-01 9.7094182e-01 2.2393003e-17
      outer loop
         vertex 8.4832124e+01 3.5545018e+01 2.4594820e+02
         vertex 8.4832124e+01 3.5545018e+01 8.5394800e+01
         vertex 7.5236358e+01 3.7910162e+01 2.4594820e+02
      endloop
   endfacet
   facet normal 4.6472317e-01 8.8545603e-01 7.6426391e-17
      outer loop
         vertex 7.5236358e+01 3.7910162e+01 8.5394800e+01
         vertex 6.6485443e+01 4.2502996e+01 8.5394800e+01
         vertex 6.6485443e+01 4.2502996e+01 2.4594820e+02
      endloop
   endfacet
   facet normal 6.6312266e-01 7.4851075e-01 4.0683825e-17
      outer loop
         vertex 6.6485443e+01 4.2502996e+01 2.4594820e+02
         vertex 6.6485443e+01 4.2502996e+01 8.5394800e+01
         vertex 5.9087951e+01 4.9056603e+01 2.4594820e+02
      endloop
   endfacet
   facet normal 8.2298387e-01 5.6806475e-01 5.2857241e-17
      outer loop
         vertex 5.9087951e+01 4.9056603e+01 8.5394800e+01
         vertex 5.3473797e+01 5.7190109e+01 8.5394800e+01
         vertex 5.3473797e+01 5.7190109e+01 2.4594820e+02
      endloop
   endfacet
   facet normal 9.3501624e-01 3.5460489e-01 -4.2931738e-18
      outer loop
         vertex 5.3473797e+01 5.7190109e+01 2.4594820e+02
         vertex 5.3473797e+01 5.7190109e+01 8.5394800e+01
         vertex 4.9969256e+01 6.6430825e+01 2.4594820e+02
      endloop
   endfacet
   facet normal 9.9270887e-01 1.2053668e-01 1.0668907e-17
      outer loop
         vertex 4.9969256e+01 6.6430825e+01 8.5394800e+01
         vertex 4.8777998e+01 7.6241714e+01 8.5394800e+01
         vertex 4.8777998e+01 7.6241714e+01 2.4594820e+02
      endloop
   endfacet
   facet normal 9.9270887e-01 -1.2053668e-01 -1.0668907e-17
      outer loop
         vertex 4.8777998e+01 7.6241714e+01 2.4594820e+02
         vertex 4.8777998e+01 7.6241714e+01 8.5394800e+01
         vertex 4.9969256e+01 8.6052603e+01 2.4594820e+02
      endloop
   endfacet
   facet normal 9.3501624e-01 -3.5460489e-01 -3.1386682e-17
      outer loop
         vertex 4.9969256e+01 8.6052603e+01 8.5394800e+01
         vertex 5.3473797e+01 9.5293319e+01 8.5394800e+01
         vertex 5.3473797e+01 9.5293319e+01 2.4594820e+02
      endloop
   endfacet
   facet normal 8.2298387e-01 -5.6806475e-01 -5.0280378e-17
      outer loop
         vertex 5.3473797e+01 9.5293319e+01 2.4594820e+02
         vertex 5.3473797e+01 9.5293319e+01 8.5394800e+01
         vertex 5.9087951e+01 1.0342683e+02 2.4594820e+02
      endloop
   endfacet
   facet normal 6.6312266e-01 -7.4851075e-01 -1.3250392e-16
      outer loop
         vertex 5.9087951e+01 1.0342683e+02 8.5394800e+01
         vertex 6.6485443e+01 1.0998043e+02 8.5394800e+01
         vertex 6.6485443e+01 1.0998043e+02 2.4594820e+02
      endloop
   endfacet
   facet normal 4.6472317e-01 -8.8545603e-01 -1.5674644e-16
      outer loop
         vertex 6.6485443e+01 1.0998043e+02 2.4594820e+02
         vertex 6.6485443e+01 1.0998043e+02 8.5394800e+01
         vertex 7.5236358e+01 1.1457327e+02 2.4594820e+02
      endloop
   endfacet
   facet normal 2.3931566e-01 -9.7094182e-01 2.1182237e-17
      outer loop
         vertex 7.5236358e+01 1.1457327e+02 8.5394800e+01
         vertex 8.4832124e+01 1.1693841e+02 8.5394800e+01
         vertex 8.4832124e+01 1.1693841e+02 2.4594820e+02
      endloop
   endfacet
   facet normal 0.0000000e+00 -1.0000000e+00 0.0000000e+00
      outer loop
         vertex 8.4832124e+01 1.1693841e+02 2.4594820e+02
         vertex 8.4832124e+01 1.1693841e+02 8.5394800e+01
         vertex 9.4715071e+01 1.1693841e+02 2.4594820e+02
      endloop
   endfacet
   facet normal -2.3931566e-01 -9.7094182e-01 -8.5939713e-17
      outer loop
         vertex 9.4715071e+01 1.1693841e+02 8.5394800e+01
         vertex 1.0431084e+02 1.1457327e+02 8.5394800e+01
         vertex 1.0431084e+02 1.1457327e+02 2.4594820e+02
      endloop
   endfacet
   facet normal -4.6472317e-01 -8.8545603e-01 -7.8373220e-17
      outer loop
         vertex 1.0431084e+02 1.1457327e+02 2.4594820e+02
         vertex 1.0431084e+02 1.1457327e+02 8.5394800e+01
         vertex 1.1306175e+02 1.0998043e+02 2.4594820e+02
      endloop
   endfacet
   facet normal -6.6312266e-01 -7.4851075e-01 -5.8694115e-17
      outer loop
         vertex 1.1306175e+02 1.0998043e+02 8.5394800e+01
         vertex 1.2045925e+02 1.0342683e+02 8.5394800e+01
         vertex 1.2045925e+02 1.0342683e+02 2.4594820e+02
      endloop
   endfacet
   facet normal -8.2298387e-01 -5.6806475e-01 -7.2843703e-17
      outer loop
         vertex 1.2045925e+02 1.0342683e+02 2.4594820e+02
         vertex 1.2045925e+02 1.0342683e+02 8.5394800e+01
         vertex 1.2607340e+02 9.5293319e+01 2.4594820e+02
      endloop
   endfacet
   facet normal -9.3501624e-01 -3.5460489e-01 -3.1386682e-17
      outer loop
         vertex 1.2607340e+02 9.5293319e+01 8.5394800e+01
         vertex 1.2957794e+02 8.6052603e+01 8.5394800e+01
         vertex 1.2957794e+02 8.6052603e+01 2.4594820e+02
      endloop
   endfacet
   facet normal -9.9270887e-01 -1.2053668e-01 -1.0668907e-17
      outer loop
         vertex 1.2957794e+02 8.6052603e+01 2.4594820e+02
         vertex 1.2957794e+02 8.6052603e+01 8.5394800e+01
         vertex 1.3076920e+02 7.6241714e+01 2.4594820e+02
      endloop
   endfacet
   facet normal 1.2803001e-15 -1.6173952e-16 1.0000000e+00
      outer loop
         vertex 5.3202790e+01 8.5631501e+01 6.0553600e+01
         vertex 5.2016584e+01 7.6241714e+01 6.0553600e+01
         vertex 5.7566398e+01 7.6241714e+01 6.0553600e+01
      endloop
   endfacet
   facet normal 1.2688724e-15 -1.6705022e-16 1.0000000e+00
      outer loop
         vertex 5.3202790e+01 8.5631501e+01 6.0553600e+01
         vertex 5.7566398e+01 7.6241714e+01 6.0553600e+01
         vertex 5.8663832e+01 8.4577551e+01 6.0553600e+01
      endloop
   endfacet
   facet normal 1.2087493e-15 -4.7857770e-16 1.0000000e+00
      outer loop
         vertex 5.3202790e+01 8.5631501e+01 6.0553600e+01
         vertex 5.8663832e+01 8.4577551e+01 6.0553600e+01
         vertex 5.6686874e+01 9.4431294e+01 6.0553600e+01
      endloop
   endfacet
   facet normal 1.2087493e-15 4.7857770e-16 1.0000000e+00
      outer loop
         vertex 5.6686874e+01 5.8052134e+01 6.0553600e+01
         vertex 5.8663832e+01 6.7905877e+01 6.0553600e+01
         vertex 5.3202790e+01 6.6851926e+01 6.0553600e+01
      endloop
   endfacet
   facet normal 1.1728009e-15 4.8579003e-16 1.0000000e+00
      outer loop
         vertex 5.8663832e+01 6.7905877e+01 6.0553600e+01
         vertex 5.6686874e+01 5.8052134e+01 6.0553600e+01
         vertex 6.1881345e+01 6.0138114e+01 6.0553600e+01
      endloop
   endfacet
   facet normal 4.1194738e-16 1.6757490e-15 1.0000000e+00
      outer loop
         vertex 6.9542378e+01 4.4362413e+01 6.0553600e+01
         vertex 6.6999668e+01 5.3467784e+01 6.0553600e+01
         vertex 6.2249919e+01 5.0395259e+01 6.0553600e+01
      endloop
   endfacet
   facet normal 1.5241743e-15 1.9863426e-15 1.0000000e+00
      outer loop
         vertex 6.6999668e+01 5.3467784e+01 6.0553600e+01
         vertex 6.9542378e+01 4.4362413e+01 6.0553600e+01
         vertex 7.3669998e+01 4.8349460e+01 6.0553600e+01
      endloop
   endfacet
   facet normal 2.4939664e-16 1.3073830e-15 1.0000000e+00
      outer loop
         vertex 8.7402815e+01 3.8559205e+01 6.0553600e+01
         vertex 8.1437761e+01 4.5131948e+01 6.0553600e+01
         vertex 7.8106039e+01 4.0332660e+01 6.0553600e+01
      endloop
   endfacet
   facet normal 1.6163435e-16 1.2277348e-15 1.0000000e+00
      outer loop
         vertex 8.1437761e+01 4.5131948e+01 6.0553600e+01
         vertex 8.7402815e+01 3.8559205e+01 6.0553600e+01
         vertex 8.9773598e+01 4.4034514e+01 6.0553600e+01
      endloop
   endfacet
   facet normal -4.1457771e-16 1.2759390e-15 1.0000000e+00
      outer loop
         vertex 1.0584975e+02 4.2078146e+01 6.0553600e+01
         vertex 9.8109435e+01 4.5131948e+01 6.0553600e+01
         vertex 9.6848557e+01 3.9153481e+01 6.0553600e+01
      endloop
   endfacet
   facet normal -2.3922313e-17 2.2661138e-15 1.0000000e+00
      outer loop
         vertex 9.8109435e+01 4.5131948e+01 6.0553600e+01
         vertex 1.0584975e+02 4.2078146e+01 6.0553600e+01
         vertex 1.0587720e+02 4.8349460e+01 6.0553600e+01
      endloop
   endfacet
   facet normal -1.0660167e-15 2.0309384e-15 1.0000000e+00
      outer loop
         vertex 1.2031966e+02 5.4048698e+01 6.0553600e+01
         vertex 1.1254753e+02 5.3467784e+01 6.0553600e+01
         vertex 1.1384082e+02 4.7149435e+01 6.0553600e+01
      endloop
   endfacet
   facet normal -9.6984075e-16 7.4418498e-16 1.0000000e+00
      outer loop
         vertex 1.1254753e+02 5.3467784e+01 6.0553600e+01
         vertex 1.2031966e+02 5.4048698e+01 6.0553600e+01
         vertex 1.1766585e+02 6.0138114e+01 6.0553600e+01
      endloop
   endfacet
   facet normal -1.3099330e-15 3.3633363e-16 1.0000000e+00
      outer loop
         vertex 1.2723289e+02 7.1509505e+01 6.0553600e+01
         vertex 1.2088336e+02 6.7905877e+01 6.0553600e+01
         vertex 1.2487918e+02 6.2342430e+01 6.0553600e+01
      endloop
   endfacet
   facet normal -1.2094148e-15 1.5922247e-16 1.0000000e+00
      outer loop
         vertex 1.2088336e+02 6.7905877e+01 6.0553600e+01
         vertex 1.2723289e+02 7.1509505e+01 6.0553600e+01
         vertex 1.2198080e+02 7.6241714e+01 6.0553600e+01
      endloop
   endfacet
   facet normal -1.3099330e-15 -3.3633363e-16 1.0000000e+00
      outer loop
         vertex 1.2487918e+02 9.0140998e+01 6.0553600e+01
         vertex 1.2088336e+02 8.4577551e+01 6.0553600e+01
         vertex 1.2723289e+02 8.0973922e+01 6.0553600e+01
      endloop
   endfacet
   facet normal -1.1277968e-15 -4.6714874e-16 1.0000000e+00
      outer loop
         vertex 1.2088336e+02 8.4577551e+01 6.0553600e+01
         vertex 1.2487918e+02 9.0140998e+01 6.0553600e+01
         vertex 1.1766585e+02 9.2345314e+01 6.0553600e+01
      endloop
   endfacet
   facet normal -9.0044211e-16 1.8431062e-16 1.0000000e+00
      outer loop
         vertex 1.1384082e+02 1.0533399e+02 6.0553600e+01
         vertex 1.1254753e+02 9.9015643e+01 6.0553600e+01
         vertex 1.2031966e+02 9.8434730e+01 6.0553600e+01
      endloop
   endfacet
   facet normal 0.0000000e+00 -0.0000000e+00 1.0000000e+00
      outer loop
         vertex 1.1254753e+02 9.9015643e+01 6.0553600e+01
         vertex 1.1384082e+02 1.0533399e+02 6.0553600e+01
         vertex 1.0587720e+02 1.0413397e+02 6.0553600e+01
      endloop
   endfacet
   facet normal -4.1457771e-16 -1.2759390e-15 1.0000000e+00
      outer loop
         vertex 9.6848557e+01 1.1332995e+02 6.0553600e+01
         vertex 9.8109435e+01 1.0735148e+02 6.0553600e+01
         vertex 1.0584975e+02 1.1040528e+02 6.0553600e+01
      endloop
   endfacet
   facet normal -1.6093801e-16 -1.2224456e-15 1.0000000e+00
      outer loop
         vertex 9.8109435e+01 1.0735148e+02 6.0553600e+01
         vertex 9.6848557e+01 1.1332995e+02 6.0553600e+01
         vertex 8.9773598e+01 1.0844891e+02 6.0553600e+01
      endloop
   endfacet
   facet normal 2.4939664e-16 -1.3073830e-15 1.0000000e+00
      outer loop
         vertex 7.8106039e+01 1.1215077e+02 6.0553600e+01
         vertex 8.1437761e+01 1.0735148e+02 6.0553600e+01
         vertex 8.7402815e+01 1.1392422e+02 6.0553600e+01
      endloop
   endfacet
   facet normal 1.1867350e-15 -6.5667160e-16 1.0000000e+00
      outer loop
         vertex 8.1437761e+01 1.0735148e+02 6.0553600e+01
         vertex 7.8106039e+01 1.1215077e+02 6.0553600e+01
         vertex 7.3669998e+01 1.0413397e+02 6.0553600e+01
      endloop
   endfacet
   facet normal 1.2670698e-15 -3.5383407e-16 1.0000000e+00
      outer loop
         vertex 6.2249919e+01 1.0208817e+02 6.0553600e+01
         vertex 6.6999668e+01 9.9015643e+01 6.0553600e+01
         vertex 6.9542378e+01 1.0812101e+02 6.0553600e+01
      endloop
   endfacet
   facet normal 9.9972521e-16 -7.6711613e-16 1.0000000e+00
      outer loop
         vertex 6.6999668e+01 9.9015643e+01 6.0553600e+01
         vertex 6.2249919e+01 1.0208817e+02 6.0553600e+01
         vertex 6.1881345e+01 9.2345314e+01 6.0553600e+01
      endloop
   endfacet
   facet normal -1.1277968e-15 4.6714874e-16 1.0000000e+00
      outer loop
         vertex 1.2088336e+02 6.7905877e+01 6.0553600e+01
         vertex 1.1766585e+02 6.0138114e+01 6.0553600e+01
         vertex 1.2487918e+02 6.2342430e+01 6.0553600e+01
      endloop
   endfacet
   facet normal -1.1839425e-15 6.5087788e-16 1.0000000e+00
      outer loop
         vertex 1.2487918e+02 6.2342430e+01 6.0553600e+01
         vertex 1.1766585e+02 6.0138114e+01 6.0553600e+01
         vertex 1.2031966e+02 5.4048698e+01 6.0553600e+01
      endloop
   endfacet
   facet normal -1.4915570e-15 1.9438349e-15 1.0000000e+00
      outer loop
         vertex 1.1254753e+02 5.3467784e+01 6.0553600e+01
         vertex 1.0587720e+02 4.8349460e+01 6.0553600e+01
         vertex 1.1384082e+02 4.7149435e+01 6.0553600e+01
      endloop
   endfacet
   facet normal -1.4420581e-15 2.2723200e-15 1.0000000e+00
      outer loop
         vertex 1.1384082e+02 4.7149435e+01 6.0553600e+01
         vertex 1.0587720e+02 4.8349460e+01 6.0553600e+01
         vertex 1.0584975e+02 4.2078146e+01 6.0553600e+01
      endloop
   endfacet
   facet normal -1.6093801e-16 1.2224456e-15 1.0000000e+00
      outer loop
         vertex 9.8109435e+01 4.5131948e+01 6.0553600e+01
         vertex 8.9773598e+01 4.4034514e+01 6.0553600e+01
         vertex 9.6848557e+01 3.9153481e+01 6.0553600e+01
      endloop
   endfacet
   facet normal -8.3932189e-17 1.3340639e-15 1.0000000e+00
      outer loop
         vertex 9.6848557e+01 3.9153481e+01 6.0553600e+01
         vertex 8.9773598e+01 4.4034514e+01 6.0553600e+01
         vertex 8.7402815e+01 3.8559205e+01 6.0553600e+01
      endloop
   endfacet
   facet normal -2.3415172e-16 1.6430679e-15 1.0000000e+00
      outer loop
         vertex 8.1437761e+01 4.5131948e+01 6.0553600e+01
         vertex 7.3669998e+01 4.8349460e+01 6.0553600e+01
         vertex 7.8106039e+01 4.0332660e+01 6.0553600e+01
      endloop
   endfacet
   facet normal 1.1277984e-15 2.3966936e-15 1.0000000e+00
      outer loop
         vertex 7.8106039e+01 4.0332660e+01 6.0553600e+01
         vertex 7.3669998e+01 4.8349460e+01 6.0553600e+01
         vertex 6.9542378e+01 4.4362413e+01 6.0553600e+01
      endloop
   endfacet
   facet normal 9.9972521e-16 7.6711613e-16 1.0000000e+00
      outer loop
         vertex 6.6999668e+01 5.3467784e+01 6.0553600e+01
         vertex 6.1881345e+01 6.0138114e+01 6.0553600e+01
         vertex 6.2249919e+01 5.0395259e+01 6.0553600e+01
      endloop
   endfacet
   facet normal 1.0589274e-15 7.6935577e-16 1.0000000e+00
      outer loop
         vertex 6.2249919e+01 5.0395259e+01 6.0553600e+01
         vertex 6.1881345e+01 6.0138114e+01 6.0553600e+01
         vertex 5.6686874e+01 5.8052134e+01 6.0553600e+01
      endloop
   endfacet
   facet normal 1.2688724e-15 1.6705022e-16 1.0000000e+00
      outer loop
         vertex 5.8663832e+01 6.7905877e+01 6.0553600e+01
         vertex 5.7566398e+01 7.6241714e+01 6.0553600e+01
         vertex 5.3202790e+01 6.6851926e+01 6.0553600e+01
      endloop
   endfacet
   facet normal 1.1728009e-15 -4.8579003e-16 1.0000000e+00
      outer loop
         vertex 5.8663832e+01 8.4577551e+01 6.0553600e+01
         vertex 6.1881345e+01 9.2345314e+01 6.0553600e+01
         vertex 5.6686874e+01 9.4431294e+01 6.0553600e+01
      endloop
   endfacet
   facet normal 1.0589274e-15 -7.6935577e-16 1.0000000e+00
      outer loop
         vertex 5.6686874e+01 9.4431294e+01 6.0553600e+01
         vertex 6.1881345e+01 9.2345314e+01 6.0553600e+01
         vertex 6.2249919e+01 1.0208817e+02 6.0553600e+01
      endloop
   endfacet
   facet normal 0.0000000e+00 -0.0000000e+00 1.0000000e+00
      outer loop
         vertex 6.6999668e+01 9.9015643e+01 6.0553600e+01
         vertex 7.3669998e+01 1.0413397e+02 6.0553600e+01
         vertex 6.9542378e+01 1.0812101e+02 6.0553600e+01
      endloop
   endfacet
   facet normal -0.0000000e+00 0.0000000e+00 1.0000000e+00
      outer loop
         vertex 6.9542378e+01 1.0812101e+02 6.0553600e+01
         vertex 7.3669998e+01 1.0413397e+02 6.0553600e+01
         vertex 7.8106039e+01 1.1215077e+02 6.0553600e+01
      endloop
   endfacet
   facet normal 1.6163435e-16 -1.2277348e-15 1.0000000e+00
      outer loop
         vertex 8.1437761e+01 1.0735148e+02 6.0553600e+01
         vertex 8.9773598e+01 1.0844891e+02 6.0553600e+01
         vertex 8.7402815e+01 1.1392422e+02 6.0553600e+01
      endloop
   endfacet
   facet normal -8.3932189e-17 -1.3340639e-15 1.0000000e+00
      outer loop
         vertex 8.7402815e+01 1.1392422e+02 6.0553600e+01
         vertex 8.9773598e+01 1.0844891e+02 6.0553600e+01
         vertex 9.6848557e+01 1.1332995e+02 6.0553600e+01
      endloop
   endfacet
   facet normal -9.1639392e-16 -4.0104510e-18 1.0000000e+00
      outer loop
         vertex 9.8109435e+01 1.0735148e+02 6.0553600e+01
         vertex 1.0587720e+02 1.0413397e+02 6.0553600e+01
         vertex 1.0584975e+02 1.1040528e+02 6.0553600e+01
      endloop
   endfacet
   facet normal -0.0000000e+00 0.0000000e+00 1.0000000e+00
      outer loop
         vertex 1.0584975e+02 1.1040528e+02 6.0553600e+01
         vertex 1.0587720e+02 1.0413397e+02 6.0553600e+01
         vertex 1.1384082e+02 1.0533399e+02 6.0553600e+01
      endloop
   endfacet
   facet normal -9.6984075e-16 -7.4418498e-16 1.0000000e+00
      outer loop
         vertex 1.1254753e+02 9.9015643e+01 6.0553600e+01
         vertex 1.1766585e+02 9.2345314e+01 6.0553600e+01
         vertex 1.2031966e+02 9.8434730e+01 6.0553600e+01
      endloop
   endfacet
   facet normal -1.1839425e-15 -6.5087788e-16 1.0000000e+00
      outer loop
         vertex 1.2031966e+02 9.8434730e+01 6.0553600e+01
         vertex 1.1766585e+02 9.2345314e+01 6.0553600e+01
         vertex 1.2487918e+02 9.0140998e+01 6.0553600e+01
      endloop
   endfacet
   facet normal -1.2094148e-15 -1.5922247e-16 1.0000000e+00
      outer loop
         vertex 1.2088336e+02 8.4577551e+01 6.0553600e+01
         vertex 1.2198080e+02 7.6241714e+01 6.0553600e+01
         vertex 1.2723289e+02 8.0973922e+01 6.0553600e+01
      endloop
   endfacet
   facet normal 1.2803001e-15 1.6173952e-16 1.0000000e+00
      outer loop
         vertex 5.7566398e+01 7.6241714e+01 6.0553600e+01
         vertex 5.2016584e+01 7.6241714e+01 6.0553600e+01
         vertex 5.3202790e+01 6.6851926e+01 6.0553600e+01
      endloop
   endfacet
   facet normal -1.3528765e-15 -2.0313487e-30 1.0000000e+00
      outer loop
         vertex 1.2723289e+02 8.0973922e+01 6.0553600e+01
         vertex 1.2198080e+02 7.6241714e+01 6.0553600e+01
         vertex 1.2723289e+02 7.1509505e+01 6.0553600e+01
      endloop
   endfacet
   facet normal 9.8367610e-01 -1.2426719e-01 1.3014990e-01
      outer loop
         vertex 5.3202790e+01 8.5631501e+01 6.0553600e+01
         vertex 4.9969256e+01 8.6052603e+01 8.5394800e+01
         vertex 5.2016584e+01 7.6241714e+01 6.0553600e+01
      endloop
   endfacet
   facet normal 9.2748205e-01 -3.5174754e-01 1.2669141e-01
      outer loop
         vertex 4.9969256e+01 8.6052603e+01 8.5394800e+01
         vertex 5.3202790e+01 8.5631501e+01 6.0553600e+01
         vertex 5.3473797e+01 9.5293319e+01 8.5394800e+01
      endloop
   endfacet
   facet normal 8.0178099e-01 -5.8252798e-01 1.3344812e-01
      outer loop
         vertex 6.2249919e+01 1.0208817e+02 6.0553600e+01
         vertex 5.9087951e+01 1.0342683e+02 8.5394800e+01
         vertex 5.6686874e+01 9.4431294e+01 6.0553600e+01
      endloop
   endfacet
   facet normal 6.5802272e-01 -7.4275410e-01 1.2378387e-01
      outer loop
         vertex 5.9087951e+01 1.0342683e+02 8.5394800e+01
         vertex 6.2249919e+01 1.0208817e+02 6.0553600e+01
         vertex 6.6485443e+01 1.0998043e+02 8.5394800e+01
      endloop
   endfacet
   facet normal 4.2181482e-01 -8.9640213e-01 1.3614504e-01
      outer loop
         vertex 7.8106039e+01 1.1215077e+02 6.0553600e+01
         vertex 7.5236358e+01 1.1457327e+02 8.5394800e+01
         vertex 6.9542378e+01 1.0812101e+02 6.0553600e+01
      endloop
   endfacet
   facet normal 2.3754483e-01 -9.6375727e-01 1.2142641e-01
      outer loop
         vertex 7.5236358e+01 1.1457327e+02 8.5394800e+01
         vertex 7.8106039e+01 1.1215077e+02 6.0553600e+01
         vertex 8.4832124e+01 1.1693841e+02 8.5394800e+01
      endloop
   endfacet
   facet normal -6.2187639e-02 -9.8844421e-01 1.3824161e-01
      outer loop
         vertex 9.6848557e+01 1.1332995e+02 6.0553600e+01
         vertex 9.4715071e+01 1.1693841e+02 8.5394800e+01
         vertex 8.7402815e+01 1.1392422e+02 6.0553600e+01
      endloop
   endfacet
   facet normal -2.3759728e-01 -9.6397005e-01 1.1962142e-01
      outer loop
         vertex 9.4715071e+01 1.1693841e+02 8.5394800e+01
         vertex 9.6848557e+01 1.1332995e+02 6.0553600e+01
         vertex 1.0431084e+02 1.1457327e+02 8.5394800e+01
      endloop
   endfacet
   facet normal -5.3056949e-01 -8.3604374e-01 1.3973859e-01
      outer loop
         vertex 1.1384082e+02 1.0533399e+02 6.0553600e+01
         vertex 1.1306175e+02 1.0998043e+02 8.5394800e+01
         vertex 1.0584975e+02 1.1040528e+02 6.0553600e+01
      endloop
   endfacet
   facet normal -6.5846056e-01 -7.4324833e-01 1.1837068e-01
      outer loop
         vertex 1.1306175e+02 1.0998043e+02 8.5394800e+01
         vertex 1.1384082e+02 1.0533399e+02 6.0553600e+01
         vertex 1.2045925e+02 1.0342683e+02 8.5394800e+01
      endloop
   endfacet
   facet normal -8.6759733e-01 -4.7696567e-01 1.4063653e-01
      outer loop
         vertex 1.2487918e+02 9.0140998e+01 6.0553600e+01
         vertex 1.2607340e+02 9.5293319e+01 8.5394800e+01
         vertex 1.2031966e+02 9.8434730e+01 6.0553600e+01
      endloop
   endfacet
   facet normal -9.2851985e-01 -3.5214113e-01 1.1767543e-01
      outer loop
         vertex 1.2607340e+02 9.5293319e+01 8.5394800e+01
         vertex 1.2487918e+02 9.0140998e+01 6.0553600e+01
         vertex 1.2957794e+02 8.6052603e+01 8.5394800e+01
      endloop
   endfacet
   facet normal -9.9001874e-01 -1.4960192e-15 1.4093581e-01
      outer loop
         vertex 1.2723289e+02 7.1509505e+01 6.0553600e+01
         vertex 1.3076920e+02 7.6241714e+01 8.5394800e+01
         vertex 1.2723289e+02 8.0973922e+01 6.0553600e+01
      endloop
   endfacet
   facet normal -9.8582799e-01 1.1970119e-01 1.1753635e-01
      outer loop
         vertex 1.3076920e+02 7.6241714e+01 8.5394800e+01
         vertex 1.2723289e+02 7.1509505e+01 6.0553600e+01
         vertex 1.2957794e+02 6.6430825e+01 8.5394800e+01
      endloop
   endfacet
   facet normal -8.6759733e-01 4.7696567e-01 1.4063653e-01
      outer loop
         vertex 1.2031966e+02 5.4048698e+01 6.0553600e+01
         vertex 1.2607340e+02 5.7190109e+01 8.5394800e+01
         vertex 1.2487918e+02 6.2342430e+01 6.0553600e+01
      endloop
   endfacet
   facet normal -8.1723871e-01 5.6409915e-01 1.1795356e-01
      outer loop
         vertex 1.2607340e+02 5.7190109e+01 8.5394800e+01
         vertex 1.2031966e+02 5.4048698e+01 6.0553600e+01
         vertex 1.2045925e+02 4.9056603e+01 8.5394800e+01
      endloop
   endfacet
   facet normal -5.3056949e-01 8.3604374e-01 1.3973859e-01
      outer loop
         vertex 1.0584975e+02 4.2078146e+01 6.0553600e+01
         vertex 1.1306175e+02 4.2502996e+01 8.5394800e+01
         vertex 1.1384082e+02 4.7149435e+01 6.0553600e+01
      endloop
   endfacet
   facet normal -4.6142505e-01 8.7917198e-01 1.1892668e-01
      outer loop
         vertex 1.1306175e+02 4.2502996e+01 8.5394800e+01
         vertex 1.0584975e+02 4.2078146e+01 6.0553600e+01
         vertex 1.0431084e+02 3.7910162e+01 8.5394800e+01
      endloop
   endfacet
   facet normal -6.2187639e-02 9.8844421e-01 1.3824161e-01
      outer loop
         vertex 8.7402815e+01 3.8559205e+01 6.0553600e+01
         vertex 9.4715071e+01 3.5545018e+01 8.5394800e+01
         vertex 9.6848557e+01 3.9153481e+01 6.0553600e+01
      endloop
   endfacet
   facet normal 0.0000000e+00 9.9271882e-01 1.2045473e-01
      outer loop
         vertex 9.4715071e+01 3.5545018e+01 8.5394800e+01
         vertex 8.7402815e+01 3.8559205e+01 6.0553600e+01
         vertex 8.4832124e+01 3.5545018e+01 8.5394800e+01
      endloop
   endfacet
   facet normal 4.2181482e-01 8.9640213e-01 1.3614504e-01
      outer loop
         vertex 6.9542378e+01 4.4362413e+01 6.0553600e+01
         vertex 7.5236358e+01 3.7910162e+01 8.5394800e+01
         vertex 7.8106039e+01 4.0332660e+01 6.0553600e+01
      endloop
   endfacet
   facet normal 4.6122104e-01 8.7878327e-01 1.2253622e-01
      outer loop
         vertex 7.5236358e+01 3.7910162e+01 8.5394800e+01
         vertex 6.9542378e+01 4.4362413e+01 6.0553600e+01
         vertex 6.6485443e+01 4.2502996e+01 8.5394800e+01
      endloop
   endfacet
   facet normal 8.0178099e-01 5.8252798e-01 1.3344812e-01
      outer loop
         vertex 5.6686874e+01 5.8052134e+01 6.0553600e+01
         vertex 5.9087951e+01 4.9056603e+01 8.5394800e+01
         vertex 6.2249919e+01 5.0395259e+01 6.0553600e+01
      endloop
   endfacet
   facet normal 8.1651145e-01 5.6359716e-01 1.2516906e-01
      outer loop
         vertex 5.9087951e+01 4.9056603e+01 8.5394800e+01
         vertex 5.6686874e+01 5.8052134e+01 6.0553600e+01
         vertex 5.3473797e+01 5.7190109e+01 8.5394800e+01
      endloop
   endfacet
   facet normal 9.8367610e-01 1.2426719e-01 1.3014990e-01
      outer loop
         vertex 5.2016584e+01 7.6241714e+01 6.0553600e+01
         vertex 4.9969256e+01 6.6430825e+01 8.5394800e+01
         vertex 5.3202790e+01 6.6851926e+01 6.0553600e+01
      endloop
   endfacet
   facet normal -9.8582799e-01 -1.1970119e-01 1.1753635e-01
      outer loop
         vertex 1.3076920e+02 7.6241714e+01 8.5394800e+01
         vertex 1.2957794e+02 8.6052603e+01 8.5394800e+01
         vertex 1.2723289e+02 8.0973922e+01 6.0553600e+01
      endloop
   endfacet
   facet normal -9.5892579e-01 -2.4621030e-01 1.4086099e-01
      outer loop
         vertex 1.2723289e+02 8.0973922e+01 6.0553600e+01
         vertex 1.2957794e+02 8.6052603e+01 8.5394800e+01
         vertex 1.2487918e+02 9.0140998e+01 6.0553600e+01
      endloop
   endfacet
   facet normal -8.1723871e-01 -5.6409915e-01 1.1795356e-01
      outer loop
         vertex 1.2607340e+02 9.5293319e+01 8.5394800e+01
         vertex 1.2045925e+02 1.0342683e+02 8.5394800e+01
         vertex 1.2031966e+02 9.8434730e+01 6.0553600e+01
      endloop
   endfacet
   facet normal -7.2176231e-01 -6.7777992e-01 1.4026241e-01
      outer loop
         vertex 1.2031966e+02 9.8434730e+01 6.0553600e+01
         vertex 1.2045925e+02 1.0342683e+02 8.5394800e+01
         vertex 1.1384082e+02 1.0533399e+02 6.0553600e+01
      endloop
   endfacet
   facet normal -4.6142505e-01 -8.7917198e-01 1.1892668e-01
      outer loop
         vertex 1.1306175e+02 1.0998043e+02 8.5394800e+01
         vertex 1.0431084e+02 1.1457327e+02 8.5394800e+01
         vertex 1.0584975e+02 1.1040528e+02 6.0553600e+01
      endloop
   endfacet
   facet normal -3.0601435e-01 -9.4181534e-01 1.3906501e-01
      outer loop
         vertex 1.0584975e+02 1.1040528e+02 6.0553600e+01
         vertex 1.0431084e+02 1.1457327e+02 8.5394800e+01
         vertex 9.6848557e+01 1.1332995e+02 6.0553600e+01
      endloop
   endfacet
   facet normal 0.0000000e+00 -9.9271882e-01 1.2045473e-01
      outer loop
         vertex 9.4715071e+01 1.1693841e+02 8.5394800e+01
         vertex 8.4832124e+01 1.1693841e+02 8.5394800e+01
         vertex 8.7402815e+01 1.1392422e+02 6.0553600e+01
      endloop
   endfacet
   facet normal 1.8560754e-01 -9.7298882e-01 1.3726832e-01
      outer loop
         vertex 8.7402815e+01 1.1392422e+02 6.0553600e+01
         vertex 8.4832124e+01 1.1693841e+02 8.5394800e+01
         vertex 7.8106039e+01 1.1215077e+02 6.0553600e+01
      endloop
   endfacet
   facet normal 4.6122104e-01 -8.7878327e-01 1.2253622e-01
      outer loop
         vertex 7.5236358e+01 1.1457327e+02 8.5394800e+01
         vertex 6.6485443e+01 1.0998043e+02 8.5394800e+01
         vertex 6.9542378e+01 1.0812101e+02 6.0553600e+01
      endloop
   endfacet
   facet normal 6.3159989e-01 -7.6347312e-01 1.3487168e-01
      outer loop
         vertex 6.9542378e+01 1.0812101e+02 6.0553600e+01
         vertex 6.6485443e+01 1.0998043e+02 8.5394800e+01
         vertex 6.2249919e+01 1.0208817e+02 6.0553600e+01
      endloop
   endfacet
   facet normal 8.1651145e-01 -5.6359716e-01 1.2516906e-01
      outer loop
         vertex 5.9087951e+01 1.0342683e+02 8.5394800e+01
         vertex 5.3473797e+01 9.5293319e+01 8.5394800e+01
         vertex 5.6686874e+01 9.4431294e+01 6.0553600e+01
      endloop
   endfacet
   facet normal 9.2165624e-01 -3.6490952e-01 1.3187423e-01
      outer loop
         vertex 5.6686874e+01 9.4431294e+01 6.0553600e+01
         vertex 5.3473797e+01 9.5293319e+01 8.5394800e+01
         vertex 5.3202790e+01 8.5631501e+01 6.0553600e+01
      endloop
   endfacet
   facet normal 9.8449804e-01 -1.1953970e-01 1.2835055e-01
      outer loop
         vertex 4.9969256e+01 8.6052603e+01 8.5394800e+01
         vertex 4.8777998e+01 7.6241714e+01 8.5394800e+01
         vertex 5.2016584e+01 7.6241714e+01 6.0553600e+01
      endloop
   endfacet
   facet normal 9.8449804e-01 1.1953970e-01 1.2835055e-01
      outer loop
         vertex 4.8777998e+01 7.6241714e+01 8.5394800e+01
         vertex 4.9969256e+01 6.6430825e+01 8.5394800e+01
         vertex 5.2016584e+01 7.6241714e+01 6.0553600e+01
      endloop
   endfacet
   facet normal 9.2748205e-01 3.5174754e-01 1.2669141e-01
      outer loop
         vertex 4.9969256e+01 6.6430825e+01 8.5394800e+01
         vertex 5.3473797e+01 5.7190109e+01 8.5394800e+01
         vertex 5.3202790e+01 6.6851926e+01 6.0553600e+01
      endloop
   endfacet
   facet normal 9.2165624e-01 3.6490952e-01 1.3187423e-01
      outer loop
         vertex 5.3202790e+01 6.6851926e+01 6.0553600e+01
         vertex 5.3473797e+01 5.7190109e+01 8.5394800e+01
         vertex 5.6686874e+01 5.8052134e+01 6.0553600e+01
      endloop
   endfacet
   facet normal 6.5802272e-01 7.4275410e-01 1.2378387e-01
      outer loop
         vertex 5.9087951e+01 4.9056603e+01 8.5394800e+01
         vertex 6.6485443e+01 4.2502996e+01 8.5394800e+01
         vertex 6.2249919e+01 5.0395259e+01 6.0553600e+01
      endloop
   endfacet
   facet normal 6.3159989e-01 7.6347312e-01 1.3487168e-01
      outer loop
         vertex 6.2249919e+01 5.0395259e+01 6.0553600e+01
         vertex 6.6485443e+01 4.2502996e+01 8.5394800e+01
         vertex 6.9542378e+01 4.4362413e+01 6.0553600e+01
      endloop
   endfacet
   facet normal 2.3754483e-01 9.6375727e-01 1.2142641e-01
      outer loop
         vertex 7.5236358e+01 3.7910162e+01 8.5394800e+01
         vertex 8.4832124e+01 3.5545018e+01 8.5394800e+01
         vertex 7.8106039e+01 4.0332660e+01 6.0553600e+01
      endloop
   endfacet
   facet normal 1.8560754e-01 9.7298882e-01 1.3726832e-01
      outer loop
         vertex 7.8106039e+01 4.0332660e+01 6.0553600e+01
         vertex 8.4832124e+01 3.5545018e+01 8.5394800e+01
         vertex 8.7402815e+01 3.8559205e+01 6.0553600e+01
      endloop
   endfacet
   facet normal -2.3759728e-01 9.6397005e-01 1.1962142e-01
      outer loop
         vertex 9.4715071e+01 3.5545018e+01 8.5394800e+01
         vertex 1.0431084e+02 3.7910162e+01 8.5394800e+01
         vertex 9.6848557e+01 3.9153481e+01 6.0553600e+01
      endloop
   endfacet
   facet normal -3.0601435e-01 9.4181534e-01 1.3906501e-01
      outer loop
         vertex 9.6848557e+01 3.9153481e+01 6.0553600e+01
         vertex 1.0431084e+02 3.7910162e+01 8.5394800e+01
         vertex 1.0584975e+02 4.2078146e+01 6.0553600e+01
      endloop
   endfacet
   facet normal -6.5846056e-01 7.4324833e-01 1.1837068e-01
      outer loop
         vertex 1.1306175e+02 4.2502996e+01 8.5394800e+01
         vertex 1.2045925e+02 4.9056603e+01 8.5394800e+01
         vertex 1.1384082e+02 4.7149435e+01 6.0553600e+01
      endloop
   endfacet
   facet normal -7.2176231e-01 6.7777992e-01 1.4026241e-01
      outer loop
         vertex 1.1384082e+02 4.7149435e+01 6.0553600e+01
         vertex 1.2045925e+02 4.9056603e+01 8.5394800e+01
         vertex 1.2031966e+02 5.4048698e+01 6.0553600e+01
      endloop
   endfacet
   facet normal -9.2851985e-01 3.5214113e-01 1.1767543e-01
      outer loop
         vertex 1.2607340e+02 5.7190109e+01 8.5394800e+01
         vertex 1.2957794e+02 6.6430825e+01 8.5394800e+01
         vertex 1.2487918e+02 6.2342430e+01 6.0553600e+01
      endloop
   endfacet
   facet normal -9.5892579e-01 2.4621030e-01 1.4086099e-01
      outer loop
         vertex 1.2487918e+02 6.2342430e+01 6.0553600e+01
         vertex 1.2957794e+02 6.6430825e+01 8.5394800e+01
         vertex 1.2723289e+02 7.1509505e+01 6.0553600e+01
      endloop
   endfacet
   facet normal 9.8310318e-01 -1.2942799e-01 1.2944702e-01
      outer loop
         vertex 6.2479058e+01 8.3555264e+01 3.0556200e+01
         vertex 5.8663832e+01 8.4577551e+01 6.0553600e+01
         vertex 6.1516211e+01 7.6241714e+01 3.0556200e+01
      endloop
   endfacet
   facet normal 9.1610632e-01 -3.7946366e-01 1.2944702e-01
      outer loop
         vertex 5.8663832e+01 8.4577551e+01 6.0553600e+01
         vertex 6.2479058e+01 8.3555264e+01 3.0556200e+01
         vertex 6.1881345e+01 9.2345314e+01 6.0553600e+01
      endloop
   endfacet
   facet normal 7.8667833e-01 -6.0363952e-01 1.2944702e-01
      outer loop
         vertex 6.9792608e+01 9.6222703e+01 3.0556200e+01
         vertex 6.6999668e+01 9.9015643e+01 6.0553600e+01
         vertex 6.5301983e+01 9.0370407e+01 3.0556200e+01
      endloop
   endfacet
   facet normal 6.0363952e-01 -7.8667833e-01 1.2944702e-01
      outer loop
         vertex 6.6999668e+01 9.9015643e+01 6.0553600e+01
         vertex 6.9792608e+01 9.6222703e+01 3.0556200e+01
         vertex 7.3669998e+01 1.0413397e+02 6.0553600e+01
      endloop
   endfacet
   facet normal 3.7946366e-01 -9.1610632e-01 1.2944702e-01
      outer loop
         vertex 8.2460048e+01 1.0353625e+02 3.0556200e+01
         vertex 8.1437761e+01 1.0735148e+02 6.0553600e+01
         vertex 7.5644905e+01 1.0071333e+02 3.0556200e+01
      endloop
   endfacet
   facet normal 1.2942799e-01 -9.8310318e-01 1.2944702e-01
      outer loop
         vertex 8.1437761e+01 1.0735148e+02 6.0553600e+01
         vertex 8.2460048e+01 1.0353625e+02 3.0556200e+01
         vertex 8.9773598e+01 1.0844891e+02 6.0553600e+01
      endloop
   endfacet
   facet normal -1.2942799e-01 -9.8310318e-01 1.2944702e-01
      outer loop
         vertex 9.7087148e+01 1.0353625e+02 3.0556200e+01
         vertex 9.8109435e+01 1.0735148e+02 6.0553600e+01
         vertex 8.9773598e+01 1.0449910e+02 3.0556200e+01
      endloop
   endfacet
   facet normal -3.7946366e-01 -9.1610632e-01 1.2944702e-01
      outer loop
         vertex 9.8109435e+01 1.0735148e+02 6.0553600e+01
         vertex 9.7087148e+01 1.0353625e+02 3.0556200e+01
         vertex 1.0587720e+02 1.0413397e+02 6.0553600e+01
      endloop
   endfacet
   facet normal -6.0363952e-01 -7.8667833e-01 1.2944702e-01
      outer loop
         vertex 1.0975459e+02 9.6222703e+01 3.0556200e+01
         vertex 1.1254753e+02 9.9015643e+01 6.0553600e+01
         vertex 1.0390229e+02 1.0071333e+02 3.0556200e+01
      endloop
   endfacet
   facet normal -7.8667833e-01 -6.0363952e-01 1.2944702e-01
      outer loop
         vertex 1.1254753e+02 9.9015643e+01 6.0553600e+01
         vertex 1.0975459e+02 9.6222703e+01 3.0556200e+01
         vertex 1.1766585e+02 9.2345314e+01 6.0553600e+01
      endloop
   endfacet
   facet normal -9.1610632e-01 -3.7946366e-01 1.2944702e-01
      outer loop
         vertex 1.1706814e+02 8.3555264e+01 3.0556200e+01
         vertex 1.2088336e+02 8.4577551e+01 6.0553600e+01
         vertex 1.1424521e+02 9.0370407e+01 3.0556200e+01
      endloop
   endfacet
   facet normal -9.8310318e-01 -1.2942799e-01 1.2944702e-01
      outer loop
         vertex 1.2088336e+02 8.4577551e+01 6.0553600e+01
         vertex 1.1706814e+02 8.3555264e+01 3.0556200e+01
         vertex 1.2198080e+02 7.6241714e+01 6.0553600e+01
      endloop
   endfacet
   facet normal -9.8310318e-01 1.2942799e-01 1.2944702e-01
      outer loop
         vertex 1.1706814e+02 6.8928164e+01 3.0556200e+01
         vertex 1.2088336e+02 6.7905877e+01 6.0553600e+01
         vertex 1.1803098e+02 7.6241714e+01 3.0556200e+01
      endloop
   endfacet
   facet normal -9.1610632e-01 3.7946366e-01 1.2944702e-01
      outer loop
         vertex 1.2088336e+02 6.7905877e+01 6.0553600e+01
         vertex 1.1706814e+02 6.8928164e+01 3.0556200e+01
         vertex 1.1766585e+02 6.0138114e+01 6.0553600e+01
      endloop
   endfacet
   facet normal -7.8667833e-01 6.0363952e-01 1.2944702e-01
      outer loop
         vertex 1.0975459e+02 5.6260724e+01 3.0556200e+01
         vertex 1.1254753e+02 5.3467784e+01 6.0553600e+01
         vertex 1.1424521e+02 6.2113021e+01 3.0556200e+01
      endloop
   endfacet
   facet normal -6.0363952e-01 7.8667833e-01 1.2944702e-01
      outer loop
         vertex 1.1254753e+02 5.3467784e+01 6.0553600e+01
         vertex 1.0975459e+02 5.6260724e+01 3.0556200e+01
         vertex 1.0587720e+02 4.8349460e+01 6.0553600e+01
      endloop
   endfacet
   facet normal -3.7946366e-01 9.1610632e-01 1.2944702e-01
      outer loop
         vertex 9.7087148e+01 4.8947174e+01 3.0556200e+01
         vertex 9.8109435e+01 4.5131948e+01 6.0553600e+01
         vertex 1.0390229e+02 5.1770099e+01 3.0556200e+01
      endloop
   endfacet
   facet normal -1.2942799e-01 9.8310318e-01 1.2944702e-01
      outer loop
         vertex 9.8109435e+01 4.5131948e+01 6.0553600e+01
         vertex 9.7087148e+01 4.8947174e+01 3.0556200e+01
         vertex 8.9773598e+01 4.4034514e+01 6.0553600e+01
      endloop
   endfacet
   facet normal 1.2942799e-01 9.8310318e-01 1.2944702e-01
      outer loop
         vertex 8.2460048e+01 4.8947174e+01 3.0556200e+01
         vertex 8.1437761e+01 4.5131948e+01 6.0553600e+01
         vertex 8.9773598e+01 4.7984327e+01 3.0556200e+01
      endloop
   endfacet
   facet normal 3.7946366e-01 9.1610632e-01 1.2944702e-01
      outer loop
         vertex 8.1437761e+01 4.5131948e+01 6.0553600e+01
         vertex 8.2460048e+01 4.8947174e+01 3.0556200e+01
         vertex 7.3669998e+01 4.8349460e+01 6.0553600e+01
      endloop
   endfacet
   facet normal 6.0363952e-01 7.8667833e-01 1.2944702e-01
      outer loop
         vertex 6.9792608e+01 5.6260724e+01 3.0556200e+01
         vertex 6.6999668e+01 5.3467784e+01 6.0553600e+01
         vertex 7.5644905e+01 5.1770099e+01 3.0556200e+01
      endloop
   endfacet
   facet normal 7.8667833e-01 6.0363952e-01 1.2944702e-01
      outer loop
         vertex 6.6999668e+01 5.3467784e+01 6.0553600e+01
         vertex 6.9792608e+01 5.6260724e+01 3.0556200e+01
         vertex 6.1881345e+01 6.0138114e+01 6.0553600e+01
      endloop
   endfacet
   facet normal 9.1610632e-01 3.7946366e-01 1.2944702e-01
      outer loop
         vertex 6.2479058e+01 6.8928164e+01 3.0556200e+01
         vertex 5.8663832e+01 6.7905877e+01 6.0553600e+01
         vertex 6.5301983e+01 6.2113021e+01 3.0556200e+01
      endloop
   endfacet
   facet normal 9.8310318e-01 1.2942799e-01 1.2944702e-01
      outer loop
         vertex 5.8663832e+01 6.7905877e+01 6.0553600e+01
         vertex 6.2479058e+01 6.8928164e+01 3.0556200e+01
         vertex 5.7566398e+01 7.6241714e+01 6.0553600e+01
      endloop
   endfacet
   facet normal -9.1610632e-01 -3.7946366e-01 1.2944702e-01
      outer loop
         vertex 1.2088336e+02 8.4577551e+01 6.0553600e+01
         vertex 1.1766585e+02 9.2345314e+01 6.0553600e+01
         vertex 1.1424521e+02 9.0370407e+01 3.0556200e+01
      endloop
   endfacet
   facet normal -7.8667833e-01 -6.0363952e-01 1.2944702e-01
      outer loop
         vertex 1.1424521e+02 9.0370407e+01 3.0556200e+01
         vertex 1.1766585e+02 9.2345314e+01 6.0553600e+01
         vertex 1.0975459e+02 9.6222703e+01 3.0556200e+01
      endloop
   endfacet
   facet normal -6.0363952e-01 -7.8667833e-01 1.2944702e-01
      outer loop
         vertex 1.1254753e+02 9.9015643e+01 6.0553600e+01
         vertex 1.0587720e+02 1.0413397e+02 6.0553600e+01
         vertex 1.0390229e+02 1.0071333e+02 3.0556200e+01
      endloop
   endfacet
   facet normal -3.7946366e-01 -9.1610632e-01 1.2944702e-01
      outer loop
         vertex 1.0390229e+02 1.0071333e+02 3.0556200e+01
         vertex 1.0587720e+02 1.0413397e+02 6.0553600e+01
         vertex 9.7087148e+01 1.0353625e+02 3.0556200e+01
      endloop
   endfacet
   facet normal -1.2942799e-01 -9.8310318e-01 1.2944702e-01
      outer loop
         vertex 9.8109435e+01 1.0735148e+02 6.0553600e+01
         vertex 8.9773598e+01 1.0844891e+02 6.0553600e+01
         vertex 8.9773598e+01 1.0449910e+02 3.0556200e+01
      endloop
   endfacet
   facet normal 1.2942799e-01 -9.8310318e-01 1.2944702e-01
      outer loop
         vertex 8.9773598e+01 1.0449910e+02 3.0556200e+01
         vertex 8.9773598e+01 1.0844891e+02 6.0553600e+01
         vertex 8.2460048e+01 1.0353625e+02 3.0556200e+01
      endloop
   endfacet
   facet normal 3.7946366e-01 -9.1610632e-01 1.2944702e-01
      outer loop
         vertex 8.1437761e+01 1.0735148e+02 6.0553600e+01
         vertex 7.3669998e+01 1.0413397e+02 6.0553600e+01
         vertex 7.5644905e+01 1.0071333e+02 3.0556200e+01
      endloop
   endfacet
   facet normal 6.0363952e-01 -7.8667833e-01 1.2944702e-01
      outer loop
         vertex 7.5644905e+01 1.0071333e+02 3.0556200e+01
         vertex 7.3669998e+01 1.0413397e+02 6.0553600e+01
         vertex 6.9792608e+01 9.6222703e+01 3.0556200e+01
      endloop
   endfacet
   facet normal 7.8667833e-01 -6.0363952e-01 1.2944702e-01
      outer loop
         vertex 6.6999668e+01 9.9015643e+01 6.0553600e+01
         vertex 6.1881345e+01 9.2345314e+01 6.0553600e+01
         vertex 6.5301983e+01 9.0370407e+01 3.0556200e+01
      endloop
   endfacet
   facet normal 9.1610632e-01 -3.7946366e-01 1.2944702e-01
      outer loop
         vertex 6.5301983e+01 9.0370407e+01 3.0556200e+01
         vertex 6.1881345e+01 9.2345314e+01 6.0553600e+01
         vertex 6.2479058e+01 8.3555264e+01 3.0556200e+01
      endloop
   endfacet
   facet normal 9.8310318e-01 -1.2942799e-01 1.2944702e-01
      outer loop
         vertex 5.8663832e+01 8.4577551e+01 6.0553600e+01
         vertex 5.7566398e+01 7.6241714e+01 6.0553600e+01
         vertex 6.1516211e+01 7.6241714e+01 3.0556200e+01
      endloop
   endfacet
   facet normal 9.8310318e-01 1.2942799e-01 1.2944702e-01
      outer loop
         vertex 6.1516211e+01 7.6241714e+01 3.0556200e+01
         vertex 5.7566398e+01 7.6241714e+01 6.0553600e+01
         vertex 6.2479058e+01 6.8928164e+01 3.0556200e+01
      endloop
   endfacet
   facet normal 9.1610632e-01 3.7946366e-01 1.2944702e-01
      outer loop
         vertex 5.8663832e+01 6.7905877e+01 6.0553600e+01
         vertex 6.1881345e+01 6.0138114e+01 6.0553600e+01
         vertex 6.5301983e+01 6.2113021e+01 3.0556200e+01
      endloop
   endfacet
   facet normal 7.8667833e-01 6.0363952e-01 1.2944702e-01
      outer loop
         vertex 6.5301983e+01 6.2113021e+01 3.0556200e+01
         vertex 6.1881345e+01 6.0138114e+01 6.0553600e+01
         vertex 6.9792608e+01 5.6260724e+01 3.0556200e+01
      endloop
   endfacet
   facet normal 6.0363952e-01 7.8667833e-01 1.2944702e-01
      outer loop
         vertex 6.6999668e+01 5.3467784e+01 6.0553600e+01
         vertex 7.3669998e+01 4.8349460e+01 6.0553600e+01
         vertex 7.5644905e+01 5.1770099e+01 3.0556200e+01
      endloop
   endfacet
   facet normal 3.7946366e-01 9.1610632e-01 1.2944702e-01
      outer loop
         vertex 7.5644905e+01 5.1770099e+01 3.0556200e+01
         vertex 7.3669998e+01 4.8349460e+01 6.0553600e+01
         vertex 8.2460048e+01 4.8947174e+01 3.0556200e+01
      endloop
   endfacet
   facet normal 1.2942799e-01 9.8310318e-01 1.2944702e-01
      outer loop
         vertex 8.1437761e+01 4.5131948e+01 6.0553600e+01
         vertex 8.9773598e+01 4.4034514e+01 6.0553600e+01
         vertex 8.9773598e+01 4.7984327e+01 3.0556200e+01
      endloop
   endfacet
   facet normal -1.2942799e-01 9.8310318e-01 1.2944702e-01
      outer loop
         vertex 8.9773598e+01 4.7984327e+01 3.0556200e+01
         vertex 8.9773598e+01 4.4034514e+01 6.0553600e+01
         vertex 9.7087148e+01 4.8947174e+01 3.0556200e+01
      endloop
   endfacet
   facet normal -3.7946366e-01 9.1610632e-01 1.2944702e-01
      outer loop
         vertex 9.8109435e+01 4.5131948e+01 6.0553600e+01
         vertex 1.0587720e+02 4.8349460e+01 6.0553600e+01
         vertex 1.0390229e+02 5.1770099e+01 3.0556200e+01
      endloop
   endfacet
   facet normal -6.0363952e-01 7.8667833e-01 1.2944702e-01
      outer loop
         vertex 1.0390229e+02 5.1770099e+01 3.0556200e+01
         vertex 1.0587720e+02 4.8349460e+01 6.0553600e+01
         vertex 1.0975459e+02 5.6260724e+01 3.0556200e+01
      endloop
   endfacet
   facet normal -7.8667833e-01 6.0363952e-01 1.2944702e-01
      outer loop
         vertex 1.1254753e+02 5.3467784e+01 6.0553600e+01
         vertex 1.1766585e+02 6.0138114e+01 6.0553600e+01
         vertex 1.1424521e+02 6.2113021e+01 3.0556200e+01
      endloop
   endfacet
   facet normal -9.1610632e-01 3.7946366e-01 1.2944702e-01
      outer loop
         vertex 1.1424521e+02 6.2113021e+01 3.0556200e+01
         vertex 1.1766585e+02 6.0138114e+01 6.0553600e+01
         vertex 1.1706814e+02 6.8928164e+01 3.0556200e+01
      endloop
   endfacet
   facet normal -9.8310318e-01 1.2942799e-01 1.2944702e-01
      outer loop
         vertex 1.2088336e+02 6.7905877e+01 6.0553600e+01
         vertex 1.2198080e+02 7.6241714e+01 6.0553600e+01
         vertex 1.1803098e+02 7.6241714e+01 3.0556200e+01
      endloop
   endfacet
   facet normal -9.8310318e-01 -1.2942799e-01 1.2944702e-01
      outer loop
         vertex 1.1803098e+02 7.6241714e+01 3.0556200e+01
         vertex 1.2198080e+02 7.6241714e+01 6.0553600e+01
         vertex 1.1706814e+02 8.3555264e+01 3.0556200e+01
      endloop
   endfacet
   facet normal 2.3561610e-15 2.8608974e-16 1.0000000e+00
      outer loop
         vertex 4.9969256e+01 6.6430825e+01 2.4594820e+02
         vertex 4.8777998e+01 7.6241714e+01 2.4594820e+02
         vertex 1.0000000e-06 8.0582921e+01 2.4594820e+02
      endloop
   endfacet
   facet normal 2.5489138e-15 9.6667550e-16 1.0000000e+00
      outer loop
         vertex 4.9969256e+01 6.6430825e+01 2.4594820e+02
         vertex 1.0000000e-06 8.0582921e+01 2.4594820e+02
         vertex 5.3473797e+01 5.7190109e+01 2.4594820e+02
      endloop
   endfacet
   facet normal 2.3057818e-15 -2.7997260e-16 1.0000000e+00
      outer loop
         vertex 4.8777998e+01 7.6241714e+01 2.4594820e+02
         vertex 4.9969256e+01 8.6052603e+01 2.4594820e+02
         vertex 1.0000000e-06 8.0582921e+01 2.4594820e+02
      endloop
   endfacet
   facet normal 2.3736742e-15 -9.0021590e-16 1.0000000e+00
      outer loop
         vertex 4.9969256e+01 8.6052603e+01 2.4594820e+02
         vertex 5.3473797e+01 9.5293319e+01 2.4594820e+02
         vertex 1.0000000e-06 8.0582921e+01 2.4594820e+02
      endloop
   endfacet
   facet normal 1.6884538e-15 -1.9058703e-15 1.0000000e+00
      outer loop
         vertex 6.6485443e+01 1.0998043e+02 2.4594820e+02
         vertex 5.4272993e+01 1.5881202e+02 2.4594820e+02
         vertex 5.9087951e+01 1.0342683e+02 2.4594820e+02
      endloop
   endfacet
   facet normal 1.0801264e-15 -2.0580089e-15 1.0000000e+00
      outer loop
         vertex 6.6485443e+01 1.0998043e+02 2.4594820e+02
         vertex 7.5236358e+01 1.1457327e+02 2.4594820e+02
         vertex 5.4272993e+01 1.5881202e+02 2.4594820e+02
      endloop
   endfacet
   facet normal 5.6716640e-16 -2.3010845e-15 1.0000000e+00
      outer loop
         vertex 7.5236358e+01 1.1457327e+02 2.4594820e+02
         vertex 8.4832124e+01 1.1693841e+02 2.4594820e+02
         vertex 5.4272993e+01 1.5881202e+02 2.4594820e+02
      endloop
   endfacet
   facet normal 0.0000000e+00 -2.7149994e-15 1.0000000e+00
      outer loop
         vertex 8.4832124e+01 1.1693841e+02 2.4594820e+02
         vertex 9.4715071e+01 1.1693841e+02 2.4594820e+02
         vertex 5.4272993e+01 1.5881202e+02 2.4594820e+02
      endloop
   endfacet
   facet normal -4.6306499e-16 -3.1622336e-15 1.0000000e+00
      outer loop
         vertex 5.4272993e+01 1.5881202e+02 2.4594820e+02
         vertex 9.4715071e+01 1.1693841e+02 2.4594820e+02
         vertex 1.4528406e+02 1.4548472e+02 2.4594820e+02
      endloop
   endfacet
   facet normal -6.8327193e-16 -2.7721432e-15 1.0000000e+00
      outer loop
         vertex 9.4715071e+01 1.1693841e+02 2.4594820e+02
         vertex 1.0431084e+02 1.1457327e+02 2.4594820e+02
         vertex 1.4528406e+02 1.4548472e+02 2.4594820e+02
      endloop
   endfacet
   facet normal -1.1383473e-15 -2.1689396e-15 1.0000000e+00
      outer loop
         vertex 1.0431084e+02 1.1457327e+02 2.4594820e+02
         vertex 1.1306175e+02 1.0998043e+02 2.4594820e+02
         vertex 1.4528406e+02 1.4548472e+02 2.4594820e+02
      endloop
   endfacet
   facet normal -1.5724676e-15 -1.7749490e-15 1.0000000e+00
      outer loop
         vertex 1.1306175e+02 1.0998043e+02 2.4594820e+02
         vertex 1.2045925e+02 1.0342683e+02 2.4594820e+02
         vertex 1.4528406e+02 1.4548472e+02 2.4594820e+02
      endloop
   endfacet
   facet normal -3.0066788e-15 -1.1402829e-15 1.0000000e+00
      outer loop
         vertex 1.2957794e+02 8.6052603e+01 2.4594820e+02
         vertex 1.7515704e+02 6.5570962e+01 2.4594820e+02
         vertex 1.2607340e+02 9.5293319e+01 2.4594820e+02
      endloop
   endfacet
   facet normal -2.6382247e-15 -3.2033847e-16 1.0000000e+00
      outer loop
         vertex 1.2957794e+02 8.6052603e+01 2.4594820e+02
         vertex 1.3076920e+02 7.6241714e+01 2.4594820e+02
         vertex 1.7515704e+02 6.5570962e+01 2.4594820e+02
      endloop
   endfacet
   facet normal -2.4885753e-15 3.0216775e-16 1.0000000e+00
      outer loop
         vertex 1.3076920e+02 7.6241714e+01 2.4594820e+02
         vertex 1.2957794e+02 6.6430825e+01 2.4594820e+02
         vertex 1.7515704e+02 6.5570962e+01 2.4594820e+02
      endloop
   endfacet
   facet normal -2.4765569e-15 9.3923414e-16 1.0000000e+00
      outer loop
         vertex 1.2957794e+02 6.6430825e+01 2.4594820e+02
         vertex 1.2607340e+02 5.7190109e+01 2.4594820e+02
         vertex 1.7515704e+02 6.5570962e+01 2.4594820e+02
      endloop
   endfacet
   facet normal -2.6256377e-15 1.8123469e-15 1.0000000e+00
      outer loop
         vertex 1.2607340e+02 5.7190109e+01 2.4594820e+02
         vertex 1.2045925e+02 4.9056603e+01 2.4594820e+02
         vertex 1.7515704e+02 6.5570962e+01 2.4594820e+02
      endloop
   endfacet
   facet normal -2.6291672e-15 1.8240369e-15 1.0000000e+00
      outer loop
         vertex 1.7515704e+02 6.5570962e+01 2.4594820e+02
         vertex 1.2045925e+02 4.9056603e+01 2.4594820e+02
         vertex 1.2966588e+02 1.0000000e-06 2.4594820e+02
      endloop
   endfacet
   facet normal -1.7604007e-15 1.9870816e-15 1.0000000e+00
      outer loop
         vertex 1.2045925e+02 4.9056603e+01 2.4594820e+02
         vertex 1.1306175e+02 4.2502996e+01 2.4594820e+02
         vertex 1.2966588e+02 1.0000000e-06 2.4594820e+02
      endloop
   endfacet
   facet normal -1.1649815e-15 2.2196868e-15 1.0000000e+00
      outer loop
         vertex 1.1306175e+02 4.2502996e+01 2.4594820e+02
         vertex 1.0431084e+02 3.7910162e+01 2.4594820e+02
         vertex 1.2966588e+02 1.0000000e-06 2.4594820e+02
      endloop
   endfacet
   facet normal -6.3454555e-16 2.5744525e-15 1.0000000e+00
      outer loop
         vertex 1.0431084e+02 3.7910162e+01 2.4594820e+02
         vertex 9.4715071e+01 3.5545018e+01 2.4594820e+02
         vertex 1.2966588e+02 1.0000000e-06 2.4594820e+02
      endloop
   endfacet
   facet normal 6.1554565e-16 2.4973669e-15 1.0000000e+00
      outer loop
         vertex 7.5236358e+01 3.7910162e+01 2.4594820e+02
         vertex 4.4351146e+01 1.0000000e-06 2.4594820e+02
         vertex 8.4832124e+01 3.5545018e+01 2.4594820e+02
      endloop
   endfacet
   facet normal 1.1025035e-15 2.1006449e-15 1.0000000e+00
      outer loop
         vertex 7.5236358e+01 3.7910162e+01 2.4594820e+02
         vertex 6.6485443e+01 4.2502996e+01 2.4594820e+02
         vertex 4.4351146e+01 1.0000000e-06 2.4594820e+02
      endloop
   endfacet
   facet normal 1.6215435e-15 1.8303442e-15 1.0000000e+00
      outer loop
         vertex 6.6485443e+01 4.2502996e+01 2.4594820e+02
         vertex 5.9087951e+01 4.9056603e+01 2.4594820e+02
         vertex 4.4351146e+01 1.0000000e-06 2.4594820e+02
      endloop
   endfacet
   facet normal 2.3393253e-15 1.6147197e-15 1.0000000e+00
      outer loop
         vertex 5.9087951e+01 4.9056603e+01 2.4594820e+02
         vertex 5.3473797e+01 5.7190109e+01 2.4594820e+02
         vertex 4.4351146e+01 1.0000000e-06 2.4594820e+02
      endloop
   endfacet
   facet normal 2.8002454e-15 1.5411962e-15 1.0000000e+00
      outer loop
         vertex 4.4351146e+01 1.0000000e-06 2.4594820e+02
         vertex 5.3473797e+01 5.7190109e+01 2.4594820e+02
         vertex 1.0000000e-06 8.0582921e+01 2.4594820e+02
      endloop
   endfacet
   facet normal -0.0000000e+00 3.1983903e-15 1.0000000e+00
      outer loop
         vertex 4.4351146e+01 1.0000000e-06 2.4594820e+02
         vertex 1.2966588e+02 1.0000000e-06 2.4594820e+02
         vertex 8.4832124e+01 3.5545018e+01 2.4594820e+02
      endloop
   endfacet
   facet normal -2.9938886e-15 -1.1191610e-15 1.0000000e+00
      outer loop
         vertex 1.7515704e+02 6.5570962e+01 2.4594820e+02
         vertex 1.4528406e+02 1.4548472e+02 2.4594820e+02
         vertex 1.2607340e+02 9.5293319e+01 2.4594820e+02
      endloop
   endfacet
   facet normal 2.6292334e-15 -1.8240829e-15 1.0000000e+00
      outer loop
         vertex 5.4272993e+01 1.5881202e+02 2.4594820e+02
         vertex 1.0000000e-06 8.0582921e+01 2.4594820e+02
         vertex 5.9087951e+01 1.0342683e+02 2.4594820e+02
      endloop
   endfacet
   facet normal 2.6243534e-15 -1.8114604e-15 1.0000000e+00
      outer loop
         vertex 5.9087951e+01 1.0342683e+02 2.4594820e+02
         vertex 1.0000000e-06 8.0582921e+01 2.4594820e+02
         vertex 5.3473797e+01 9.5293319e+01 2.4594820e+02
      endloop
   endfacet
   facet normal -2.1109690e-15 -1.4570967e-15 1.0000000e+00
      outer loop
         vertex 1.4528406e+02 1.4548472e+02 2.4594820e+02
         vertex 1.2045925e+02 1.0342683e+02 2.4594820e+02
         vertex 1.2607340e+02 9.5293319e+01 2.4594820e+02
      endloop
   endfacet
   facet normal 0.0000000e+00 3.1983903e-15 1.0000000e+00
      outer loop
         vertex 1.2966588e+02 1.0000000e-06 2.4594820e+02
         vertex 9.4715071e+01 3.5545018e+01 2.4594820e+02
         vertex 8.4832124e+01 3.5545018e+01 2.4594820e+02
      endloop
   endfacet
   facet normal -0.0000000e+00 0.0000000e+00 -1.0000000e+00
      outer loop
         vertex 6.2479058e+01 8.3555264e+01 3.0556200e+01
         vertex 6.1516211e+01 7.6241714e+01 3.0556200e+01
         vertex 4.4958373e+01 7.8408856e+01 3.0556200e+01
      endloop
   endfacet
   facet normal -0.0000000e+00 0.0000000e+00 -1.0000000e+00
      outer loop
         vertex 6.2479058e+01 8.3555264e+01 3.0556200e+01
         vertex 4.4958373e+01 7.8408856e+01 3.0556200e+01
         vertex 6.5301983e+01 9.0370407e+01 3.0556200e+01
      endloop
   endfacet
   facet normal -0.0000000e+00 -0.0000000e+00 -1.0000000e+00
      outer loop
         vertex 6.1516211e+01 7.6241714e+01 3.0556200e+01
         vertex 6.2479058e+01 6.8928164e+01 3.0556200e+01
         vertex 4.4958373e+01 7.8408856e+01 3.0556200e+01
      endloop
   endfacet
   facet normal -0.0000000e+00 0.0000000e+00 -1.0000000e+00
      outer loop
         vertex 6.9792608e+01 5.6260724e+01 3.0556200e+01
         vertex 6.7098586e+01 3.8181643e+01 3.0556200e+01
         vertex 6.5301983e+01 6.2113021e+01 3.0556200e+01
      endloop
   endfacet
   facet normal 0.0000000e+00 -0.0000000e+00 -1.0000000e+00
      outer loop
         vertex 6.9792608e+01 5.6260724e+01 3.0556200e+01
         vertex 7.5644905e+01 5.1770099e+01 3.0556200e+01
         vertex 6.7098586e+01 3.8181643e+01 3.0556200e+01
      endloop
   endfacet
   facet normal 0.0000000e+00 -0.0000000e+00 -1.0000000e+00
      outer loop
         vertex 7.5644905e+01 5.1770099e+01 3.0556200e+01
         vertex 8.2460048e+01 4.8947174e+01 3.0556200e+01
         vertex 6.7098586e+01 3.8181643e+01 3.0556200e+01
      endloop
   endfacet
   facet normal 0.0000000e+00 -0.0000000e+00 -1.0000000e+00
      outer loop
         vertex 8.2460048e+01 4.8947174e+01 3.0556200e+01
         vertex 8.9773598e+01 4.7984327e+01 3.0556200e+01
         vertex 6.7098586e+01 3.8181643e+01 3.0556200e+01
      endloop
   endfacet
   facet normal 0.0000000e+00 0.0000000e+00 -1.0000000e+00
      outer loop
         vertex 6.7098586e+01 3.8181643e+01 3.0556200e+01
         vertex 8.9773598e+01 4.7984327e+01 3.0556200e+01
         vertex 1.0968793e+02 3.8181643e+01 3.0556200e+01
      endloop
   endfacet
   facet normal 0.0000000e+00 0.0000000e+00 -1.0000000e+00
      outer loop
         vertex 8.9773598e+01 4.7984327e+01 3.0556200e+01
         vertex 9.7087148e+01 4.8947174e+01 3.0556200e+01
         vertex 1.0968793e+02 3.8181643e+01 3.0556200e+01
      endloop
   endfacet
   facet normal 0.0000000e+00 0.0000000e+00 -1.0000000e+00
      outer loop
         vertex 9.7087148e+01 4.8947174e+01 3.0556200e+01
         vertex 1.0390229e+02 5.1770099e+01 3.0556200e+01
         vertex 1.0968793e+02 3.8181643e+01 3.0556200e+01
      endloop
   endfacet
   facet normal 0.0000000e+00 -0.0000000e+00 -1.0000000e+00
      outer loop
         vertex 1.0390229e+02 5.1770099e+01 3.0556200e+01
         vertex 1.0975459e+02 5.6260724e+01 3.0556200e+01
         vertex 1.0968793e+02 3.8181643e+01 3.0556200e+01
      endloop
   endfacet
   facet normal 0.0000000e+00 -0.0000000e+00 -1.0000000e+00
      outer loop
         vertex 1.1706814e+02 6.8928164e+01 3.0556200e+01
         vertex 1.3239724e+02 7.0914845e+01 3.0556200e+01
         vertex 1.1424521e+02 6.2113021e+01 3.0556200e+01
      endloop
   endfacet
   facet normal 0.0000000e+00 0.0000000e+00 -1.0000000e+00
      outer loop
         vertex 1.1706814e+02 6.8928164e+01 3.0556200e+01
         vertex 1.1803098e+02 7.6241714e+01 3.0556200e+01
         vertex 1.3239724e+02 7.0914845e+01 3.0556200e+01
      endloop
   endfacet
   facet normal 0.0000000e+00 0.0000000e+00 -1.0000000e+00
      outer loop
         vertex 1.1803098e+02 7.6241714e+01 3.0556200e+01
         vertex 1.1706814e+02 8.3555264e+01 3.0556200e+01
         vertex 1.3239724e+02 7.0914845e+01 3.0556200e+01
      endloop
   endfacet
   facet normal 0.0000000e+00 0.0000000e+00 -1.0000000e+00
      outer loop
         vertex 1.3239724e+02 7.0914845e+01 3.0556200e+01
         vertex 1.1706814e+02 8.3555264e+01 3.0556200e+01
         vertex 1.1748457e+02 1.1080801e+02 3.0556200e+01
      endloop
   endfacet
   facet normal 0.0000000e+00 0.0000000e+00 -1.0000000e+00
      outer loop
         vertex 1.1706814e+02 8.3555264e+01 3.0556200e+01
         vertex 1.1424521e+02 9.0370407e+01 3.0556200e+01
         vertex 1.1748457e+02 1.1080801e+02 3.0556200e+01
      endloop
   endfacet
   facet normal 0.0000000e+00 0.0000000e+00 -1.0000000e+00
      outer loop
         vertex 1.1424521e+02 9.0370407e+01 3.0556200e+01
         vertex 1.0975459e+02 9.6222703e+01 3.0556200e+01
         vertex 1.1748457e+02 1.1080801e+02 3.0556200e+01
      endloop
   endfacet
   facet normal 0.0000000e+00 0.0000000e+00 -1.0000000e+00
      outer loop
         vertex 1.0975459e+02 9.6222703e+01 3.0556200e+01
         vertex 1.0390229e+02 1.0071333e+02 3.0556200e+01
         vertex 1.1748457e+02 1.1080801e+02 3.0556200e+01
      endloop
   endfacet
   facet normal 0.0000000e+00 0.0000000e+00 -1.0000000e+00
      outer loop
         vertex 8.9773598e+01 1.0449910e+02 3.0556200e+01
         vertex 7.2051599e+01 1.1746104e+02 3.0556200e+01
         vertex 9.7087148e+01 1.0353625e+02 3.0556200e+01
      endloop
   endfacet
   facet normal -0.0000000e+00 0.0000000e+00 -1.0000000e+00
      outer loop
         vertex 8.9773598e+01 1.0449910e+02 3.0556200e+01
         vertex 8.2460048e+01 1.0353625e+02 3.0556200e+01
         vertex 7.2051599e+01 1.1746104e+02 3.0556200e+01
      endloop
   endfacet
   facet normal -0.0000000e+00 0.0000000e+00 -1.0000000e+00
      outer loop
         vertex 8.2460048e+01 1.0353625e+02 3.0556200e+01
         vertex 7.5644905e+01 1.0071333e+02 3.0556200e+01
         vertex 7.2051599e+01 1.1746104e+02 3.0556200e+01
      endloop
   endfacet
   facet normal -0.0000000e+00 0.0000000e+00 -1.0000000e+00
      outer loop
         vertex 7.5644905e+01 1.0071333e+02 3.0556200e+01
         vertex 6.9792608e+01 9.6222703e+01 3.0556200e+01
         vertex 7.2051599e+01 1.1746104e+02 3.0556200e+01
      endloop
   endfacet
   facet normal -0.0000000e+00 0.0000000e+00 -1.0000000e+00
      outer loop
         vertex 6.9792608e+01 9.6222703e+01 3.0556200e+01
         vertex 6.5301983e+01 9.0370407e+01 3.0556200e+01
         vertex 7.2051599e+01 1.1746104e+02 3.0556200e+01
      endloop
   endfacet
   facet normal 0.0000000e+00 0.0000000e+00 -1.0000000e+00
      outer loop
         vertex 7.2051599e+01 1.1746104e+02 3.0556200e+01
         vertex 6.5301983e+01 9.0370407e+01 3.0556200e+01
         vertex 4.4958373e+01 7.8408856e+01 3.0556200e+01
      endloop
   endfacet
   facet normal -0.0000000e+00 0.0000000e+00 -1.0000000e+00
      outer loop
         vertex 1.3239724e+02 7.0914845e+01 3.0556200e+01
         vertex 1.0968793e+02 3.8181643e+01 3.0556200e+01
         vertex 1.1424521e+02 6.2113021e+01 3.0556200e+01
      endloop
   endfacet
   facet normal 0.0000000e+00 0.0000000e+00 -1.0000000e+00
      outer loop
         vertex 6.7098586e+01 3.8181643e+01 3.0556200e+01
         vertex 4.4958373e+01 7.8408856e+01 3.0556200e+01
         vertex 6.5301983e+01 6.2113021e+01 3.0556200e+01
      endloop
   endfacet
   facet normal 0.0000000e+00 -0.0000000e+00 -1.0000000e+00
      outer loop
         vertex 7.2051599e+01 1.1746104e+02 3.0556200e+01
         vertex 1.1748457e+02 1.1080801e+02 3.0556200e+01
         vertex 9.7087148e+01 1.0353625e+02 3.0556200e+01
      endloop
   endfacet
   facet normal 0.0000000e+00 0.0000000e+00 -1.0000000e+00
      outer loop
         vertex 6.5301983e+01 6.2113021e+01 3.0556200e+01
         vertex 4.4958373e+01 7.8408856e+01 3.0556200e+01
         vertex 6.2479058e+01 6.8928164e+01 3.0556200e+01
      endloop
   endfacet
   facet normal 0.0000000e+00 0.0000000e+00 -1.0000000e+00
      outer loop
         vertex 1.0968793e+02 3.8181643e+01 3.0556200e+01
         vertex 1.0975459e+02 5.6260724e+01 3.0556200e+01
         vertex 1.1424521e+02 6.2113021e+01 3.0556200e+01
      endloop
   endfacet
   facet normal -0.0000000e+00 0.0000000e+00 -1.0000000e+00
      outer loop
         vertex 1.1748457e+02 1.1080801e+02 3.0556200e+01
         vertex 1.0390229e+02 1.0071333e+02 3.0556200e+01
         vertex 9.7087148e+01 1.0353625e+02 3.0556200e+01
      endloop
   endfacet
   facet normal -8.6251898e-01 -4.7471232e-01 -1.7524046e-01
      outer loop
         vertex 4.4958373e+01 7.8408856e+01 3.0556200e+01
         vertex 6.7098586e+01 3.8181643e+01 3.0556200e+01
         vertex 1.0000000e-06 8.0582921e+01 2.4594820e+02
      endloop
   endfacet
   facet normal -8.6251898e-01 -4.7471232e-01 -1.7524046e-01
      outer loop
         vertex 6.7098586e+01 3.8181643e+01 3.0556200e+01
         vertex 4.4351146e+01 1.0000000e-06 2.4594820e+02
         vertex 1.0000000e-06 8.0582921e+01 2.4594820e+02
      endloop
   endfacet
   facet normal 0.0000000e+00 -9.8464926e-01 -1.7454467e-01
      outer loop
         vertex 1.0968793e+02 3.8181643e+01 3.0556200e+01
         vertex 1.2966588e+02 1.0000000e-06 2.4594820e+02
         vertex 6.7098586e+01 3.8181643e+01 3.0556200e+01
      endloop
   endfacet
   facet normal -0.0000000e+00 -9.8464926e-01 -1.7454467e-01
      outer loop
         vertex 1.2966588e+02 1.0000000e-06 2.4594820e+02
         vertex 4.4351146e+01 1.0000000e-06 2.4594820e+02
         vertex 6.7098586e+01 3.8181643e+01 3.0556200e+01
      endloop
   endfacet
   facet normal 8.0901874e-01 -5.6127281e-01 -1.7453225e-01
      outer loop
         vertex 1.3239724e+02 7.0914845e+01 3.0556200e+01
         vertex 1.7515704e+02 6.5570962e+01 2.4594820e+02
         vertex 1.0968793e+02 3.8181643e+01 3.0556200e+01
      endloop
   endfacet
   facet normal 8.0901874e-01 -5.6127281e-01 -1.7453225e-01
      outer loop
         vertex 1.7515704e+02 6.5570962e+01 2.4594820e+02
         vertex 1.2966588e+02 1.0000000e-06 2.4594820e+02
         vertex 1.0968793e+02 3.8181643e+01 3.0556200e+01
      endloop
   endfacet
   facet normal 9.2231459e-01 3.4477519e-01 -1.7454475e-01
      outer loop
         vertex 1.3239724e+02 7.0914845e+01 3.0556200e+01
         vertex 1.1748457e+02 1.1080801e+02 3.0556200e+01
         vertex 1.7515704e+02 6.5570962e+01 2.4594820e+02
      endloop
   endfacet
   facet normal 9.2231459e-01 3.4477519e-01 -1.7454475e-01
      outer loop
         vertex 1.1748457e+02 1.1080801e+02 3.0556200e+01
         vertex 1.4528406e+02 1.4548472e+02 2.4594820e+02
         vertex 1.7515704e+02 6.5570962e+01 2.4594820e+02
      endloop
   endfacet
   facet normal 1.4264871e-01 9.7413659e-01 -1.7524055e-01
      outer loop
         vertex 7.2051599e+01 1.1746104e+02 3.0556200e+01
         vertex 5.4272993e+01 1.5881202e+02 2.4594820e+02
         vertex 1.1748457e+02 1.1080801e+02 3.0556200e+01
      endloop
   endfacet
   facet normal 1.4264871e-01 9.7413659e-01 -1.7524055e-01
      outer loop
         vertex 5.4272993e+01 1.5881202e+02 2.4594820e+02
         vertex 1.4528406e+02 1.4548472e+02 2.4594820e+02
         vertex 1.1748457e+02 1.1080801e+02 3.0556200e+01
      endloop
   endfacet
   facet normal -8.0901903e-01 5.6127301e-01 -1.7453026e-01
      outer loop
         vertex 4.4958373e+01 7.8408856e+01 3.0556200e+01
         vertex 1.0000000e-06 8.0582921e+01 2.4594820e+02
         vertex 7.2051599e+01 1.1746104e+02 3.0556200e+01
      endloop
   endfacet
   facet normal -8.0901903e-01 5.6127301e-01 -1.7453026e-01
      outer loop
         vertex 1.0000000e-06 8.0582921e+01 2.4594820e+02
         vertex 5.4272993e+01 1.5881202e+02 2.4594820e+02
         vertex 7.2051599e+01 1.1746104e+02 3.0556200e+01
      endloop
   endfacet
endsolid AutoCAD
