solid AutoCAD
   facet normal 9.9270887e-01 1.2053668e-01 -4.5898272e-17
      outer loop
         vertex 4.8770778e+01 6.5412998e+01 2.4451073e+02
         vertex 4.8770778e+01 6.5412998e+01 8.6432351e+01
         vertex 4.7579520e+01 7.5223887e+01 2.4451073e+02
      endloop
   endfacet
   facet normal 9.3501624e-01 3.5460489e-01 4.3456759e-17
      outer loop
         vertex 4.8770778e+01 6.5412998e+01 8.6432351e+01
         vertex 4.8770778e+01 6.5412998e+01 2.4451073e+02
         vertex 5.2275319e+01 5.6172282e+01 8.6432351e+01
      endloop
   endfacet
   facet normal 8.2298387e-01 5.6806475e-01 7.9218628e-17
      outer loop
         vertex 5.7889473e+01 4.8038776e+01 2.4451073e+02
         vertex 5.7889473e+01 4.8038776e+01 8.6432351e+01
         vertex 5.2275319e+01 5.6172282e+01 2.4451073e+02
      endloop
   endfacet
   facet normal 6.6312266e-01 7.4851075e-01 1.4225470e-16
      outer loop
         vertex 5.7889473e+01 4.8038776e+01 8.6432351e+01
         vertex 5.7889473e+01 4.8038776e+01 2.4451073e+02
         vertex 6.5286965e+01 4.1485170e+01 8.6432351e+01
      endloop
   endfacet
   facet normal 4.6472317e-01 8.8545603e-01 3.7822841e-17
      outer loop
         vertex 7.4037880e+01 3.6892335e+01 2.4451073e+02
         vertex 7.4037880e+01 3.6892335e+01 8.6432351e+01
         vertex 6.5286965e+01 4.1485170e+01 2.4451073e+02
      endloop
   endfacet
   facet normal 2.3931566e-01 9.7094182e-01 6.5771378e-17
      outer loop
         vertex 7.4037880e+01 3.6892335e+01 8.6432351e+01
         vertex 7.4037880e+01 3.6892335e+01 2.4451073e+02
         vertex 8.3633647e+01 3.4527191e+01 8.6432351e+01
      endloop
   endfacet
   facet normal 0.0000000e+00 1.0000000e+00 8.9897521e-17
      outer loop
         vertex 9.3516594e+01 3.4527191e+01 2.4451073e+02
         vertex 9.3516594e+01 3.4527191e+01 8.6432351e+01
         vertex 8.3633647e+01 3.4527191e+01 2.4451073e+02
      endloop
   endfacet
   facet normal -2.3931566e-01 9.7094182e-01 1.5182692e-16
      outer loop
         vertex 9.3516594e+01 3.4527191e+01 8.6432351e+01
         vertex 9.3516594e+01 3.4527191e+01 2.4451073e+02
         vertex 1.0311236e+02 3.6892335e+01 8.6432351e+01
      endloop
   endfacet
   facet normal -4.6472317e-01 8.8545603e-01 8.1577612e-17
      outer loop
         vertex 1.1186328e+02 4.1485170e+01 2.4451073e+02
         vertex 1.1186328e+02 4.1485170e+01 8.6432351e+01
         vertex 1.0311236e+02 3.6892335e+01 2.4451073e+02
      endloop
   endfacet
   facet normal -6.6312266e-01 7.4851075e-01 9.3257714e-17
      outer loop
         vertex 1.1186328e+02 4.1485170e+01 8.6432351e+01
         vertex 1.1186328e+02 4.1485170e+01 2.4451073e+02
         vertex 1.1926077e+02 4.8038776e+01 8.6432351e+01
      endloop
   endfacet
   facet normal -8.2298387e-01 5.6806475e-01 9.6900807e-17
      outer loop
         vertex 1.2487492e+02 5.6172282e+01 2.4451073e+02
         vertex 1.2487492e+02 5.6172282e+01 8.6432351e+01
         vertex 1.1926077e+02 4.8038776e+01 2.4451073e+02
      endloop
   endfacet
   facet normal -9.3501624e-01 3.5460489e-01 1.3623318e-16
      outer loop
         vertex 1.2487492e+02 5.6172282e+01 8.6432351e+01
         vertex 1.2487492e+02 5.6172282e+01 2.4451073e+02
         vertex 1.2837946e+02 6.5412998e+01 8.6432351e+01
      endloop
   endfacet
   facet normal -9.9270887e-01 1.2053668e-01 1.0835949e-17
      outer loop
         vertex 1.2957072e+02 7.5223887e+01 2.4451073e+02
         vertex 1.2957072e+02 7.5223887e+01 8.6432351e+01
         vertex 1.2837946e+02 6.5412998e+01 2.4451073e+02
      endloop
   endfacet
   facet normal -9.9270887e-01 -1.2053668e-01 -1.0835949e-17
      outer loop
         vertex 1.2957072e+02 7.5223887e+01 8.6432351e+01
         vertex 1.2957072e+02 7.5223887e+01 2.4451073e+02
         vertex 1.2837946e+02 8.5034776e+01 8.6432351e+01
      endloop
   endfacet
   facet normal -9.3501624e-01 -3.5460489e-01 -3.1878100e-17
      outer loop
         vertex 1.2487492e+02 9.4275492e+01 2.4451073e+02
         vertex 1.2487492e+02 9.4275492e+01 8.6432351e+01
         vertex 1.2837946e+02 8.5034776e+01 2.4451073e+02
      endloop
   endfacet
   facet normal -8.2298387e-01 -5.6806475e-01 -5.1067613e-17
      outer loop
         vertex 1.2487492e+02 9.4275492e+01 8.6432351e+01
         vertex 1.2487492e+02 9.4275492e+01 2.4451073e+02
         vertex 1.1926077e+02 1.0240900e+02 8.6432351e+01
      endloop
   endfacet
   facet normal -6.6312266e-01 -7.4851075e-01 -6.7289261e-17
      outer loop
         vertex 1.1186328e+02 1.0896260e+02 2.4451073e+02
         vertex 1.1186328e+02 1.0896260e+02 8.6432351e+01
         vertex 1.1926077e+02 1.0240900e+02 2.4451073e+02
      endloop
   endfacet
   facet normal -4.6472317e-01 -8.8545603e-01 -7.9600302e-17
      outer loop
         vertex 1.1186328e+02 1.0896260e+02 8.6432351e+01
         vertex 1.1186328e+02 1.0896260e+02 2.4451073e+02
         vertex 1.0311236e+02 1.1355544e+02 8.6432351e+01
      endloop
   endfacet
   facet normal -2.3931566e-01 -9.7094182e-01 -1.7457053e-16
      outer loop
         vertex 9.3516594e+01 1.1592058e+02 2.4451073e+02
         vertex 9.3516594e+01 1.1592058e+02 8.6432351e+01
         vertex 1.0311236e+02 1.1355544e+02 2.4451073e+02
      endloop
   endfacet
   facet normal 0.0000000e+00 -1.0000000e+00 -1.7979504e-16
      outer loop
         vertex 9.3516594e+01 1.1592058e+02 8.6432351e+01
         vertex 9.3516594e+01 1.1592058e+02 2.4451073e+02
         vertex 8.3633647e+01 1.1592058e+02 8.6432351e+01
      endloop
   endfacet
   facet normal 2.3931566e-01 -9.7094182e-01 -6.5771378e-17
      outer loop
         vertex 7.4037880e+01 1.1355544e+02 2.4451073e+02
         vertex 7.4037880e+01 1.1355544e+02 8.6432351e+01
         vertex 8.3633647e+01 1.1592058e+02 2.4451073e+02
      endloop
   endfacet
   facet normal 4.6472317e-01 -8.8545603e-01 -3.7822841e-17
      outer loop
         vertex 7.4037880e+01 1.1355544e+02 8.6432351e+01
         vertex 7.4037880e+01 1.1355544e+02 2.4451073e+02
         vertex 6.5286965e+01 1.0896260e+02 8.6432351e+01
      endloop
   endfacet
   facet normal 6.6312266e-01 -7.4851075e-01 -7.4965439e-17
      outer loop
         vertex 5.7889473e+01 1.0240900e+02 2.4451073e+02
         vertex 5.7889473e+01 1.0240900e+02 8.6432351e+01
         vertex 6.5286965e+01 1.0896260e+02 2.4451073e+02
      endloop
   endfacet
   facet normal 8.2298387e-01 -5.6806475e-01 -2.8151016e-17
      outer loop
         vertex 5.7889473e+01 1.0240900e+02 8.6432351e+01
         vertex 5.7889473e+01 1.0240900e+02 2.4451073e+02
         vertex 5.2275319e+01 9.4275492e+01 8.6432351e+01
      endloop
   endfacet
   facet normal 9.3501624e-01 -3.5460489e-01 -9.5634301e-17
      outer loop
         vertex 4.8770778e+01 8.5034776e+01 2.4451073e+02
         vertex 4.8770778e+01 8.5034776e+01 8.6432351e+01
         vertex 5.2275319e+01 9.4275492e+01 2.4451073e+02
      endloop
   endfacet
   facet normal 9.9270887e-01 -1.2053668e-01 -3.2507846e-17
      outer loop
         vertex 4.8770778e+01 8.5034776e+01 8.6432351e+01
         vertex 4.8770778e+01 8.5034776e+01 2.4451073e+02
         vertex 4.7579520e+01 7.5223887e+01 8.6432351e+01
      endloop
   endfacet
   facet normal -9.9270887e-01 1.2053668e-01 1.5681224e-16
      outer loop
         vertex 1.2957072e+02 7.5223887e+01 8.6432351e+01
         vertex 1.2837946e+02 6.5412998e+01 8.6432351e+01
         vertex 1.2837946e+02 6.5412998e+01 2.4451073e+02
      endloop
   endfacet
   facet normal -9.3501624e-01 3.5460489e-01 1.0435508e-16
      outer loop
         vertex 1.2837946e+02 6.5412998e+01 2.4451073e+02
         vertex 1.2837946e+02 6.5412998e+01 8.6432351e+01
         vertex 1.2487492e+02 5.6172282e+01 2.4451073e+02
      endloop
   endfacet
   facet normal -8.2298387e-01 5.6806475e-01 7.3984210e-17
      outer loop
         vertex 1.2487492e+02 5.6172282e+01 8.6432351e+01
         vertex 1.1926077e+02 4.8038776e+01 8.6432351e+01
         vertex 1.1926077e+02 4.8038776e+01 2.4451073e+02
      endloop
   endfacet
   facet normal -6.6312266e-01 7.4851075e-01 5.9613083e-17
      outer loop
         vertex 1.1926077e+02 4.8038776e+01 2.4451073e+02
         vertex 1.1926077e+02 4.8038776e+01 8.6432351e+01
         vertex 1.1186328e+02 4.1485170e+01 2.4451073e+02
      endloop
   endfacet
   facet normal -4.6472317e-01 8.8545603e-01 7.9600302e-17
      outer loop
         vertex 1.1186328e+02 4.1485170e+01 8.6432351e+01
         vertex 1.0311236e+02 3.6892335e+01 8.6432351e+01
         vertex 1.0311236e+02 3.6892335e+01 2.4451073e+02
      endloop
   endfacet
   facet normal -2.3931566e-01 9.7094182e-01 8.7285263e-17
      outer loop
         vertex 1.0311236e+02 3.6892335e+01 2.4451073e+02
         vertex 1.0311236e+02 3.6892335e+01 8.6432351e+01
         vertex 9.3516594e+01 3.4527191e+01 2.4451073e+02
      endloop
   endfacet
   facet normal 0.0000000e+00 1.0000000e+00 8.9897521e-17
      outer loop
         vertex 9.3516594e+01 3.4527191e+01 8.6432351e+01
         vertex 8.3633647e+01 3.4527191e+01 8.6432351e+01
         vertex 8.3633647e+01 3.4527191e+01 2.4451073e+02
      endloop
   endfacet
   facet normal 2.3931566e-01 9.7094182e-01 2.2743608e-17
      outer loop
         vertex 8.3633647e+01 3.4527191e+01 2.4451073e+02
         vertex 8.3633647e+01 3.4527191e+01 8.6432351e+01
         vertex 7.4037880e+01 3.6892335e+01 2.4451073e+02
      endloop
   endfacet
   facet normal 4.6472317e-01 8.8545603e-01 7.7622992e-17
      outer loop
         vertex 7.4037880e+01 3.6892335e+01 8.6432351e+01
         vertex 6.5286965e+01 4.1485170e+01 8.6432351e+01
         vertex 6.5286965e+01 4.1485170e+01 2.4451073e+02
      endloop
   endfacet
   facet normal 6.6312266e-01 7.4851075e-01 4.1320808e-17
      outer loop
         vertex 6.5286965e+01 4.1485170e+01 2.4451073e+02
         vertex 6.5286965e+01 4.1485170e+01 8.6432351e+01
         vertex 5.7889473e+01 4.8038776e+01 2.4451073e+02
      endloop
   endfacet
   facet normal 8.2298387e-01 5.6806475e-01 5.3684822e-17
      outer loop
         vertex 5.7889473e+01 4.8038776e+01 8.6432351e+01
         vertex 5.2275319e+01 5.6172282e+01 8.6432351e+01
         vertex 5.2275319e+01 5.6172282e+01 2.4451073e+02
      endloop
   endfacet
   facet normal 9.3501624e-01 3.5460489e-01 -4.3603916e-18
      outer loop
         vertex 5.2275319e+01 5.6172282e+01 2.4451073e+02
         vertex 5.2275319e+01 5.6172282e+01 8.6432351e+01
         vertex 4.8770778e+01 6.5412998e+01 2.4451073e+02
      endloop
   endfacet
   facet normal 9.9270887e-01 1.2053668e-01 1.0835949e-17
      outer loop
         vertex 4.8770778e+01 6.5412998e+01 8.6432351e+01
         vertex 4.7579520e+01 7.5223887e+01 8.6432351e+01
         vertex 4.7579520e+01 7.5223887e+01 2.4451073e+02
      endloop
   endfacet
   facet normal 9.9270887e-01 -1.2053668e-01 -1.0835949e-17
      outer loop
         vertex 4.7579520e+01 7.5223887e+01 2.4451073e+02
         vertex 4.7579520e+01 7.5223887e+01 8.6432351e+01
         vertex 4.8770778e+01 8.5034776e+01 2.4451073e+02
      endloop
   endfacet
   facet normal 9.3501624e-01 -3.5460489e-01 -3.1878100e-17
      outer loop
         vertex 4.8770778e+01 8.5034776e+01 8.6432351e+01
         vertex 5.2275319e+01 9.4275492e+01 8.6432351e+01
         vertex 5.2275319e+01 9.4275492e+01 2.4451073e+02
      endloop
   endfacet
   facet normal 8.2298387e-01 -5.6806475e-01 -5.1067613e-17
      outer loop
         vertex 5.2275319e+01 9.4275492e+01 2.4451073e+02
         vertex 5.2275319e+01 9.4275492e+01 8.6432351e+01
         vertex 5.7889473e+01 1.0240900e+02 2.4451073e+02
      endloop
   endfacet
   facet normal 6.6312266e-01 -7.4851075e-01 0.0000000e+00
      outer loop
         vertex 5.7889473e+01 1.0240900e+02 8.6432351e+01
         vertex 6.5286965e+01 1.0896260e+02 8.6432351e+01
         vertex 6.5286965e+01 1.0896260e+02 2.4451073e+02
      endloop
   endfacet
   facet normal 4.6472317e-01 -8.8545603e-01 0.0000000e+00
      outer loop
         vertex 6.5286965e+01 1.0896260e+02 2.4451073e+02
         vertex 6.5286965e+01 1.0896260e+02 8.6432351e+01
         vertex 7.4037880e+01 1.1355544e+02 2.4451073e+02
      endloop
   endfacet
   facet normal 2.3931566e-01 -9.7094182e-01 -1.5305664e-16
      outer loop
         vertex 7.4037880e+01 1.1355544e+02 8.6432351e+01
         vertex 8.3633647e+01 1.1592058e+02 8.6432351e+01
         vertex 8.3633647e+01 1.1592058e+02 2.4451073e+02
      endloop
   endfacet
   facet normal 0.0000000e+00 -1.0000000e+00 -1.7979504e-16
      outer loop
         vertex 8.3633647e+01 1.1592058e+02 2.4451073e+02
         vertex 8.3633647e+01 1.1592058e+02 8.6432351e+01
         vertex 9.3516594e+01 1.1592058e+02 2.4451073e+02
      endloop
   endfacet
   facet normal -2.3931566e-01 -9.7094182e-01 -8.7285263e-17
      outer loop
         vertex 9.3516594e+01 1.1592058e+02 8.6432351e+01
         vertex 1.0311236e+02 1.1355544e+02 8.6432351e+01
         vertex 1.0311236e+02 1.1355544e+02 2.4451073e+02
      endloop
   endfacet
   facet normal -4.6472317e-01 -8.8545603e-01 -7.9600302e-17
      outer loop
         vertex 1.0311236e+02 1.1355544e+02 2.4451073e+02
         vertex 1.0311236e+02 1.1355544e+02 8.6432351e+01
         vertex 1.1186328e+02 1.0896260e+02 2.4451073e+02
      endloop
   endfacet
   facet normal -6.6312266e-01 -7.4851075e-01 -5.9613083e-17
      outer loop
         vertex 1.1186328e+02 1.0896260e+02 8.6432351e+01
         vertex 1.1926077e+02 1.0240900e+02 8.6432351e+01
         vertex 1.1926077e+02 1.0240900e+02 2.4451073e+02
      endloop
   endfacet
   facet normal -8.2298387e-01 -5.6806475e-01 -7.3984210e-17
      outer loop
         vertex 1.1926077e+02 1.0240900e+02 2.4451073e+02
         vertex 1.1926077e+02 1.0240900e+02 8.6432351e+01
         vertex 1.2487492e+02 9.4275492e+01 2.4451073e+02
      endloop
   endfacet
   facet normal -9.3501624e-01 -3.5460489e-01 -3.1878100e-17
      outer loop
         vertex 1.2487492e+02 9.4275492e+01 8.6432351e+01
         vertex 1.2837946e+02 8.5034776e+01 8.6432351e+01
         vertex 1.2837946e+02 8.5034776e+01 2.4451073e+02
      endloop
   endfacet
   facet normal -9.9270887e-01 -1.2053668e-01 -1.0835949e-17
      outer loop
         vertex 1.2837946e+02 8.5034776e+01 2.4451073e+02
         vertex 1.2837946e+02 8.5034776e+01 8.6432351e+01
         vertex 1.2957072e+02 7.5223887e+01 2.4451073e+02
      endloop
   endfacet
   facet normal 9.8367610e-01 -1.2426719e-01 1.3014990e-01
      outer loop
         vertex 5.2004313e+01 8.4613674e+01 6.1591151e+01
         vertex 4.8770778e+01 8.5034776e+01 8.6432351e+01
         vertex 5.0818107e+01 7.5223887e+01 6.1591151e+01
      endloop
   endfacet
   facet normal 9.2748205e-01 -3.5174754e-01 1.2669141e-01
      outer loop
         vertex 4.8770778e+01 8.5034776e+01 8.6432351e+01
         vertex 5.2004313e+01 8.4613674e+01 6.1591151e+01
         vertex 5.2275319e+01 9.4275492e+01 8.6432351e+01
      endloop
   endfacet
   facet normal 8.0178099e-01 -5.8252798e-01 1.3344812e-01
      outer loop
         vertex 6.1051442e+01 1.0107034e+02 6.1591151e+01
         vertex 5.7889473e+01 1.0240900e+02 8.6432351e+01
         vertex 5.5488397e+01 9.3413467e+01 6.1591151e+01
      endloop
   endfacet
   facet normal 6.5802272e-01 -7.4275410e-01 1.2378387e-01
      outer loop
         vertex 5.7889473e+01 1.0240900e+02 8.6432351e+01
         vertex 6.1051442e+01 1.0107034e+02 6.1591151e+01
         vertex 6.5286965e+01 1.0896260e+02 8.6432351e+01
      endloop
   endfacet
   facet normal 4.2181482e-01 -8.9640213e-01 1.3614504e-01
      outer loop
         vertex 7.6907561e+01 1.1113294e+02 6.1591151e+01
         vertex 7.4037880e+01 1.1355544e+02 8.6432351e+01
         vertex 6.8343901e+01 1.0710319e+02 6.1591151e+01
      endloop
   endfacet
   facet normal 2.3754483e-01 -9.6375727e-01 1.2142641e-01
      outer loop
         vertex 7.4037880e+01 1.1355544e+02 8.6432351e+01
         vertex 7.6907561e+01 1.1113294e+02 6.1591151e+01
         vertex 8.3633647e+01 1.1592058e+02 8.6432351e+01
      endloop
   endfacet
   facet normal -6.2187639e-02 -9.8844421e-01 1.3824161e-01
      outer loop
         vertex 9.5650079e+01 1.1231212e+02 6.1591151e+01
         vertex 9.3516594e+01 1.1592058e+02 8.6432351e+01
         vertex 8.6204338e+01 1.1290640e+02 6.1591151e+01
      endloop
   endfacet
   facet normal -2.3759728e-01 -9.6397005e-01 1.1962142e-01
      outer loop
         vertex 9.3516594e+01 1.1592058e+02 8.6432351e+01
         vertex 9.5650079e+01 1.1231212e+02 6.1591151e+01
         vertex 1.0311236e+02 1.1355544e+02 8.6432351e+01
      endloop
   endfacet
   facet normal -5.3056949e-01 -8.3604374e-01 1.3973859e-01
      outer loop
         vertex 1.1264235e+02 1.0431617e+02 6.1591151e+01
         vertex 1.1186328e+02 1.0896260e+02 8.6432351e+01
         vertex 1.0465127e+02 1.0938745e+02 6.1591151e+01
      endloop
   endfacet
   facet normal -6.5846056e-01 -7.4324833e-01 1.1837068e-01
      outer loop
         vertex 1.1186328e+02 1.0896260e+02 8.6432351e+01
         vertex 1.1264235e+02 1.0431617e+02 6.1591151e+01
         vertex 1.1926077e+02 1.0240900e+02 8.6432351e+01
      endloop
   endfacet
   facet normal -8.6759733e-01 -4.7696567e-01 1.4063653e-01
      outer loop
         vertex 1.2368070e+02 8.9123171e+01 6.1591151e+01
         vertex 1.2487492e+02 9.4275492e+01 8.6432351e+01
         vertex 1.1912119e+02 9.7416903e+01 6.1591151e+01
      endloop
   endfacet
   facet normal -9.2851985e-01 -3.5214113e-01 1.1767543e-01
      outer loop
         vertex 1.2487492e+02 9.4275492e+01 8.6432351e+01
         vertex 1.2368070e+02 8.9123171e+01 6.1591151e+01
         vertex 1.2837946e+02 8.5034776e+01 8.6432351e+01
      endloop
   endfacet
   facet normal -9.9001874e-01 -1.4960192e-15 1.4093581e-01
      outer loop
         vertex 1.2603441e+02 7.0491678e+01 6.1591151e+01
         vertex 1.2957072e+02 7.5223887e+01 8.6432351e+01
         vertex 1.2603441e+02 7.9956096e+01 6.1591151e+01
      endloop
   endfacet
   facet normal -9.8582799e-01 1.1970119e-01 1.1753635e-01
      outer loop
         vertex 1.2957072e+02 7.5223887e+01 8.6432351e+01
         vertex 1.2603441e+02 7.0491678e+01 6.1591151e+01
         vertex 1.2837946e+02 6.5412998e+01 8.6432351e+01
      endloop
   endfacet
   facet normal -8.6759733e-01 4.7696567e-01 1.4063653e-01
      outer loop
         vertex 1.1912119e+02 5.3030871e+01 6.1591151e+01
         vertex 1.2487492e+02 5.6172282e+01 8.6432351e+01
         vertex 1.2368070e+02 6.1324603e+01 6.1591151e+01
      endloop
   endfacet
   facet normal -8.1723871e-01 5.6409915e-01 1.1795356e-01
      outer loop
         vertex 1.2487492e+02 5.6172282e+01 8.6432351e+01
         vertex 1.1912119e+02 5.3030871e+01 6.1591151e+01
         vertex 1.1926077e+02 4.8038776e+01 8.6432351e+01
      endloop
   endfacet
   facet normal -5.3056949e-01 8.3604374e-01 1.3973859e-01
      outer loop
         vertex 1.0465127e+02 4.1060319e+01 6.1591151e+01
         vertex 1.1186328e+02 4.1485170e+01 8.6432351e+01
         vertex 1.1264235e+02 4.6131608e+01 6.1591151e+01
      endloop
   endfacet
   facet normal -4.6142505e-01 8.7917198e-01 1.1892668e-01
      outer loop
         vertex 1.1186328e+02 4.1485170e+01 8.6432351e+01
         vertex 1.0465127e+02 4.1060319e+01 6.1591151e+01
         vertex 1.0311236e+02 3.6892335e+01 8.6432351e+01
      endloop
   endfacet
   facet normal -6.2187639e-02 9.8844421e-01 1.3824161e-01
      outer loop
         vertex 8.6204338e+01 3.7541378e+01 6.1591151e+01
         vertex 9.3516594e+01 3.4527191e+01 8.6432351e+01
         vertex 9.5650079e+01 3.8135654e+01 6.1591151e+01
      endloop
   endfacet
   facet normal 0.0000000e+00 9.9271882e-01 1.2045473e-01
      outer loop
         vertex 9.3516594e+01 3.4527191e+01 8.6432351e+01
         vertex 8.6204338e+01 3.7541378e+01 6.1591151e+01
         vertex 8.3633647e+01 3.4527191e+01 8.6432351e+01
      endloop
   endfacet
   facet normal 4.2181482e-01 8.9640213e-01 1.3614504e-01
      outer loop
         vertex 6.8343901e+01 4.3344586e+01 6.1591151e+01
         vertex 7.4037880e+01 3.6892335e+01 8.6432351e+01
         vertex 7.6907561e+01 3.9314833e+01 6.1591151e+01
      endloop
   endfacet
   facet normal 4.6122104e-01 8.7878327e-01 1.2253622e-01
      outer loop
         vertex 7.4037880e+01 3.6892335e+01 8.6432351e+01
         vertex 6.8343901e+01 4.3344586e+01 6.1591151e+01
         vertex 6.5286965e+01 4.1485170e+01 8.6432351e+01
      endloop
   endfacet
   facet normal 8.0178099e-01 5.8252798e-01 1.3344812e-01
      outer loop
         vertex 5.5488397e+01 5.7034307e+01 6.1591151e+01
         vertex 5.7889473e+01 4.8038776e+01 8.6432351e+01
         vertex 6.1051442e+01 4.9377432e+01 6.1591151e+01
      endloop
   endfacet
   facet normal 8.1651145e-01 5.6359716e-01 1.2516906e-01
      outer loop
         vertex 5.7889473e+01 4.8038776e+01 8.6432351e+01
         vertex 5.5488397e+01 5.7034307e+01 6.1591151e+01
         vertex 5.2275319e+01 5.6172282e+01 8.6432351e+01
      endloop
   endfacet
   facet normal 9.8367610e-01 1.2426719e-01 1.3014990e-01
      outer loop
         vertex 5.0818107e+01 7.5223887e+01 6.1591151e+01
         vertex 4.8770778e+01 6.5412998e+01 8.6432351e+01
         vertex 5.2004313e+01 6.5834099e+01 6.1591151e+01
      endloop
   endfacet
   facet normal -9.8582799e-01 -1.1970119e-01 1.1753635e-01
      outer loop
         vertex 1.2957072e+02 7.5223887e+01 8.6432351e+01
         vertex 1.2837946e+02 8.5034776e+01 8.6432351e+01
         vertex 1.2603441e+02 7.9956096e+01 6.1591151e+01
      endloop
   endfacet
   facet normal -9.5892579e-01 -2.4621030e-01 1.4086099e-01
      outer loop
         vertex 1.2603441e+02 7.9956096e+01 6.1591151e+01
         vertex 1.2837946e+02 8.5034776e+01 8.6432351e+01
         vertex 1.2368070e+02 8.9123171e+01 6.1591151e+01
      endloop
   endfacet
   facet normal -8.1723871e-01 -5.6409915e-01 1.1795356e-01
      outer loop
         vertex 1.2487492e+02 9.4275492e+01 8.6432351e+01
         vertex 1.1926077e+02 1.0240900e+02 8.6432351e+01
         vertex 1.1912119e+02 9.7416903e+01 6.1591151e+01
      endloop
   endfacet
   facet normal -7.2176231e-01 -6.7777992e-01 1.4026241e-01
      outer loop
         vertex 1.1912119e+02 9.7416903e+01 6.1591151e+01
         vertex 1.1926077e+02 1.0240900e+02 8.6432351e+01
         vertex 1.1264235e+02 1.0431617e+02 6.1591151e+01
      endloop
   endfacet
   facet normal -4.6142505e-01 -8.7917198e-01 1.1892668e-01
      outer loop
         vertex 1.1186328e+02 1.0896260e+02 8.6432351e+01
         vertex 1.0311236e+02 1.1355544e+02 8.6432351e+01
         vertex 1.0465127e+02 1.0938745e+02 6.1591151e+01
      endloop
   endfacet
   facet normal -3.0601435e-01 -9.4181534e-01 1.3906501e-01
      outer loop
         vertex 1.0465127e+02 1.0938745e+02 6.1591151e+01
         vertex 1.0311236e+02 1.1355544e+02 8.6432351e+01
         vertex 9.5650079e+01 1.1231212e+02 6.1591151e+01
      endloop
   endfacet
   facet normal 0.0000000e+00 -9.9271882e-01 1.2045473e-01
      outer loop
         vertex 9.3516594e+01 1.1592058e+02 8.6432351e+01
         vertex 8.3633647e+01 1.1592058e+02 8.6432351e+01
         vertex 8.6204338e+01 1.1290640e+02 6.1591151e+01
      endloop
   endfacet
   facet normal 1.8560754e-01 -9.7298882e-01 1.3726832e-01
      outer loop
         vertex 8.6204338e+01 1.1290640e+02 6.1591151e+01
         vertex 8.3633647e+01 1.1592058e+02 8.6432351e+01
         vertex 7.6907561e+01 1.1113294e+02 6.1591151e+01
      endloop
   endfacet
   facet normal 4.6122104e-01 -8.7878327e-01 1.2253622e-01
      outer loop
         vertex 7.4037880e+01 1.1355544e+02 8.6432351e+01
         vertex 6.5286965e+01 1.0896260e+02 8.6432351e+01
         vertex 6.8343901e+01 1.0710319e+02 6.1591151e+01
      endloop
   endfacet
   facet normal 6.3159989e-01 -7.6347312e-01 1.3487168e-01
      outer loop
         vertex 6.8343901e+01 1.0710319e+02 6.1591151e+01
         vertex 6.5286965e+01 1.0896260e+02 8.6432351e+01
         vertex 6.1051442e+01 1.0107034e+02 6.1591151e+01
      endloop
   endfacet
   facet normal 8.1651145e-01 -5.6359716e-01 1.2516906e-01
      outer loop
         vertex 5.7889473e+01 1.0240900e+02 8.6432351e+01
         vertex 5.2275319e+01 9.4275492e+01 8.6432351e+01
         vertex 5.5488397e+01 9.3413467e+01 6.1591151e+01
      endloop
   endfacet
   facet normal 9.2165624e-01 -3.6490952e-01 1.3187423e-01
      outer loop
         vertex 5.5488397e+01 9.3413467e+01 6.1591151e+01
         vertex 5.2275319e+01 9.4275492e+01 8.6432351e+01
         vertex 5.2004313e+01 8.4613674e+01 6.1591151e+01
      endloop
   endfacet
   facet normal 9.8449804e-01 -1.1953970e-01 1.2835055e-01
      outer loop
         vertex 4.8770778e+01 8.5034776e+01 8.6432351e+01
         vertex 4.7579520e+01 7.5223887e+01 8.6432351e+01
         vertex 5.0818107e+01 7.5223887e+01 6.1591151e+01
      endloop
   endfacet
   facet normal 9.8449804e-01 1.1953970e-01 1.2835055e-01
      outer loop
         vertex 4.7579520e+01 7.5223887e+01 8.6432351e+01
         vertex 4.8770778e+01 6.5412998e+01 8.6432351e+01
         vertex 5.0818107e+01 7.5223887e+01 6.1591151e+01
      endloop
   endfacet
   facet normal 9.2748205e-01 3.5174754e-01 1.2669141e-01
      outer loop
         vertex 4.8770778e+01 6.5412998e+01 8.6432351e+01
         vertex 5.2275319e+01 5.6172282e+01 8.6432351e+01
         vertex 5.2004313e+01 6.5834099e+01 6.1591151e+01
      endloop
   endfacet
   facet normal 9.2165624e-01 3.6490952e-01 1.3187423e-01
      outer loop
         vertex 5.2004313e+01 6.5834099e+01 6.1591151e+01
         vertex 5.2275319e+01 5.6172282e+01 8.6432351e+01
         vertex 5.5488397e+01 5.7034307e+01 6.1591151e+01
      endloop
   endfacet
   facet normal 6.5802272e-01 7.4275410e-01 1.2378387e-01
      outer loop
         vertex 5.7889473e+01 4.8038776e+01 8.6432351e+01
         vertex 6.5286965e+01 4.1485170e+01 8.6432351e+01
         vertex 6.1051442e+01 4.9377432e+01 6.1591151e+01
      endloop
   endfacet
   facet normal 6.3159989e-01 7.6347312e-01 1.3487168e-01
      outer loop
         vertex 6.1051442e+01 4.9377432e+01 6.1591151e+01
         vertex 6.5286965e+01 4.1485170e+01 8.6432351e+01
         vertex 6.8343901e+01 4.3344586e+01 6.1591151e+01
      endloop
   endfacet
   facet normal 2.3754483e-01 9.6375727e-01 1.2142641e-01
      outer loop
         vertex 7.4037880e+01 3.6892335e+01 8.6432351e+01
         vertex 8.3633647e+01 3.4527191e+01 8.6432351e+01
         vertex 7.6907561e+01 3.9314833e+01 6.1591151e+01
      endloop
   endfacet
   facet normal 1.8560754e-01 9.7298882e-01 1.3726832e-01
      outer loop
         vertex 7.6907561e+01 3.9314833e+01 6.1591151e+01
         vertex 8.3633647e+01 3.4527191e+01 8.6432351e+01
         vertex 8.6204338e+01 3.7541378e+01 6.1591151e+01
      endloop
   endfacet
   facet normal -2.3759728e-01 9.6397005e-01 1.1962142e-01
      outer loop
         vertex 9.3516594e+01 3.4527191e+01 8.6432351e+01
         vertex 1.0311236e+02 3.6892335e+01 8.6432351e+01
         vertex 9.5650079e+01 3.8135654e+01 6.1591151e+01
      endloop
   endfacet
   facet normal -3.0601435e-01 9.4181534e-01 1.3906501e-01
      outer loop
         vertex 9.5650079e+01 3.8135654e+01 6.1591151e+01
         vertex 1.0311236e+02 3.6892335e+01 8.6432351e+01
         vertex 1.0465127e+02 4.1060319e+01 6.1591151e+01
      endloop
   endfacet
   facet normal -6.5846056e-01 7.4324833e-01 1.1837068e-01
      outer loop
         vertex 1.1186328e+02 4.1485170e+01 8.6432351e+01
         vertex 1.1926077e+02 4.8038776e+01 8.6432351e+01
         vertex 1.1264235e+02 4.6131608e+01 6.1591151e+01
      endloop
   endfacet
   facet normal -7.2176231e-01 6.7777992e-01 1.4026241e-01
      outer loop
         vertex 1.1264235e+02 4.6131608e+01 6.1591151e+01
         vertex 1.1926077e+02 4.8038776e+01 8.6432351e+01
         vertex 1.1912119e+02 5.3030871e+01 6.1591151e+01
      endloop
   endfacet
   facet normal -9.2851985e-01 3.5214113e-01 1.1767543e-01
      outer loop
         vertex 1.2487492e+02 5.6172282e+01 8.6432351e+01
         vertex 1.2837946e+02 6.5412998e+01 8.6432351e+01
         vertex 1.2368070e+02 6.1324603e+01 6.1591151e+01
      endloop
   endfacet
   facet normal -9.5892579e-01 2.4621030e-01 1.4086099e-01
      outer loop
         vertex 1.2368070e+02 6.1324603e+01 6.1591151e+01
         vertex 1.2837946e+02 6.5412998e+01 8.6432351e+01
         vertex 1.2603441e+02 7.0491678e+01 6.1591151e+01
      endloop
   endfacet
   facet normal 9.8310318e-01 -1.2942799e-01 1.2944702e-01
      outer loop
         vertex 6.1229648e+01 8.2551084e+01 3.1994216e+01
         vertex 5.7465354e+01 8.3559724e+01 6.1591151e+01
         vertex 6.0265004e+01 7.5223887e+01 3.1994216e+01
      endloop
   endfacet
   facet normal 9.1610632e-01 -3.7946366e-01 1.2944702e-01
      outer loop
         vertex 5.7465354e+01 8.3559724e+01 6.1591151e+01
         vertex 6.1229648e+01 8.2551084e+01 3.1994216e+01
         vertex 6.0682867e+01 9.1327487e+01 6.1591151e+01
      endloop
   endfacet
   facet normal 7.8667833e-01 -6.0363952e-01 1.2944702e-01
      outer loop
         vertex 6.8556845e+01 9.5242162e+01 3.1994216e+01
         vertex 6.5801191e+01 9.7997816e+01 6.1591151e+01
         vertex 6.4057840e+01 8.9378945e+01 3.1994216e+01
      endloop
   endfacet
   facet normal 6.0363952e-01 -7.8667833e-01 1.2944702e-01
      outer loop
         vertex 6.5801191e+01 9.7997816e+01 6.1591151e+01
         vertex 6.8556845e+01 9.5242162e+01 3.1994216e+01
         vertex 7.2471520e+01 1.0311614e+02 6.1591151e+01
      endloop
   endfacet
   facet normal 3.7946366e-01 -9.1610632e-01 1.2944702e-01
      outer loop
         vertex 8.1247923e+01 1.0256936e+02 3.1994216e+01
         vertex 8.0239284e+01 1.0633365e+02 6.1591151e+01
         vertex 7.4420062e+01 9.9741167e+01 3.1994216e+01
      endloop
   endfacet
   facet normal 1.2942799e-01 -9.8310318e-01 1.2944702e-01
      outer loop
         vertex 8.0239284e+01 1.0633365e+02 6.1591151e+01
         vertex 8.1247923e+01 1.0256936e+02 3.1994216e+01
         vertex 8.8575120e+01 1.0743109e+02 6.1591151e+01
      endloop
   endfacet
   facet normal -1.2942799e-01 -9.8310318e-01 1.2944702e-01
      outer loop
         vertex 9.5902318e+01 1.0256936e+02 3.1994216e+01
         vertex 9.6910957e+01 1.0633365e+02 6.1591151e+01
         vertex 8.8575120e+01 1.0353400e+02 3.1994216e+01
      endloop
   endfacet
   facet normal -3.7946366e-01 -9.1610632e-01 1.2944702e-01
      outer loop
         vertex 9.6910957e+01 1.0633365e+02 6.1591151e+01
         vertex 9.5902318e+01 1.0256936e+02 3.1994216e+01
         vertex 1.0467872e+02 1.0311614e+02 6.1591151e+01
      endloop
   endfacet
   facet normal -6.0363952e-01 -7.8667833e-01 1.2944702e-01
      outer loop
         vertex 1.0859340e+02 9.5242162e+01 3.1994216e+01
         vertex 1.1134905e+02 9.7997816e+01 6.1591151e+01
         vertex 1.0273018e+02 9.9741167e+01 3.1994216e+01
      endloop
   endfacet
   facet normal -7.8667833e-01 -6.0363952e-01 1.2944702e-01
      outer loop
         vertex 1.1134905e+02 9.7997816e+01 6.1591151e+01
         vertex 1.0859340e+02 9.5242162e+01 3.1994216e+01
         vertex 1.1646737e+02 9.1327487e+01 6.1591151e+01
      endloop
   endfacet
   facet normal -9.1610632e-01 -3.7946366e-01 1.2944702e-01
      outer loop
         vertex 1.1592059e+02 8.2551084e+01 3.1994216e+01
         vertex 1.1968489e+02 8.3559724e+01 6.1591151e+01
         vertex 1.1309240e+02 8.9378945e+01 3.1994216e+01
      endloop
   endfacet
   facet normal -9.8310318e-01 -1.2942799e-01 1.2944702e-01
      outer loop
         vertex 1.1968489e+02 8.3559724e+01 6.1591151e+01
         vertex 1.1592059e+02 8.2551084e+01 3.1994216e+01
         vertex 1.2078232e+02 7.5223887e+01 6.1591151e+01
      endloop
   endfacet
   facet normal -9.8310318e-01 1.2942799e-01 1.2944702e-01
      outer loop
         vertex 1.1592059e+02 6.7896690e+01 3.1994216e+01
         vertex 1.1968489e+02 6.6888050e+01 6.1591151e+01
         vertex 1.1688524e+02 7.5223887e+01 3.1994216e+01
      endloop
   endfacet
   facet normal -9.1610632e-01 3.7946366e-01 1.2944702e-01
      outer loop
         vertex 1.1968489e+02 6.6888050e+01 6.1591151e+01
         vertex 1.1592059e+02 6.7896690e+01 3.1994216e+01
         vertex 1.1646737e+02 5.9120287e+01 6.1591151e+01
      endloop
   endfacet
   facet normal -7.8667833e-01 6.0363952e-01 1.2944702e-01
      outer loop
         vertex 1.0859340e+02 5.5205612e+01 3.1994216e+01
         vertex 1.1134905e+02 5.2449957e+01 6.1591151e+01
         vertex 1.1309240e+02 6.1068829e+01 3.1994216e+01
      endloop
   endfacet
   facet normal -6.0363952e-01 7.8667833e-01 1.2944702e-01
      outer loop
         vertex 1.1134905e+02 5.2449957e+01 6.1591151e+01
         vertex 1.0859340e+02 5.5205612e+01 3.1994216e+01
         vertex 1.0467872e+02 4.7331634e+01 6.1591151e+01
      endloop
   endfacet
   facet normal -3.7946366e-01 9.1610632e-01 1.2944702e-01
      outer loop
         vertex 9.5902318e+01 4.7878414e+01 3.1994216e+01
         vertex 9.6910957e+01 4.4114121e+01 6.1591151e+01
         vertex 1.0273018e+02 5.0706607e+01 3.1994216e+01
      endloop
   endfacet
   facet normal -1.2942799e-01 9.8310318e-01 1.2944702e-01
      outer loop
         vertex 9.6910957e+01 4.4114121e+01 6.1591151e+01
         vertex 9.5902318e+01 4.7878414e+01 3.1994216e+01
         vertex 8.8575120e+01 4.3016687e+01 6.1591151e+01
      endloop
   endfacet
   facet normal 1.2942799e-01 9.8310318e-01 1.2944702e-01
      outer loop
         vertex 8.1247923e+01 4.7878414e+01 3.1994216e+01
         vertex 8.0239284e+01 4.4114121e+01 6.1591151e+01
         vertex 8.8575120e+01 4.6913770e+01 3.1994216e+01
      endloop
   endfacet
   facet normal 3.7946366e-01 9.1610632e-01 1.2944702e-01
      outer loop
         vertex 8.0239284e+01 4.4114121e+01 6.1591151e+01
         vertex 8.1247923e+01 4.7878414e+01 3.1994216e+01
         vertex 7.2471520e+01 4.7331634e+01 6.1591151e+01
      endloop
   endfacet
   facet normal 6.0363952e-01 7.8667833e-01 1.2944702e-01
      outer loop
         vertex 6.8556845e+01 5.5205612e+01 3.1994216e+01
         vertex 6.5801191e+01 5.2449957e+01 6.1591151e+01
         vertex 7.4420062e+01 5.0706607e+01 3.1994216e+01
      endloop
   endfacet
   facet normal 7.8667833e-01 6.0363952e-01 1.2944702e-01
      outer loop
         vertex 6.5801191e+01 5.2449957e+01 6.1591151e+01
         vertex 6.8556845e+01 5.5205612e+01 3.1994216e+01
         vertex 6.0682867e+01 5.9120287e+01 6.1591151e+01
      endloop
   endfacet
   facet normal 9.1610632e-01 3.7946366e-01 1.2944702e-01
      outer loop
         vertex 6.1229648e+01 6.7896690e+01 3.1994216e+01
         vertex 5.7465354e+01 6.6888050e+01 6.1591151e+01
         vertex 6.4057840e+01 6.1068829e+01 3.1994216e+01
      endloop
   endfacet
   facet normal 9.8310318e-01 1.2942799e-01 1.2944702e-01
      outer loop
         vertex 5.7465354e+01 6.6888050e+01 6.1591151e+01
         vertex 6.1229648e+01 6.7896690e+01 3.1994216e+01
         vertex 5.6367920e+01 7.5223887e+01 6.1591151e+01
      endloop
   endfacet
   facet normal -9.1610632e-01 -3.7946366e-01 1.2944702e-01
      outer loop
         vertex 1.1968489e+02 8.3559724e+01 6.1591151e+01
         vertex 1.1646737e+02 9.1327487e+01 6.1591151e+01
         vertex 1.1309240e+02 8.9378945e+01 3.1994216e+01
      endloop
   endfacet
   facet normal -7.8667833e-01 -6.0363952e-01 1.2944702e-01
      outer loop
         vertex 1.1309240e+02 8.9378945e+01 3.1994216e+01
         vertex 1.1646737e+02 9.1327487e+01 6.1591151e+01
         vertex 1.0859340e+02 9.5242162e+01 3.1994216e+01
      endloop
   endfacet
   facet normal -6.0363952e-01 -7.8667833e-01 1.2944702e-01
      outer loop
         vertex 1.1134905e+02 9.7997816e+01 6.1591151e+01
         vertex 1.0467872e+02 1.0311614e+02 6.1591151e+01
         vertex 1.0273018e+02 9.9741167e+01 3.1994216e+01
      endloop
   endfacet
   facet normal -3.7946366e-01 -9.1610632e-01 1.2944702e-01
      outer loop
         vertex 1.0273018e+02 9.9741167e+01 3.1994216e+01
         vertex 1.0467872e+02 1.0311614e+02 6.1591151e+01
         vertex 9.5902318e+01 1.0256936e+02 3.1994216e+01
      endloop
   endfacet
   facet normal -1.2942799e-01 -9.8310318e-01 1.2944702e-01
      outer loop
         vertex 9.6910957e+01 1.0633365e+02 6.1591151e+01
         vertex 8.8575120e+01 1.0743109e+02 6.1591151e+01
         vertex 8.8575120e+01 1.0353400e+02 3.1994216e+01
      endloop
   endfacet
   facet normal 1.2942799e-01 -9.8310318e-01 1.2944702e-01
      outer loop
         vertex 8.8575120e+01 1.0353400e+02 3.1994216e+01
         vertex 8.8575120e+01 1.0743109e+02 6.1591151e+01
         vertex 8.1247923e+01 1.0256936e+02 3.1994216e+01
      endloop
   endfacet
   facet normal 3.7946366e-01 -9.1610632e-01 1.2944702e-01
      outer loop
         vertex 8.0239284e+01 1.0633365e+02 6.1591151e+01
         vertex 7.2471520e+01 1.0311614e+02 6.1591151e+01
         vertex 7.4420062e+01 9.9741167e+01 3.1994216e+01
      endloop
   endfacet
   facet normal 6.0363952e-01 -7.8667833e-01 1.2944702e-01
      outer loop
         vertex 7.4420062e+01 9.9741167e+01 3.1994216e+01
         vertex 7.2471520e+01 1.0311614e+02 6.1591151e+01
         vertex 6.8556845e+01 9.5242162e+01 3.1994216e+01
      endloop
   endfacet
   facet normal 7.8667833e-01 -6.0363952e-01 1.2944702e-01
      outer loop
         vertex 6.5801191e+01 9.7997816e+01 6.1591151e+01
         vertex 6.0682867e+01 9.1327487e+01 6.1591151e+01
         vertex 6.4057840e+01 8.9378945e+01 3.1994216e+01
      endloop
   endfacet
   facet normal 9.1610632e-01 -3.7946366e-01 1.2944702e-01
      outer loop
         vertex 6.4057840e+01 8.9378945e+01 3.1994216e+01
         vertex 6.0682867e+01 9.1327487e+01 6.1591151e+01
         vertex 6.1229648e+01 8.2551084e+01 3.1994216e+01
      endloop
   endfacet
   facet normal 9.8310318e-01 -1.2942799e-01 1.2944702e-01
      outer loop
         vertex 5.7465354e+01 8.3559724e+01 6.1591151e+01
         vertex 5.6367920e+01 7.5223887e+01 6.1591151e+01
         vertex 6.0265004e+01 7.5223887e+01 3.1994216e+01
      endloop
   endfacet
   facet normal 9.8310318e-01 1.2942799e-01 1.2944702e-01
      outer loop
         vertex 6.0265004e+01 7.5223887e+01 3.1994216e+01
         vertex 5.6367920e+01 7.5223887e+01 6.1591151e+01
         vertex 6.1229648e+01 6.7896690e+01 3.1994216e+01
      endloop
   endfacet
   facet normal 9.1610632e-01 3.7946366e-01 1.2944702e-01
      outer loop
         vertex 5.7465354e+01 6.6888050e+01 6.1591151e+01
         vertex 6.0682867e+01 5.9120287e+01 6.1591151e+01
         vertex 6.4057840e+01 6.1068829e+01 3.1994216e+01
      endloop
   endfacet
   facet normal 7.8667833e-01 6.0363952e-01 1.2944702e-01
      outer loop
         vertex 6.4057840e+01 6.1068829e+01 3.1994216e+01
         vertex 6.0682867e+01 5.9120287e+01 6.1591151e+01
         vertex 6.8556845e+01 5.5205612e+01 3.1994216e+01
      endloop
   endfacet
   facet normal 6.0363952e-01 7.8667833e-01 1.2944702e-01
      outer loop
         vertex 6.5801191e+01 5.2449957e+01 6.1591151e+01
         vertex 7.2471520e+01 4.7331634e+01 6.1591151e+01
         vertex 7.4420062e+01 5.0706607e+01 3.1994216e+01
      endloop
   endfacet
   facet normal 3.7946366e-01 9.1610632e-01 1.2944702e-01
      outer loop
         vertex 7.4420062e+01 5.0706607e+01 3.1994216e+01
         vertex 7.2471520e+01 4.7331634e+01 6.1591151e+01
         vertex 8.1247923e+01 4.7878414e+01 3.1994216e+01
      endloop
   endfacet
   facet normal 1.2942799e-01 9.8310318e-01 1.2944702e-01
      outer loop
         vertex 8.0239284e+01 4.4114121e+01 6.1591151e+01
         vertex 8.8575120e+01 4.3016687e+01 6.1591151e+01
         vertex 8.8575120e+01 4.6913770e+01 3.1994216e+01
      endloop
   endfacet
   facet normal -1.2942799e-01 9.8310318e-01 1.2944702e-01
      outer loop
         vertex 8.8575120e+01 4.6913770e+01 3.1994216e+01
         vertex 8.8575120e+01 4.3016687e+01 6.1591151e+01
         vertex 9.5902318e+01 4.7878414e+01 3.1994216e+01
      endloop
   endfacet
   facet normal -3.7946366e-01 9.1610632e-01 1.2944702e-01
      outer loop
         vertex 9.6910957e+01 4.4114121e+01 6.1591151e+01
         vertex 1.0467872e+02 4.7331634e+01 6.1591151e+01
         vertex 1.0273018e+02 5.0706607e+01 3.1994216e+01
      endloop
   endfacet
   facet normal -6.0363952e-01 7.8667833e-01 1.2944702e-01
      outer loop
         vertex 1.0273018e+02 5.0706607e+01 3.1994216e+01
         vertex 1.0467872e+02 4.7331634e+01 6.1591151e+01
         vertex 1.0859340e+02 5.5205612e+01 3.1994216e+01
      endloop
   endfacet
   facet normal -7.8667833e-01 6.0363952e-01 1.2944702e-01
      outer loop
         vertex 1.1134905e+02 5.2449957e+01 6.1591151e+01
         vertex 1.1646737e+02 5.9120287e+01 6.1591151e+01
         vertex 1.1309240e+02 6.1068829e+01 3.1994216e+01
      endloop
   endfacet
   facet normal -9.1610632e-01 3.7946366e-01 1.2944702e-01
      outer loop
         vertex 1.1309240e+02 6.1068829e+01 3.1994216e+01
         vertex 1.1646737e+02 5.9120287e+01 6.1591151e+01
         vertex 1.1592059e+02 6.7896690e+01 3.1994216e+01
      endloop
   endfacet
   facet normal -9.8310318e-01 1.2942799e-01 1.2944702e-01
      outer loop
         vertex 1.1968489e+02 6.6888050e+01 6.1591151e+01
         vertex 1.2078232e+02 7.5223887e+01 6.1591151e+01
         vertex 1.1688524e+02 7.5223887e+01 3.1994216e+01
      endloop
   endfacet
   facet normal -9.8310318e-01 -1.2942799e-01 1.2944702e-01
      outer loop
         vertex 1.1688524e+02 7.5223887e+01 3.1994216e+01
         vertex 1.2078232e+02 7.5223887e+01 6.1591151e+01
         vertex 1.1592059e+02 8.2551084e+01 3.1994216e+01
      endloop
   endfacet
   facet normal -3.8409004e-15 4.8521856e-16 1.0000000e+00
      outer loop
         vertex 5.2004313e+01 8.4613674e+01 6.1591151e+01
         vertex 5.0818107e+01 7.5223887e+01 6.1591151e+01
         vertex 5.6367920e+01 7.5223887e+01 6.1591151e+01
      endloop
   endfacet
   facet normal -3.8066171e-15 5.0115065e-16 1.0000000e+00
      outer loop
         vertex 5.2004313e+01 8.4613674e+01 6.1591151e+01
         vertex 5.6367920e+01 7.5223887e+01 6.1591151e+01
         vertex 5.7465354e+01 8.3559724e+01 6.1591151e+01
      endloop
   endfacet
   facet normal -3.6262478e-15 1.4357331e-15 1.0000000e+00
      outer loop
         vertex 5.2004313e+01 8.4613674e+01 6.1591151e+01
         vertex 5.7465354e+01 8.3559724e+01 6.1591151e+01
         vertex 5.5488397e+01 9.3413467e+01 6.1591151e+01
      endloop
   endfacet
   facet normal -3.6262478e-15 -1.4357331e-15 1.0000000e+00
      outer loop
         vertex 5.5488397e+01 5.7034307e+01 6.1591151e+01
         vertex 5.7465354e+01 6.6888050e+01 6.1591151e+01
         vertex 5.2004313e+01 6.5834099e+01 6.1591151e+01
      endloop
   endfacet
   facet normal -3.5184026e-15 -1.4573701e-15 1.0000000e+00
      outer loop
         vertex 5.7465354e+01 6.6888050e+01 6.1591151e+01
         vertex 5.5488397e+01 5.7034307e+01 6.1591151e+01
         vertex 6.0682867e+01 5.9120287e+01 6.1591151e+01
      endloop
   endfacet
   facet normal -2.9460869e-15 -2.3834171e-15 1.0000000e+00
      outer loop
         vertex 6.8343901e+01 4.3344586e+01 6.1591151e+01
         vertex 6.5801191e+01 5.2449957e+01 6.1591151e+01
         vertex 6.1051442e+01 4.9377432e+01 6.1591151e+01
      endloop
   endfacet
   facet normal -1.5241743e-15 -1.9863426e-15 1.0000000e+00
      outer loop
         vertex 6.5801191e+01 5.2449957e+01 6.1591151e+01
         vertex 6.8343901e+01 4.3344586e+01 6.1591151e+01
         vertex 7.2471520e+01 4.7331634e+01 6.1591151e+01
      endloop
   endfacet
   facet normal -7.4818991e-16 -3.9221489e-15 1.0000000e+00
      outer loop
         vertex 8.6204338e+01 3.7541378e+01 6.1591151e+01
         vertex 8.0239284e+01 4.4114121e+01 6.1591151e+01
         vertex 7.6907561e+01 3.9314833e+01 6.1591151e+01
      endloop
   endfacet
   facet normal -4.8490306e-16 -3.6832044e-15 1.0000000e+00
      outer loop
         vertex 8.0239284e+01 4.4114121e+01 6.1591151e+01
         vertex 8.6204338e+01 3.7541378e+01 6.1591151e+01
         vertex 8.8575120e+01 4.3016687e+01 6.1591151e+01
      endloop
   endfacet
   facet normal 1.2437331e-15 -3.8278170e-15 1.0000000e+00
      outer loop
         vertex 1.0465127e+02 4.1060319e+01 6.1591151e+01
         vertex 9.6910957e+01 4.4114121e+01 6.1591151e+01
         vertex 9.5650079e+01 3.8135654e+01 6.1591151e+01
      endloop
   endfacet
   facet normal 1.8567102e-15 -2.2741347e-15 1.0000000e+00
      outer loop
         vertex 9.6910957e+01 4.4114121e+01 6.1591151e+01
         vertex 1.0465127e+02 4.1060319e+01 6.1591151e+01
         vertex 1.0467872e+02 4.7331634e+01 6.1591151e+01
      endloop
   endfacet
   facet normal 2.8669009e-15 -1.6623171e-15 1.0000000e+00
      outer loop
         vertex 1.1912119e+02 5.3030871e+01 6.1591151e+01
         vertex 1.1134905e+02 5.2449957e+01 6.1591151e+01
         vertex 1.1264235e+02 4.6131608e+01 6.1591151e+01
      endloop
   endfacet
   facet normal 2.9095223e-15 -2.2325550e-15 1.0000000e+00
      outer loop
         vertex 1.1134905e+02 5.2449957e+01 6.1591151e+01
         vertex 1.1912119e+02 5.3030871e+01 6.1591151e+01
         vertex 1.1646737e+02 5.9120287e+01 6.1591151e+01
      endloop
   endfacet
   facet normal 3.9297990e-15 -1.0090009e-15 1.0000000e+00
      outer loop
         vertex 1.2603441e+02 7.0491678e+01 6.1591151e+01
         vertex 1.1968489e+02 6.6888050e+01 6.1591151e+01
         vertex 1.2368070e+02 6.1324603e+01 6.1591151e+01
      endloop
   endfacet
   facet normal 2.0597343e-15 2.2860165e-15 1.0000000e+00
      outer loop
         vertex 1.1968489e+02 6.6888050e+01 6.1591151e+01
         vertex 1.2603441e+02 7.0491678e+01 6.1591151e+01
         vertex 1.2078232e+02 7.5223887e+01 6.1591151e+01
      endloop
   endfacet
   facet normal 3.9297990e-15 1.0090009e-15 1.0000000e+00
      outer loop
         vertex 1.2368070e+02 8.9123171e+01 6.1591151e+01
         vertex 1.1968489e+02 8.3559724e+01 6.1591151e+01
         vertex 1.2603441e+02 7.9956096e+01 6.1591151e+01
      endloop
   endfacet
   facet normal 3.3833904e-15 1.4014462e-15 1.0000000e+00
      outer loop
         vertex 1.1968489e+02 8.3559724e+01 6.1591151e+01
         vertex 1.2368070e+02 8.9123171e+01 6.1591151e+01
         vertex 1.1646737e+02 9.1327487e+01 6.1591151e+01
      endloop
   endfacet
   facet normal 3.0324755e-15 3.8775661e-15 1.0000000e+00
      outer loop
         vertex 1.1264235e+02 1.0431617e+02 6.1591151e+01
         vertex 1.1134905e+02 9.7997816e+01 6.1591151e+01
         vertex 1.1912119e+02 9.7416903e+01 6.1591151e+01
      endloop
   endfacet
   facet normal 2.9831140e-15 3.8876699e-15 1.0000000e+00
      outer loop
         vertex 1.1134905e+02 9.7997816e+01 6.1591151e+01
         vertex 1.1264235e+02 1.0431617e+02 6.1591151e+01
         vertex 1.0467872e+02 1.0311614e+02 6.1591151e+01
      endloop
   endfacet
   facet normal 1.2437331e-15 3.8278170e-15 1.0000000e+00
      outer loop
         vertex 9.5650079e+01 1.1231212e+02 6.1591151e+01
         vertex 9.6910957e+01 1.0633365e+02 6.1591151e+01
         vertex 1.0465127e+02 1.0938745e+02 6.1591151e+01
      endloop
   endfacet
   facet normal 4.8281404e-16 3.6673367e-15 1.0000000e+00
      outer loop
         vertex 9.6910957e+01 1.0633365e+02 6.1591151e+01
         vertex 9.5650079e+01 1.1231212e+02 6.1591151e+01
         vertex 8.8575120e+01 1.0743109e+02 6.1591151e+01
      endloop
   endfacet
   facet normal -7.4818991e-16 3.9221489e-15 1.0000000e+00
      outer loop
         vertex 7.6907561e+01 1.1113294e+02 6.1591151e+01
         vertex 8.0239284e+01 1.0633365e+02 6.1591151e+01
         vertex 8.6204338e+01 1.1290640e+02 6.1591151e+01
      endloop
   endfacet
   facet normal -7.1843159e-16 3.9428075e-15 1.0000000e+00
      outer loop
         vertex 8.0239284e+01 1.0633365e+02 6.1591151e+01
         vertex 7.6907561e+01 1.1113294e+02 6.1591151e+01
         vertex 7.2471520e+01 1.0311614e+02 6.1591151e+01
      endloop
   endfacet
   facet normal -2.0909645e-15 3.7053321e-15 1.0000000e+00
      outer loop
         vertex 6.1051442e+01 1.0107034e+02 6.1591151e+01
         vertex 6.5801191e+01 9.7997816e+01 6.1591151e+01
         vertex 6.8343901e+01 1.0710319e+02 6.1591151e+01
      endloop
   endfacet
   facet normal -2.9991756e-15 2.3013484e-15 1.0000000e+00
      outer loop
         vertex 6.5801191e+01 9.7997816e+01 6.1591151e+01
         vertex 6.1051442e+01 1.0107034e+02 6.1591151e+01
         vertex 6.0682867e+01 9.1327487e+01 6.1591151e+01
      endloop
   endfacet
   facet normal 3.3833904e-15 -1.4014462e-15 1.0000000e+00
      outer loop
         vertex 1.1968489e+02 6.6888050e+01 6.1591151e+01
         vertex 1.1646737e+02 5.9120287e+01 6.1591151e+01
         vertex 1.2368070e+02 6.1324603e+01 6.1591151e+01
      endloop
   endfacet
   facet normal 3.5518274e-15 -1.9526336e-15 1.0000000e+00
      outer loop
         vertex 1.2368070e+02 6.1324603e+01 6.1591151e+01
         vertex 1.1646737e+02 5.9120287e+01 6.1591151e+01
         vertex 1.1912119e+02 5.3030871e+01 6.1591151e+01
      endloop
   endfacet
   facet normal 1.4915570e-15 -1.9438349e-15 1.0000000e+00
      outer loop
         vertex 1.1134905e+02 5.2449957e+01 6.1591151e+01
         vertex 1.0467872e+02 4.7331634e+01 6.1591151e+01
         vertex 1.1264235e+02 4.6131608e+01 6.1591151e+01
      endloop
   endfacet
   facet normal 1.4420581e-15 -2.2723200e-15 1.0000000e+00
      outer loop
         vertex 1.1264235e+02 4.6131608e+01 6.1591151e+01
         vertex 1.0467872e+02 4.7331634e+01 6.1591151e+01
         vertex 1.0465127e+02 4.1060319e+01 6.1591151e+01
      endloop
   endfacet
   facet normal 4.8281404e-16 -3.6673367e-15 1.0000000e+00
      outer loop
         vertex 9.6910957e+01 4.4114121e+01 6.1591151e+01
         vertex 8.8575120e+01 4.3016687e+01 6.1591151e+01
         vertex 9.5650079e+01 3.8135654e+01 6.1591151e+01
      endloop
   endfacet
   facet normal 2.5179657e-16 -4.0021918e-15 1.0000000e+00
      outer loop
         vertex 9.5650079e+01 3.8135654e+01 6.1591151e+01
         vertex 8.8575120e+01 4.3016687e+01 6.1591151e+01
         vertex 8.6204338e+01 3.7541378e+01 6.1591151e+01
      endloop
   endfacet
   facet normal -2.1393183e-15 -2.9564111e-15 1.0000000e+00
      outer loop
         vertex 8.0239284e+01 4.4114121e+01 6.1591151e+01
         vertex 7.2471520e+01 4.7331634e+01 6.1591151e+01
         vertex 7.6907561e+01 3.9314833e+01 6.1591151e+01
      endloop
   endfacet
   facet normal -1.1277984e-15 -2.3966936e-15 1.0000000e+00
      outer loop
         vertex 7.6907561e+01 3.9314833e+01 6.1591151e+01
         vertex 7.2471520e+01 4.7331634e+01 6.1591151e+01
         vertex 6.8343901e+01 4.3344586e+01 6.1591151e+01
      endloop
   endfacet
   facet normal -2.9991756e-15 -2.3013484e-15 1.0000000e+00
      outer loop
         vertex 6.5801191e+01 5.2449957e+01 6.1591151e+01
         vertex 6.0682867e+01 5.9120287e+01 6.1591151e+01
         vertex 6.1051442e+01 4.9377432e+01 6.1591151e+01
      endloop
   endfacet
   facet normal -3.1767821e-15 -2.3080673e-15 1.0000000e+00
      outer loop
         vertex 6.1051442e+01 4.9377432e+01 6.1591151e+01
         vertex 6.0682867e+01 5.9120287e+01 6.1591151e+01
         vertex 5.5488397e+01 5.7034307e+01 6.1591151e+01
      endloop
   endfacet
   facet normal -3.8066171e-15 -5.0115065e-16 1.0000000e+00
      outer loop
         vertex 5.7465354e+01 6.6888050e+01 6.1591151e+01
         vertex 5.6367920e+01 7.5223887e+01 6.1591151e+01
         vertex 5.2004313e+01 6.5834099e+01 6.1591151e+01
      endloop
   endfacet
   facet normal -3.5184026e-15 1.4573701e-15 1.0000000e+00
      outer loop
         vertex 5.7465354e+01 8.3559724e+01 6.1591151e+01
         vertex 6.0682867e+01 9.1327487e+01 6.1591151e+01
         vertex 5.5488397e+01 9.3413467e+01 6.1591151e+01
      endloop
   endfacet
   facet normal -3.1767821e-15 2.3080673e-15 1.0000000e+00
      outer loop
         vertex 5.5488397e+01 9.3413467e+01 6.1591151e+01
         vertex 6.0682867e+01 9.1327487e+01 6.1591151e+01
         vertex 6.1051442e+01 1.0107034e+02 6.1591151e+01
      endloop
   endfacet
   facet normal -3.0483486e-15 3.9726852e-15 1.0000000e+00
      outer loop
         vertex 6.5801191e+01 9.7997816e+01 6.1591151e+01
         vertex 7.2471520e+01 1.0311614e+02 6.1591151e+01
         vertex 6.8343901e+01 1.0710319e+02 6.1591151e+01
      endloop
   endfacet
   facet normal -2.2555968e-15 4.7933872e-15 1.0000000e+00
      outer loop
         vertex 6.8343901e+01 1.0710319e+02 6.1591151e+01
         vertex 7.2471520e+01 1.0311614e+02 6.1591151e+01
         vertex 7.6907561e+01 1.1113294e+02 6.1591151e+01
      endloop
   endfacet
   facet normal -4.8490306e-16 3.6832044e-15 1.0000000e+00
      outer loop
         vertex 8.0239284e+01 1.0633365e+02 6.1591151e+01
         vertex 8.8575120e+01 1.0743109e+02 6.1591151e+01
         vertex 8.6204338e+01 1.1290640e+02 6.1591151e+01
      endloop
   endfacet
   facet normal 2.5179657e-16 4.0021918e-15 1.0000000e+00
      outer loop
         vertex 8.6204338e+01 1.1290640e+02 6.1591151e+01
         vertex 8.8575120e+01 1.0743109e+02 6.1591151e+01
         vertex 9.5650079e+01 1.1231212e+02 6.1591151e+01
      endloop
   endfacet
   facet normal 9.6423855e-16 4.5362380e-15 1.0000000e+00
      outer loop
         vertex 9.6910957e+01 1.0633365e+02 6.1591151e+01
         vertex 1.0467872e+02 1.0311614e+02 6.1591151e+01
         vertex 1.0465127e+02 1.0938745e+02 6.1591151e+01
      endloop
   endfacet
   facet normal 2.8841162e-15 4.5446400e-15 1.0000000e+00
      outer loop
         vertex 1.0465127e+02 1.0938745e+02 6.1591151e+01
         vertex 1.0467872e+02 1.0311614e+02 6.1591151e+01
         vertex 1.1264235e+02 1.0431617e+02 6.1591151e+01
      endloop
   endfacet
   facet normal 2.9095223e-15 2.2325550e-15 1.0000000e+00
      outer loop
         vertex 1.1134905e+02 9.7997816e+01 6.1591151e+01
         vertex 1.1646737e+02 9.1327487e+01 6.1591151e+01
         vertex 1.1912119e+02 9.7416903e+01 6.1591151e+01
      endloop
   endfacet
   facet normal 3.5518274e-15 1.9526336e-15 1.0000000e+00
      outer loop
         vertex 1.1912119e+02 9.7416903e+01 6.1591151e+01
         vertex 1.1646737e+02 9.1327487e+01 6.1591151e+01
         vertex 1.2368070e+02 8.9123171e+01 6.1591151e+01
      endloop
   endfacet
   facet normal 2.0597343e-15 -2.2860165e-15 1.0000000e+00
      outer loop
         vertex 1.1968489e+02 8.3559724e+01 6.1591151e+01
         vertex 1.2078232e+02 7.5223887e+01 6.1591151e+01
         vertex 1.2603441e+02 7.9956096e+01 6.1591151e+01
      endloop
   endfacet
   facet normal -3.8409004e-15 -4.8521856e-16 1.0000000e+00
      outer loop
         vertex 5.6367920e+01 7.5223887e+01 6.1591151e+01
         vertex 5.0818107e+01 7.5223887e+01 6.1591151e+01
         vertex 5.2004313e+01 6.5834099e+01 6.1591151e+01
      endloop
   endfacet
   facet normal 0.0000000e+00 0.0000000e+00 1.0000000e+00
      outer loop
         vertex 1.2603441e+02 7.9956096e+01 6.1591151e+01
         vertex 1.2078232e+02 7.5223887e+01 6.1591151e+01
         vertex 1.2603441e+02 7.0491678e+01 6.1591151e+01
      endloop
   endfacet
   facet normal 2.4158137e-15 2.9333290e-16 1.0000000e+00
      outer loop
         vertex 4.8770778e+01 6.5412998e+01 2.4451073e+02
         vertex 4.7579520e+01 7.5223887e+01 2.4451073e+02
         vertex 1.0000000e-06 7.9507139e+01 2.4451073e+02
      endloop
   endfacet
   facet normal 2.6179697e-15 9.9286495e-16 1.0000000e+00
      outer loop
         vertex 4.8770778e+01 6.5412998e+01 2.4451073e+02
         vertex 1.0000000e-06 7.9507139e+01 2.4451073e+02
         vertex 5.2275319e+01 5.6172282e+01 2.4451073e+02
      endloop
   endfacet
   facet normal 2.3635714e-15 -2.8698952e-16 1.0000000e+00
      outer loop
         vertex 4.7579520e+01 7.5223887e+01 2.4451073e+02
         vertex 4.8770778e+01 8.5034776e+01 2.4451073e+02
         vertex 1.0000000e-06 7.9507139e+01 2.4451073e+02
      endloop
   endfacet
   facet normal 2.4357418e-15 -9.2375502e-16 1.0000000e+00
      outer loop
         vertex 4.8770778e+01 8.5034776e+01 2.4451073e+02
         vertex 5.2275319e+01 9.4275492e+01 2.4451073e+02
         vertex 1.0000000e-06 7.9507139e+01 2.4451073e+02
      endloop
   endfacet
   facet normal 1.7326683e-15 -1.9557782e-15 1.0000000e+00
      outer loop
         vertex 6.5286965e+01 1.0896260e+02 2.4451073e+02
         vertex 5.3548449e+01 1.5669188e+02 2.4451073e+02
         vertex 5.7889473e+01 1.0240900e+02 2.4451073e+02
      endloop
   endfacet
   facet normal 1.1072057e-15 -2.1096042e-15 1.0000000e+00
      outer loop
         vertex 6.5286965e+01 1.0896260e+02 2.4451073e+02
         vertex 7.4037880e+01 1.1355544e+02 2.4451073e+02
         vertex 5.3548449e+01 1.5669188e+02 2.4451073e+02
      endloop
   endfacet
   facet normal 5.8151578e-16 -2.3593023e-15 1.0000000e+00
      outer loop
         vertex 7.4037880e+01 1.1355544e+02 2.4451073e+02
         vertex 8.3633647e+01 1.1592058e+02 2.4451073e+02
         vertex 5.3548449e+01 1.5669188e+02 2.4451073e+02
      endloop
   endfacet
   facet normal 0.0000000e+00 -2.7884035e-15 1.0000000e+00
      outer loop
         vertex 8.3633647e+01 1.1592058e+02 2.4451073e+02
         vertex 9.3516594e+01 1.1592058e+02 2.4451073e+02
         vertex 5.3548449e+01 1.5669188e+02 2.4451073e+02
      endloop
   endfacet
   facet normal -4.7676276e-16 -3.2557745e-15 1.0000000e+00
      outer loop
         vertex 5.3548449e+01 1.5669188e+02 2.4451073e+02
         vertex 9.3516594e+01 1.1592058e+02 2.4451073e+02
         vertex 1.4334452e+02 1.4354250e+02 2.4451073e+02
      endloop
   endfacet
   facet normal -7.0222812e-16 -2.8490515e-15 1.0000000e+00
      outer loop
         vertex 9.3516594e+01 1.1592058e+02 2.4451073e+02
         vertex 1.0311236e+02 1.1355544e+02 2.4451073e+02
         vertex 1.4334452e+02 1.4354250e+02 2.4451073e+02
      endloop
   endfacet
   facet normal -1.1676028e-15 -2.2246813e-15 1.0000000e+00
      outer loop
         vertex 1.0311236e+02 1.1355544e+02 2.4451073e+02
         vertex 1.1186328e+02 1.0896260e+02 2.4451073e+02
         vertex 1.4334452e+02 1.4354250e+02 2.4451073e+02
      endloop
   endfacet
   facet normal -1.6122619e-15 -1.8198675e-15 1.0000000e+00
      outer loop
         vertex 1.1186328e+02 1.0896260e+02 2.4451073e+02
         vertex 1.1926077e+02 1.0240900e+02 2.4451073e+02
         vertex 1.4334452e+02 1.4354250e+02 2.4451073e+02
      endloop
   endfacet
   facet normal -3.0955754e-15 -1.1739969e-15 1.0000000e+00
      outer loop
         vertex 1.2837946e+02 8.5034776e+01 2.4451073e+02
         vertex 1.7281869e+02 6.4695589e+01 2.4451073e+02
         vertex 1.2487492e+02 9.4275492e+01 2.4451073e+02
      endloop
   endfacet
   facet normal -2.7087899e-15 -3.2890665e-16 1.0000000e+00
      outer loop
         vertex 1.2837946e+02 8.5034776e+01 2.4451073e+02
         vertex 1.2957072e+02 7.5223887e+01 2.4451073e+02
         vertex 1.7281869e+02 6.4695589e+01 2.4451073e+02
      endloop
   endfacet
   facet normal -2.5532493e-15 3.1002060e-16 1.0000000e+00
      outer loop
         vertex 1.2957072e+02 7.5223887e+01 2.4451073e+02
         vertex 1.2837946e+02 6.5412998e+01 2.4451073e+02
         vertex 1.7281869e+02 6.4695589e+01 2.4451073e+02
      endloop
   endfacet
   facet normal -2.5426867e-15 9.6431386e-16 1.0000000e+00
      outer loop
         vertex 1.2837946e+02 6.5412998e+01 2.4451073e+02
         vertex 1.2487492e+02 5.6172282e+01 2.4451073e+02
         vertex 1.7281869e+02 6.4695589e+01 2.4451073e+02
      endloop
   endfacet
   facet normal -2.7029325e-15 1.8656996e-15 1.0000000e+00
      outer loop
         vertex 1.2487492e+02 5.6172282e+01 2.4451073e+02
         vertex 1.1926077e+02 4.8038776e+01 2.4451073e+02
         vertex 1.7281869e+02 6.4695589e+01 2.4451073e+02
      endloop
   endfacet
   facet normal -2.7067053e-15 1.8778305e-15 1.0000000e+00
      outer loop
         vertex 1.7281869e+02 6.4695589e+01 2.4451073e+02
         vertex 1.1926077e+02 4.8038776e+01 2.4451073e+02
         vertex 1.2793484e+02 1.0000000e-06 2.4451073e+02
      endloop
   endfacet
   facet normal -1.8074610e-15 2.0402017e-15 1.0000000e+00
      outer loop
         vertex 1.1926077e+02 4.8038776e+01 2.4451073e+02
         vertex 1.1186328e+02 4.1485170e+01 2.4451073e+02
         vertex 1.2793484e+02 1.0000000e-06 2.4451073e+02
      endloop
   endfacet
   facet normal -1.1952573e-15 2.2773725e-15 1.0000000e+00
      outer loop
         vertex 1.1186328e+02 4.1485170e+01 2.4451073e+02
         vertex 1.0311236e+02 3.6892335e+01 2.4451073e+02
         vertex 1.2793484e+02 1.0000000e-06 2.4451073e+02
      endloop
   endfacet
   facet normal -6.5149840e-16 2.6432329e-15 1.0000000e+00
      outer loop
         vertex 1.0311236e+02 3.6892335e+01 2.4451073e+02
         vertex 9.3516594e+01 3.4527191e+01 2.4451073e+02
         vertex 1.2793484e+02 1.0000000e-06 2.4451073e+02
      endloop
   endfacet
   facet normal 6.3174479e-16 2.5630894e-15 1.0000000e+00
      outer loop
         vertex 7.4037880e+01 3.6892335e+01 2.4451073e+02
         vertex 4.3759059e+01 1.0000000e-06 2.4451073e+02
         vertex 8.3633647e+01 3.4527191e+01 2.4451073e+02
      endloop
   endfacet
   facet normal 1.1304104e-15 2.1538171e-15 1.0000000e+00
      outer loop
         vertex 7.4037880e+01 3.6892335e+01 2.4451073e+02
         vertex 6.5286965e+01 4.1485170e+01 2.4451073e+02
         vertex 4.3759059e+01 1.0000000e-06 2.4451073e+02
      endloop
   endfacet
   facet normal 1.6631829e-15 1.8773454e-15 1.0000000e+00
      outer loop
         vertex 6.5286965e+01 4.1485170e+01 2.4451073e+02
         vertex 5.7889473e+01 4.8038776e+01 2.4451073e+02
         vertex 4.3759059e+01 1.0000000e-06 2.4451073e+02
      endloop
   endfacet
   facet normal 2.4040768e-15 1.6594144e-15 1.0000000e+00
      outer loop
         vertex 5.7889473e+01 4.8038776e+01 2.4451073e+02
         vertex 5.2275319e+01 5.6172282e+01 2.4451073e+02
         vertex 4.3759059e+01 1.0000000e-06 2.4451073e+02
      endloop
   endfacet
   facet normal 2.8830890e-15 1.5867916e-15 1.0000000e+00
      outer loop
         vertex 4.3759059e+01 1.0000000e-06 2.4451073e+02
         vertex 5.2275319e+01 5.6172282e+01 2.4451073e+02
         vertex 1.0000000e-06 7.9507139e+01 2.4451073e+02
      endloop
   endfacet
   facet normal -0.0000000e+00 3.2926756e-15 1.0000000e+00
      outer loop
         vertex 4.3759059e+01 1.0000000e-06 2.4451073e+02
         vertex 1.2793484e+02 1.0000000e-06 2.4451073e+02
         vertex 8.3633647e+01 3.4527191e+01 2.4451073e+02
      endloop
   endfacet
   facet normal -3.0820841e-15 -1.1521298e-15 1.0000000e+00
      outer loop
         vertex 1.7281869e+02 6.4695589e+01 2.4451073e+02
         vertex 1.4334452e+02 1.4354250e+02 2.4451073e+02
         vertex 1.2487492e+02 9.4275492e+01 2.4451073e+02
      endloop
   endfacet
   facet normal 2.7067745e-15 -1.8778785e-15 1.0000000e+00
      outer loop
         vertex 5.3548449e+01 1.5669188e+02 2.4451073e+02
         vertex 1.0000000e-06 7.9507139e+01 2.4451073e+02
         vertex 5.7889473e+01 1.0240900e+02 2.4451073e+02
      endloop
   endfacet
   facet normal 2.7015896e-15 -1.8647727e-15 1.0000000e+00
      outer loop
         vertex 5.7889473e+01 1.0240900e+02 2.4451073e+02
         vertex 1.0000000e-06 7.9507139e+01 2.4451073e+02
         vertex 5.2275319e+01 9.4275492e+01 2.4451073e+02
      endloop
   endfacet
   facet normal -2.1664475e-15 -1.4953907e-15 1.0000000e+00
      outer loop
         vertex 1.4334452e+02 1.4354250e+02 2.4451073e+02
         vertex 1.1926077e+02 1.0240900e+02 2.4451073e+02
         vertex 1.2487492e+02 9.4275492e+01 2.4451073e+02
      endloop
   endfacet
   facet normal 0.0000000e+00 3.2926756e-15 1.0000000e+00
      outer loop
         vertex 1.2793484e+02 1.0000000e-06 2.4451073e+02
         vertex 9.3516594e+01 3.4527191e+01 2.4451073e+02
         vertex 8.3633647e+01 3.4527191e+01 2.4451073e+02
      endloop
   endfacet
   facet normal -0.0000000e+00 0.0000000e+00 -1.0000000e+00
      outer loop
         vertex 6.1229648e+01 8.2551084e+01 3.1994216e+01
         vertex 6.0265004e+01 7.5223887e+01 3.1994216e+01
         vertex 4.4358179e+01 7.7362098e+01 3.1994216e+01
      endloop
   endfacet
   facet normal -0.0000000e+00 0.0000000e+00 -1.0000000e+00
      outer loop
         vertex 6.1229648e+01 8.2551084e+01 3.1994216e+01
         vertex 4.4358179e+01 7.7362098e+01 3.1994216e+01
         vertex 6.4057840e+01 8.9378945e+01 3.1994216e+01
      endloop
   endfacet
   facet normal -0.0000000e+00 -0.0000000e+00 -1.0000000e+00
      outer loop
         vertex 6.0265004e+01 7.5223887e+01 3.1994216e+01
         vertex 6.1229648e+01 6.7896690e+01 3.1994216e+01
         vertex 4.4358179e+01 7.7362098e+01 3.1994216e+01
      endloop
   endfacet
   facet normal -0.0000000e+00 0.0000000e+00 -1.0000000e+00
      outer loop
         vertex 6.8556845e+01 5.5205612e+01 3.1994216e+01
         vertex 6.6202820e+01 3.7671918e+01 3.1994216e+01
         vertex 6.4057840e+01 6.1068829e+01 3.1994216e+01
      endloop
   endfacet
   facet normal 0.0000000e+00 -0.0000000e+00 -1.0000000e+00
      outer loop
         vertex 6.8556845e+01 5.5205612e+01 3.1994216e+01
         vertex 7.4420062e+01 5.0706607e+01 3.1994216e+01
         vertex 6.6202820e+01 3.7671918e+01 3.1994216e+01
      endloop
   endfacet
   facet normal 0.0000000e+00 -0.0000000e+00 -1.0000000e+00
      outer loop
         vertex 7.4420062e+01 5.0706607e+01 3.1994216e+01
         vertex 8.1247923e+01 4.7878414e+01 3.1994216e+01
         vertex 6.6202820e+01 3.7671918e+01 3.1994216e+01
      endloop
   endfacet
   facet normal 0.0000000e+00 -0.0000000e+00 -1.0000000e+00
      outer loop
         vertex 8.1247923e+01 4.7878414e+01 3.1994216e+01
         vertex 8.8575120e+01 4.6913770e+01 3.1994216e+01
         vertex 6.6202820e+01 3.7671918e+01 3.1994216e+01
      endloop
   endfacet
   facet normal 0.0000000e+00 0.0000000e+00 -1.0000000e+00
      outer loop
         vertex 6.6202820e+01 3.7671918e+01 3.1994216e+01
         vertex 8.8575120e+01 4.6913770e+01 3.1994216e+01
         vertex 1.0822360e+02 3.7671918e+01 3.1994216e+01
      endloop
   endfacet
   facet normal 0.0000000e+00 0.0000000e+00 -1.0000000e+00
      outer loop
         vertex 8.8575120e+01 4.6913770e+01 3.1994216e+01
         vertex 9.5902318e+01 4.7878414e+01 3.1994216e+01
         vertex 1.0822360e+02 3.7671918e+01 3.1994216e+01
      endloop
   endfacet
   facet normal 0.0000000e+00 0.0000000e+00 -1.0000000e+00
      outer loop
         vertex 9.5902318e+01 4.7878414e+01 3.1994216e+01
         vertex 1.0273018e+02 5.0706607e+01 3.1994216e+01
         vertex 1.0822360e+02 3.7671918e+01 3.1994216e+01
      endloop
   endfacet
   facet normal 0.0000000e+00 -0.0000000e+00 -1.0000000e+00
      outer loop
         vertex 1.0273018e+02 5.0706607e+01 3.1994216e+01
         vertex 1.0859340e+02 5.5205612e+01 3.1994216e+01
         vertex 1.0822360e+02 3.7671918e+01 3.1994216e+01
      endloop
   endfacet
   facet normal 0.0000000e+00 -0.0000000e+00 -1.0000000e+00
      outer loop
         vertex 1.1592059e+02 6.7896690e+01 3.1994216e+01
         vertex 1.3062974e+02 6.9968132e+01 3.1994216e+01
         vertex 1.1309240e+02 6.1068829e+01 3.1994216e+01
      endloop
   endfacet
   facet normal 0.0000000e+00 0.0000000e+00 -1.0000000e+00
      outer loop
         vertex 1.1592059e+02 6.7896690e+01 3.1994216e+01
         vertex 1.1688524e+02 7.5223887e+01 3.1994216e+01
         vertex 1.3062974e+02 6.9968132e+01 3.1994216e+01
      endloop
   endfacet
   facet normal 0.0000000e+00 0.0000000e+00 -1.0000000e+00
      outer loop
         vertex 1.1688524e+02 7.5223887e+01 3.1994216e+01
         vertex 1.1592059e+02 8.2551084e+01 3.1994216e+01
         vertex 1.3062974e+02 6.9968132e+01 3.1994216e+01
      endloop
   endfacet
   facet normal 0.0000000e+00 0.0000000e+00 -1.0000000e+00
      outer loop
         vertex 1.3062974e+02 6.9968132e+01 3.1994216e+01
         vertex 1.1592059e+02 8.2551084e+01 3.1994216e+01
         vertex 1.1591615e+02 1.0932873e+02 3.1994216e+01
      endloop
   endfacet
   facet normal 0.0000000e+00 0.0000000e+00 -1.0000000e+00
      outer loop
         vertex 1.1592059e+02 8.2551084e+01 3.1994216e+01
         vertex 1.1309240e+02 8.9378945e+01 3.1994216e+01
         vertex 1.1591615e+02 1.0932873e+02 3.1994216e+01
      endloop
   endfacet
   facet normal 0.0000000e+00 0.0000000e+00 -1.0000000e+00
      outer loop
         vertex 1.1309240e+02 8.9378945e+01 3.1994216e+01
         vertex 1.0859340e+02 9.5242162e+01 3.1994216e+01
         vertex 1.1591615e+02 1.0932873e+02 3.1994216e+01
      endloop
   endfacet
   facet normal 0.0000000e+00 0.0000000e+00 -1.0000000e+00
      outer loop
         vertex 1.0859340e+02 9.5242162e+01 3.1994216e+01
         vertex 1.0273018e+02 9.9741167e+01 3.1994216e+01
         vertex 1.1591615e+02 1.0932873e+02 3.1994216e+01
      endloop
   endfacet
   facet normal 0.0000000e+00 0.0000000e+00 -1.0000000e+00
      outer loop
         vertex 8.8575120e+01 1.0353400e+02 3.1994216e+01
         vertex 7.1089710e+01 1.1589293e+02 3.1994216e+01
         vertex 9.5902318e+01 1.0256936e+02 3.1994216e+01
      endloop
   endfacet
   facet normal -0.0000000e+00 0.0000000e+00 -1.0000000e+00
      outer loop
         vertex 8.8575120e+01 1.0353400e+02 3.1994216e+01
         vertex 8.1247923e+01 1.0256936e+02 3.1994216e+01
         vertex 7.1089710e+01 1.1589293e+02 3.1994216e+01
      endloop
   endfacet
   facet normal -0.0000000e+00 0.0000000e+00 -1.0000000e+00
      outer loop
         vertex 8.1247923e+01 1.0256936e+02 3.1994216e+01
         vertex 7.4420062e+01 9.9741167e+01 3.1994216e+01
         vertex 7.1089710e+01 1.1589293e+02 3.1994216e+01
      endloop
   endfacet
   facet normal -0.0000000e+00 0.0000000e+00 -1.0000000e+00
      outer loop
         vertex 7.4420062e+01 9.9741167e+01 3.1994216e+01
         vertex 6.8556845e+01 9.5242162e+01 3.1994216e+01
         vertex 7.1089710e+01 1.1589293e+02 3.1994216e+01
      endloop
   endfacet
   facet normal -0.0000000e+00 0.0000000e+00 -1.0000000e+00
      outer loop
         vertex 6.8556845e+01 9.5242162e+01 3.1994216e+01
         vertex 6.4057840e+01 8.9378945e+01 3.1994216e+01
         vertex 7.1089710e+01 1.1589293e+02 3.1994216e+01
      endloop
   endfacet
   facet normal 0.0000000e+00 0.0000000e+00 -1.0000000e+00
      outer loop
         vertex 7.1089710e+01 1.1589293e+02 3.1994216e+01
         vertex 6.4057840e+01 8.9378945e+01 3.1994216e+01
         vertex 4.4358179e+01 7.7362098e+01 3.1994216e+01
      endloop
   endfacet
   facet normal -0.0000000e+00 0.0000000e+00 -1.0000000e+00
      outer loop
         vertex 1.3062974e+02 6.9968132e+01 3.1994216e+01
         vertex 1.0822360e+02 3.7671918e+01 3.1994216e+01
         vertex 1.1309240e+02 6.1068829e+01 3.1994216e+01
      endloop
   endfacet
   facet normal 0.0000000e+00 0.0000000e+00 -1.0000000e+00
      outer loop
         vertex 6.6202820e+01 3.7671918e+01 3.1994216e+01
         vertex 4.4358179e+01 7.7362098e+01 3.1994216e+01
         vertex 6.4057840e+01 6.1068829e+01 3.1994216e+01
      endloop
   endfacet
   facet normal 0.0000000e+00 -0.0000000e+00 -1.0000000e+00
      outer loop
         vertex 7.1089710e+01 1.1589293e+02 3.1994216e+01
         vertex 1.1591615e+02 1.0932873e+02 3.1994216e+01
         vertex 9.5902318e+01 1.0256936e+02 3.1994216e+01
      endloop
   endfacet
   facet normal 0.0000000e+00 0.0000000e+00 -1.0000000e+00
      outer loop
         vertex 6.4057840e+01 6.1068829e+01 3.1994216e+01
         vertex 4.4358179e+01 7.7362098e+01 3.1994216e+01
         vertex 6.1229648e+01 6.7896690e+01 3.1994216e+01
      endloop
   endfacet
   facet normal 0.0000000e+00 0.0000000e+00 -1.0000000e+00
      outer loop
         vertex 1.0822360e+02 3.7671918e+01 3.1994216e+01
         vertex 1.0859340e+02 5.5205612e+01 3.1994216e+01
         vertex 1.1309240e+02 6.1068829e+01 3.1994216e+01
      endloop
   endfacet
   facet normal -0.0000000e+00 0.0000000e+00 -1.0000000e+00
      outer loop
         vertex 1.1591615e+02 1.0932873e+02 3.1994216e+01
         vertex 1.0273018e+02 9.9741167e+01 3.1994216e+01
         vertex 9.5902318e+01 1.0256936e+02 3.1994216e+01
      endloop
   endfacet
   facet normal -8.6251898e-01 -4.7471232e-01 -1.7524046e-01
      outer loop
         vertex 4.4358179e+01 7.7362098e+01 3.1994216e+01
         vertex 6.6202820e+01 3.7671918e+01 3.1994216e+01
         vertex 1.0000000e-06 7.9507139e+01 2.4451073e+02
      endloop
   endfacet
   facet normal -8.6251898e-01 -4.7471232e-01 -1.7524046e-01
      outer loop
         vertex 6.6202820e+01 3.7671918e+01 3.1994216e+01
         vertex 4.3759059e+01 1.0000000e-06 2.4451073e+02
         vertex 1.0000000e-06 7.9507139e+01 2.4451073e+02
      endloop
   endfacet
   facet normal 0.0000000e+00 -9.8464926e-01 -1.7454467e-01
      outer loop
         vertex 1.0822360e+02 3.7671918e+01 3.1994216e+01
         vertex 1.2793484e+02 1.0000000e-06 2.4451073e+02
         vertex 6.6202820e+01 3.7671918e+01 3.1994216e+01
      endloop
   endfacet
   facet normal -0.0000000e+00 -9.8464926e-01 -1.7454467e-01
      outer loop
         vertex 1.2793484e+02 1.0000000e-06 2.4451073e+02
         vertex 4.3759059e+01 1.0000000e-06 2.4451073e+02
         vertex 6.6202820e+01 3.7671918e+01 3.1994216e+01
      endloop
   endfacet
   facet normal 8.0901874e-01 -5.6127281e-01 -1.7453225e-01
      outer loop
         vertex 1.3062974e+02 6.9968132e+01 3.1994216e+01
         vertex 1.7281869e+02 6.4695589e+01 2.4451073e+02
         vertex 1.0822360e+02 3.7671918e+01 3.1994216e+01
      endloop
   endfacet
   facet normal 8.0901874e-01 -5.6127281e-01 -1.7453225e-01
      outer loop
         vertex 1.7281869e+02 6.4695589e+01 2.4451073e+02
         vertex 1.2793484e+02 1.0000000e-06 2.4451073e+02
         vertex 1.0822360e+02 3.7671918e+01 3.1994216e+01
      endloop
   endfacet
   facet normal 9.2231459e-01 3.4477519e-01 -1.7454475e-01
      outer loop
         vertex 1.3062974e+02 6.9968132e+01 3.1994216e+01
         vertex 1.1591615e+02 1.0932873e+02 3.1994216e+01
         vertex 1.7281869e+02 6.4695589e+01 2.4451073e+02
      endloop
   endfacet
   facet normal 9.2231459e-01 3.4477519e-01 -1.7454475e-01
      outer loop
         vertex 1.1591615e+02 1.0932873e+02 3.1994216e+01
         vertex 1.4334452e+02 1.4354250e+02 2.4451073e+02
         vertex 1.7281869e+02 6.4695589e+01 2.4451073e+02
      endloop
   endfacet
   facet normal 1.4264871e-01 9.7413659e-01 -1.7524055e-01
      outer loop
         vertex 7.1089710e+01 1.1589293e+02 3.1994216e+01
         vertex 5.3548449e+01 1.5669188e+02 2.4451073e+02
         vertex 1.1591615e+02 1.0932873e+02 3.1994216e+01
      endloop
   endfacet
   facet normal 1.4264871e-01 9.7413659e-01 -1.7524055e-01
      outer loop
         vertex 5.3548449e+01 1.5669188e+02 2.4451073e+02
         vertex 1.4334452e+02 1.4354250e+02 2.4451073e+02
         vertex 1.1591615e+02 1.0932873e+02 3.1994216e+01
      endloop
   endfacet
   facet normal -8.0901903e-01 5.6127301e-01 -1.7453026e-01
      outer loop
         vertex 4.4358179e+01 7.7362098e+01 3.1994216e+01
         vertex 1.0000000e-06 7.9507139e+01 2.4451073e+02
         vertex 7.1089710e+01 1.1589293e+02 3.1994216e+01
      endloop
   endfacet
   facet normal -8.0901903e-01 5.6127301e-01 -1.7453026e-01
      outer loop
         vertex 1.0000000e-06 7.9507139e+01 2.4451073e+02
         vertex 5.3548449e+01 1.5669188e+02 2.4451073e+02
         vertex 7.1089710e+01 1.1589293e+02 3.1994216e+01
      endloop
   endfacet
endsolid AutoCAD
