solid AutoCAD
   facet normal -2.3635714e-15 2.8698952e-16 -1.0000000e+00
      outer loop
         vertex 4.9969256e+01 8.6052603e+01 2.4451073e+02
         vertex 4.8777998e+01 7.6241714e+01 2.4451073e+02
         vertex 1.1984785e+00 8.0524966e+01 2.4451073e+02
      endloop
   endfacet
   facet normal -2.4357418e-15 9.2375502e-16 -1.0000000e+00
      outer loop
         vertex 4.9969256e+01 8.6052603e+01 2.4451073e+02
         vertex 1.1984785e+00 8.0524966e+01 2.4451073e+02
         vertex 5.3473797e+01 9.5293319e+01 2.4451073e+02
      endloop
   endfacet
   facet normal -2.4158137e-15 -2.9333290e-16 -1.0000000e+00
      outer loop
         vertex 4.8777998e+01 7.6241714e+01 2.4451073e+02
         vertex 4.9969256e+01 6.6430825e+01 2.4451073e+02
         vertex 1.1984785e+00 8.0524966e+01 2.4451073e+02
      endloop
   endfacet
   facet normal -2.4040768e-15 -1.6594144e-15 -1.0000000e+00
      outer loop
         vertex 5.9087951e+01 4.9056603e+01 2.4451073e+02
         vertex 4.4957536e+01 1.0178279e+00 2.4451073e+02
         vertex 5.3473797e+01 5.7190109e+01 2.4451073e+02
      endloop
   endfacet
   facet normal -1.6631829e-15 -1.8773454e-15 -1.0000000e+00
      outer loop
         vertex 5.9087951e+01 4.9056603e+01 2.4451073e+02
         vertex 6.6485443e+01 4.2502996e+01 2.4451073e+02
         vertex 4.4957536e+01 1.0178279e+00 2.4451073e+02
      endloop
   endfacet
   facet normal -1.1304104e-15 -2.1538171e-15 -1.0000000e+00
      outer loop
         vertex 6.6485443e+01 4.2502996e+01 2.4451073e+02
         vertex 7.5236358e+01 3.7910162e+01 2.4451073e+02
         vertex 4.4957536e+01 1.0178279e+00 2.4451073e+02
      endloop
   endfacet
   facet normal -6.3174479e-16 -2.5630894e-15 -1.0000000e+00
      outer loop
         vertex 7.5236358e+01 3.7910162e+01 2.4451073e+02
         vertex 8.4832124e+01 3.5545018e+01 2.4451073e+02
         vertex 4.4957536e+01 1.0178279e+00 2.4451073e+02
      endloop
   endfacet
   facet normal 0.0000000e+00 -3.2926756e-15 -1.0000000e+00
      outer loop
         vertex 4.4957536e+01 1.0178279e+00 2.4451073e+02
         vertex 8.4832124e+01 3.5545018e+01 2.4451073e+02
         vertex 1.2913332e+02 1.0178279e+00 2.4451073e+02
      endloop
   endfacet
   facet normal 0.0000000e+00 -3.2926756e-15 -1.0000000e+00
      outer loop
         vertex 8.4832124e+01 3.5545018e+01 2.4451073e+02
         vertex 9.4715071e+01 3.5545018e+01 2.4451073e+02
         vertex 1.2913332e+02 1.0178279e+00 2.4451073e+02
      endloop
   endfacet
   facet normal 6.5149840e-16 -2.6432329e-15 -1.0000000e+00
      outer loop
         vertex 9.4715071e+01 3.5545018e+01 2.4451073e+02
         vertex 1.0431084e+02 3.7910162e+01 2.4451073e+02
         vertex 1.2913332e+02 1.0178279e+00 2.4451073e+02
      endloop
   endfacet
   facet normal 1.1952573e-15 -2.2773725e-15 -1.0000000e+00
      outer loop
         vertex 1.0431084e+02 3.7910162e+01 2.4451073e+02
         vertex 1.1306175e+02 4.2502996e+01 2.4451073e+02
         vertex 1.2913332e+02 1.0178279e+00 2.4451073e+02
      endloop
   endfacet
   facet normal 2.7029325e-15 -1.8656996e-15 -1.0000000e+00
      outer loop
         vertex 1.2607340e+02 5.7190109e+01 2.4451073e+02
         vertex 1.7401717e+02 6.5713416e+01 2.4451073e+02
         vertex 1.2045925e+02 4.9056603e+01 2.4451073e+02
      endloop
   endfacet
   facet normal 2.5426867e-15 -9.6431386e-16 -1.0000000e+00
      outer loop
         vertex 1.2607340e+02 5.7190109e+01 2.4451073e+02
         vertex 1.2957794e+02 6.6430825e+01 2.4451073e+02
         vertex 1.7401717e+02 6.5713416e+01 2.4451073e+02
      endloop
   endfacet
   facet normal 2.5532493e-15 -3.1002060e-16 -1.0000000e+00
      outer loop
         vertex 1.2957794e+02 6.6430825e+01 2.4451073e+02
         vertex 1.3076920e+02 7.6241714e+01 2.4451073e+02
         vertex 1.7401717e+02 6.5713416e+01 2.4451073e+02
      endloop
   endfacet
   facet normal 2.7087899e-15 3.2890665e-16 -1.0000000e+00
      outer loop
         vertex 1.3076920e+02 7.6241714e+01 2.4451073e+02
         vertex 1.2957794e+02 8.6052603e+01 2.4451073e+02
         vertex 1.7401717e+02 6.5713416e+01 2.4451073e+02
      endloop
   endfacet
   facet normal 3.0955754e-15 1.1739969e-15 -1.0000000e+00
      outer loop
         vertex 1.2957794e+02 8.6052603e+01 2.4451073e+02
         vertex 1.2607340e+02 9.5293319e+01 2.4451073e+02
         vertex 1.7401717e+02 6.5713416e+01 2.4451073e+02
      endloop
   endfacet
   facet normal 3.0820841e-15 1.1521298e-15 -1.0000000e+00
      outer loop
         vertex 1.7401717e+02 6.5713416e+01 2.4451073e+02
         vertex 1.2607340e+02 9.5293319e+01 2.4451073e+02
         vertex 1.4454300e+02 1.4456033e+02 2.4451073e+02
      endloop
   endfacet
   facet normal 2.1664475e-15 1.4953907e-15 -1.0000000e+00
      outer loop
         vertex 1.2607340e+02 9.5293319e+01 2.4451073e+02
         vertex 1.2045925e+02 1.0342683e+02 2.4451073e+02
         vertex 1.4454300e+02 1.4456033e+02 2.4451073e+02
      endloop
   endfacet
   facet normal 1.6122619e-15 1.8198675e-15 -1.0000000e+00
      outer loop
         vertex 1.2045925e+02 1.0342683e+02 2.4451073e+02
         vertex 1.1306175e+02 1.0998043e+02 2.4451073e+02
         vertex 1.4454300e+02 1.4456033e+02 2.4451073e+02
      endloop
   endfacet
   facet normal 1.1676028e-15 2.2246813e-15 -1.0000000e+00
      outer loop
         vertex 1.1306175e+02 1.0998043e+02 2.4451073e+02
         vertex 1.0431084e+02 1.1457327e+02 2.4451073e+02
         vertex 1.4454300e+02 1.4456033e+02 2.4451073e+02
      endloop
   endfacet
   facet normal 0.0000000e+00 2.7884035e-15 -1.0000000e+00
      outer loop
         vertex 8.4832124e+01 1.1693841e+02 2.4451073e+02
         vertex 5.4746927e+01 1.5770971e+02 2.4451073e+02
         vertex 9.4715071e+01 1.1693841e+02 2.4451073e+02
      endloop
   endfacet
   facet normal -5.8151578e-16 2.3593023e-15 -1.0000000e+00
      outer loop
         vertex 8.4832124e+01 1.1693841e+02 2.4451073e+02
         vertex 7.5236358e+01 1.1457327e+02 2.4451073e+02
         vertex 5.4746927e+01 1.5770971e+02 2.4451073e+02
      endloop
   endfacet
   facet normal -1.1072057e-15 2.1096042e-15 -1.0000000e+00
      outer loop
         vertex 7.5236358e+01 1.1457327e+02 2.4451073e+02
         vertex 6.6485443e+01 1.0998043e+02 2.4451073e+02
         vertex 5.4746927e+01 1.5770971e+02 2.4451073e+02
      endloop
   endfacet
   facet normal -1.7326683e-15 1.9557782e-15 -1.0000000e+00
      outer loop
         vertex 6.6485443e+01 1.0998043e+02 2.4451073e+02
         vertex 5.9087951e+01 1.0342683e+02 2.4451073e+02
         vertex 5.4746927e+01 1.5770971e+02 2.4451073e+02
      endloop
   endfacet
   facet normal -2.7067745e-15 1.8778785e-15 -1.0000000e+00
      outer loop
         vertex 5.4746927e+01 1.5770971e+02 2.4451073e+02
         vertex 5.9087951e+01 1.0342683e+02 2.4451073e+02
         vertex 1.1984785e+00 8.0524966e+01 2.4451073e+02
      endloop
   endfacet
   facet normal -2.7015896e-15 1.8647727e-15 -1.0000000e+00
      outer loop
         vertex 5.9087951e+01 1.0342683e+02 2.4451073e+02
         vertex 5.3473797e+01 9.5293319e+01 2.4451073e+02
         vertex 1.1984785e+00 8.0524966e+01 2.4451073e+02
      endloop
   endfacet
   facet normal -2.8830890e-15 -1.5867916e-15 -1.0000000e+00
      outer loop
         vertex 4.4957536e+01 1.0178279e+00 2.4451073e+02
         vertex 1.1984785e+00 8.0524966e+01 2.4451073e+02
         vertex 5.3473797e+01 5.7190109e+01 2.4451073e+02
      endloop
   endfacet
   facet normal 4.7676276e-16 3.2557745e-15 -1.0000000e+00
      outer loop
         vertex 5.4746927e+01 1.5770971e+02 2.4451073e+02
         vertex 1.4454300e+02 1.4456033e+02 2.4451073e+02
         vertex 9.4715071e+01 1.1693841e+02 2.4451073e+02
      endloop
   endfacet
   facet normal 2.7067053e-15 -1.8778305e-15 -1.0000000e+00
      outer loop
         vertex 1.7401717e+02 6.5713416e+01 2.4451073e+02
         vertex 1.2913332e+02 1.0178279e+00 2.4451073e+02
         vertex 1.2045925e+02 4.9056603e+01 2.4451073e+02
      endloop
   endfacet
   facet normal -2.6179697e-15 -9.9286495e-16 -1.0000000e+00
      outer loop
         vertex 1.1984785e+00 8.0524966e+01 2.4451073e+02
         vertex 4.9969256e+01 6.6430825e+01 2.4451073e+02
         vertex 5.3473797e+01 5.7190109e+01 2.4451073e+02
      endloop
   endfacet
   facet normal 7.0222812e-16 2.8490515e-15 -1.0000000e+00
      outer loop
         vertex 9.4715071e+01 1.1693841e+02 2.4451073e+02
         vertex 1.4454300e+02 1.4456033e+02 2.4451073e+02
         vertex 1.0431084e+02 1.1457327e+02 2.4451073e+02
      endloop
   endfacet
   facet normal 1.8074610e-15 -2.0402017e-15 -1.0000000e+00
      outer loop
         vertex 1.2045925e+02 4.9056603e+01 2.4451073e+02
         vertex 1.2913332e+02 1.0178279e+00 2.4451073e+02
         vertex 1.1306175e+02 4.2502996e+01 2.4451073e+02
      endloop
   endfacet
   facet normal 0.0000000e+00 0.0000000e+00 1.0000000e+00
      outer loop
         vertex 6.2296164e+01 6.8879158e+01 3.1994216e+01
         vertex 6.1326865e+01 7.6241714e+01 3.1994216e+01
         vertex 4.5556656e+01 7.8379925e+01 3.1994216e+01
      endloop
   endfacet
   facet normal 0.0000000e+00 0.0000000e+00 1.0000000e+00
      outer loop
         vertex 6.2296164e+01 6.8879158e+01 3.1994216e+01
         vertex 4.5556656e+01 7.8379925e+01 3.1994216e+01
         vertex 6.5138005e+01 6.2018347e+01 3.1994216e+01
      endloop
   endfacet
   facet normal 0.0000000e+00 -0.0000000e+00 1.0000000e+00
      outer loop
         vertex 6.1326865e+01 7.6241714e+01 3.1994216e+01
         vertex 6.2296164e+01 8.3604270e+01 3.1994216e+01
         vertex 4.5556656e+01 7.8379925e+01 3.1994216e+01
      endloop
   endfacet
   facet normal 0.0000000e+00 -0.0000000e+00 1.0000000e+00
      outer loop
         vertex 6.9658720e+01 9.6356592e+01 3.1994216e+01
         vertex 7.2288188e+01 1.1691076e+02 3.1994216e+01
         vertex 6.5138005e+01 9.0465080e+01 3.1994216e+01
      endloop
   endfacet
   facet normal 0.0000000e+00 -0.0000000e+00 1.0000000e+00
      outer loop
         vertex 6.9658720e+01 9.6356592e+01 3.1994216e+01
         vertex 7.5550231e+01 1.0087731e+02 3.1994216e+01
         vertex 7.2288188e+01 1.1691076e+02 3.1994216e+01
      endloop
   endfacet
   facet normal 0.0000000e+00 -0.0000000e+00 1.0000000e+00
      outer loop
         vertex 7.5550231e+01 1.0087731e+02 3.1994216e+01
         vertex 8.2411042e+01 1.0371915e+02 3.1994216e+01
         vertex 7.2288188e+01 1.1691076e+02 3.1994216e+01
      endloop
   endfacet
   facet normal 0.0000000e+00 -0.0000000e+00 1.0000000e+00
      outer loop
         vertex 8.2411042e+01 1.0371915e+02 3.1994216e+01
         vertex 8.9773598e+01 1.0468845e+02 3.1994216e+01
         vertex 7.2288188e+01 1.1691076e+02 3.1994216e+01
      endloop
   endfacet
   facet normal -0.0000000e+00 -0.0000000e+00 1.0000000e+00
      outer loop
         vertex 8.9773598e+01 1.0468845e+02 3.1994216e+01
         vertex 9.7136154e+01 1.0371915e+02 3.1994216e+01
         vertex 7.2288188e+01 1.1691076e+02 3.1994216e+01
      endloop
   endfacet
   facet normal -0.0000000e+00 0.0000000e+00 1.0000000e+00
      outer loop
         vertex 7.2288188e+01 1.1691076e+02 3.1994216e+01
         vertex 9.7136154e+01 1.0371915e+02 3.1994216e+01
         vertex 1.1711463e+02 1.1034655e+02 3.1994216e+01
      endloop
   endfacet
   facet normal -0.0000000e+00 0.0000000e+00 1.0000000e+00
      outer loop
         vertex 9.7136154e+01 1.0371915e+02 3.1994216e+01
         vertex 1.0399696e+02 1.0087731e+02 3.1994216e+01
         vertex 1.1711463e+02 1.1034655e+02 3.1994216e+01
      endloop
   endfacet
   facet normal -0.0000000e+00 0.0000000e+00 1.0000000e+00
      outer loop
         vertex 1.0399696e+02 1.0087731e+02 3.1994216e+01
         vertex 1.0988848e+02 9.6356592e+01 3.1994216e+01
         vertex 1.1711463e+02 1.1034655e+02 3.1994216e+01
      endloop
   endfacet
   facet normal -0.0000000e+00 0.0000000e+00 1.0000000e+00
      outer loop
         vertex 1.0988848e+02 9.6356592e+01 3.1994216e+01
         vertex 1.1440919e+02 9.0465080e+01 3.1994216e+01
         vertex 1.1711463e+02 1.1034655e+02 3.1994216e+01
      endloop
   endfacet
   facet normal -0.0000000e+00 -0.0000000e+00 1.0000000e+00
      outer loop
         vertex 1.1822033e+02 7.6241714e+01 3.1994216e+01
         vertex 1.3182822e+02 7.0985959e+01 3.1994216e+01
         vertex 1.1725103e+02 8.3604270e+01 3.1994216e+01
      endloop
   endfacet
   facet normal -0.0000000e+00 0.0000000e+00 1.0000000e+00
      outer loop
         vertex 1.1822033e+02 7.6241714e+01 3.1994216e+01
         vertex 1.1725103e+02 6.8879158e+01 3.1994216e+01
         vertex 1.3182822e+02 7.0985959e+01 3.1994216e+01
      endloop
   endfacet
   facet normal -0.0000000e+00 0.0000000e+00 1.0000000e+00
      outer loop
         vertex 1.1725103e+02 6.8879158e+01 3.1994216e+01
         vertex 1.1440919e+02 6.2018347e+01 3.1994216e+01
         vertex 1.3182822e+02 7.0985959e+01 3.1994216e+01
      endloop
   endfacet
   facet normal 0.0000000e+00 0.0000000e+00 1.0000000e+00
      outer loop
         vertex 1.3182822e+02 7.0985959e+01 3.1994216e+01
         vertex 1.1440919e+02 6.2018347e+01 3.1994216e+01
         vertex 1.0942208e+02 3.8689745e+01 3.1994216e+01
      endloop
   endfacet
   facet normal 0.0000000e+00 0.0000000e+00 1.0000000e+00
      outer loop
         vertex 1.1440919e+02 6.2018347e+01 3.1994216e+01
         vertex 1.0988848e+02 5.6126836e+01 3.1994216e+01
         vertex 1.0942208e+02 3.8689745e+01 3.1994216e+01
      endloop
   endfacet
   facet normal 0.0000000e+00 0.0000000e+00 1.0000000e+00
      outer loop
         vertex 1.0988848e+02 5.6126836e+01 3.1994216e+01
         vertex 1.0399696e+02 5.1606121e+01 3.1994216e+01
         vertex 1.0942208e+02 3.8689745e+01 3.1994216e+01
      endloop
   endfacet
   facet normal 0.0000000e+00 0.0000000e+00 1.0000000e+00
      outer loop
         vertex 1.0399696e+02 5.1606121e+01 3.1994216e+01
         vertex 9.7136154e+01 4.8764280e+01 3.1994216e+01
         vertex 1.0942208e+02 3.8689745e+01 3.1994216e+01
      endloop
   endfacet
   facet normal -0.0000000e+00 0.0000000e+00 1.0000000e+00
      outer loop
         vertex 8.2411042e+01 4.8764280e+01 3.1994216e+01
         vertex 6.7401298e+01 3.8689745e+01 3.1994216e+01
         vertex 8.9773598e+01 4.7794981e+01 3.1994216e+01
      endloop
   endfacet
   facet normal 0.0000000e+00 0.0000000e+00 1.0000000e+00
      outer loop
         vertex 8.2411042e+01 4.8764280e+01 3.1994216e+01
         vertex 7.5550231e+01 5.1606121e+01 3.1994216e+01
         vertex 6.7401298e+01 3.8689745e+01 3.1994216e+01
      endloop
   endfacet
   facet normal 0.0000000e+00 0.0000000e+00 1.0000000e+00
      outer loop
         vertex 7.5550231e+01 5.1606121e+01 3.1994216e+01
         vertex 6.9658720e+01 5.6126836e+01 3.1994216e+01
         vertex 6.7401298e+01 3.8689745e+01 3.1994216e+01
      endloop
   endfacet
   facet normal 0.0000000e+00 0.0000000e+00 1.0000000e+00
      outer loop
         vertex 6.9658720e+01 5.6126836e+01 3.1994216e+01
         vertex 6.5138005e+01 6.2018347e+01 3.1994216e+01
         vertex 6.7401298e+01 3.8689745e+01 3.1994216e+01
      endloop
   endfacet
   facet normal 0.0000000e+00 0.0000000e+00 1.0000000e+00
      outer loop
         vertex 6.7401298e+01 3.8689745e+01 3.1994216e+01
         vertex 6.5138005e+01 6.2018347e+01 3.1994216e+01
         vertex 4.5556656e+01 7.8379925e+01 3.1994216e+01
      endloop
   endfacet
   facet normal 0.0000000e+00 0.0000000e+00 1.0000000e+00
      outer loop
         vertex 1.3182822e+02 7.0985959e+01 3.1994216e+01
         vertex 1.1711463e+02 1.1034655e+02 3.1994216e+01
         vertex 1.1725103e+02 8.3604270e+01 3.1994216e+01
      endloop
   endfacet
   facet normal -0.0000000e+00 0.0000000e+00 1.0000000e+00
      outer loop
         vertex 7.2288188e+01 1.1691076e+02 3.1994216e+01
         vertex 4.5556656e+01 7.8379925e+01 3.1994216e+01
         vertex 6.5138005e+01 9.0465080e+01 3.1994216e+01
      endloop
   endfacet
   facet normal 0.0000000e+00 -0.0000000e+00 1.0000000e+00
      outer loop
         vertex 6.7401298e+01 3.8689745e+01 3.1994216e+01
         vertex 1.0942208e+02 3.8689745e+01 3.1994216e+01
         vertex 8.9773598e+01 4.7794981e+01 3.1994216e+01
      endloop
   endfacet
   facet normal -0.0000000e+00 -0.0000000e+00 1.0000000e+00
      outer loop
         vertex 8.9773598e+01 4.7794981e+01 3.1994216e+01
         vertex 1.0942208e+02 3.8689745e+01 3.1994216e+01
         vertex 9.7136154e+01 4.8764280e+01 3.1994216e+01
      endloop
   endfacet
   facet normal 0.0000000e+00 0.0000000e+00 1.0000000e+00
      outer loop
         vertex 4.5556656e+01 7.8379925e+01 3.1994216e+01
         vertex 6.2296164e+01 8.3604270e+01 3.1994216e+01
         vertex 6.5138005e+01 9.0465080e+01 3.1994216e+01
      endloop
   endfacet
   facet normal 0.0000000e+00 0.0000000e+00 1.0000000e+00
      outer loop
         vertex 1.1725103e+02 8.3604270e+01 3.1994216e+01
         vertex 1.1711463e+02 1.1034655e+02 3.1994216e+01
         vertex 1.1440919e+02 9.0465080e+01 3.1994216e+01
      endloop
   endfacet
   facet normal 8.6251898e-01 4.7471232e-01 1.7524046e-01
      outer loop
         vertex 4.5556656e+01 7.8379925e+01 3.1994216e+01
         vertex 1.1984785e+00 8.0524966e+01 2.4451073e+02
         vertex 6.7401298e+01 3.8689745e+01 3.1994216e+01
      endloop
   endfacet
   facet normal 8.6251898e-01 4.7471232e-01 1.7524046e-01
      outer loop
         vertex 1.1984785e+00 8.0524966e+01 2.4451073e+02
         vertex 4.4957536e+01 1.0178279e+00 2.4451073e+02
         vertex 6.7401298e+01 3.8689745e+01 3.1994216e+01
      endloop
   endfacet
   facet normal 0.0000000e+00 9.8464926e-01 1.7454467e-01
      outer loop
         vertex 1.0942208e+02 3.8689745e+01 3.1994216e+01
         vertex 6.7401298e+01 3.8689745e+01 3.1994216e+01
         vertex 1.2913332e+02 1.0178279e+00 2.4451073e+02
      endloop
   endfacet
   facet normal -0.0000000e+00 9.8464926e-01 1.7454467e-01
      outer loop
         vertex 6.7401298e+01 3.8689745e+01 3.1994216e+01
         vertex 4.4957536e+01 1.0178279e+00 2.4451073e+02
         vertex 1.2913332e+02 1.0178279e+00 2.4451073e+02
      endloop
   endfacet
   facet normal -8.0901874e-01 5.6127281e-01 1.7453225e-01
      outer loop
         vertex 1.3182822e+02 7.0985959e+01 3.1994216e+01
         vertex 1.0942208e+02 3.8689745e+01 3.1994216e+01
         vertex 1.7401717e+02 6.5713416e+01 2.4451073e+02
      endloop
   endfacet
   facet normal -8.0901874e-01 5.6127281e-01 1.7453225e-01
      outer loop
         vertex 1.0942208e+02 3.8689745e+01 3.1994216e+01
         vertex 1.2913332e+02 1.0178279e+00 2.4451073e+02
         vertex 1.7401717e+02 6.5713416e+01 2.4451073e+02
      endloop
   endfacet
   facet normal -9.2231459e-01 -3.4477519e-01 1.7454475e-01
      outer loop
         vertex 1.3182822e+02 7.0985959e+01 3.1994216e+01
         vertex 1.7401717e+02 6.5713416e+01 2.4451073e+02
         vertex 1.1711463e+02 1.1034655e+02 3.1994216e+01
      endloop
   endfacet
   facet normal -9.2231459e-01 -3.4477519e-01 1.7454475e-01
      outer loop
         vertex 1.7401717e+02 6.5713416e+01 2.4451073e+02
         vertex 1.4454300e+02 1.4456033e+02 2.4451073e+02
         vertex 1.1711463e+02 1.1034655e+02 3.1994216e+01
      endloop
   endfacet
   facet normal -1.4264871e-01 -9.7413659e-01 1.7524055e-01
      outer loop
         vertex 7.2288188e+01 1.1691076e+02 3.1994216e+01
         vertex 1.1711463e+02 1.1034655e+02 3.1994216e+01
         vertex 5.4746927e+01 1.5770971e+02 2.4451073e+02
      endloop
   endfacet
   facet normal -1.4264871e-01 -9.7413659e-01 1.7524055e-01
      outer loop
         vertex 1.1711463e+02 1.1034655e+02 3.1994216e+01
         vertex 1.4454300e+02 1.4456033e+02 2.4451073e+02
         vertex 5.4746927e+01 1.5770971e+02 2.4451073e+02
      endloop
   endfacet
   facet normal 8.0901903e-01 -5.6127301e-01 1.7453026e-01
      outer loop
         vertex 4.5556656e+01 7.8379925e+01 3.1994216e+01
         vertex 7.2288188e+01 1.1691076e+02 3.1994216e+01
         vertex 1.1984785e+00 8.0524966e+01 2.4451073e+02
      endloop
   endfacet
   facet normal 8.0901903e-01 -5.6127301e-01 1.7453026e-01
      outer loop
         vertex 7.2288188e+01 1.1691076e+02 3.1994216e+01
         vertex 5.4746927e+01 1.5770971e+02 2.4451073e+02
         vertex 1.1984785e+00 8.0524966e+01 2.4451073e+02
      endloop
   endfacet
   facet normal 9.9270887e-01 -1.2053668e-01 0.0000000e+00
      outer loop
         vertex 4.9969256e+01 8.6052603e+01 2.4451073e+02
         vertex 4.9969256e+01 8.6052603e+01 2.4594820e+02
         vertex 4.8777998e+01 7.6241714e+01 2.4451073e+02
      endloop
   endfacet
   facet normal 9.3501624e-01 -3.5460489e-01 0.0000000e+00
      outer loop
         vertex 4.9969256e+01 8.6052603e+01 2.4594820e+02
         vertex 4.9969256e+01 8.6052603e+01 2.4451073e+02
         vertex 5.3473797e+01 9.5293319e+01 2.4594820e+02
      endloop
   endfacet
   facet normal 8.2298387e-01 -5.6806475e-01 0.0000000e+00
      outer loop
         vertex 5.9087951e+01 1.0342683e+02 2.4451073e+02
         vertex 5.9087951e+01 1.0342683e+02 2.4594820e+02
         vertex 5.3473797e+01 9.5293319e+01 2.4451073e+02
      endloop
   endfacet
   facet normal 6.6312266e-01 -7.4851075e-01 0.0000000e+00
      outer loop
         vertex 5.9087951e+01 1.0342683e+02 2.4594820e+02
         vertex 5.9087951e+01 1.0342683e+02 2.4451073e+02
         vertex 6.6485443e+01 1.0998043e+02 2.4594820e+02
      endloop
   endfacet
   facet normal 4.6472317e-01 -8.8545603e-01 0.0000000e+00
      outer loop
         vertex 7.5236358e+01 1.1457327e+02 2.4451073e+02
         vertex 7.5236358e+01 1.1457327e+02 2.4594820e+02
         vertex 6.6485443e+01 1.0998043e+02 2.4451073e+02
      endloop
   endfacet
   facet normal 2.3931566e-01 -9.7094182e-01 0.0000000e+00
      outer loop
         vertex 7.5236358e+01 1.1457327e+02 2.4594820e+02
         vertex 7.5236358e+01 1.1457327e+02 2.4451073e+02
         vertex 8.4832124e+01 1.1693841e+02 2.4594820e+02
      endloop
   endfacet
   facet normal -0.0000000e+00 -1.0000000e+00 0.0000000e+00
      outer loop
         vertex 9.4715071e+01 1.1693841e+02 2.4451073e+02
         vertex 9.4715071e+01 1.1693841e+02 2.4594820e+02
         vertex 8.4832124e+01 1.1693841e+02 2.4451073e+02
      endloop
   endfacet
   facet normal -2.3931566e-01 -9.7094182e-01 -0.0000000e+00
      outer loop
         vertex 9.4715071e+01 1.1693841e+02 2.4594820e+02
         vertex 9.4715071e+01 1.1693841e+02 2.4451073e+02
         vertex 1.0431084e+02 1.1457327e+02 2.4594820e+02
      endloop
   endfacet
   facet normal -4.6472317e-01 -8.8545603e-01 0.0000000e+00
      outer loop
         vertex 1.1306175e+02 1.0998043e+02 2.4451073e+02
         vertex 1.1306175e+02 1.0998043e+02 2.4594820e+02
         vertex 1.0431084e+02 1.1457327e+02 2.4451073e+02
      endloop
   endfacet
   facet normal -6.6312266e-01 -7.4851075e-01 -0.0000000e+00
      outer loop
         vertex 1.1306175e+02 1.0998043e+02 2.4594820e+02
         vertex 1.1306175e+02 1.0998043e+02 2.4451073e+02
         vertex 1.2045925e+02 1.0342683e+02 2.4594820e+02
      endloop
   endfacet
   facet normal -8.2298387e-01 -5.6806475e-01 0.0000000e+00
      outer loop
         vertex 1.2607340e+02 9.5293319e+01 2.4451073e+02
         vertex 1.2607340e+02 9.5293319e+01 2.4594820e+02
         vertex 1.2045925e+02 1.0342683e+02 2.4451073e+02
      endloop
   endfacet
   facet normal -9.3501624e-01 -3.5460489e-01 -0.0000000e+00
      outer loop
         vertex 1.2607340e+02 9.5293319e+01 2.4594820e+02
         vertex 1.2607340e+02 9.5293319e+01 2.4451073e+02
         vertex 1.2957794e+02 8.6052603e+01 2.4594820e+02
      endloop
   endfacet
   facet normal -9.9270887e-01 -1.2053668e-01 0.0000000e+00
      outer loop
         vertex 1.3076920e+02 7.6241714e+01 2.4451073e+02
         vertex 1.3076920e+02 7.6241714e+01 2.4594820e+02
         vertex 1.2957794e+02 8.6052603e+01 2.4451073e+02
      endloop
   endfacet
   facet normal -9.9270887e-01 1.2053668e-01 0.0000000e+00
      outer loop
         vertex 1.3076920e+02 7.6241714e+01 2.4594820e+02
         vertex 1.3076920e+02 7.6241714e+01 2.4451073e+02
         vertex 1.2957794e+02 6.6430825e+01 2.4594820e+02
      endloop
   endfacet
   facet normal -9.3501624e-01 3.5460489e-01 0.0000000e+00
      outer loop
         vertex 1.2607340e+02 5.7190109e+01 2.4451073e+02
         vertex 1.2607340e+02 5.7190109e+01 2.4594820e+02
         vertex 1.2957794e+02 6.6430825e+01 2.4451073e+02
      endloop
   endfacet
   facet normal -8.2298387e-01 5.6806475e-01 0.0000000e+00
      outer loop
         vertex 1.2607340e+02 5.7190109e+01 2.4594820e+02
         vertex 1.2607340e+02 5.7190109e+01 2.4451073e+02
         vertex 1.2045925e+02 4.9056603e+01 2.4594820e+02
      endloop
   endfacet
   facet normal -6.6312266e-01 7.4851075e-01 0.0000000e+00
      outer loop
         vertex 1.1306175e+02 4.2502996e+01 2.4451073e+02
         vertex 1.1306175e+02 4.2502996e+01 2.4594820e+02
         vertex 1.2045925e+02 4.9056603e+01 2.4451073e+02
      endloop
   endfacet
   facet normal -4.6472317e-01 8.8545603e-01 0.0000000e+00
      outer loop
         vertex 1.1306175e+02 4.2502996e+01 2.4594820e+02
         vertex 1.1306175e+02 4.2502996e+01 2.4451073e+02
         vertex 1.0431084e+02 3.7910162e+01 2.4594820e+02
      endloop
   endfacet
   facet normal -2.3931566e-01 9.7094182e-01 0.0000000e+00
      outer loop
         vertex 9.4715071e+01 3.5545018e+01 2.4451073e+02
         vertex 9.4715071e+01 3.5545018e+01 2.4594820e+02
         vertex 1.0431084e+02 3.7910162e+01 2.4451073e+02
      endloop
   endfacet
   facet normal 0.0000000e+00 1.0000000e+00 0.0000000e+00
      outer loop
         vertex 9.4715071e+01 3.5545018e+01 2.4594820e+02
         vertex 9.4715071e+01 3.5545018e+01 2.4451073e+02
         vertex 8.4832124e+01 3.5545018e+01 2.4594820e+02
      endloop
   endfacet
   facet normal 2.3931566e-01 9.7094182e-01 -0.0000000e+00
      outer loop
         vertex 7.5236358e+01 3.7910162e+01 2.4451073e+02
         vertex 7.5236358e+01 3.7910162e+01 2.4594820e+02
         vertex 8.4832124e+01 3.5545018e+01 2.4451073e+02
      endloop
   endfacet
   facet normal 4.6472317e-01 8.8545603e-01 0.0000000e+00
      outer loop
         vertex 7.5236358e+01 3.7910162e+01 2.4594820e+02
         vertex 7.5236358e+01 3.7910162e+01 2.4451073e+02
         vertex 6.6485443e+01 4.2502996e+01 2.4594820e+02
      endloop
   endfacet
   facet normal 6.6312266e-01 7.4851075e-01 -0.0000000e+00
      outer loop
         vertex 5.9087951e+01 4.9056603e+01 2.4451073e+02
         vertex 5.9087951e+01 4.9056603e+01 2.4594820e+02
         vertex 6.6485443e+01 4.2502996e+01 2.4451073e+02
      endloop
   endfacet
   facet normal 8.2298387e-01 5.6806475e-01 0.0000000e+00
      outer loop
         vertex 5.9087951e+01 4.9056603e+01 2.4594820e+02
         vertex 5.9087951e+01 4.9056603e+01 2.4451073e+02
         vertex 5.3473797e+01 5.7190109e+01 2.4594820e+02
      endloop
   endfacet
   facet normal 9.3501624e-01 3.5460489e-01 -0.0000000e+00
      outer loop
         vertex 4.9969256e+01 6.6430825e+01 2.4451073e+02
         vertex 4.9969256e+01 6.6430825e+01 2.4594820e+02
         vertex 5.3473797e+01 5.7190109e+01 2.4451073e+02
      endloop
   endfacet
   facet normal 9.9270887e-01 1.2053668e-01 0.0000000e+00
      outer loop
         vertex 4.9969256e+01 6.6430825e+01 2.4594820e+02
         vertex 4.9969256e+01 6.6430825e+01 2.4451073e+02
         vertex 4.8777998e+01 7.6241714e+01 2.4594820e+02
      endloop
   endfacet
   facet normal 9.3501624e-01 3.5460489e-01 0.0000000e+00
      outer loop
         vertex 4.9969256e+01 6.6430825e+01 2.4594820e+02
         vertex 5.3473797e+01 5.7190109e+01 2.4594820e+02
         vertex 5.3473797e+01 5.7190109e+01 2.4451073e+02
      endloop
   endfacet
   facet normal 8.2298387e-01 5.6806475e-01 -0.0000000e+00
      outer loop
         vertex 5.3473797e+01 5.7190109e+01 2.4451073e+02
         vertex 5.3473797e+01 5.7190109e+01 2.4594820e+02
         vertex 5.9087951e+01 4.9056603e+01 2.4451073e+02
      endloop
   endfacet
   facet normal 6.6312266e-01 7.4851075e-01 0.0000000e+00
      outer loop
         vertex 5.9087951e+01 4.9056603e+01 2.4594820e+02
         vertex 6.6485443e+01 4.2502996e+01 2.4594820e+02
         vertex 6.6485443e+01 4.2502996e+01 2.4451073e+02
      endloop
   endfacet
   facet normal 4.6472317e-01 8.8545603e-01 -0.0000000e+00
      outer loop
         vertex 6.6485443e+01 4.2502996e+01 2.4451073e+02
         vertex 6.6485443e+01 4.2502996e+01 2.4594820e+02
         vertex 7.5236358e+01 3.7910162e+01 2.4451073e+02
      endloop
   endfacet
   facet normal 2.3931566e-01 9.7094182e-01 0.0000000e+00
      outer loop
         vertex 7.5236358e+01 3.7910162e+01 2.4594820e+02
         vertex 8.4832124e+01 3.5545018e+01 2.4594820e+02
         vertex 8.4832124e+01 3.5545018e+01 2.4451073e+02
      endloop
   endfacet
   facet normal -0.0000000e+00 1.0000000e+00 0.0000000e+00
      outer loop
         vertex 8.4832124e+01 3.5545018e+01 2.4451073e+02
         vertex 8.4832124e+01 3.5545018e+01 2.4594820e+02
         vertex 9.4715071e+01 3.5545018e+01 2.4451073e+02
      endloop
   endfacet
   facet normal -2.3931566e-01 9.7094182e-01 0.0000000e+00
      outer loop
         vertex 9.4715071e+01 3.5545018e+01 2.4594820e+02
         vertex 1.0431084e+02 3.7910162e+01 2.4594820e+02
         vertex 1.0431084e+02 3.7910162e+01 2.4451073e+02
      endloop
   endfacet
   facet normal -4.6472317e-01 8.8545603e-01 0.0000000e+00
      outer loop
         vertex 1.0431084e+02 3.7910162e+01 2.4451073e+02
         vertex 1.0431084e+02 3.7910162e+01 2.4594820e+02
         vertex 1.1306175e+02 4.2502996e+01 2.4451073e+02
      endloop
   endfacet
   facet normal -6.6312266e-01 7.4851075e-01 0.0000000e+00
      outer loop
         vertex 1.1306175e+02 4.2502996e+01 2.4594820e+02
         vertex 1.2045925e+02 4.9056603e+01 2.4594820e+02
         vertex 1.2045925e+02 4.9056603e+01 2.4451073e+02
      endloop
   endfacet
   facet normal -8.2298387e-01 5.6806475e-01 0.0000000e+00
      outer loop
         vertex 1.2045925e+02 4.9056603e+01 2.4451073e+02
         vertex 1.2045925e+02 4.9056603e+01 2.4594820e+02
         vertex 1.2607340e+02 5.7190109e+01 2.4451073e+02
      endloop
   endfacet
   facet normal -9.3501624e-01 3.5460489e-01 0.0000000e+00
      outer loop
         vertex 1.2607340e+02 5.7190109e+01 2.4594820e+02
         vertex 1.2957794e+02 6.6430825e+01 2.4594820e+02
         vertex 1.2957794e+02 6.6430825e+01 2.4451073e+02
      endloop
   endfacet
   facet normal -9.9270887e-01 1.2053668e-01 0.0000000e+00
      outer loop
         vertex 1.2957794e+02 6.6430825e+01 2.4451073e+02
         vertex 1.2957794e+02 6.6430825e+01 2.4594820e+02
         vertex 1.3076920e+02 7.6241714e+01 2.4451073e+02
      endloop
   endfacet
   facet normal -9.9270887e-01 -1.2053668e-01 -0.0000000e+00
      outer loop
         vertex 1.3076920e+02 7.6241714e+01 2.4594820e+02
         vertex 1.2957794e+02 8.6052603e+01 2.4594820e+02
         vertex 1.2957794e+02 8.6052603e+01 2.4451073e+02
      endloop
   endfacet
   facet normal -9.3501624e-01 -3.5460489e-01 0.0000000e+00
      outer loop
         vertex 1.2957794e+02 8.6052603e+01 2.4451073e+02
         vertex 1.2957794e+02 8.6052603e+01 2.4594820e+02
         vertex 1.2607340e+02 9.5293319e+01 2.4451073e+02
      endloop
   endfacet
   facet normal -8.2298387e-01 -5.6806475e-01 -0.0000000e+00
      outer loop
         vertex 1.2607340e+02 9.5293319e+01 2.4594820e+02
         vertex 1.2045925e+02 1.0342683e+02 2.4594820e+02
         vertex 1.2045925e+02 1.0342683e+02 2.4451073e+02
      endloop
   endfacet
   facet normal -6.6312266e-01 -7.4851075e-01 0.0000000e+00
      outer loop
         vertex 1.2045925e+02 1.0342683e+02 2.4451073e+02
         vertex 1.2045925e+02 1.0342683e+02 2.4594820e+02
         vertex 1.1306175e+02 1.0998043e+02 2.4451073e+02
      endloop
   endfacet
   facet normal -4.6472317e-01 -8.8545603e-01 -0.0000000e+00
      outer loop
         vertex 1.1306175e+02 1.0998043e+02 2.4594820e+02
         vertex 1.0431084e+02 1.1457327e+02 2.4594820e+02
         vertex 1.0431084e+02 1.1457327e+02 2.4451073e+02
      endloop
   endfacet
   facet normal -2.3931566e-01 -9.7094182e-01 0.0000000e+00
      outer loop
         vertex 1.0431084e+02 1.1457327e+02 2.4451073e+02
         vertex 1.0431084e+02 1.1457327e+02 2.4594820e+02
         vertex 9.4715071e+01 1.1693841e+02 2.4451073e+02
      endloop
   endfacet
   facet normal -0.0000000e+00 -1.0000000e+00 -0.0000000e+00
      outer loop
         vertex 9.4715071e+01 1.1693841e+02 2.4594820e+02
         vertex 8.4832124e+01 1.1693841e+02 2.4594820e+02
         vertex 8.4832124e+01 1.1693841e+02 2.4451073e+02
      endloop
   endfacet
   facet normal 2.3931566e-01 -9.7094182e-01 0.0000000e+00
      outer loop
         vertex 8.4832124e+01 1.1693841e+02 2.4451073e+02
         vertex 8.4832124e+01 1.1693841e+02 2.4594820e+02
         vertex 7.5236358e+01 1.1457327e+02 2.4451073e+02
      endloop
   endfacet
   facet normal 4.6472317e-01 -8.8545603e-01 0.0000000e+00
      outer loop
         vertex 7.5236358e+01 1.1457327e+02 2.4594820e+02
         vertex 6.6485443e+01 1.0998043e+02 2.4594820e+02
         vertex 6.6485443e+01 1.0998043e+02 2.4451073e+02
      endloop
   endfacet
   facet normal 6.6312266e-01 -7.4851075e-01 0.0000000e+00
      outer loop
         vertex 6.6485443e+01 1.0998043e+02 2.4451073e+02
         vertex 6.6485443e+01 1.0998043e+02 2.4594820e+02
         vertex 5.9087951e+01 1.0342683e+02 2.4451073e+02
      endloop
   endfacet
   facet normal 8.2298387e-01 -5.6806475e-01 0.0000000e+00
      outer loop
         vertex 5.9087951e+01 1.0342683e+02 2.4594820e+02
         vertex 5.3473797e+01 9.5293319e+01 2.4594820e+02
         vertex 5.3473797e+01 9.5293319e+01 2.4451073e+02
      endloop
   endfacet
   facet normal 9.3501624e-01 -3.5460489e-01 0.0000000e+00
      outer loop
         vertex 5.3473797e+01 9.5293319e+01 2.4451073e+02
         vertex 5.3473797e+01 9.5293319e+01 2.4594820e+02
         vertex 4.9969256e+01 8.6052603e+01 2.4451073e+02
      endloop
   endfacet
   facet normal 9.9270887e-01 -1.2053668e-01 0.0000000e+00
      outer loop
         vertex 4.9969256e+01 8.6052603e+01 2.4594820e+02
         vertex 4.8777998e+01 7.6241714e+01 2.4594820e+02
         vertex 4.8777998e+01 7.6241714e+01 2.4451073e+02
      endloop
   endfacet
   facet normal 9.9270887e-01 1.2053668e-01 -0.0000000e+00
      outer loop
         vertex 4.8777998e+01 7.6241714e+01 2.4451073e+02
         vertex 4.8777998e+01 7.6241714e+01 2.4594820e+02
         vertex 4.9969256e+01 6.6430825e+01 2.4451073e+02
      endloop
   endfacet
   facet normal 9.8310318e-01 1.2942799e-01 1.2944702e-01
      outer loop
         vertex 6.2296164e+01 6.8879158e+01 3.1994216e+01
         vertex 6.2479058e+01 6.8928164e+01 3.0556200e+01
         vertex 6.1326865e+01 7.6241714e+01 3.1994216e+01
      endloop
   endfacet
   facet normal 9.1610632e-01 3.7946366e-01 1.2944702e-01
      outer loop
         vertex 6.2479058e+01 6.8928164e+01 3.0556200e+01
         vertex 6.2296164e+01 6.8879158e+01 3.1994216e+01
         vertex 6.5301983e+01 6.2113021e+01 3.0556200e+01
      endloop
   endfacet
   facet normal 7.8667833e-01 6.0363952e-01 1.2944702e-01
      outer loop
         vertex 6.9658720e+01 5.6126836e+01 3.1994216e+01
         vertex 6.9792608e+01 5.6260724e+01 3.0556200e+01
         vertex 6.5138005e+01 6.2018347e+01 3.1994216e+01
      endloop
   endfacet
   facet normal 6.0363952e-01 7.8667833e-01 1.2944702e-01
      outer loop
         vertex 6.9792608e+01 5.6260724e+01 3.0556200e+01
         vertex 6.9658720e+01 5.6126836e+01 3.1994216e+01
         vertex 7.5644905e+01 5.1770099e+01 3.0556200e+01
      endloop
   endfacet
   facet normal 3.7946366e-01 9.1610632e-01 1.2944702e-01
      outer loop
         vertex 8.2411042e+01 4.8764280e+01 3.1994216e+01
         vertex 8.2460048e+01 4.8947174e+01 3.0556200e+01
         vertex 7.5550231e+01 5.1606121e+01 3.1994216e+01
      endloop
   endfacet
   facet normal 1.2942799e-01 9.8310318e-01 1.2944702e-01
      outer loop
         vertex 8.2460048e+01 4.8947174e+01 3.0556200e+01
         vertex 8.2411042e+01 4.8764280e+01 3.1994216e+01
         vertex 8.9773598e+01 4.7984327e+01 3.0556200e+01
      endloop
   endfacet
   facet normal -1.2942799e-01 9.8310318e-01 1.2944702e-01
      outer loop
         vertex 9.7136154e+01 4.8764280e+01 3.1994216e+01
         vertex 9.7087148e+01 4.8947174e+01 3.0556200e+01
         vertex 8.9773598e+01 4.7794981e+01 3.1994216e+01
      endloop
   endfacet
   facet normal -3.7946366e-01 9.1610632e-01 1.2944702e-01
      outer loop
         vertex 9.7087148e+01 4.8947174e+01 3.0556200e+01
         vertex 9.7136154e+01 4.8764280e+01 3.1994216e+01
         vertex 1.0390229e+02 5.1770099e+01 3.0556200e+01
      endloop
   endfacet
   facet normal -6.0363952e-01 7.8667833e-01 1.2944702e-01
      outer loop
         vertex 1.0988848e+02 5.6126836e+01 3.1994216e+01
         vertex 1.0975459e+02 5.6260724e+01 3.0556200e+01
         vertex 1.0399696e+02 5.1606121e+01 3.1994216e+01
      endloop
   endfacet
   facet normal -7.8667833e-01 6.0363952e-01 1.2944702e-01
      outer loop
         vertex 1.0975459e+02 5.6260724e+01 3.0556200e+01
         vertex 1.0988848e+02 5.6126836e+01 3.1994216e+01
         vertex 1.1424521e+02 6.2113021e+01 3.0556200e+01
      endloop
   endfacet
   facet normal -9.1610632e-01 3.7946366e-01 1.2944702e-01
      outer loop
         vertex 1.1725103e+02 6.8879158e+01 3.1994216e+01
         vertex 1.1706814e+02 6.8928164e+01 3.0556200e+01
         vertex 1.1440919e+02 6.2018347e+01 3.1994216e+01
      endloop
   endfacet
   facet normal -9.8310318e-01 1.2942799e-01 1.2944702e-01
      outer loop
         vertex 1.1706814e+02 6.8928164e+01 3.0556200e+01
         vertex 1.1725103e+02 6.8879158e+01 3.1994216e+01
         vertex 1.1803098e+02 7.6241714e+01 3.0556200e+01
      endloop
   endfacet
   facet normal -9.8310318e-01 -1.2942799e-01 1.2944702e-01
      outer loop
         vertex 1.1725103e+02 8.3604270e+01 3.1994216e+01
         vertex 1.1706814e+02 8.3555264e+01 3.0556200e+01
         vertex 1.1822033e+02 7.6241714e+01 3.1994216e+01
      endloop
   endfacet
   facet normal -9.1610632e-01 -3.7946366e-01 1.2944702e-01
      outer loop
         vertex 1.1706814e+02 8.3555264e+01 3.0556200e+01
         vertex 1.1725103e+02 8.3604270e+01 3.1994216e+01
         vertex 1.1424521e+02 9.0370407e+01 3.0556200e+01
      endloop
   endfacet
   facet normal -7.8667833e-01 -6.0363952e-01 1.2944702e-01
      outer loop
         vertex 1.0988848e+02 9.6356592e+01 3.1994216e+01
         vertex 1.0975459e+02 9.6222703e+01 3.0556200e+01
         vertex 1.1440919e+02 9.0465080e+01 3.1994216e+01
      endloop
   endfacet
   facet normal -6.0363952e-01 -7.8667833e-01 1.2944702e-01
      outer loop
         vertex 1.0975459e+02 9.6222703e+01 3.0556200e+01
         vertex 1.0988848e+02 9.6356592e+01 3.1994216e+01
         vertex 1.0390229e+02 1.0071333e+02 3.0556200e+01
      endloop
   endfacet
   facet normal -3.7946366e-01 -9.1610632e-01 1.2944702e-01
      outer loop
         vertex 9.7136154e+01 1.0371915e+02 3.1994216e+01
         vertex 9.7087148e+01 1.0353625e+02 3.0556200e+01
         vertex 1.0399696e+02 1.0087731e+02 3.1994216e+01
      endloop
   endfacet
   facet normal -1.2942799e-01 -9.8310318e-01 1.2944702e-01
      outer loop
         vertex 9.7087148e+01 1.0353625e+02 3.0556200e+01
         vertex 9.7136154e+01 1.0371915e+02 3.1994216e+01
         vertex 8.9773598e+01 1.0449910e+02 3.0556200e+01
      endloop
   endfacet
   facet normal 1.2942799e-01 -9.8310318e-01 1.2944702e-01
      outer loop
         vertex 8.2411042e+01 1.0371915e+02 3.1994216e+01
         vertex 8.2460048e+01 1.0353625e+02 3.0556200e+01
         vertex 8.9773598e+01 1.0468845e+02 3.1994216e+01
      endloop
   endfacet
   facet normal 3.7946366e-01 -9.1610632e-01 1.2944702e-01
      outer loop
         vertex 8.2460048e+01 1.0353625e+02 3.0556200e+01
         vertex 8.2411042e+01 1.0371915e+02 3.1994216e+01
         vertex 7.5644905e+01 1.0071333e+02 3.0556200e+01
      endloop
   endfacet
   facet normal 6.0363952e-01 -7.8667833e-01 1.2944702e-01
      outer loop
         vertex 6.9658720e+01 9.6356592e+01 3.1994216e+01
         vertex 6.9792608e+01 9.6222703e+01 3.0556200e+01
         vertex 7.5550231e+01 1.0087731e+02 3.1994216e+01
      endloop
   endfacet
   facet normal 7.8667833e-01 -6.0363952e-01 1.2944702e-01
      outer loop
         vertex 6.9792608e+01 9.6222703e+01 3.0556200e+01
         vertex 6.9658720e+01 9.6356592e+01 3.1994216e+01
         vertex 6.5301983e+01 9.0370407e+01 3.0556200e+01
      endloop
   endfacet
   facet normal 9.1610632e-01 -3.7946366e-01 1.2944702e-01
      outer loop
         vertex 6.2296164e+01 8.3604270e+01 3.1994216e+01
         vertex 6.2479058e+01 8.3555264e+01 3.0556200e+01
         vertex 6.5138005e+01 9.0465080e+01 3.1994216e+01
      endloop
   endfacet
   facet normal 9.8310318e-01 -1.2942799e-01 1.2944702e-01
      outer loop
         vertex 6.2479058e+01 8.3555264e+01 3.0556200e+01
         vertex 6.2296164e+01 8.3604270e+01 3.1994216e+01
         vertex 6.1516211e+01 7.6241714e+01 3.0556200e+01
      endloop
   endfacet
   facet normal 9.1610632e-01 -3.7946366e-01 1.2944702e-01
      outer loop
         vertex 6.2479058e+01 8.3555264e+01 3.0556200e+01
         vertex 6.5301983e+01 9.0370407e+01 3.0556200e+01
         vertex 6.5138005e+01 9.0465080e+01 3.1994216e+01
      endloop
   endfacet
   facet normal 7.8667833e-01 -6.0363952e-01 1.2944702e-01
      outer loop
         vertex 6.5138005e+01 9.0465080e+01 3.1994216e+01
         vertex 6.5301983e+01 9.0370407e+01 3.0556200e+01
         vertex 6.9658720e+01 9.6356592e+01 3.1994216e+01
      endloop
   endfacet
   facet normal 6.0363952e-01 -7.8667833e-01 1.2944702e-01
      outer loop
         vertex 6.9792608e+01 9.6222703e+01 3.0556200e+01
         vertex 7.5644905e+01 1.0071333e+02 3.0556200e+01
         vertex 7.5550231e+01 1.0087731e+02 3.1994216e+01
      endloop
   endfacet
   facet normal 3.7946366e-01 -9.1610632e-01 1.2944702e-01
      outer loop
         vertex 7.5550231e+01 1.0087731e+02 3.1994216e+01
         vertex 7.5644905e+01 1.0071333e+02 3.0556200e+01
         vertex 8.2411042e+01 1.0371915e+02 3.1994216e+01
      endloop
   endfacet
   facet normal 1.2942799e-01 -9.8310318e-01 1.2944702e-01
      outer loop
         vertex 8.2460048e+01 1.0353625e+02 3.0556200e+01
         vertex 8.9773598e+01 1.0449910e+02 3.0556200e+01
         vertex 8.9773598e+01 1.0468845e+02 3.1994216e+01
      endloop
   endfacet
   facet normal -1.2942799e-01 -9.8310318e-01 1.2944702e-01
      outer loop
         vertex 8.9773598e+01 1.0468845e+02 3.1994216e+01
         vertex 8.9773598e+01 1.0449910e+02 3.0556200e+01
         vertex 9.7136154e+01 1.0371915e+02 3.1994216e+01
      endloop
   endfacet
   facet normal -3.7946366e-01 -9.1610632e-01 1.2944702e-01
      outer loop
         vertex 9.7087148e+01 1.0353625e+02 3.0556200e+01
         vertex 1.0390229e+02 1.0071333e+02 3.0556200e+01
         vertex 1.0399696e+02 1.0087731e+02 3.1994216e+01
      endloop
   endfacet
   facet normal -6.0363952e-01 -7.8667833e-01 1.2944702e-01
      outer loop
         vertex 1.0399696e+02 1.0087731e+02 3.1994216e+01
         vertex 1.0390229e+02 1.0071333e+02 3.0556200e+01
         vertex 1.0988848e+02 9.6356592e+01 3.1994216e+01
      endloop
   endfacet
   facet normal -7.8667833e-01 -6.0363952e-01 1.2944702e-01
      outer loop
         vertex 1.0975459e+02 9.6222703e+01 3.0556200e+01
         vertex 1.1424521e+02 9.0370407e+01 3.0556200e+01
         vertex 1.1440919e+02 9.0465080e+01 3.1994216e+01
      endloop
   endfacet
   facet normal -9.1610632e-01 -3.7946366e-01 1.2944702e-01
      outer loop
         vertex 1.1440919e+02 9.0465080e+01 3.1994216e+01
         vertex 1.1424521e+02 9.0370407e+01 3.0556200e+01
         vertex 1.1725103e+02 8.3604270e+01 3.1994216e+01
      endloop
   endfacet
   facet normal -9.8310318e-01 -1.2942799e-01 1.2944702e-01
      outer loop
         vertex 1.1706814e+02 8.3555264e+01 3.0556200e+01
         vertex 1.1803098e+02 7.6241714e+01 3.0556200e+01
         vertex 1.1822033e+02 7.6241714e+01 3.1994216e+01
      endloop
   endfacet
   facet normal -9.8310318e-01 1.2942799e-01 1.2944702e-01
      outer loop
         vertex 1.1822033e+02 7.6241714e+01 3.1994216e+01
         vertex 1.1803098e+02 7.6241714e+01 3.0556200e+01
         vertex 1.1725103e+02 6.8879158e+01 3.1994216e+01
      endloop
   endfacet
   facet normal -9.1610632e-01 3.7946366e-01 1.2944702e-01
      outer loop
         vertex 1.1706814e+02 6.8928164e+01 3.0556200e+01
         vertex 1.1424521e+02 6.2113021e+01 3.0556200e+01
         vertex 1.1440919e+02 6.2018347e+01 3.1994216e+01
      endloop
   endfacet
   facet normal -7.8667833e-01 6.0363952e-01 1.2944702e-01
      outer loop
         vertex 1.1440919e+02 6.2018347e+01 3.1994216e+01
         vertex 1.1424521e+02 6.2113021e+01 3.0556200e+01
         vertex 1.0988848e+02 5.6126836e+01 3.1994216e+01
      endloop
   endfacet
   facet normal -6.0363952e-01 7.8667833e-01 1.2944702e-01
      outer loop
         vertex 1.0975459e+02 5.6260724e+01 3.0556200e+01
         vertex 1.0390229e+02 5.1770099e+01 3.0556200e+01
         vertex 1.0399696e+02 5.1606121e+01 3.1994216e+01
      endloop
   endfacet
   facet normal -3.7946366e-01 9.1610632e-01 1.2944702e-01
      outer loop
         vertex 1.0399696e+02 5.1606121e+01 3.1994216e+01
         vertex 1.0390229e+02 5.1770099e+01 3.0556200e+01
         vertex 9.7136154e+01 4.8764280e+01 3.1994216e+01
      endloop
   endfacet
   facet normal -1.2942799e-01 9.8310318e-01 1.2944702e-01
      outer loop
         vertex 9.7087148e+01 4.8947174e+01 3.0556200e+01
         vertex 8.9773598e+01 4.7984327e+01 3.0556200e+01
         vertex 8.9773598e+01 4.7794981e+01 3.1994216e+01
      endloop
   endfacet
   facet normal 1.2942799e-01 9.8310318e-01 1.2944702e-01
      outer loop
         vertex 8.9773598e+01 4.7794981e+01 3.1994216e+01
         vertex 8.9773598e+01 4.7984327e+01 3.0556200e+01
         vertex 8.2411042e+01 4.8764280e+01 3.1994216e+01
      endloop
   endfacet
   facet normal 3.7946366e-01 9.1610632e-01 1.2944702e-01
      outer loop
         vertex 8.2460048e+01 4.8947174e+01 3.0556200e+01
         vertex 7.5644905e+01 5.1770099e+01 3.0556200e+01
         vertex 7.5550231e+01 5.1606121e+01 3.1994216e+01
      endloop
   endfacet
   facet normal 6.0363952e-01 7.8667833e-01 1.2944702e-01
      outer loop
         vertex 7.5550231e+01 5.1606121e+01 3.1994216e+01
         vertex 7.5644905e+01 5.1770099e+01 3.0556200e+01
         vertex 6.9658720e+01 5.6126836e+01 3.1994216e+01
      endloop
   endfacet
   facet normal 7.8667833e-01 6.0363952e-01 1.2944702e-01
      outer loop
         vertex 6.9792608e+01 5.6260724e+01 3.0556200e+01
         vertex 6.5301983e+01 6.2113021e+01 3.0556200e+01
         vertex 6.5138005e+01 6.2018347e+01 3.1994216e+01
      endloop
   endfacet
   facet normal 9.1610632e-01 3.7946366e-01 1.2944702e-01
      outer loop
         vertex 6.5138005e+01 6.2018347e+01 3.1994216e+01
         vertex 6.5301983e+01 6.2113021e+01 3.0556200e+01
         vertex 6.2296164e+01 6.8879158e+01 3.1994216e+01
      endloop
   endfacet
   facet normal 9.8310318e-01 1.2942799e-01 1.2944702e-01
      outer loop
         vertex 6.2479058e+01 6.8928164e+01 3.0556200e+01
         vertex 6.1516211e+01 7.6241714e+01 3.0556200e+01
         vertex 6.1326865e+01 7.6241714e+01 3.1994216e+01
      endloop
   endfacet
   facet normal 9.8310318e-01 -1.2942799e-01 1.2944702e-01
      outer loop
         vertex 6.1326865e+01 7.6241714e+01 3.1994216e+01
         vertex 6.1516211e+01 7.6241714e+01 3.0556200e+01
         vertex 6.2296164e+01 8.3604270e+01 3.1994216e+01
      endloop
   endfacet
   facet normal 2.3561610e-15 2.8608974e-16 1.0000000e+00
      outer loop
         vertex 4.9969256e+01 6.6430825e+01 2.4594820e+02
         vertex 4.8777998e+01 7.6241714e+01 2.4594820e+02
         vertex 1.0000000e-06 8.0582921e+01 2.4594820e+02
      endloop
   endfacet
   facet normal 2.5489138e-15 9.6667550e-16 1.0000000e+00
      outer loop
         vertex 4.9969256e+01 6.6430825e+01 2.4594820e+02
         vertex 1.0000000e-06 8.0582921e+01 2.4594820e+02
         vertex 5.3473797e+01 5.7190109e+01 2.4594820e+02
      endloop
   endfacet
   facet normal 2.3057818e-15 -2.7997260e-16 1.0000000e+00
      outer loop
         vertex 4.8777998e+01 7.6241714e+01 2.4594820e+02
         vertex 4.9969256e+01 8.6052603e+01 2.4594820e+02
         vertex 1.0000000e-06 8.0582921e+01 2.4594820e+02
      endloop
   endfacet
   facet normal 2.3736742e-15 -9.0021590e-16 1.0000000e+00
      outer loop
         vertex 4.9969256e+01 8.6052603e+01 2.4594820e+02
         vertex 5.3473797e+01 9.5293319e+01 2.4594820e+02
         vertex 1.0000000e-06 8.0582921e+01 2.4594820e+02
      endloop
   endfacet
   facet normal 1.6884538e-15 -1.9058703e-15 1.0000000e+00
      outer loop
         vertex 6.6485443e+01 1.0998043e+02 2.4594820e+02
         vertex 5.4272993e+01 1.5881202e+02 2.4594820e+02
         vertex 5.9087951e+01 1.0342683e+02 2.4594820e+02
      endloop
   endfacet
   facet normal 1.0801264e-15 -2.0580089e-15 1.0000000e+00
      outer loop
         vertex 6.6485443e+01 1.0998043e+02 2.4594820e+02
         vertex 7.5236358e+01 1.1457327e+02 2.4594820e+02
         vertex 5.4272993e+01 1.5881202e+02 2.4594820e+02
      endloop
   endfacet
   facet normal 5.6716640e-16 -2.3010845e-15 1.0000000e+00
      outer loop
         vertex 7.5236358e+01 1.1457327e+02 2.4594820e+02
         vertex 8.4832124e+01 1.1693841e+02 2.4594820e+02
         vertex 5.4272993e+01 1.5881202e+02 2.4594820e+02
      endloop
   endfacet
   facet normal 0.0000000e+00 -2.7149994e-15 1.0000000e+00
      outer loop
         vertex 8.4832124e+01 1.1693841e+02 2.4594820e+02
         vertex 9.4715071e+01 1.1693841e+02 2.4594820e+02
         vertex 5.4272993e+01 1.5881202e+02 2.4594820e+02
      endloop
   endfacet
   facet normal -4.6306499e-16 -3.1622336e-15 1.0000000e+00
      outer loop
         vertex 5.4272993e+01 1.5881202e+02 2.4594820e+02
         vertex 9.4715071e+01 1.1693841e+02 2.4594820e+02
         vertex 1.4528406e+02 1.4548472e+02 2.4594820e+02
      endloop
   endfacet
   facet normal -6.8327193e-16 -2.7721432e-15 1.0000000e+00
      outer loop
         vertex 9.4715071e+01 1.1693841e+02 2.4594820e+02
         vertex 1.0431084e+02 1.1457327e+02 2.4594820e+02
         vertex 1.4528406e+02 1.4548472e+02 2.4594820e+02
      endloop
   endfacet
   facet normal -1.1383473e-15 -2.1689396e-15 1.0000000e+00
      outer loop
         vertex 1.0431084e+02 1.1457327e+02 2.4594820e+02
         vertex 1.1306175e+02 1.0998043e+02 2.4594820e+02
         vertex 1.4528406e+02 1.4548472e+02 2.4594820e+02
      endloop
   endfacet
   facet normal -1.5724676e-15 -1.7749490e-15 1.0000000e+00
      outer loop
         vertex 1.1306175e+02 1.0998043e+02 2.4594820e+02
         vertex 1.2045925e+02 1.0342683e+02 2.4594820e+02
         vertex 1.4528406e+02 1.4548472e+02 2.4594820e+02
      endloop
   endfacet
   facet normal -3.0066788e-15 -1.1402829e-15 1.0000000e+00
      outer loop
         vertex 1.2957794e+02 8.6052603e+01 2.4594820e+02
         vertex 1.7515704e+02 6.5570962e+01 2.4594820e+02
         vertex 1.2607340e+02 9.5293319e+01 2.4594820e+02
      endloop
   endfacet
   facet normal -2.6382247e-15 -3.2033847e-16 1.0000000e+00
      outer loop
         vertex 1.2957794e+02 8.6052603e+01 2.4594820e+02
         vertex 1.3076920e+02 7.6241714e+01 2.4594820e+02
         vertex 1.7515704e+02 6.5570962e+01 2.4594820e+02
      endloop
   endfacet
   facet normal -2.4885753e-15 3.0216775e-16 1.0000000e+00
      outer loop
         vertex 1.3076920e+02 7.6241714e+01 2.4594820e+02
         vertex 1.2957794e+02 6.6430825e+01 2.4594820e+02
         vertex 1.7515704e+02 6.5570962e+01 2.4594820e+02
      endloop
   endfacet
   facet normal -2.4765569e-15 9.3923414e-16 1.0000000e+00
      outer loop
         vertex 1.2957794e+02 6.6430825e+01 2.4594820e+02
         vertex 1.2607340e+02 5.7190109e+01 2.4594820e+02
         vertex 1.7515704e+02 6.5570962e+01 2.4594820e+02
      endloop
   endfacet
   facet normal -2.6256377e-15 1.8123469e-15 1.0000000e+00
      outer loop
         vertex 1.2607340e+02 5.7190109e+01 2.4594820e+02
         vertex 1.2045925e+02 4.9056603e+01 2.4594820e+02
         vertex 1.7515704e+02 6.5570962e+01 2.4594820e+02
      endloop
   endfacet
   facet normal -2.6291672e-15 1.8240369e-15 1.0000000e+00
      outer loop
         vertex 1.7515704e+02 6.5570962e+01 2.4594820e+02
         vertex 1.2045925e+02 4.9056603e+01 2.4594820e+02
         vertex 1.2966588e+02 1.0000000e-06 2.4594820e+02
      endloop
   endfacet
   facet normal -1.7604007e-15 1.9870816e-15 1.0000000e+00
      outer loop
         vertex 1.2045925e+02 4.9056603e+01 2.4594820e+02
         vertex 1.1306175e+02 4.2502996e+01 2.4594820e+02
         vertex 1.2966588e+02 1.0000000e-06 2.4594820e+02
      endloop
   endfacet
   facet normal -1.1649815e-15 2.2196868e-15 1.0000000e+00
      outer loop
         vertex 1.1306175e+02 4.2502996e+01 2.4594820e+02
         vertex 1.0431084e+02 3.7910162e+01 2.4594820e+02
         vertex 1.2966588e+02 1.0000000e-06 2.4594820e+02
      endloop
   endfacet
   facet normal -6.3454555e-16 2.5744525e-15 1.0000000e+00
      outer loop
         vertex 1.0431084e+02 3.7910162e+01 2.4594820e+02
         vertex 9.4715071e+01 3.5545018e+01 2.4594820e+02
         vertex 1.2966588e+02 1.0000000e-06 2.4594820e+02
      endloop
   endfacet
   facet normal 6.1554565e-16 2.4973669e-15 1.0000000e+00
      outer loop
         vertex 7.5236358e+01 3.7910162e+01 2.4594820e+02
         vertex 4.4351146e+01 1.0000000e-06 2.4594820e+02
         vertex 8.4832124e+01 3.5545018e+01 2.4594820e+02
      endloop
   endfacet
   facet normal 1.1025035e-15 2.1006449e-15 1.0000000e+00
      outer loop
         vertex 7.5236358e+01 3.7910162e+01 2.4594820e+02
         vertex 6.6485443e+01 4.2502996e+01 2.4594820e+02
         vertex 4.4351146e+01 1.0000000e-06 2.4594820e+02
      endloop
   endfacet
   facet normal 1.6215435e-15 1.8303442e-15 1.0000000e+00
      outer loop
         vertex 6.6485443e+01 4.2502996e+01 2.4594820e+02
         vertex 5.9087951e+01 4.9056603e+01 2.4594820e+02
         vertex 4.4351146e+01 1.0000000e-06 2.4594820e+02
      endloop
   endfacet
   facet normal 2.3393253e-15 1.6147197e-15 1.0000000e+00
      outer loop
         vertex 5.9087951e+01 4.9056603e+01 2.4594820e+02
         vertex 5.3473797e+01 5.7190109e+01 2.4594820e+02
         vertex 4.4351146e+01 1.0000000e-06 2.4594820e+02
      endloop
   endfacet
   facet normal 2.8002454e-15 1.5411962e-15 1.0000000e+00
      outer loop
         vertex 4.4351146e+01 1.0000000e-06 2.4594820e+02
         vertex 5.3473797e+01 5.7190109e+01 2.4594820e+02
         vertex 1.0000000e-06 8.0582921e+01 2.4594820e+02
      endloop
   endfacet
   facet normal -0.0000000e+00 3.1983903e-15 1.0000000e+00
      outer loop
         vertex 4.4351146e+01 1.0000000e-06 2.4594820e+02
         vertex 1.2966588e+02 1.0000000e-06 2.4594820e+02
         vertex 8.4832124e+01 3.5545018e+01 2.4594820e+02
      endloop
   endfacet
   facet normal -2.9938886e-15 -1.1191610e-15 1.0000000e+00
      outer loop
         vertex 1.7515704e+02 6.5570962e+01 2.4594820e+02
         vertex 1.4528406e+02 1.4548472e+02 2.4594820e+02
         vertex 1.2607340e+02 9.5293319e+01 2.4594820e+02
      endloop
   endfacet
   facet normal 2.6292334e-15 -1.8240829e-15 1.0000000e+00
      outer loop
         vertex 5.4272993e+01 1.5881202e+02 2.4594820e+02
         vertex 1.0000000e-06 8.0582921e+01 2.4594820e+02
         vertex 5.9087951e+01 1.0342683e+02 2.4594820e+02
      endloop
   endfacet
   facet normal 2.6243534e-15 -1.8114604e-15 1.0000000e+00
      outer loop
         vertex 5.9087951e+01 1.0342683e+02 2.4594820e+02
         vertex 1.0000000e-06 8.0582921e+01 2.4594820e+02
         vertex 5.3473797e+01 9.5293319e+01 2.4594820e+02
      endloop
   endfacet
   facet normal -2.1109690e-15 -1.4570967e-15 1.0000000e+00
      outer loop
         vertex 1.4528406e+02 1.4548472e+02 2.4594820e+02
         vertex 1.2045925e+02 1.0342683e+02 2.4594820e+02
         vertex 1.2607340e+02 9.5293319e+01 2.4594820e+02
      endloop
   endfacet
   facet normal 0.0000000e+00 3.1983903e-15 1.0000000e+00
      outer loop
         vertex 1.2966588e+02 1.0000000e-06 2.4594820e+02
         vertex 9.4715071e+01 3.5545018e+01 2.4594820e+02
         vertex 8.4832124e+01 3.5545018e+01 2.4594820e+02
      endloop
   endfacet
   facet normal -0.0000000e+00 0.0000000e+00 -1.0000000e+00
      outer loop
         vertex 6.2479058e+01 8.3555264e+01 3.0556200e+01
         vertex 6.1516211e+01 7.6241714e+01 3.0556200e+01
         vertex 4.4958373e+01 7.8408856e+01 3.0556200e+01
      endloop
   endfacet
   facet normal -0.0000000e+00 0.0000000e+00 -1.0000000e+00
      outer loop
         vertex 6.2479058e+01 8.3555264e+01 3.0556200e+01
         vertex 4.4958373e+01 7.8408856e+01 3.0556200e+01
         vertex 6.5301983e+01 9.0370407e+01 3.0556200e+01
      endloop
   endfacet
   facet normal -0.0000000e+00 -0.0000000e+00 -1.0000000e+00
      outer loop
         vertex 6.1516211e+01 7.6241714e+01 3.0556200e+01
         vertex 6.2479058e+01 6.8928164e+01 3.0556200e+01
         vertex 4.4958373e+01 7.8408856e+01 3.0556200e+01
      endloop
   endfacet
   facet normal -0.0000000e+00 0.0000000e+00 -1.0000000e+00
      outer loop
         vertex 6.9792608e+01 5.6260724e+01 3.0556200e+01
         vertex 6.7098586e+01 3.8181643e+01 3.0556200e+01
         vertex 6.5301983e+01 6.2113021e+01 3.0556200e+01
      endloop
   endfacet
   facet normal 0.0000000e+00 -0.0000000e+00 -1.0000000e+00
      outer loop
         vertex 6.9792608e+01 5.6260724e+01 3.0556200e+01
         vertex 7.5644905e+01 5.1770099e+01 3.0556200e+01
         vertex 6.7098586e+01 3.8181643e+01 3.0556200e+01
      endloop
   endfacet
   facet normal 0.0000000e+00 -0.0000000e+00 -1.0000000e+00
      outer loop
         vertex 7.5644905e+01 5.1770099e+01 3.0556200e+01
         vertex 8.2460048e+01 4.8947174e+01 3.0556200e+01
         vertex 6.7098586e+01 3.8181643e+01 3.0556200e+01
      endloop
   endfacet
   facet normal 0.0000000e+00 -0.0000000e+00 -1.0000000e+00
      outer loop
         vertex 8.2460048e+01 4.8947174e+01 3.0556200e+01
         vertex 8.9773598e+01 4.7984327e+01 3.0556200e+01
         vertex 6.7098586e+01 3.8181643e+01 3.0556200e+01
      endloop
   endfacet
   facet normal 0.0000000e+00 0.0000000e+00 -1.0000000e+00
      outer loop
         vertex 6.7098586e+01 3.8181643e+01 3.0556200e+01
         vertex 8.9773598e+01 4.7984327e+01 3.0556200e+01
         vertex 1.0968793e+02 3.8181643e+01 3.0556200e+01
      endloop
   endfacet
   facet normal 0.0000000e+00 0.0000000e+00 -1.0000000e+00
      outer loop
         vertex 8.9773598e+01 4.7984327e+01 3.0556200e+01
         vertex 9.7087148e+01 4.8947174e+01 3.0556200e+01
         vertex 1.0968793e+02 3.8181643e+01 3.0556200e+01
      endloop
   endfacet
   facet normal 0.0000000e+00 0.0000000e+00 -1.0000000e+00
      outer loop
         vertex 9.7087148e+01 4.8947174e+01 3.0556200e+01
         vertex 1.0390229e+02 5.1770099e+01 3.0556200e+01
         vertex 1.0968793e+02 3.8181643e+01 3.0556200e+01
      endloop
   endfacet
   facet normal 0.0000000e+00 -0.0000000e+00 -1.0000000e+00
      outer loop
         vertex 1.0390229e+02 5.1770099e+01 3.0556200e+01
         vertex 1.0975459e+02 5.6260724e+01 3.0556200e+01
         vertex 1.0968793e+02 3.8181643e+01 3.0556200e+01
      endloop
   endfacet
   facet normal 0.0000000e+00 -0.0000000e+00 -1.0000000e+00
      outer loop
         vertex 1.1706814e+02 6.8928164e+01 3.0556200e+01
         vertex 1.3239724e+02 7.0914845e+01 3.0556200e+01
         vertex 1.1424521e+02 6.2113021e+01 3.0556200e+01
      endloop
   endfacet
   facet normal 0.0000000e+00 0.0000000e+00 -1.0000000e+00
      outer loop
         vertex 1.1706814e+02 6.8928164e+01 3.0556200e+01
         vertex 1.1803098e+02 7.6241714e+01 3.0556200e+01
         vertex 1.3239724e+02 7.0914845e+01 3.0556200e+01
      endloop
   endfacet
   facet normal 0.0000000e+00 0.0000000e+00 -1.0000000e+00
      outer loop
         vertex 1.1803098e+02 7.6241714e+01 3.0556200e+01
         vertex 1.1706814e+02 8.3555264e+01 3.0556200e+01
         vertex 1.3239724e+02 7.0914845e+01 3.0556200e+01
      endloop
   endfacet
   facet normal 0.0000000e+00 0.0000000e+00 -1.0000000e+00
      outer loop
         vertex 1.3239724e+02 7.0914845e+01 3.0556200e+01
         vertex 1.1706814e+02 8.3555264e+01 3.0556200e+01
         vertex 1.1748457e+02 1.1080801e+02 3.0556200e+01
      endloop
   endfacet
   facet normal 0.0000000e+00 0.0000000e+00 -1.0000000e+00
      outer loop
         vertex 1.1706814e+02 8.3555264e+01 3.0556200e+01
         vertex 1.1424521e+02 9.0370407e+01 3.0556200e+01
         vertex 1.1748457e+02 1.1080801e+02 3.0556200e+01
      endloop
   endfacet
   facet normal 0.0000000e+00 0.0000000e+00 -1.0000000e+00
      outer loop
         vertex 1.1424521e+02 9.0370407e+01 3.0556200e+01
         vertex 1.0975459e+02 9.6222703e+01 3.0556200e+01
         vertex 1.1748457e+02 1.1080801e+02 3.0556200e+01
      endloop
   endfacet
   facet normal 0.0000000e+00 0.0000000e+00 -1.0000000e+00
      outer loop
         vertex 1.0975459e+02 9.6222703e+01 3.0556200e+01
         vertex 1.0390229e+02 1.0071333e+02 3.0556200e+01
         vertex 1.1748457e+02 1.1080801e+02 3.0556200e+01
      endloop
   endfacet
   facet normal 0.0000000e+00 0.0000000e+00 -1.0000000e+00
      outer loop
         vertex 8.9773598e+01 1.0449910e+02 3.0556200e+01
         vertex 7.2051599e+01 1.1746104e+02 3.0556200e+01
         vertex 9.7087148e+01 1.0353625e+02 3.0556200e+01
      endloop
   endfacet
   facet normal -0.0000000e+00 0.0000000e+00 -1.0000000e+00
      outer loop
         vertex 8.9773598e+01 1.0449910e+02 3.0556200e+01
         vertex 8.2460048e+01 1.0353625e+02 3.0556200e+01
         vertex 7.2051599e+01 1.1746104e+02 3.0556200e+01
      endloop
   endfacet
   facet normal -0.0000000e+00 0.0000000e+00 -1.0000000e+00
      outer loop
         vertex 8.2460048e+01 1.0353625e+02 3.0556200e+01
         vertex 7.5644905e+01 1.0071333e+02 3.0556200e+01
         vertex 7.2051599e+01 1.1746104e+02 3.0556200e+01
      endloop
   endfacet
   facet normal -0.0000000e+00 0.0000000e+00 -1.0000000e+00
      outer loop
         vertex 7.5644905e+01 1.0071333e+02 3.0556200e+01
         vertex 6.9792608e+01 9.6222703e+01 3.0556200e+01
         vertex 7.2051599e+01 1.1746104e+02 3.0556200e+01
      endloop
   endfacet
   facet normal -0.0000000e+00 0.0000000e+00 -1.0000000e+00
      outer loop
         vertex 6.9792608e+01 9.6222703e+01 3.0556200e+01
         vertex 6.5301983e+01 9.0370407e+01 3.0556200e+01
         vertex 7.2051599e+01 1.1746104e+02 3.0556200e+01
      endloop
   endfacet
   facet normal 0.0000000e+00 0.0000000e+00 -1.0000000e+00
      outer loop
         vertex 7.2051599e+01 1.1746104e+02 3.0556200e+01
         vertex 6.5301983e+01 9.0370407e+01 3.0556200e+01
         vertex 4.4958373e+01 7.8408856e+01 3.0556200e+01
      endloop
   endfacet
   facet normal -0.0000000e+00 0.0000000e+00 -1.0000000e+00
      outer loop
         vertex 1.3239724e+02 7.0914845e+01 3.0556200e+01
         vertex 1.0968793e+02 3.8181643e+01 3.0556200e+01
         vertex 1.1424521e+02 6.2113021e+01 3.0556200e+01
      endloop
   endfacet
   facet normal 0.0000000e+00 0.0000000e+00 -1.0000000e+00
      outer loop
         vertex 6.7098586e+01 3.8181643e+01 3.0556200e+01
         vertex 4.4958373e+01 7.8408856e+01 3.0556200e+01
         vertex 6.5301983e+01 6.2113021e+01 3.0556200e+01
      endloop
   endfacet
   facet normal 0.0000000e+00 -0.0000000e+00 -1.0000000e+00
      outer loop
         vertex 7.2051599e+01 1.1746104e+02 3.0556200e+01
         vertex 1.1748457e+02 1.1080801e+02 3.0556200e+01
         vertex 9.7087148e+01 1.0353625e+02 3.0556200e+01
      endloop
   endfacet
   facet normal 0.0000000e+00 0.0000000e+00 -1.0000000e+00
      outer loop
         vertex 6.5301983e+01 6.2113021e+01 3.0556200e+01
         vertex 4.4958373e+01 7.8408856e+01 3.0556200e+01
         vertex 6.2479058e+01 6.8928164e+01 3.0556200e+01
      endloop
   endfacet
   facet normal 0.0000000e+00 0.0000000e+00 -1.0000000e+00
      outer loop
         vertex 1.0968793e+02 3.8181643e+01 3.0556200e+01
         vertex 1.0975459e+02 5.6260724e+01 3.0556200e+01
         vertex 1.1424521e+02 6.2113021e+01 3.0556200e+01
      endloop
   endfacet
   facet normal -0.0000000e+00 0.0000000e+00 -1.0000000e+00
      outer loop
         vertex 1.1748457e+02 1.1080801e+02 3.0556200e+01
         vertex 1.0390229e+02 1.0071333e+02 3.0556200e+01
         vertex 9.7087148e+01 1.0353625e+02 3.0556200e+01
      endloop
   endfacet
   facet normal -8.6251898e-01 -4.7471232e-01 -1.7524046e-01
      outer loop
         vertex 4.4958373e+01 7.8408856e+01 3.0556200e+01
         vertex 6.7098586e+01 3.8181643e+01 3.0556200e+01
         vertex 1.0000000e-06 8.0582921e+01 2.4594820e+02
      endloop
   endfacet
   facet normal -8.6251898e-01 -4.7471232e-01 -1.7524046e-01
      outer loop
         vertex 6.7098586e+01 3.8181643e+01 3.0556200e+01
         vertex 4.4351146e+01 1.0000000e-06 2.4594820e+02
         vertex 1.0000000e-06 8.0582921e+01 2.4594820e+02
      endloop
   endfacet
   facet normal 0.0000000e+00 -9.8464926e-01 -1.7454467e-01
      outer loop
         vertex 1.0968793e+02 3.8181643e+01 3.0556200e+01
         vertex 1.2966588e+02 1.0000000e-06 2.4594820e+02
         vertex 6.7098586e+01 3.8181643e+01 3.0556200e+01
      endloop
   endfacet
   facet normal -0.0000000e+00 -9.8464926e-01 -1.7454467e-01
      outer loop
         vertex 1.2966588e+02 1.0000000e-06 2.4594820e+02
         vertex 4.4351146e+01 1.0000000e-06 2.4594820e+02
         vertex 6.7098586e+01 3.8181643e+01 3.0556200e+01
      endloop
   endfacet
   facet normal 8.0901874e-01 -5.6127281e-01 -1.7453225e-01
      outer loop
         vertex 1.3239724e+02 7.0914845e+01 3.0556200e+01
         vertex 1.7515704e+02 6.5570962e+01 2.4594820e+02
         vertex 1.0968793e+02 3.8181643e+01 3.0556200e+01
      endloop
   endfacet
   facet normal 8.0901874e-01 -5.6127281e-01 -1.7453225e-01
      outer loop
         vertex 1.7515704e+02 6.5570962e+01 2.4594820e+02
         vertex 1.2966588e+02 1.0000000e-06 2.4594820e+02
         vertex 1.0968793e+02 3.8181643e+01 3.0556200e+01
      endloop
   endfacet
   facet normal 9.2231459e-01 3.4477519e-01 -1.7454475e-01
      outer loop
         vertex 1.3239724e+02 7.0914845e+01 3.0556200e+01
         vertex 1.1748457e+02 1.1080801e+02 3.0556200e+01
         vertex 1.7515704e+02 6.5570962e+01 2.4594820e+02
      endloop
   endfacet
   facet normal 9.2231459e-01 3.4477519e-01 -1.7454475e-01
      outer loop
         vertex 1.1748457e+02 1.1080801e+02 3.0556200e+01
         vertex 1.4528406e+02 1.4548472e+02 2.4594820e+02
         vertex 1.7515704e+02 6.5570962e+01 2.4594820e+02
      endloop
   endfacet
   facet normal 1.4264871e-01 9.7413659e-01 -1.7524055e-01
      outer loop
         vertex 7.2051599e+01 1.1746104e+02 3.0556200e+01
         vertex 5.4272993e+01 1.5881202e+02 2.4594820e+02
         vertex 1.1748457e+02 1.1080801e+02 3.0556200e+01
      endloop
   endfacet
   facet normal 1.4264871e-01 9.7413659e-01 -1.7524055e-01
      outer loop
         vertex 5.4272993e+01 1.5881202e+02 2.4594820e+02
         vertex 1.4528406e+02 1.4548472e+02 2.4594820e+02
         vertex 1.1748457e+02 1.1080801e+02 3.0556200e+01
      endloop
   endfacet
   facet normal -8.0901903e-01 5.6127301e-01 -1.7453026e-01
      outer loop
         vertex 4.4958373e+01 7.8408856e+01 3.0556200e+01
         vertex 1.0000000e-06 8.0582921e+01 2.4594820e+02
         vertex 7.2051599e+01 1.1746104e+02 3.0556200e+01
      endloop
   endfacet
   facet normal -8.0901903e-01 5.6127301e-01 -1.7453026e-01
      outer loop
         vertex 1.0000000e-06 8.0582921e+01 2.4594820e+02
         vertex 5.4272993e+01 1.5881202e+02 2.4594820e+02
         vertex 7.2051599e+01 1.1746104e+02 3.0556200e+01
      endloop
   endfacet
endsolid AutoCAD
