solid AutoCAD
   facet normal 9.9706580e-01 -7.6549253e-02 0.0000000e+00
      outer loop
         vertex 7.1578096e+01 3.0504627e+01 4.0000001e+01
         vertex 7.2000001e+01 3.6000001e+01 1.0000000e-06
         vertex 7.2000001e+01 3.6000001e+01 4.0000001e+01
      endloop
   endfacet
   facet normal 9.9706580e-01 -7.6549253e-02 -2.0396818e-17
      outer loop
         vertex 7.2000001e+01 3.6000001e+01 1.0000000e-06
         vertex 7.1578096e+01 3.0504627e+01 4.0000001e+01
         vertex 7.1578096e+01 3.0504627e+01 1.0000000e-06
      endloop
   endfacet
   facet normal 9.2750245e-01 -3.7381707e-01 0.0000000e+00
      outer loop
         vertex 6.8261961e+01 2.0026087e+01 4.0000001e+01
         vertex 7.0322271e+01 2.5138059e+01 1.0000000e-06
         vertex 7.0322271e+01 2.5138059e+01 4.0000001e+01
      endloop
   endfacet
   facet normal 9.2750245e-01 -3.7381707e-01 1.3030531e-16
      outer loop
         vertex 7.0322271e+01 2.5138059e+01 1.0000000e-06
         vertex 6.8261961e+01 2.0026087e+01 4.0000001e+01
         vertex 6.8261961e+01 2.0026087e+01 1.0000000e-06
      endloop
   endfacet
   facet normal 7.7148918e-01 -6.3624244e-01 -1.1301936e-16
      outer loop
         vertex 6.1938778e+01 1.1036431e+01 4.0000001e+01
         vertex 6.5445458e+01 1.5288529e+01 1.0000000e-06
         vertex 6.5445458e+01 1.5288529e+01 4.0000001e+01
      endloop
   endfacet
   facet normal 7.7148918e-01 -6.3624244e-01 5.6509681e-17
      outer loop
         vertex 6.5445458e+01 1.5288529e+01 1.0000000e-06
         vertex 6.1938778e+01 1.1036431e+01 4.0000001e+01
         vertex 6.1938778e+01 1.1036431e+01 1.0000000e-06
      endloop
   endfacet
   facet normal 5.4356755e-01 -8.3936543e-01 -5.2544258e-17
      outer loop
         vertex 5.3197914e+01 4.3735600e+00 4.0000001e+01
         vertex 5.7824116e+01 7.3694576e+00 1.0000000e-06
         vertex 5.7824116e+01 7.3694576e+00 4.0000001e+01
      endloop
   endfacet
   facet normal 5.4356755e-01 -8.3936543e-01 -7.4550626e-17
      outer loop
         vertex 5.7824116e+01 7.3694576e+00 1.0000000e-06
         vertex 5.3197914e+01 4.3735600e+00 4.0000001e+01
         vertex 5.3197914e+01 4.3735600e+00 1.0000000e-06
      endloop
   endfacet
   facet normal 2.6498150e-01 -9.6425350e-01 -3.0075318e-17
      outer loop
         vertex 4.2854081e+01 6.5850148e-01 4.0000001e+01
         vertex 4.8168609e+01 2.1189593e+00 1.0000000e-06
         vertex 4.8168609e+01 2.1189593e+00 4.0000001e+01
      endloop
   endfacet
   facet normal 2.6498150e-01 -9.6425350e-01 4.7070170e-17
      outer loop
         vertex 4.8168609e+01 2.1189593e+00 1.0000000e-06
         vertex 4.2854081e+01 6.5850148e-01 4.0000001e+01
         vertex 4.2854081e+01 6.5850148e-01 1.0000000e-06
      endloop
   endfacet
   facet normal -3.8302734e-02 -9.9926618e-01 0.0000000e+00
      outer loop
         vertex 3.1871398e+01 2.3752577e-01 4.0000001e+01
         vertex 3.7378899e+01 2.6418482e-02 1.0000000e-06
         vertex 3.7378899e+01 2.6418482e-02 4.0000001e+01
      endloop
   endfacet
   facet normal -3.8302734e-02 -9.9926618e-01 -2.3813763e-17
      outer loop
         vertex 3.7378899e+01 2.6418482e-02 1.0000000e-06
         vertex 3.1871398e+01 2.3752577e-01 4.0000001e+01
         vertex 3.1871398e+01 2.3752577e-01 1.0000000e-06
      endloop
   endfacet
   facet normal -3.3801688e-01 -9.4114005e-01 -6.0043859e-17
      outer loop
         vertex 2.1273530e+01 3.1498708e+00 4.0000001e+01
         vertex 2.6460667e+01 1.2868752e+00 1.0000000e-06
         vertex 2.6460667e+01 1.2868752e+00 4.0000001e+01
      endloop
   endfacet
   facet normal -3.3801688e-01 -9.4114005e-01 1.2420660e-16
      outer loop
         vertex 2.6460667e+01 1.2868752e+00 1.0000000e-06
         vertex 2.1273530e+01 3.1498708e+00 4.0000001e+01
         vertex 2.1273530e+01 3.1498708e+00 1.0000000e-06
      endloop
   endfacet
   facet normal -6.0622541e-01 -7.9529287e-01 -3.4659413e-18
      outer loop
         vertex 1.2048276e+01 9.1240850e+00 4.0000001e+01
         vertex 1.6431569e+01 5.7828457e+00 1.0000000e-06
         vertex 1.6431569e+01 5.7828457e+00 4.0000001e+01
      endloop
   endfacet
   facet normal -6.0622541e-01 -7.9529287e-01 -0.0000000e+00
      outer loop
         vertex 1.6431569e+01 5.7828457e+00 1.0000000e-06
         vertex 1.2048276e+01 9.1240850e+00 4.0000001e+01
         vertex 1.2048276e+01 9.1240850e+00 1.0000000e-06
      endloop
   endfacet
   facet normal -8.1792936e-01 -5.7531866e-01 2.9550403e-17
      outer loop
         vertex 5.0554951e+00 1.7603329e+01 4.0000001e+01
         vertex 8.2263905e+00 1.3095273e+01 1.0000000e-06
         vertex 8.2263905e+00 1.3095273e+01 4.0000001e+01
      endloop
   endfacet
   facet normal -8.1792936e-01 -5.7531866e-01 2.9550403e-17
      outer loop
         vertex 8.2263905e+00 1.3095273e+01 1.0000000e-06
         vertex 5.0554951e+00 1.7603329e+01 4.0000001e+01
         vertex 5.0554951e+00 1.7603329e+01 1.0000000e-06
      endloop
   endfacet
   facet normal -9.5339639e-01 -3.0172060e-01 8.0394517e-17
      outer loop
         vertex 9.4696574e-01 2.7797275e+01 4.0000001e+01
         vertex 2.6099128e+00 2.2542586e+01 1.0000000e-06
         vertex 2.6099128e+00 2.2542586e+01 4.0000001e+01
      endloop
   endfacet
   facet normal -9.5339639e-01 -3.0172060e-01 1.6078903e-16
      outer loop
         vertex 2.6099128e+00 2.2542586e+01 1.0000000e-06
         vertex 9.4696574e-01 2.7797275e+01 4.0000001e+01
         vertex 9.4696574e-01 2.7797275e+01 1.0000000e-06
      endloop
   endfacet
   facet normal -1.0000000e+00 -0.0000000e+00 0.0000000e+00
      outer loop
         vertex 1.0563216e-01 3.8755774e+01 4.0000001e+01
         vertex 1.0563216e-01 3.3244228e+01 1.0000000e-06
         vertex 1.0563216e-01 3.3244228e+01 4.0000001e+01
      endloop
   endfacet
   facet normal -1.0000000e+00 0.0000000e+00 -0.0000000e+00
      outer loop
         vertex 1.0563216e-01 3.3244228e+01 1.0000000e-06
         vertex 1.0563216e-01 3.8755774e+01 4.0000001e+01
         vertex 1.0563216e-01 3.8755774e+01 1.0000000e-06
      endloop
   endfacet
   facet normal -9.5339639e-01 3.0172060e-01 -1.6078903e-16
      outer loop
         vertex 2.6099128e+00 4.9457416e+01 4.0000001e+01
         vertex 9.4696574e-01 4.4202727e+01 1.0000000e-06
         vertex 9.4696574e-01 4.4202727e+01 4.0000001e+01
      endloop
   endfacet
   facet normal -9.5339639e-01 3.0172060e-01 -1.0719269e-16
      outer loop
         vertex 9.4696574e-01 4.4202727e+01 1.0000000e-06
         vertex 2.6099128e+00 4.9457416e+01 4.0000001e+01
         vertex 2.6099128e+00 4.9457416e+01 1.0000000e-06
      endloop
   endfacet
   facet normal -8.1792936e-01 5.7531866e-01 -2.9550403e-17
      outer loop
         vertex 8.2263905e+00 5.8904729e+01 4.0000001e+01
         vertex 5.0554951e+00 5.4396673e+01 1.0000000e-06
         vertex 5.0554951e+00 5.4396673e+01 4.0000001e+01
      endloop
   endfacet
   facet normal -8.1792936e-01 5.7531866e-01 -2.9550403e-17
      outer loop
         vertex 5.0554951e+00 5.4396673e+01 1.0000000e-06
         vertex 8.2263905e+00 5.8904729e+01 4.0000001e+01
         vertex 8.2263905e+00 5.8904729e+01 1.0000000e-06
      endloop
   endfacet
   facet normal -6.0622541e-01 7.9529287e-01 0.0000000e+00
      outer loop
         vertex 1.6431569e+01 6.6217156e+01 4.0000001e+01
         vertex 1.2048276e+01 6.2875917e+01 1.0000000e-06
         vertex 1.2048276e+01 6.2875917e+01 4.0000001e+01
      endloop
   endfacet
   facet normal -6.0622541e-01 7.9529287e-01 2.1537453e-16
      outer loop
         vertex 1.2048276e+01 6.2875917e+01 1.0000000e-06
         vertex 1.6431569e+01 6.6217156e+01 4.0000001e+01
         vertex 1.6431569e+01 6.6217156e+01 1.0000000e-06
      endloop
   endfacet
   facet normal -3.3801688e-01 9.4114005e-01 -4.5856672e-16
      outer loop
         vertex 2.6460667e+01 7.0713127e+01 4.0000001e+01
         vertex 2.1273530e+01 6.8850131e+01 1.0000000e-06
         vertex 2.1273530e+01 6.8850131e+01 4.0000001e+01
      endloop
   endfacet
   facet normal -3.3801688e-01 9.4114005e-01 6.0043859e-17
      outer loop
         vertex 2.1273530e+01 6.8850131e+01 1.0000000e-06
         vertex 2.6460667e+01 7.0713127e+01 4.0000001e+01
         vertex 2.6460667e+01 7.0713127e+01 1.0000000e-06
      endloop
   endfacet
   facet normal -3.8302734e-02 9.9926618e-01 2.3813763e-17
      outer loop
         vertex 3.7378899e+01 7.1973584e+01 4.0000001e+01
         vertex 3.1871398e+01 7.1762476e+01 1.0000000e-06
         vertex 3.1871398e+01 7.1762476e+01 4.0000001e+01
      endloop
   endfacet
   facet normal -3.8302734e-02 9.9926618e-01 0.0000000e+00
      outer loop
         vertex 3.1871398e+01 7.1762476e+01 1.0000000e-06
         vertex 3.7378899e+01 7.1973584e+01 4.0000001e+01
         vertex 3.7378899e+01 7.1973584e+01 1.0000000e-06
      endloop
   endfacet
   facet normal 2.6498150e-01 9.6425350e-01 -4.7070170e-17
      outer loop
         vertex 4.8168609e+01 6.9881043e+01 4.0000001e+01
         vertex 4.2854081e+01 7.1341501e+01 1.0000000e-06
         vertex 4.2854081e+01 7.1341501e+01 4.0000001e+01
      endloop
   endfacet
   facet normal 2.6498150e-01 9.6425350e-01 2.0136115e-16
      outer loop
         vertex 4.2854081e+01 7.1341501e+01 1.0000000e-06
         vertex 4.8168609e+01 6.9881043e+01 4.0000001e+01
         vertex 4.8168609e+01 6.9881043e+01 1.0000000e-06
      endloop
   endfacet
   facet normal 5.4356755e-01 8.3936543e-01 2.9820250e-16
      outer loop
         vertex 5.7824116e+01 6.4630544e+01 4.0000001e+01
         vertex 5.3197914e+01 6.7626442e+01 1.0000000e-06
         vertex 5.3197914e+01 6.7626442e+01 4.0000001e+01
      endloop
   endfacet
   facet normal 5.4356755e-01 8.3936543e-01 -9.6556994e-17
      outer loop
         vertex 5.3197914e+01 6.7626442e+01 1.0000000e-06
         vertex 5.7824116e+01 6.4630544e+01 4.0000001e+01
         vertex 5.7824116e+01 6.4630544e+01 1.0000000e-06
      endloop
   endfacet
   facet normal 7.7148918e-01 6.3624244e-01 -0.0000000e+00
      outer loop
         vertex 6.5445458e+01 5.6711473e+01 4.0000001e+01
         vertex 6.1938778e+01 6.0963571e+01 1.0000000e-06
         vertex 6.1938778e+01 6.0963571e+01 4.0000001e+01
      endloop
   endfacet
   facet normal 7.7148918e-01 6.3624244e-01 1.1301936e-16
      outer loop
         vertex 6.1938778e+01 6.0963571e+01 1.0000000e-06
         vertex 6.5445458e+01 5.6711473e+01 4.0000001e+01
         vertex 6.5445458e+01 5.6711473e+01 1.0000000e-06
      endloop
   endfacet
   facet normal 9.2750245e-01 3.7381707e-01 -1.3030531e-16
      outer loop
         vertex 7.0322271e+01 4.6861943e+01 4.0000001e+01
         vertex 6.8261961e+01 5.1973915e+01 1.0000000e-06
         vertex 6.8261961e+01 5.1973915e+01 4.0000001e+01
      endloop
   endfacet
   facet normal 9.2750245e-01 3.7381707e-01 0.0000000e+00
      outer loop
         vertex 6.8261961e+01 5.1973915e+01 1.0000000e-06
         vertex 7.0322271e+01 4.6861943e+01 4.0000001e+01
         vertex 7.0322271e+01 4.6861943e+01 1.0000000e-06
      endloop
   endfacet
   facet normal 9.9706580e-01 7.6549253e-02 1.3597879e-17
      outer loop
         vertex 7.2000001e+01 3.6000001e+01 4.0000001e+01
         vertex 7.1578096e+01 4.1495375e+01 1.0000000e-06
         vertex 7.1578096e+01 4.1495375e+01 4.0000001e+01
      endloop
   endfacet
   facet normal 9.9706580e-01 7.6549253e-02 0.0000000e+00
      outer loop
         vertex 7.2000001e+01 3.6000001e+01 1.0000000e-06
         vertex 7.1578096e+01 4.1495375e+01 1.0000000e-06
         vertex 7.2000001e+01 3.6000001e+01 4.0000001e+01
      endloop
   endfacet
   facet normal 9.7369542e-01 2.2785351e-01 4.0287171e-17
      outer loop
         vertex 7.1578096e+01 4.1495375e+01 1.0000000e-06
         vertex 7.0322271e+01 4.6861943e+01 1.0000000e-06
         vertex 7.1578096e+01 4.1495375e+01 4.0000001e+01
      endloop
   endfacet
   facet normal 9.7369542e-01 2.2785351e-01 -0.0000000e+00
      outer loop
         vertex 7.1578096e+01 4.1495375e+01 4.0000001e+01
         vertex 7.0322271e+01 4.6861943e+01 1.0000000e-06
         vertex 7.0322271e+01 4.6861943e+01 4.0000001e+01
      endloop
   endfacet
   facet normal 8.5956961e-01 5.1101868e-01 -3.2229737e-17
      outer loop
         vertex 6.8261961e+01 5.1973915e+01 1.0000000e-06
         vertex 6.5445458e+01 5.6711473e+01 1.0000000e-06
         vertex 6.8261961e+01 5.1973915e+01 4.0000001e+01
      endloop
   endfacet
   facet normal 8.5956961e-01 5.1101868e-01 9.0775153e-17
      outer loop
         vertex 6.8261961e+01 5.1973915e+01 4.0000001e+01
         vertex 6.5445458e+01 5.6711473e+01 1.0000000e-06
         vertex 6.5445458e+01 5.6711473e+01 4.0000001e+01
      endloop
   endfacet
   facet normal 6.6532570e-01 7.4655322e-01 0.0000000e+00
      outer loop
         vertex 6.1938778e+01 6.0963571e+01 1.0000000e-06
         vertex 5.7824116e+01 6.4630544e+01 1.0000000e-06
         vertex 6.1938778e+01 6.0963571e+01 4.0000001e+01
      endloop
   endfacet
   facet normal 6.6532570e-01 7.4655322e-01 -1.1818559e-16
      outer loop
         vertex 6.1938778e+01 6.0963571e+01 4.0000001e+01
         vertex 5.7824116e+01 6.4630544e+01 1.0000000e-06
         vertex 5.7824116e+01 6.4630544e+01 4.0000001e+01
      endloop
   endfacet
   facet normal 4.0906864e-01 9.1250362e-01 3.3035480e-16
      outer loop
         vertex 5.3197914e+01 6.7626442e+01 1.0000000e-06
         vertex 4.8168609e+01 6.9881043e+01 1.0000000e-06
         vertex 5.3197914e+01 6.7626442e+01 4.0000001e+01
      endloop
   endfacet
   facet normal 4.0906864e-01 9.1250362e-01 1.0619085e-16
      outer loop
         vertex 5.3197914e+01 6.7626442e+01 4.0000001e+01
         vertex 4.8168609e+01 6.9881043e+01 1.0000000e-06
         vertex 4.8168609e+01 6.9881043e+01 4.0000001e+01
      endloop
   endfacet
   facet normal 1.1468343e-01 9.9340209e-01 -2.0143586e-17
      outer loop
         vertex 4.2854081e+01 7.1341501e+01 1.0000000e-06
         vertex 3.7378899e+01 7.1973584e+01 1.0000000e-06
         vertex 4.2854081e+01 7.1341501e+01 4.0000001e+01
      endloop
   endfacet
   facet normal 1.1468343e-01 9.9340209e-01 -0.0000000e+00
      outer loop
         vertex 4.2854081e+01 7.1341501e+01 4.0000001e+01
         vertex 3.7378899e+01 7.1973584e+01 1.0000000e-06
         vertex 3.7378899e+01 7.1973584e+01 4.0000001e+01
      endloop
   endfacet
   facet normal -1.9039111e-01 9.8170832e-01 1.2086151e-16
      outer loop
         vertex 3.1871398e+01 7.1762476e+01 1.0000000e-06
         vertex 2.6460667e+01 7.0713127e+01 1.0000000e-06
         vertex 3.1871398e+01 7.1762476e+01 4.0000001e+01
      endloop
   endfacet
   facet normal -1.9039111e-01 9.8170832e-01 3.3820255e-17
      outer loop
         vertex 3.1871398e+01 7.1762476e+01 4.0000001e+01
         vertex 2.6460667e+01 7.0713127e+01 1.0000000e-06
         vertex 2.6460667e+01 7.0713127e+01 4.0000001e+01
      endloop
   endfacet
   facet normal -4.7771982e-01 8.7851225e-01 -3.2229737e-16
      outer loop
         vertex 2.1273530e+01 6.8850131e+01 1.0000000e-06
         vertex 1.6431569e+01 6.6217156e+01 1.0000000e-06
         vertex 2.1273530e+01 6.8850131e+01 4.0000001e+01
      endloop
   endfacet
   facet normal -4.7771982e-01 8.7851225e-01 1.6972017e-16
      outer loop
         vertex 2.1273530e+01 6.8850131e+01 4.0000001e+01
         vertex 1.6431569e+01 6.6217156e+01 1.0000000e-06
         vertex 1.6431569e+01 6.6217156e+01 4.0000001e+01
      endloop
   endfacet
   facet normal -7.2052159e-01 6.9343250e-01 0.0000000e+00
      outer loop
         vertex 1.2048276e+01 6.2875917e+01 1.0000000e-06
         vertex 8.2263905e+00 5.8904729e+01 1.0000000e-06
         vertex 1.2048276e+01 6.2875917e+01 4.0000001e+01
      endloop
   endfacet
   facet normal -7.2052159e-01 6.9343250e-01 -5.9183184e-17
      outer loop
         vertex 1.2048276e+01 6.2875917e+01 4.0000001e+01
         vertex 8.2263905e+00 5.8904729e+01 1.0000000e-06
         vertex 8.2263905e+00 5.8904729e+01 4.0000001e+01
      endloop
   endfacet
   facet normal -8.9616556e-01 4.4371984e-01 0.0000000e+00
      outer loop
         vertex 5.0554951e+00 5.4396673e+01 1.0000000e-06
         vertex 2.6099128e+00 4.9457416e+01 1.0000000e-06
         vertex 5.0554951e+00 5.4396673e+01 4.0000001e+01
      endloop
   endfacet
   facet normal -8.9616556e-01 4.4371984e-01 -1.5764095e-16
      outer loop
         vertex 5.0554951e+00 5.4396673e+01 4.0000001e+01
         vertex 2.6099128e+00 4.9457416e+01 1.0000000e-06
         vertex 2.6099128e+00 4.9457416e+01 4.0000001e+01
      endloop
   endfacet
   facet normal -9.8828042e-01 1.5264928e-01 -8.0574342e-17
      outer loop
         vertex 9.4696574e-01 4.4202727e+01 1.0000000e-06
         vertex 1.0563216e-01 3.8755774e+01 1.0000000e-06
         vertex 9.4696574e-01 4.4202727e+01 4.0000001e+01
      endloop
   endfacet
   facet normal -9.8828042e-01 1.5264928e-01 -2.7115960e-17
      outer loop
         vertex 9.4696574e-01 4.4202727e+01 4.0000001e+01
         vertex 1.0563216e-01 3.8755774e+01 1.0000000e-06
         vertex 1.0563216e-01 3.8755774e+01 4.0000001e+01
      endloop
   endfacet
   facet normal -9.8828042e-01 -1.5264928e-01 2.8201020e-17
      outer loop
         vertex 1.0563216e-01 3.3244228e+01 1.0000000e-06
         vertex 9.4696574e-01 2.7797275e+01 1.0000000e-06
         vertex 1.0563216e-01 3.3244228e+01 4.0000001e+01
      endloop
   endfacet
   facet normal -9.8828042e-01 -1.5264928e-01 8.1347880e-17
      outer loop
         vertex 1.0563216e-01 3.3244228e+01 4.0000001e+01
         vertex 9.4696574e-01 2.7797275e+01 1.0000000e-06
         vertex 9.4696574e-01 2.7797275e+01 4.0000001e+01
      endloop
   endfacet
   facet normal -8.9616556e-01 -4.4371984e-01 1.1280408e-16
      outer loop
         vertex 2.6099128e+00 2.2542586e+01 1.0000000e-06
         vertex 5.0554951e+00 1.7603329e+01 1.0000000e-06
         vertex 2.6099128e+00 2.2542586e+01 4.0000001e+01
      endloop
   endfacet
   facet normal -8.9616556e-01 -4.4371984e-01 -7.7501394e-19
      outer loop
         vertex 2.6099128e+00 2.2542586e+01 4.0000001e+01
         vertex 5.0554951e+00 1.7603329e+01 1.0000000e-06
         vertex 5.0554951e+00 1.7603329e+01 4.0000001e+01
      endloop
   endfacet
   facet normal -7.2052159e-01 -6.9343250e-01 5.6402040e-17
      outer loop
         vertex 8.2263905e+00 1.3095273e+01 1.0000000e-06
         vertex 1.2048276e+01 9.1240850e+00 1.0000000e-06
         vertex 8.2263905e+00 1.3095273e+01 4.0000001e+01
      endloop
   endfacet
   facet normal -7.2052159e-01 -6.9343250e-01 0.0000000e+00
      outer loop
         vertex 8.2263905e+00 1.3095273e+01 4.0000001e+01
         vertex 1.2048276e+01 9.1240850e+00 1.0000000e-06
         vertex 1.2048276e+01 9.1240850e+00 4.0000001e+01
      endloop
   endfacet
   facet normal -4.7771982e-01 -8.7851225e-01 6.4459474e-17
      outer loop
         vertex 1.6431569e+01 5.7828457e+00 1.0000000e-06
         vertex 2.1273530e+01 3.1498708e+00 1.0000000e-06
         vertex 1.6431569e+01 5.7828457e+00 4.0000001e+01
      endloop
   endfacet
   facet normal -4.7771982e-01 -8.7851225e-01 1.5099946e-17
      outer loop
         vertex 1.6431569e+01 5.7828457e+00 4.0000001e+01
         vertex 2.1273530e+01 3.1498708e+00 1.0000000e-06
         vertex 2.1273530e+01 3.1498708e+00 4.0000001e+01
      endloop
   endfacet
   facet normal -1.9039111e-01 -9.8170832e-01 -3.2229737e-17
      outer loop
         vertex 2.6460667e+01 1.2868752e+00 1.0000000e-06
         vertex 3.1871398e+01 2.3752577e-01 1.0000000e-06
         vertex 2.6460667e+01 1.2868752e+00 4.0000001e+01
      endloop
   endfacet
   facet normal -1.9039111e-01 -9.8170832e-01 -1.1837089e-16
      outer loop
         vertex 2.6460667e+01 1.2868752e+00 4.0000001e+01
         vertex 3.1871398e+01 2.3752577e-01 1.0000000e-06
         vertex 3.1871398e+01 2.3752577e-01 4.0000001e+01
      endloop
   endfacet
   facet normal 1.1468343e-01 -9.9340209e-01 0.0000000e+00
      outer loop
         vertex 3.7378899e+01 2.6418482e-02 1.0000000e-06
         vertex 4.2854081e+01 6.5850148e-01 1.0000000e-06
         vertex 3.7378899e+01 2.6418482e-02 4.0000001e+01
      endloop
   endfacet
   facet normal 1.1468343e-01 -9.9340209e-01 2.0371869e-17
      outer loop
         vertex 3.7378899e+01 2.6418482e-02 4.0000001e+01
         vertex 4.2854081e+01 6.5850148e-01 1.0000000e-06
         vertex 4.2854081e+01 6.5850148e-01 4.0000001e+01
      endloop
   endfacet
   facet normal 4.0906864e-01 -9.1250362e-01 5.6402040e-17
      outer loop
         vertex 4.8168609e+01 2.1189593e+00 1.0000000e-06
         vertex 5.3197914e+01 4.3735600e+00 1.0000000e-06
         vertex 4.8168609e+01 2.1189593e+00 4.0000001e+01
      endloop
   endfacet
   facet normal 4.0906864e-01 -9.1250362e-01 -8.1046602e-17
      outer loop
         vertex 4.8168609e+01 2.1189593e+00 4.0000001e+01
         vertex 5.3197914e+01 4.3735600e+00 1.0000000e-06
         vertex 5.3197914e+01 4.3735600e+00 4.0000001e+01
      endloop
   endfacet
   facet normal 6.6532570e-01 -7.4655322e-01 -8.0574342e-18
      outer loop
         vertex 5.7824116e+01 7.3694576e+00 1.0000000e-06
         vertex 6.1938778e+01 1.1036431e+01 1.0000000e-06
         vertex 5.7824116e+01 7.3694576e+00 4.0000001e+01
      endloop
   endfacet
   facet normal 6.6532570e-01 -7.4655322e-01 6.6307246e-17
      outer loop
         vertex 5.7824116e+01 7.3694576e+00 4.0000001e+01
         vertex 6.1938778e+01 1.1036431e+01 1.0000000e-06
         vertex 6.1938778e+01 1.1036431e+01 4.0000001e+01
      endloop
   endfacet
   facet normal 8.5956961e-01 -5.1101868e-01 -9.6689211e-17
      outer loop
         vertex 6.5445458e+01 1.5288529e+01 1.0000000e-06
         vertex 6.8261961e+01 2.0026087e+01 1.0000000e-06
         vertex 6.5445458e+01 1.5288529e+01 4.0000001e+01
      endloop
   endfacet
   facet normal 8.5956961e-01 -5.1101868e-01 3.3055012e-17
      outer loop
         vertex 6.5445458e+01 1.5288529e+01 4.0000001e+01
         vertex 6.8261961e+01 2.0026087e+01 1.0000000e-06
         vertex 6.8261961e+01 2.0026087e+01 4.0000001e+01
      endloop
   endfacet
   facet normal 9.7369542e-01 -2.2785351e-01 0.0000000e+00
      outer loop
         vertex 7.0322271e+01 2.5138059e+01 1.0000000e-06
         vertex 7.1578096e+01 3.0504627e+01 1.0000000e-06
         vertex 7.0322271e+01 2.5138059e+01 4.0000001e+01
      endloop
   endfacet
   facet normal 9.7369542e-01 -2.2785351e-01 -6.0712371e-17
      outer loop
         vertex 7.0322271e+01 2.5138059e+01 4.0000001e+01
         vertex 7.1578096e+01 3.0504627e+01 1.0000000e-06
         vertex 7.1578096e+01 3.0504627e+01 4.0000001e+01
      endloop
   endfacet
   facet normal 0.0000000e+00 -0.0000000e+00 -1.0000000e+00
      outer loop
         vertex 7.1578096e+01 4.1495375e+01 1.0000000e-06
         vertex 7.2000001e+01 3.6000001e+01 1.0000000e-06
         vertex 5.0554951e+00 1.7603329e+01 1.0000000e-06
      endloop
   endfacet
   facet normal -0.0000000e+00 0.0000000e+00 -1.0000000e+00
      outer loop
         vertex 7.1578096e+01 4.1495375e+01 1.0000000e-06
         vertex 5.0554951e+00 1.7603329e+01 1.0000000e-06
         vertex 7.0322271e+01 4.6861943e+01 1.0000000e-06
      endloop
   endfacet
   facet normal 0.0000000e+00 0.0000000e+00 -1.0000000e+00
      outer loop
         vertex 7.2000001e+01 3.6000001e+01 1.0000000e-06
         vertex 7.1578096e+01 3.0504627e+01 1.0000000e-06
         vertex 5.0554951e+00 1.7603329e+01 1.0000000e-06
      endloop
   endfacet
   facet normal 0.0000000e+00 0.0000000e+00 -1.0000000e+00
      outer loop
         vertex 7.1578096e+01 3.0504627e+01 1.0000000e-06
         vertex 7.0322271e+01 2.5138059e+01 1.0000000e-06
         vertex 5.0554951e+00 1.7603329e+01 1.0000000e-06
      endloop
   endfacet
   facet normal 0.0000000e+00 0.0000000e+00 -1.0000000e+00
      outer loop
         vertex 7.0322271e+01 2.5138059e+01 1.0000000e-06
         vertex 6.8261961e+01 2.0026087e+01 1.0000000e-06
         vertex 5.0554951e+00 1.7603329e+01 1.0000000e-06
      endloop
   endfacet
   facet normal 0.0000000e+00 0.0000000e+00 -1.0000000e+00
      outer loop
         vertex 6.1938778e+01 1.1036431e+01 1.0000000e-06
         vertex 8.2263905e+00 1.3095273e+01 1.0000000e-06
         vertex 6.5445458e+01 1.5288529e+01 1.0000000e-06
      endloop
   endfacet
   facet normal 0.0000000e+00 -0.0000000e+00 -1.0000000e+00
      outer loop
         vertex 8.2263905e+00 1.3095273e+01 1.0000000e-06
         vertex 6.1938778e+01 1.1036431e+01 1.0000000e-06
         vertex 1.2048276e+01 9.1240850e+00 1.0000000e-06
      endloop
   endfacet
   facet normal 0.0000000e+00 0.0000000e+00 -1.0000000e+00
      outer loop
         vertex 5.3197914e+01 4.3735600e+00 1.0000000e-06
         vertex 1.6431569e+01 5.7828457e+00 1.0000000e-06
         vertex 5.7824116e+01 7.3694576e+00 1.0000000e-06
      endloop
   endfacet
   facet normal 0.0000000e+00 -0.0000000e+00 -1.0000000e+00
      outer loop
         vertex 1.6431569e+01 5.7828457e+00 1.0000000e-06
         vertex 5.3197914e+01 4.3735600e+00 1.0000000e-06
         vertex 2.1273530e+01 3.1498708e+00 1.0000000e-06
      endloop
   endfacet
   facet normal 0.0000000e+00 0.0000000e+00 -1.0000000e+00
      outer loop
         vertex 4.2854081e+01 6.5850148e-01 1.0000000e-06
         vertex 2.6460667e+01 1.2868752e+00 1.0000000e-06
         vertex 4.8168609e+01 2.1189593e+00 1.0000000e-06
      endloop
   endfacet
   facet normal 0.0000000e+00 0.0000000e+00 -1.0000000e+00
      outer loop
         vertex 3.7378899e+01 2.6418482e-02 1.0000000e-06
         vertex 3.1871398e+01 2.3752577e-01 1.0000000e-06
         vertex 4.2854081e+01 6.5850148e-01 1.0000000e-06
      endloop
   endfacet
   facet normal 0.0000000e+00 0.0000000e+00 -1.0000000e+00
      outer loop
         vertex 3.1871398e+01 2.3752577e-01 1.0000000e-06
         vertex 2.6460667e+01 1.2868752e+00 1.0000000e-06
         vertex 4.2854081e+01 6.5850148e-01 1.0000000e-06
      endloop
   endfacet
   facet normal 0.0000000e+00 0.0000000e+00 -1.0000000e+00
      outer loop
         vertex 2.6460667e+01 1.2868752e+00 1.0000000e-06
         vertex 2.1273530e+01 3.1498708e+00 1.0000000e-06
         vertex 4.8168609e+01 2.1189593e+00 1.0000000e-06
      endloop
   endfacet
   facet normal 0.0000000e+00 0.0000000e+00 -1.0000000e+00
      outer loop
         vertex 4.8168609e+01 2.1189593e+00 1.0000000e-06
         vertex 2.1273530e+01 3.1498708e+00 1.0000000e-06
         vertex 5.3197914e+01 4.3735600e+00 1.0000000e-06
      endloop
   endfacet
   facet normal 0.0000000e+00 0.0000000e+00 -1.0000000e+00
      outer loop
         vertex 1.6431569e+01 5.7828457e+00 1.0000000e-06
         vertex 1.2048276e+01 9.1240850e+00 1.0000000e-06
         vertex 5.7824116e+01 7.3694576e+00 1.0000000e-06
      endloop
   endfacet
   facet normal 0.0000000e+00 0.0000000e+00 -1.0000000e+00
      outer loop
         vertex 5.7824116e+01 7.3694576e+00 1.0000000e-06
         vertex 1.2048276e+01 9.1240850e+00 1.0000000e-06
         vertex 6.1938778e+01 1.1036431e+01 1.0000000e-06
      endloop
   endfacet
   facet normal 0.0000000e+00 0.0000000e+00 -1.0000000e+00
      outer loop
         vertex 8.2263905e+00 1.3095273e+01 1.0000000e-06
         vertex 5.0554951e+00 1.7603329e+01 1.0000000e-06
         vertex 6.5445458e+01 1.5288529e+01 1.0000000e-06
      endloop
   endfacet
   facet normal 0.0000000e+00 -0.0000000e+00 -1.0000000e+00
      outer loop
         vertex 2.6099128e+00 2.2542586e+01 1.0000000e-06
         vertex 3.1871398e+01 7.1762476e+01 1.0000000e-06
         vertex 5.0554951e+00 1.7603329e+01 1.0000000e-06
      endloop
   endfacet
   facet normal 0.0000000e+00 0.0000000e+00 -1.0000000e+00
      outer loop
         vertex 9.4696574e-01 2.7797275e+01 1.0000000e-06
         vertex 2.6099128e+00 4.9457416e+01 1.0000000e-06
         vertex 2.6099128e+00 2.2542586e+01 1.0000000e-06
      endloop
   endfacet
   facet normal -0.0000000e+00 0.0000000e+00 -1.0000000e+00
      outer loop
         vertex 2.6099128e+00 4.9457416e+01 1.0000000e-06
         vertex 9.4696574e-01 2.7797275e+01 1.0000000e-06
         vertex 9.4696574e-01 4.4202727e+01 1.0000000e-06
      endloop
   endfacet
   facet normal 0.0000000e+00 -0.0000000e+00 -1.0000000e+00
      outer loop
         vertex 1.0563216e-01 3.8755774e+01 1.0000000e-06
         vertex 9.4696574e-01 4.4202727e+01 1.0000000e-06
         vertex 1.0563216e-01 3.3244228e+01 1.0000000e-06
      endloop
   endfacet
   facet normal 0.0000000e+00 0.0000000e+00 -1.0000000e+00
      outer loop
         vertex 1.0563216e-01 3.3244228e+01 1.0000000e-06
         vertex 9.4696574e-01 4.4202727e+01 1.0000000e-06
         vertex 9.4696574e-01 2.7797275e+01 1.0000000e-06
      endloop
   endfacet
   facet normal 0.0000000e+00 -0.0000000e+00 -1.0000000e+00
      outer loop
         vertex 2.6099128e+00 4.9457416e+01 1.0000000e-06
         vertex 5.0554951e+00 5.4396673e+01 1.0000000e-06
         vertex 2.6099128e+00 2.2542586e+01 1.0000000e-06
      endloop
   endfacet
   facet normal 0.0000000e+00 -0.0000000e+00 -1.0000000e+00
      outer loop
         vertex 5.0554951e+00 5.4396673e+01 1.0000000e-06
         vertex 8.2263905e+00 5.8904729e+01 1.0000000e-06
         vertex 2.6099128e+00 2.2542586e+01 1.0000000e-06
      endloop
   endfacet
   facet normal 0.0000000e+00 -0.0000000e+00 -1.0000000e+00
      outer loop
         vertex 8.2263905e+00 5.8904729e+01 1.0000000e-06
         vertex 1.2048276e+01 6.2875917e+01 1.0000000e-06
         vertex 2.6099128e+00 2.2542586e+01 1.0000000e-06
      endloop
   endfacet
   facet normal 0.0000000e+00 -0.0000000e+00 -1.0000000e+00
      outer loop
         vertex 1.2048276e+01 6.2875917e+01 1.0000000e-06
         vertex 1.6431569e+01 6.6217156e+01 1.0000000e-06
         vertex 2.6099128e+00 2.2542586e+01 1.0000000e-06
      endloop
   endfacet
   facet normal 0.0000000e+00 -0.0000000e+00 -1.0000000e+00
      outer loop
         vertex 1.6431569e+01 6.6217156e+01 1.0000000e-06
         vertex 2.1273530e+01 6.8850131e+01 1.0000000e-06
         vertex 2.6099128e+00 2.2542586e+01 1.0000000e-06
      endloop
   endfacet
   facet normal 0.0000000e+00 -0.0000000e+00 -1.0000000e+00
      outer loop
         vertex 2.1273530e+01 6.8850131e+01 1.0000000e-06
         vertex 2.6460667e+01 7.0713127e+01 1.0000000e-06
         vertex 2.6099128e+00 2.2542586e+01 1.0000000e-06
      endloop
   endfacet
   facet normal 0.0000000e+00 -0.0000000e+00 -1.0000000e+00
      outer loop
         vertex 2.6460667e+01 7.0713127e+01 1.0000000e-06
         vertex 3.1871398e+01 7.1762476e+01 1.0000000e-06
         vertex 2.6099128e+00 2.2542586e+01 1.0000000e-06
      endloop
   endfacet
   facet normal 0.0000000e+00 -0.0000000e+00 -1.0000000e+00
      outer loop
         vertex 3.1871398e+01 7.1762476e+01 1.0000000e-06
         vertex 3.7378899e+01 7.1973584e+01 1.0000000e-06
         vertex 5.0554951e+00 1.7603329e+01 1.0000000e-06
      endloop
   endfacet
   facet normal 0.0000000e+00 -0.0000000e+00 -1.0000000e+00
      outer loop
         vertex 3.7378899e+01 7.1973584e+01 1.0000000e-06
         vertex 4.2854081e+01 7.1341501e+01 1.0000000e-06
         vertex 5.0554951e+00 1.7603329e+01 1.0000000e-06
      endloop
   endfacet
   facet normal 0.0000000e+00 -0.0000000e+00 -1.0000000e+00
      outer loop
         vertex 4.2854081e+01 7.1341501e+01 1.0000000e-06
         vertex 4.8168609e+01 6.9881043e+01 1.0000000e-06
         vertex 5.0554951e+00 1.7603329e+01 1.0000000e-06
      endloop
   endfacet
   facet normal 0.0000000e+00 -0.0000000e+00 -1.0000000e+00
      outer loop
         vertex 4.8168609e+01 6.9881043e+01 1.0000000e-06
         vertex 5.3197914e+01 6.7626442e+01 1.0000000e-06
         vertex 5.0554951e+00 1.7603329e+01 1.0000000e-06
      endloop
   endfacet
   facet normal 0.0000000e+00 -0.0000000e+00 -1.0000000e+00
      outer loop
         vertex 5.3197914e+01 6.7626442e+01 1.0000000e-06
         vertex 5.7824116e+01 6.4630544e+01 1.0000000e-06
         vertex 5.0554951e+00 1.7603329e+01 1.0000000e-06
      endloop
   endfacet
   facet normal 0.0000000e+00 -0.0000000e+00 -1.0000000e+00
      outer loop
         vertex 5.7824116e+01 6.4630544e+01 1.0000000e-06
         vertex 6.1938778e+01 6.0963571e+01 1.0000000e-06
         vertex 5.0554951e+00 1.7603329e+01 1.0000000e-06
      endloop
   endfacet
   facet normal 0.0000000e+00 -0.0000000e+00 -1.0000000e+00
      outer loop
         vertex 6.1938778e+01 6.0963571e+01 1.0000000e-06
         vertex 6.5445458e+01 5.6711473e+01 1.0000000e-06
         vertex 5.0554951e+00 1.7603329e+01 1.0000000e-06
      endloop
   endfacet
   facet normal 0.0000000e+00 -0.0000000e+00 -1.0000000e+00
      outer loop
         vertex 6.5445458e+01 5.6711473e+01 1.0000000e-06
         vertex 6.8261961e+01 5.1973915e+01 1.0000000e-06
         vertex 5.0554951e+00 1.7603329e+01 1.0000000e-06
      endloop
   endfacet
   facet normal 0.0000000e+00 -0.0000000e+00 -1.0000000e+00
      outer loop
         vertex 6.8261961e+01 5.1973915e+01 1.0000000e-06
         vertex 7.0322271e+01 4.6861943e+01 1.0000000e-06
         vertex 5.0554951e+00 1.7603329e+01 1.0000000e-06
      endloop
   endfacet
   facet normal 0.0000000e+00 0.0000000e+00 -1.0000000e+00
      outer loop
         vertex 6.5445458e+01 1.5288529e+01 1.0000000e-06
         vertex 5.0554951e+00 1.7603329e+01 1.0000000e-06
         vertex 6.8261961e+01 2.0026087e+01 1.0000000e-06
      endloop
   endfacet
   facet normal 0.0000000e+00 -0.0000000e+00 1.0000000e+00
      outer loop
         vertex 7.1578096e+01 3.0504627e+01 4.0000001e+01
         vertex 7.2000001e+01 3.6000001e+01 4.0000001e+01
         vertex 5.0554951e+00 1.7603329e+01 4.0000001e+01
      endloop
   endfacet
   facet normal -0.0000000e+00 0.0000000e+00 1.0000000e+00
      outer loop
         vertex 7.1578096e+01 3.0504627e+01 4.0000001e+01
         vertex 5.0554951e+00 1.7603329e+01 4.0000001e+01
         vertex 7.0322271e+01 2.5138059e+01 4.0000001e+01
      endloop
   endfacet
   facet normal 0.0000000e+00 0.0000000e+00 1.0000000e+00
      outer loop
         vertex 7.2000001e+01 3.6000001e+01 4.0000001e+01
         vertex 7.1578096e+01 4.1495375e+01 4.0000001e+01
         vertex 5.0554951e+00 1.7603329e+01 4.0000001e+01
      endloop
   endfacet
   facet normal 0.0000000e+00 0.0000000e+00 1.0000000e+00
      outer loop
         vertex 7.1578096e+01 4.1495375e+01 4.0000001e+01
         vertex 7.0322271e+01 4.6861943e+01 4.0000001e+01
         vertex 5.0554951e+00 1.7603329e+01 4.0000001e+01
      endloop
   endfacet
   facet normal 0.0000000e+00 0.0000000e+00 1.0000000e+00
      outer loop
         vertex 7.0322271e+01 4.6861943e+01 4.0000001e+01
         vertex 6.8261961e+01 5.1973915e+01 4.0000001e+01
         vertex 5.0554951e+00 1.7603329e+01 4.0000001e+01
      endloop
   endfacet
   facet normal 0.0000000e+00 0.0000000e+00 1.0000000e+00
      outer loop
         vertex 6.8261961e+01 5.1973915e+01 4.0000001e+01
         vertex 6.5445458e+01 5.6711473e+01 4.0000001e+01
         vertex 5.0554951e+00 1.7603329e+01 4.0000001e+01
      endloop
   endfacet
   facet normal 0.0000000e+00 0.0000000e+00 1.0000000e+00
      outer loop
         vertex 6.5445458e+01 5.6711473e+01 4.0000001e+01
         vertex 6.1938778e+01 6.0963571e+01 4.0000001e+01
         vertex 5.0554951e+00 1.7603329e+01 4.0000001e+01
      endloop
   endfacet
   facet normal 0.0000000e+00 0.0000000e+00 1.0000000e+00
      outer loop
         vertex 6.1938778e+01 6.0963571e+01 4.0000001e+01
         vertex 5.7824116e+01 6.4630544e+01 4.0000001e+01
         vertex 5.0554951e+00 1.7603329e+01 4.0000001e+01
      endloop
   endfacet
   facet normal 0.0000000e+00 0.0000000e+00 1.0000000e+00
      outer loop
         vertex 5.7824116e+01 6.4630544e+01 4.0000001e+01
         vertex 5.3197914e+01 6.7626442e+01 4.0000001e+01
         vertex 5.0554951e+00 1.7603329e+01 4.0000001e+01
      endloop
   endfacet
   facet normal 0.0000000e+00 0.0000000e+00 1.0000000e+00
      outer loop
         vertex 5.3197914e+01 6.7626442e+01 4.0000001e+01
         vertex 4.8168609e+01 6.9881043e+01 4.0000001e+01
         vertex 5.0554951e+00 1.7603329e+01 4.0000001e+01
      endloop
   endfacet
   facet normal 0.0000000e+00 0.0000000e+00 1.0000000e+00
      outer loop
         vertex 4.8168609e+01 6.9881043e+01 4.0000001e+01
         vertex 4.2854081e+01 7.1341501e+01 4.0000001e+01
         vertex 5.0554951e+00 1.7603329e+01 4.0000001e+01
      endloop
   endfacet
   facet normal 0.0000000e+00 0.0000000e+00 1.0000000e+00
      outer loop
         vertex 4.2854081e+01 7.1341501e+01 4.0000001e+01
         vertex 3.7378899e+01 7.1973584e+01 4.0000001e+01
         vertex 5.0554951e+00 1.7603329e+01 4.0000001e+01
      endloop
   endfacet
   facet normal -0.0000000e+00 0.0000000e+00 1.0000000e+00
      outer loop
         vertex 2.6460667e+01 7.0713127e+01 4.0000001e+01
         vertex 2.6099128e+00 2.2542586e+01 4.0000001e+01
         vertex 3.1871398e+01 7.1762476e+01 4.0000001e+01
      endloop
   endfacet
   facet normal 0.0000000e+00 0.0000000e+00 1.0000000e+00
      outer loop
         vertex 2.6460667e+01 7.0713127e+01 4.0000001e+01
         vertex 2.1273530e+01 6.8850131e+01 4.0000001e+01
         vertex 2.6099128e+00 2.2542586e+01 4.0000001e+01
      endloop
   endfacet
   facet normal 0.0000000e+00 0.0000000e+00 1.0000000e+00
      outer loop
         vertex 2.1273530e+01 6.8850131e+01 4.0000001e+01
         vertex 1.6431569e+01 6.6217156e+01 4.0000001e+01
         vertex 2.6099128e+00 2.2542586e+01 4.0000001e+01
      endloop
   endfacet
   facet normal 0.0000000e+00 0.0000000e+00 1.0000000e+00
      outer loop
         vertex 1.6431569e+01 6.6217156e+01 4.0000001e+01
         vertex 1.2048276e+01 6.2875917e+01 4.0000001e+01
         vertex 2.6099128e+00 2.2542586e+01 4.0000001e+01
      endloop
   endfacet
   facet normal 0.0000000e+00 0.0000000e+00 1.0000000e+00
      outer loop
         vertex 1.2048276e+01 6.2875917e+01 4.0000001e+01
         vertex 8.2263905e+00 5.8904729e+01 4.0000001e+01
         vertex 2.6099128e+00 2.2542586e+01 4.0000001e+01
      endloop
   endfacet
   facet normal 0.0000000e+00 0.0000000e+00 1.0000000e+00
      outer loop
         vertex 8.2263905e+00 5.8904729e+01 4.0000001e+01
         vertex 5.0554951e+00 5.4396673e+01 4.0000001e+01
         vertex 2.6099128e+00 2.2542586e+01 4.0000001e+01
      endloop
   endfacet
   facet normal 0.0000000e+00 0.0000000e+00 1.0000000e+00
      outer loop
         vertex 5.0554951e+00 5.4396673e+01 4.0000001e+01
         vertex 2.6099128e+00 4.9457416e+01 4.0000001e+01
         vertex 2.6099128e+00 2.2542586e+01 4.0000001e+01
      endloop
   endfacet
   facet normal 0.0000000e+00 -0.0000000e+00 1.0000000e+00
      outer loop
         vertex 2.6099128e+00 2.2542586e+01 4.0000001e+01
         vertex 2.6099128e+00 4.9457416e+01 4.0000001e+01
         vertex 9.4696574e-01 2.7797275e+01 4.0000001e+01
      endloop
   endfacet
   facet normal -0.0000000e+00 0.0000000e+00 1.0000000e+00
      outer loop
         vertex 1.0563216e-01 3.8755774e+01 4.0000001e+01
         vertex 1.0563216e-01 3.3244228e+01 4.0000001e+01
         vertex 9.4696574e-01 4.4202727e+01 4.0000001e+01
      endloop
   endfacet
   facet normal -0.0000000e+00 0.0000000e+00 1.0000000e+00
      outer loop
         vertex 1.0563216e-01 3.3244228e+01 4.0000001e+01
         vertex 9.4696574e-01 2.7797275e+01 4.0000001e+01
         vertex 9.4696574e-01 4.4202727e+01 4.0000001e+01
      endloop
   endfacet
   facet normal -0.0000000e+00 0.0000000e+00 1.0000000e+00
      outer loop
         vertex 9.4696574e-01 4.4202727e+01 4.0000001e+01
         vertex 9.4696574e-01 2.7797275e+01 4.0000001e+01
         vertex 2.6099128e+00 4.9457416e+01 4.0000001e+01
      endloop
   endfacet
   facet normal -0.0000000e+00 0.0000000e+00 1.0000000e+00
      outer loop
         vertex 2.6099128e+00 2.2542586e+01 4.0000001e+01
         vertex 5.0554951e+00 1.7603329e+01 4.0000001e+01
         vertex 3.1871398e+01 7.1762476e+01 4.0000001e+01
      endloop
   endfacet
   facet normal 0.0000000e+00 -0.0000000e+00 1.0000000e+00
      outer loop
         vertex 8.2263905e+00 1.3095273e+01 4.0000001e+01
         vertex 6.5445458e+01 1.5288529e+01 4.0000001e+01
         vertex 5.0554951e+00 1.7603329e+01 4.0000001e+01
      endloop
   endfacet
   facet normal 0.0000000e+00 0.0000000e+00 1.0000000e+00
      outer loop
         vertex 6.5445458e+01 1.5288529e+01 4.0000001e+01
         vertex 8.2263905e+00 1.3095273e+01 4.0000001e+01
         vertex 6.1938778e+01 1.1036431e+01 4.0000001e+01
      endloop
   endfacet
   facet normal 0.0000000e+00 -0.0000000e+00 1.0000000e+00
      outer loop
         vertex 1.6431569e+01 5.7828457e+00 4.0000001e+01
         vertex 5.7824116e+01 7.3694576e+00 4.0000001e+01
         vertex 1.2048276e+01 9.1240850e+00 4.0000001e+01
      endloop
   endfacet
   facet normal 0.0000000e+00 0.0000000e+00 1.0000000e+00
      outer loop
         vertex 5.7824116e+01 7.3694576e+00 4.0000001e+01
         vertex 1.6431569e+01 5.7828457e+00 4.0000001e+01
         vertex 5.3197914e+01 4.3735600e+00 4.0000001e+01
      endloop
   endfacet
   facet normal 0.0000000e+00 -0.0000000e+00 1.0000000e+00
      outer loop
         vertex 2.6460667e+01 1.2868752e+00 4.0000001e+01
         vertex 4.8168609e+01 2.1189593e+00 4.0000001e+01
         vertex 2.1273530e+01 3.1498708e+00 4.0000001e+01
      endloop
   endfacet
   facet normal 0.0000000e+00 0.0000000e+00 1.0000000e+00
      outer loop
         vertex 4.8168609e+01 2.1189593e+00 4.0000001e+01
         vertex 2.6460667e+01 1.2868752e+00 4.0000001e+01
         vertex 4.2854081e+01 6.5850148e-01 4.0000001e+01
      endloop
   endfacet
   facet normal 0.0000000e+00 -0.0000000e+00 1.0000000e+00
      outer loop
         vertex 3.7378899e+01 2.6418482e-02 4.0000001e+01
         vertex 4.2854081e+01 6.5850148e-01 4.0000001e+01
         vertex 3.1871398e+01 2.3752577e-01 4.0000001e+01
      endloop
   endfacet
   facet normal 0.0000000e+00 -0.0000000e+00 1.0000000e+00
      outer loop
         vertex 3.1871398e+01 2.3752577e-01 4.0000001e+01
         vertex 4.2854081e+01 6.5850148e-01 4.0000001e+01
         vertex 2.6460667e+01 1.2868752e+00 4.0000001e+01
      endloop
   endfacet
   facet normal 0.0000000e+00 -0.0000000e+00 1.0000000e+00
      outer loop
         vertex 4.8168609e+01 2.1189593e+00 4.0000001e+01
         vertex 5.3197914e+01 4.3735600e+00 4.0000001e+01
         vertex 2.1273530e+01 3.1498708e+00 4.0000001e+01
      endloop
   endfacet
   facet normal 0.0000000e+00 -0.0000000e+00 1.0000000e+00
      outer loop
         vertex 2.1273530e+01 3.1498708e+00 4.0000001e+01
         vertex 5.3197914e+01 4.3735600e+00 4.0000001e+01
         vertex 1.6431569e+01 5.7828457e+00 4.0000001e+01
      endloop
   endfacet
   facet normal 0.0000000e+00 -0.0000000e+00 1.0000000e+00
      outer loop
         vertex 5.7824116e+01 7.3694576e+00 4.0000001e+01
         vertex 6.1938778e+01 1.1036431e+01 4.0000001e+01
         vertex 1.2048276e+01 9.1240850e+00 4.0000001e+01
      endloop
   endfacet
   facet normal 0.0000000e+00 -0.0000000e+00 1.0000000e+00
      outer loop
         vertex 1.2048276e+01 9.1240850e+00 4.0000001e+01
         vertex 6.1938778e+01 1.1036431e+01 4.0000001e+01
         vertex 8.2263905e+00 1.3095273e+01 4.0000001e+01
      endloop
   endfacet
   facet normal 0.0000000e+00 -0.0000000e+00 1.0000000e+00
      outer loop
         vertex 6.5445458e+01 1.5288529e+01 4.0000001e+01
         vertex 6.8261961e+01 2.0026087e+01 4.0000001e+01
         vertex 5.0554951e+00 1.7603329e+01 4.0000001e+01
      endloop
   endfacet
   facet normal 0.0000000e+00 -0.0000000e+00 1.0000000e+00
      outer loop
         vertex 6.8261961e+01 2.0026087e+01 4.0000001e+01
         vertex 7.0322271e+01 2.5138059e+01 4.0000001e+01
         vertex 5.0554951e+00 1.7603329e+01 4.0000001e+01
      endloop
   endfacet
   facet normal 0.0000000e+00 -0.0000000e+00 1.0000000e+00
      outer loop
         vertex 5.0554951e+00 1.7603329e+01 4.0000001e+01
         vertex 3.7378899e+01 7.1973584e+01 4.0000001e+01
         vertex 3.1871398e+01 7.1762476e+01 4.0000001e+01
      endloop
   endfacet
endsolid AutoCAD
