solid AutoCAD
   facet normal 9.8728468e-01 -9.1485399e-02 1.2999761e-01
      outer loop
         vertex 1.7038975e+01 4.3252353e+01 3.0556201e+01
         vertex 1.6557839e+01 3.8060072e+01 3.0556201e+01
         vertex 2.0581231e+01 3.8060072e+01 1.0000000e-06
      endloop
   endfacet
   facet normal 9.8662337e-01 -9.7173920e-02 1.3088757e-01
      outer loop
         vertex 1.7038975e+01 4.3252353e+01 3.0556201e+01
         vertex 2.0581231e+01 3.8060072e+01 1.0000000e-06
         vertex 2.1046880e+01 4.2787890e+01 1.0000000e-06
      endloop
   endfacet
   facet normal 9.5376102e-01 -2.7136841e-01 1.2922499e-01
      outer loop
         vertex 1.7038975e+01 4.3252353e+01 3.0556201e+01
         vertex 2.1046880e+01 4.2787890e+01 1.0000000e-06
         vertex 1.8465997e+01 4.8267818e+01 3.0556201e+01
      endloop
   endfacet
   facet normal 9.5376102e-01 2.7136841e-01 1.2922499e-01
      outer loop
         vertex 1.8465997e+01 2.7852327e+01 3.0556201e+01
         vertex 2.1046880e+01 3.3332254e+01 1.0000000e-06
         vertex 1.7038975e+01 3.2867791e+01 3.0556201e+01
      endloop
   endfacet
   facet normal 9.4860146e-01 2.8775511e-01 1.3172797e-01
      outer loop
         vertex 2.1046880e+01 3.3332254e+01 1.0000000e-06
         vertex 1.8465997e+01 2.7852327e+01 3.0556201e+01
         vertex 2.2425934e+01 2.8786124e+01 1.0000000e-06
      endloop
   endfacet
   facet normal 7.9145413e-01 5.9767842e-01 1.2798777e-01
      outer loop
         vertex 2.3932765e+01 1.9023194e+01 3.0556201e+01
         vertex 2.4665395e+01 2.4596386e+01 1.0000000e-06
         vertex 2.0790311e+01 2.3184475e+01 3.0556201e+01
      endloop
   endfacet
   facet normal 7.6613802e-01 6.2875322e-01 1.3304856e-01
      outer loop
         vertex 2.4665395e+01 2.4596386e+01 1.0000000e-06
         vertex 2.3932765e+01 1.9023194e+01 3.0556201e+01
         vertex 2.7679204e+01 2.0924050e+01 1.0000000e-06
      endloop
   endfacet
   facet normal 5.2215855e-01 8.4331501e-01 1.2716226e-01
      outer loop
         vertex 3.2219825e+01 1.2765097e+01 3.0556201e+01
         vertex 3.1351539e+01 1.7910242e+01 1.0000000e-06
         vertex 2.7786346e+01 1.5510191e+01 3.0556201e+01
      endloop
   endfacet
   facet normal 4.6715244e-01 8.7398075e-01 1.3388890e-01
      outer loop
         vertex 3.1351539e+01 1.7910242e+01 1.0000000e-06
         vertex 3.2219825e+01 1.2765097e+01 3.0556201e+01
         vertex 3.5541277e+01 1.5670780e+01 1.0000000e-06
      endloop
   endfacet
   facet normal 1.8226754e-01 9.7504521e-01 1.2674929e-01
      outer loop
         vertex 4.2207963e+01 9.9232266e+00 3.0556201e+01
         vertex 4.0087408e+01 1.4291727e+01 1.0000000e-06
         vertex 3.7082225e+01 1.0881393e+01 3.0556201e+01
      endloop
   endfacet
   facet normal 9.7129852e-02 9.8617594e-01 1.3424904e-01
      outer loop
         vertex 4.0087408e+01 1.4291727e+01 1.0000000e-06
         vertex 4.2207963e+01 9.9232266e+00 3.0556201e+01
         vertex 4.4815226e+01 1.3826077e+01 1.0000000e-06
      endloop
   endfacet
   facet normal -1.8226754e-01 9.7504521e-01 1.2674929e-01
      outer loop
         vertex 5.2548227e+01 1.0881393e+01 3.0556201e+01
         vertex 4.9543044e+01 1.4291727e+01 1.0000000e-06
         vertex 4.7422488e+01 9.9232266e+00 3.0556201e+01
      endloop
   endfacet
   facet normal -2.8766163e-01 9.4829331e-01 1.3412899e-01
      outer loop
         vertex 4.9543044e+01 1.4291727e+01 1.0000000e-06
         vertex 5.2548227e+01 1.0881393e+01 3.0556201e+01
         vertex 5.4089174e+01 1.5670780e+01 1.0000000e-06
      endloop
   endfacet
   facet normal -5.2215855e-01 8.4331501e-01 1.2716226e-01
      outer loop
         vertex 6.1844106e+01 1.5510191e+01 3.0556201e+01
         vertex 5.8278912e+01 1.7910242e+01 1.0000000e-06
         vertex 5.7410627e+01 1.2765097e+01 3.0556201e+01
      endloop
   endfacet
   facet normal -6.2871225e-01 7.6608810e-01 1.3352876e-01
      outer loop
         vertex 5.8278912e+01 1.7910242e+01 1.0000000e-06
         vertex 6.1844106e+01 1.5510191e+01 3.0556201e+01
         vertex 6.1951248e+01 2.0924050e+01 1.0000000e-06
      endloop
   endfacet
   facet normal -7.9145413e-01 5.9767842e-01 1.2798777e-01
      outer loop
         vertex 6.8840140e+01 2.3184475e+01 3.0556201e+01
         vertex 6.4965056e+01 2.4596386e+01 1.0000000e-06
         vertex 6.5697686e+01 1.9023194e+01 3.0556201e+01
      endloop
   endfacet
   facet normal -8.7415146e-01 4.6724369e-01 1.3244830e-01
      outer loop
         vertex 6.4965056e+01 2.4596386e+01 1.0000000e-06
         vertex 6.8840140e+01 2.3184475e+01 3.0556201e+01
         vertex 6.7204518e+01 2.8786124e+01 1.0000000e-06
      endloop
   endfacet
   facet normal -9.5376102e-01 2.7136841e-01 1.2922499e-01
      outer loop
         vertex 7.2591477e+01 3.2867791e+01 3.0556201e+01
         vertex 6.8583571e+01 3.3332254e+01 1.0000000e-06
         vertex 7.1164454e+01 2.7852327e+01 3.0556201e+01
      endloop
   endfacet
   facet normal -9.8662337e-01 9.7173920e-02 1.3088757e-01
      outer loop
         vertex 6.8583571e+01 3.3332254e+01 1.0000000e-06
         vertex 7.2591477e+01 3.2867791e+01 3.0556201e+01
         vertex 6.9049221e+01 3.8060072e+01 1.0000000e-06
      endloop
   endfacet
   facet normal -9.8728468e-01 9.1485399e-02 1.2999761e-01
      outer loop
         vertex 7.2591477e+01 3.2867791e+01 3.0556201e+01
         vertex 7.3072612e+01 3.8060072e+01 3.0556201e+01
         vertex 6.9049221e+01 3.8060072e+01 1.0000000e-06
      endloop
   endfacet
   facet normal -9.5376102e-01 -2.7136841e-01 1.2922499e-01
      outer loop
         vertex 7.1164454e+01 4.8267818e+01 3.0556201e+01
         vertex 6.8583571e+01 4.2787890e+01 1.0000000e-06
         vertex 7.2591477e+01 4.3252353e+01 3.0556201e+01
      endloop
   endfacet
   facet normal -9.4860146e-01 -2.8775511e-01 1.3172797e-01
      outer loop
         vertex 6.8583571e+01 4.2787890e+01 1.0000000e-06
         vertex 7.1164454e+01 4.8267818e+01 3.0556201e+01
         vertex 6.7204518e+01 4.7334021e+01 1.0000000e-06
      endloop
   endfacet
   facet normal -7.9145413e-01 -5.9767842e-01 1.2798777e-01
      outer loop
         vertex 6.5697686e+01 5.7096950e+01 3.0556201e+01
         vertex 6.4965056e+01 5.1523758e+01 1.0000000e-06
         vertex 6.8840140e+01 5.2935669e+01 3.0556201e+01
      endloop
   endfacet
   facet normal -7.6613802e-01 -6.2875322e-01 1.3304856e-01
      outer loop
         vertex 6.4965056e+01 5.1523758e+01 1.0000000e-06
         vertex 6.5697686e+01 5.7096950e+01 3.0556201e+01
         vertex 6.1951248e+01 5.5196094e+01 1.0000000e-06
      endloop
   endfacet
   facet normal -5.2215855e-01 -8.4331501e-01 1.2716226e-01
      outer loop
         vertex 5.7410627e+01 6.3355047e+01 3.0556201e+01
         vertex 5.8278912e+01 5.8209903e+01 1.0000000e-06
         vertex 6.1844106e+01 6.0609953e+01 3.0556201e+01
      endloop
   endfacet
   facet normal -4.6715244e-01 -8.7398075e-01 1.3388890e-01
      outer loop
         vertex 5.8278912e+01 5.8209903e+01 1.0000000e-06
         vertex 5.7410627e+01 6.3355047e+01 3.0556201e+01
         vertex 5.4089174e+01 6.0449364e+01 1.0000000e-06
      endloop
   endfacet
   facet normal -1.8226754e-01 -9.7504521e-01 1.2674929e-01
      outer loop
         vertex 4.7422488e+01 6.6196918e+01 3.0556201e+01
         vertex 4.9543044e+01 6.1828418e+01 1.0000000e-06
         vertex 5.2548227e+01 6.5238751e+01 3.0556201e+01
      endloop
   endfacet
   facet normal -9.7129852e-02 -9.8617594e-01 1.3424904e-01
      outer loop
         vertex 4.9543044e+01 6.1828418e+01 1.0000000e-06
         vertex 4.7422488e+01 6.6196918e+01 3.0556201e+01
         vertex 4.4815226e+01 6.2294067e+01 1.0000000e-06
      endloop
   endfacet
   facet normal 1.8226754e-01 -9.7504521e-01 1.2674929e-01
      outer loop
         vertex 3.7082225e+01 6.5238751e+01 3.0556201e+01
         vertex 4.0087408e+01 6.1828418e+01 1.0000000e-06
         vertex 4.2207963e+01 6.6196918e+01 3.0556201e+01
      endloop
   endfacet
   facet normal 2.8766163e-01 -9.4829331e-01 1.3412899e-01
      outer loop
         vertex 4.0087408e+01 6.1828418e+01 1.0000000e-06
         vertex 3.7082225e+01 6.5238751e+01 3.0556201e+01
         vertex 3.5541277e+01 6.0449364e+01 1.0000000e-06
      endloop
   endfacet
   facet normal 5.2215855e-01 -8.4331501e-01 1.2716226e-01
      outer loop
         vertex 2.7786346e+01 6.0609953e+01 3.0556201e+01
         vertex 3.1351539e+01 5.8209903e+01 1.0000000e-06
         vertex 3.2219825e+01 6.3355047e+01 3.0556201e+01
      endloop
   endfacet
   facet normal 6.2871225e-01 -7.6608810e-01 1.3352876e-01
      outer loop
         vertex 3.1351539e+01 5.8209903e+01 1.0000000e-06
         vertex 2.7786346e+01 6.0609953e+01 3.0556201e+01
         vertex 2.7679204e+01 5.5196094e+01 1.0000000e-06
      endloop
   endfacet
   facet normal 7.9145413e-01 -5.9767842e-01 1.2798777e-01
      outer loop
         vertex 2.0790311e+01 5.2935669e+01 3.0556201e+01
         vertex 2.4665395e+01 5.1523758e+01 1.0000000e-06
         vertex 2.3932765e+01 5.7096950e+01 3.0556201e+01
      endloop
   endfacet
   facet normal 8.7415146e-01 -4.6724369e-01 1.3244830e-01
      outer loop
         vertex 2.4665395e+01 5.1523758e+01 1.0000000e-06
         vertex 2.0790311e+01 5.2935669e+01 3.0556201e+01
         vertex 2.2425934e+01 4.7334021e+01 1.0000000e-06
      endloop
   endfacet
   facet normal 9.4860146e-01 -2.8775511e-01 1.3172797e-01
      outer loop
         vertex 2.1046880e+01 4.2787890e+01 1.0000000e-06
         vertex 2.2425934e+01 4.7334021e+01 1.0000000e-06
         vertex 1.8465997e+01 4.8267818e+01 3.0556201e+01
      endloop
   endfacet
   facet normal 8.8773557e-01 -4.4203979e-01 1.2855498e-01
      outer loop
         vertex 1.8465997e+01 4.8267818e+01 3.0556201e+01
         vertex 2.2425934e+01 4.7334021e+01 1.0000000e-06
         vertex 2.0790311e+01 5.2935669e+01 3.0556201e+01
      endloop
   endfacet
   facet normal 7.6613802e-01 -6.2875322e-01 1.3304856e-01
      outer loop
         vertex 2.4665395e+01 5.1523758e+01 1.0000000e-06
         vertex 2.7679204e+01 5.5196094e+01 1.0000000e-06
         vertex 2.3932765e+01 5.7096950e+01 3.0556201e+01
      endloop
   endfacet
   facet normal 6.6819529e-01 -7.3297532e-01 1.2752349e-01
      outer loop
         vertex 2.3932765e+01 5.7096950e+01 3.0556201e+01
         vertex 2.7679204e+01 5.5196094e+01 1.0000000e-06
         vertex 2.7786346e+01 6.0609953e+01 3.0556201e+01
      endloop
   endfacet
   facet normal 4.6715244e-01 -8.7398075e-01 1.3388890e-01
      outer loop
         vertex 3.1351539e+01 5.8209903e+01 1.0000000e-06
         vertex 3.5541277e+01 6.0449364e+01 1.0000000e-06
         vertex 3.2219825e+01 6.3355047e+01 3.0556201e+01
      endloop
   endfacet
   facet normal 3.5832102e-01 -9.2493317e-01 1.2690417e-01
      outer loop
         vertex 3.2219825e+01 6.3355047e+01 3.0556201e+01
         vertex 3.5541277e+01 6.0449364e+01 1.0000000e-06
         vertex 3.7082225e+01 6.5238751e+01 3.0556201e+01
      endloop
   endfacet
   facet normal 9.7129852e-02 -9.8617594e-01 1.3424904e-01
      outer loop
         vertex 4.0087408e+01 6.1828418e+01 1.0000000e-06
         vertex 4.4815226e+01 6.2294067e+01 1.0000000e-06
         vertex 4.2207963e+01 6.6196918e+01 3.0556201e+01
      endloop
   endfacet
   facet normal 0.0000000e+00 -9.9194138e-01 1.2669766e-01
      outer loop
         vertex 4.2207963e+01 6.6196918e+01 3.0556201e+01
         vertex 4.4815226e+01 6.2294067e+01 1.0000000e-06
         vertex 4.7422488e+01 6.6196918e+01 3.0556201e+01
      endloop
   endfacet
   facet normal -2.8766163e-01 -9.4829331e-01 1.3412899e-01
      outer loop
         vertex 4.9543044e+01 6.1828418e+01 1.0000000e-06
         vertex 5.4089174e+01 6.0449364e+01 1.0000000e-06
         vertex 5.2548227e+01 6.5238751e+01 3.0556201e+01
      endloop
   endfacet
   facet normal -3.5832102e-01 -9.2493317e-01 1.2690417e-01
      outer loop
         vertex 5.2548227e+01 6.5238751e+01 3.0556201e+01
         vertex 5.4089174e+01 6.0449364e+01 1.0000000e-06
         vertex 5.7410627e+01 6.3355047e+01 3.0556201e+01
      endloop
   endfacet
   facet normal -6.2871225e-01 -7.6608810e-01 1.3352876e-01
      outer loop
         vertex 5.8278912e+01 5.8209903e+01 1.0000000e-06
         vertex 6.1951248e+01 5.5196094e+01 1.0000000e-06
         vertex 6.1844106e+01 6.0609953e+01 3.0556201e+01
      endloop
   endfacet
   facet normal -6.6819529e-01 -7.3297532e-01 1.2752349e-01
      outer loop
         vertex 6.1844106e+01 6.0609953e+01 3.0556201e+01
         vertex 6.1951248e+01 5.5196094e+01 1.0000000e-06
         vertex 6.5697686e+01 5.7096950e+01 3.0556201e+01
      endloop
   endfacet
   facet normal -8.7415146e-01 -4.6724369e-01 1.3244830e-01
      outer loop
         vertex 6.4965056e+01 5.1523758e+01 1.0000000e-06
         vertex 6.7204518e+01 4.7334021e+01 1.0000000e-06
         vertex 6.8840140e+01 5.2935669e+01 3.0556201e+01
      endloop
   endfacet
   facet normal -8.8773557e-01 -4.4203979e-01 1.2855498e-01
      outer loop
         vertex 6.8840140e+01 5.2935669e+01 3.0556201e+01
         vertex 6.7204518e+01 4.7334021e+01 1.0000000e-06
         vertex 7.1164454e+01 4.8267818e+01 3.0556201e+01
      endloop
   endfacet
   facet normal -9.8662337e-01 -9.7173920e-02 1.3088757e-01
      outer loop
         vertex 6.8583571e+01 4.2787890e+01 1.0000000e-06
         vertex 6.9049221e+01 3.8060072e+01 1.0000000e-06
         vertex 7.2591477e+01 4.3252353e+01 3.0556201e+01
      endloop
   endfacet
   facet normal -9.4860146e-01 2.8775511e-01 1.3172797e-01
      outer loop
         vertex 6.8583571e+01 3.3332254e+01 1.0000000e-06
         vertex 6.7204518e+01 2.8786124e+01 1.0000000e-06
         vertex 7.1164454e+01 2.7852327e+01 3.0556201e+01
      endloop
   endfacet
   facet normal -8.8773557e-01 4.4203979e-01 1.2855498e-01
      outer loop
         vertex 7.1164454e+01 2.7852327e+01 3.0556201e+01
         vertex 6.7204518e+01 2.8786124e+01 1.0000000e-06
         vertex 6.8840140e+01 2.3184475e+01 3.0556201e+01
      endloop
   endfacet
   facet normal -7.6613802e-01 6.2875322e-01 1.3304856e-01
      outer loop
         vertex 6.4965056e+01 2.4596386e+01 1.0000000e-06
         vertex 6.1951248e+01 2.0924050e+01 1.0000000e-06
         vertex 6.5697686e+01 1.9023194e+01 3.0556201e+01
      endloop
   endfacet
   facet normal -6.6819529e-01 7.3297532e-01 1.2752349e-01
      outer loop
         vertex 6.5697686e+01 1.9023194e+01 3.0556201e+01
         vertex 6.1951248e+01 2.0924050e+01 1.0000000e-06
         vertex 6.1844106e+01 1.5510191e+01 3.0556201e+01
      endloop
   endfacet
   facet normal -4.6715244e-01 8.7398075e-01 1.3388890e-01
      outer loop
         vertex 5.8278912e+01 1.7910242e+01 1.0000000e-06
         vertex 5.4089174e+01 1.5670780e+01 1.0000000e-06
         vertex 5.7410627e+01 1.2765097e+01 3.0556201e+01
      endloop
   endfacet
   facet normal -3.5832102e-01 9.2493317e-01 1.2690417e-01
      outer loop
         vertex 5.7410627e+01 1.2765097e+01 3.0556201e+01
         vertex 5.4089174e+01 1.5670780e+01 1.0000000e-06
         vertex 5.2548227e+01 1.0881393e+01 3.0556201e+01
      endloop
   endfacet
   facet normal -9.7129852e-02 9.8617594e-01 1.3424904e-01
      outer loop
         vertex 4.9543044e+01 1.4291727e+01 1.0000000e-06
         vertex 4.4815226e+01 1.3826077e+01 1.0000000e-06
         vertex 4.7422488e+01 9.9232266e+00 3.0556201e+01
      endloop
   endfacet
   facet normal 0.0000000e+00 9.9194138e-01 1.2669766e-01
      outer loop
         vertex 4.7422488e+01 9.9232266e+00 3.0556201e+01
         vertex 4.4815226e+01 1.3826077e+01 1.0000000e-06
         vertex 4.2207963e+01 9.9232266e+00 3.0556201e+01
      endloop
   endfacet
   facet normal 2.8766163e-01 9.4829331e-01 1.3412899e-01
      outer loop
         vertex 4.0087408e+01 1.4291727e+01 1.0000000e-06
         vertex 3.5541277e+01 1.5670780e+01 1.0000000e-06
         vertex 3.7082225e+01 1.0881393e+01 3.0556201e+01
      endloop
   endfacet
   facet normal 3.5832102e-01 9.2493317e-01 1.2690417e-01
      outer loop
         vertex 3.7082225e+01 1.0881393e+01 3.0556201e+01
         vertex 3.5541277e+01 1.5670780e+01 1.0000000e-06
         vertex 3.2219825e+01 1.2765097e+01 3.0556201e+01
      endloop
   endfacet
   facet normal 6.2871225e-01 7.6608810e-01 1.3352876e-01
      outer loop
         vertex 3.1351539e+01 1.7910242e+01 1.0000000e-06
         vertex 2.7679204e+01 2.0924050e+01 1.0000000e-06
         vertex 2.7786346e+01 1.5510191e+01 3.0556201e+01
      endloop
   endfacet
   facet normal 6.6819529e-01 7.3297532e-01 1.2752349e-01
      outer loop
         vertex 2.7786346e+01 1.5510191e+01 3.0556201e+01
         vertex 2.7679204e+01 2.0924050e+01 1.0000000e-06
         vertex 2.3932765e+01 1.9023194e+01 3.0556201e+01
      endloop
   endfacet
   facet normal 8.7415146e-01 4.6724369e-01 1.3244830e-01
      outer loop
         vertex 2.4665395e+01 2.4596386e+01 1.0000000e-06
         vertex 2.2425934e+01 2.8786124e+01 1.0000000e-06
         vertex 2.0790311e+01 2.3184475e+01 3.0556201e+01
      endloop
   endfacet
   facet normal 8.8773557e-01 4.4203979e-01 1.2855498e-01
      outer loop
         vertex 2.0790311e+01 2.3184475e+01 3.0556201e+01
         vertex 2.2425934e+01 2.8786124e+01 1.0000000e-06
         vertex 1.8465997e+01 2.7852327e+01 3.0556201e+01
      endloop
   endfacet
   facet normal 9.8662337e-01 9.7173920e-02 1.3088757e-01
      outer loop
         vertex 2.1046880e+01 3.3332254e+01 1.0000000e-06
         vertex 2.0581231e+01 3.8060072e+01 1.0000000e-06
         vertex 1.7038975e+01 3.2867791e+01 3.0556201e+01
      endloop
   endfacet
   facet normal 9.8728468e-01 9.1485399e-02 1.2999761e-01
      outer loop
         vertex 2.0581231e+01 3.8060072e+01 1.0000000e-06
         vertex 1.6557839e+01 3.8060072e+01 3.0556201e+01
         vertex 1.7038975e+01 3.2867791e+01 3.0556201e+01
      endloop
   endfacet
   facet normal -9.8728468e-01 -9.1485399e-02 1.2999761e-01
      outer loop
         vertex 6.9049221e+01 3.8060072e+01 1.0000000e-06
         vertex 7.3072612e+01 3.8060072e+01 3.0556201e+01
         vertex 7.2591477e+01 4.3252353e+01 3.0556201e+01
      endloop
   endfacet
   facet normal 0.0000000e+00 0.0000000e+00 1.0000000e+00
      outer loop
         vertex 1.7038975e+01 3.2867791e+01 3.0556201e+01
         vertex 1.6557839e+01 3.8060072e+01 3.0556201e+01
         vertex 1.0000000e-06 4.0227215e+01 3.0556201e+01
      endloop
   endfacet
   facet normal 0.0000000e+00 0.0000000e+00 1.0000000e+00
      outer loop
         vertex 1.7038975e+01 3.2867791e+01 3.0556201e+01
         vertex 1.0000000e-06 4.0227215e+01 3.0556201e+01
         vertex 1.8465997e+01 2.7852327e+01 3.0556201e+01
      endloop
   endfacet
   facet normal 0.0000000e+00 -0.0000000e+00 1.0000000e+00
      outer loop
         vertex 1.6557839e+01 3.8060072e+01 3.0556201e+01
         vertex 1.7038975e+01 4.3252353e+01 3.0556201e+01
         vertex 1.0000000e-06 4.0227215e+01 3.0556201e+01
      endloop
   endfacet
   facet normal 0.0000000e+00 -0.0000000e+00 1.0000000e+00
      outer loop
         vertex 1.7038975e+01 4.3252353e+01 3.0556201e+01
         vertex 1.8465997e+01 4.8267818e+01 3.0556201e+01
         vertex 1.0000000e-06 4.0227215e+01 3.0556201e+01
      endloop
   endfacet
   facet normal 0.0000000e+00 -0.0000000e+00 1.0000000e+00
      outer loop
         vertex 2.3932765e+01 5.7096950e+01 3.0556201e+01
         vertex 2.7093227e+01 7.9279396e+01 3.0556201e+01
         vertex 2.0790311e+01 5.2935669e+01 3.0556201e+01
      endloop
   endfacet
   facet normal 0.0000000e+00 -0.0000000e+00 1.0000000e+00
      outer loop
         vertex 2.3932765e+01 5.7096950e+01 3.0556201e+01
         vertex 2.7786346e+01 6.0609953e+01 3.0556201e+01
         vertex 2.7093227e+01 7.9279396e+01 3.0556201e+01
      endloop
   endfacet
   facet normal 0.0000000e+00 -0.0000000e+00 1.0000000e+00
      outer loop
         vertex 2.7786346e+01 6.0609953e+01 3.0556201e+01
         vertex 3.2219825e+01 6.3355047e+01 3.0556201e+01
         vertex 2.7093227e+01 7.9279396e+01 3.0556201e+01
      endloop
   endfacet
   facet normal 0.0000000e+00 -0.0000000e+00 1.0000000e+00
      outer loop
         vertex 3.2219825e+01 6.3355047e+01 3.0556201e+01
         vertex 3.7082225e+01 6.5238751e+01 3.0556201e+01
         vertex 2.7093227e+01 7.9279396e+01 3.0556201e+01
      endloop
   endfacet
   facet normal 0.0000000e+00 -0.0000000e+00 1.0000000e+00
      outer loop
         vertex 3.7082225e+01 6.5238751e+01 3.0556201e+01
         vertex 4.2207963e+01 6.6196918e+01 3.0556201e+01
         vertex 2.7093227e+01 7.9279396e+01 3.0556201e+01
      endloop
   endfacet
   facet normal 0.0000000e+00 -0.0000000e+00 1.0000000e+00
      outer loop
         vertex 4.2207963e+01 6.6196918e+01 3.0556201e+01
         vertex 4.7422488e+01 6.6196918e+01 3.0556201e+01
         vertex 2.7093227e+01 7.9279396e+01 3.0556201e+01
      endloop
   endfacet
   facet normal -0.0000000e+00 0.0000000e+00 1.0000000e+00
      outer loop
         vertex 2.7093227e+01 7.9279396e+01 3.0556201e+01
         vertex 4.7422488e+01 6.6196918e+01 3.0556201e+01
         vertex 7.2526200e+01 7.2626371e+01 3.0556201e+01
      endloop
   endfacet
   facet normal -0.0000000e+00 0.0000000e+00 1.0000000e+00
      outer loop
         vertex 4.7422488e+01 6.6196918e+01 3.0556201e+01
         vertex 5.2548227e+01 6.5238751e+01 3.0556201e+01
         vertex 7.2526200e+01 7.2626371e+01 3.0556201e+01
      endloop
   endfacet
   facet normal -0.0000000e+00 0.0000000e+00 1.0000000e+00
      outer loop
         vertex 5.2548227e+01 6.5238751e+01 3.0556201e+01
         vertex 5.7410627e+01 6.3355047e+01 3.0556201e+01
         vertex 7.2526200e+01 7.2626371e+01 3.0556201e+01
      endloop
   endfacet
   facet normal -0.0000000e+00 0.0000000e+00 1.0000000e+00
      outer loop
         vertex 5.7410627e+01 6.3355047e+01 3.0556201e+01
         vertex 6.1844106e+01 6.0609953e+01 3.0556201e+01
         vertex 7.2526200e+01 7.2626371e+01 3.0556201e+01
      endloop
   endfacet
   facet normal -0.0000000e+00 0.0000000e+00 1.0000000e+00
      outer loop
         vertex 6.1844106e+01 6.0609953e+01 3.0556201e+01
         vertex 6.5697686e+01 5.7096950e+01 3.0556201e+01
         vertex 7.2526200e+01 7.2626371e+01 3.0556201e+01
      endloop
   endfacet
   facet normal -0.0000000e+00 0.0000000e+00 1.0000000e+00
      outer loop
         vertex 6.5697686e+01 5.7096950e+01 3.0556201e+01
         vertex 6.8840140e+01 5.2935669e+01 3.0556201e+01
         vertex 7.2526200e+01 7.2626371e+01 3.0556201e+01
      endloop
   endfacet
   facet normal -0.0000000e+00 -0.0000000e+00 1.0000000e+00
      outer loop
         vertex 7.2591477e+01 4.3252353e+01 3.0556201e+01
         vertex 8.7438871e+01 3.2733204e+01 3.0556201e+01
         vertex 7.1164454e+01 4.8267818e+01 3.0556201e+01
      endloop
   endfacet
   facet normal 0.0000000e+00 0.0000000e+00 1.0000000e+00
      outer loop
         vertex 7.2591477e+01 4.3252353e+01 3.0556201e+01
         vertex 7.3072612e+01 3.8060072e+01 3.0556201e+01
         vertex 8.7438871e+01 3.2733204e+01 3.0556201e+01
      endloop
   endfacet
   facet normal 0.0000000e+00 0.0000000e+00 1.0000000e+00
      outer loop
         vertex 7.3072612e+01 3.8060072e+01 3.0556201e+01
         vertex 7.2591477e+01 3.2867791e+01 3.0556201e+01
         vertex 8.7438871e+01 3.2733204e+01 3.0556201e+01
      endloop
   endfacet
   facet normal -0.0000000e+00 0.0000000e+00 1.0000000e+00
      outer loop
         vertex 7.2591477e+01 3.2867791e+01 3.0556201e+01
         vertex 7.1164454e+01 2.7852327e+01 3.0556201e+01
         vertex 8.7438871e+01 3.2733204e+01 3.0556201e+01
      endloop
   endfacet
   facet normal -0.0000000e+00 0.0000000e+00 1.0000000e+00
      outer loop
         vertex 7.1164454e+01 2.7852327e+01 3.0556201e+01
         vertex 6.8840140e+01 2.3184475e+01 3.0556201e+01
         vertex 8.7438871e+01 3.2733204e+01 3.0556201e+01
      endloop
   endfacet
   facet normal 0.0000000e+00 0.0000000e+00 1.0000000e+00
      outer loop
         vertex 8.7438871e+01 3.2733204e+01 3.0556201e+01
         vertex 6.8840140e+01 2.3184475e+01 3.0556201e+01
         vertex 6.4729562e+01 1.0000000e-06 3.0556201e+01
      endloop
   endfacet
   facet normal 0.0000000e+00 0.0000000e+00 1.0000000e+00
      outer loop
         vertex 6.8840140e+01 2.3184475e+01 3.0556201e+01
         vertex 6.5697686e+01 1.9023194e+01 3.0556201e+01
         vertex 6.4729562e+01 1.0000000e-06 3.0556201e+01
      endloop
   endfacet
   facet normal 0.0000000e+00 0.0000000e+00 1.0000000e+00
      outer loop
         vertex 6.5697686e+01 1.9023194e+01 3.0556201e+01
         vertex 6.1844106e+01 1.5510191e+01 3.0556201e+01
         vertex 6.4729562e+01 1.0000000e-06 3.0556201e+01
      endloop
   endfacet
   facet normal 0.0000000e+00 0.0000000e+00 1.0000000e+00
      outer loop
         vertex 6.1844106e+01 1.5510191e+01 3.0556201e+01
         vertex 5.7410627e+01 1.2765097e+01 3.0556201e+01
         vertex 6.4729562e+01 1.0000000e-06 3.0556201e+01
      endloop
   endfacet
   facet normal 0.0000000e+00 0.0000000e+00 1.0000000e+00
      outer loop
         vertex 5.7410627e+01 1.2765097e+01 3.0556201e+01
         vertex 5.2548227e+01 1.0881393e+01 3.0556201e+01
         vertex 6.4729562e+01 1.0000000e-06 3.0556201e+01
      endloop
   endfacet
   facet normal 0.0000000e+00 0.0000000e+00 1.0000000e+00
      outer loop
         vertex 5.2548227e+01 1.0881393e+01 3.0556201e+01
         vertex 4.7422488e+01 9.9232266e+00 3.0556201e+01
         vertex 6.4729562e+01 1.0000000e-06 3.0556201e+01
      endloop
   endfacet
   facet normal -0.0000000e+00 0.0000000e+00 1.0000000e+00
      outer loop
         vertex 3.7082225e+01 1.0881393e+01 3.0556201e+01
         vertex 2.2140214e+01 1.0000000e-06 3.0556201e+01
         vertex 4.2207963e+01 9.9232266e+00 3.0556201e+01
      endloop
   endfacet
   facet normal 0.0000000e+00 0.0000000e+00 1.0000000e+00
      outer loop
         vertex 3.7082225e+01 1.0881393e+01 3.0556201e+01
         vertex 3.2219825e+01 1.2765097e+01 3.0556201e+01
         vertex 2.2140214e+01 1.0000000e-06 3.0556201e+01
      endloop
   endfacet
   facet normal 0.0000000e+00 0.0000000e+00 1.0000000e+00
      outer loop
         vertex 3.2219825e+01 1.2765097e+01 3.0556201e+01
         vertex 2.7786346e+01 1.5510191e+01 3.0556201e+01
         vertex 2.2140214e+01 1.0000000e-06 3.0556201e+01
      endloop
   endfacet
   facet normal 0.0000000e+00 0.0000000e+00 1.0000000e+00
      outer loop
         vertex 2.7786346e+01 1.5510191e+01 3.0556201e+01
         vertex 2.3932765e+01 1.9023194e+01 3.0556201e+01
         vertex 2.2140214e+01 1.0000000e-06 3.0556201e+01
      endloop
   endfacet
   facet normal 0.0000000e+00 0.0000000e+00 1.0000000e+00
      outer loop
         vertex 2.3932765e+01 1.9023194e+01 3.0556201e+01
         vertex 2.0790311e+01 2.3184475e+01 3.0556201e+01
         vertex 2.2140214e+01 1.0000000e-06 3.0556201e+01
      endloop
   endfacet
   facet normal 0.0000000e+00 0.0000000e+00 1.0000000e+00
      outer loop
         vertex 2.2140214e+01 1.0000000e-06 3.0556201e+01
         vertex 2.0790311e+01 2.3184475e+01 3.0556201e+01
         vertex 1.0000000e-06 4.0227215e+01 3.0556201e+01
      endloop
   endfacet
   facet normal 0.0000000e+00 0.0000000e+00 1.0000000e+00
      outer loop
         vertex 2.0790311e+01 2.3184475e+01 3.0556201e+01
         vertex 1.8465997e+01 2.7852327e+01 3.0556201e+01
         vertex 1.0000000e-06 4.0227215e+01 3.0556201e+01
      endloop
   endfacet
   facet normal 0.0000000e+00 0.0000000e+00 1.0000000e+00
      outer loop
         vertex 8.7438871e+01 3.2733204e+01 3.0556201e+01
         vertex 7.2526200e+01 7.2626371e+01 3.0556201e+01
         vertex 7.1164454e+01 4.8267818e+01 3.0556201e+01
      endloop
   endfacet
   facet normal -0.0000000e+00 0.0000000e+00 1.0000000e+00
      outer loop
         vertex 2.7093227e+01 7.9279396e+01 3.0556201e+01
         vertex 1.0000000e-06 4.0227215e+01 3.0556201e+01
         vertex 2.0790311e+01 5.2935669e+01 3.0556201e+01
      endloop
   endfacet
   facet normal 0.0000000e+00 -0.0000000e+00 1.0000000e+00
      outer loop
         vertex 2.2140214e+01 1.0000000e-06 3.0556201e+01
         vertex 6.4729562e+01 1.0000000e-06 3.0556201e+01
         vertex 4.2207963e+01 9.9232266e+00 3.0556201e+01
      endloop
   endfacet
   facet normal -0.0000000e+00 0.0000000e+00 1.0000000e+00
      outer loop
         vertex 2.0790311e+01 5.2935669e+01 3.0556201e+01
         vertex 1.0000000e-06 4.0227215e+01 3.0556201e+01
         vertex 1.8465997e+01 4.8267818e+01 3.0556201e+01
      endloop
   endfacet
   facet normal 0.0000000e+00 0.0000000e+00 1.0000000e+00
      outer loop
         vertex 7.2526200e+01 7.2626371e+01 3.0556201e+01
         vertex 6.8840140e+01 5.2935669e+01 3.0556201e+01
         vertex 7.1164454e+01 4.8267818e+01 3.0556201e+01
      endloop
   endfacet
   facet normal 0.0000000e+00 0.0000000e+00 1.0000000e+00
      outer loop
         vertex 6.4729562e+01 1.0000000e-06 3.0556201e+01
         vertex 4.7422488e+01 9.9232266e+00 3.0556201e+01
         vertex 4.2207963e+01 9.9232266e+00 3.0556201e+01
      endloop
   endfacet
   facet normal 1.4264871e-01 9.7413659e-01 -1.7524055e-01
      outer loop
         vertex 2.7093227e+01 7.9279396e+01 3.0556201e+01
         vertex 7.2526200e+01 7.2626371e+01 3.0556201e+01
         vertex 2.9615357e+01 7.3413213e+01 1.0000000e-06
      endloop
   endfacet
   facet normal 1.4264871e-01 9.7413659e-01 -1.7524055e-01
      outer loop
         vertex 7.2526200e+01 7.2626371e+01 3.0556201e+01
         vertex 6.8582475e+01 6.7707022e+01 1.0000000e-06
         vertex 2.9615357e+01 7.3413213e+01 1.0000000e-06
      endloop
   endfacet
   facet normal 9.2231459e-01 3.4477519e-01 -1.7454475e-01
      outer loop
         vertex 8.7438871e+01 3.2733204e+01 3.0556201e+01
         vertex 8.1372830e+01 3.3491304e+01 1.0000000e-06
         vertex 7.2526200e+01 7.2626371e+01 3.0556201e+01
      endloop
   endfacet
   facet normal 9.2231459e-01 3.4477519e-01 -1.7454475e-01
      outer loop
         vertex 8.1372830e+01 3.3491304e+01 1.0000000e-06
         vertex 6.8582475e+01 6.7707022e+01 1.0000000e-06
         vertex 7.2526200e+01 7.2626371e+01 3.0556201e+01
      endloop
   endfacet
   facet normal 8.0901874e-01 -5.6127281e-01 -1.7453225e-01
      outer loop
         vertex 8.7438871e+01 3.2733204e+01 3.0556201e+01
         vertex 6.4729562e+01 1.0000000e-06 3.0556201e+01
         vertex 8.1372830e+01 3.3491304e+01 1.0000000e-06
      endloop
   endfacet
   facet normal 8.0901874e-01 -5.6127281e-01 -1.7453225e-01
      outer loop
         vertex 6.4729562e+01 1.0000000e-06 3.0556201e+01
         vertex 6.1895427e+01 5.4165712e+00 1.0000000e-06
         vertex 8.1372830e+01 3.3491304e+01 1.0000000e-06
      endloop
   endfacet
   facet normal -8.0901903e-01 5.6127301e-01 -1.7453026e-01
      outer loop
         vertex 1.0000000e-06 4.0227215e+01 3.0556201e+01
         vertex 2.7093227e+01 7.9279396e+01 3.0556201e+01
         vertex 6.3779399e+00 3.9918795e+01 1.0000000e-06
      endloop
   endfacet
   facet normal -8.0901903e-01 5.6127301e-01 -1.7453026e-01
      outer loop
         vertex 2.7093227e+01 7.9279396e+01 3.0556201e+01
         vertex 2.9615357e+01 7.3413213e+01 1.0000000e-06
         vertex 6.3779399e+00 3.9918795e+01 1.0000000e-06
      endloop
   endfacet
   facet normal 0.0000000e+00 -9.8464926e-01 -1.7454467e-01
      outer loop
         vertex 2.2140214e+01 1.0000000e-06 3.0556201e+01
         vertex 2.5367239e+01 5.4165712e+00 1.0000000e-06
         vertex 6.4729562e+01 1.0000000e-06 3.0556201e+01
      endloop
   endfacet
   facet normal 0.0000000e+00 -9.8464926e-01 -1.7454467e-01
      outer loop
         vertex 2.5367239e+01 5.4165712e+00 1.0000000e-06
         vertex 6.1895427e+01 5.4165712e+00 1.0000000e-06
         vertex 6.4729562e+01 1.0000000e-06 3.0556201e+01
      endloop
   endfacet
   facet normal 3.9203339e-16 -3.8611919e-17 -1.0000000e+00
      outer loop
         vertex 2.1046880e+01 4.2787890e+01 1.0000000e-06
         vertex 2.0581231e+01 3.8060072e+01 1.0000000e-06
         vertex 6.3779399e+00 3.9918795e+01 1.0000000e-06
      endloop
   endfacet
   facet normal 4.0873198e-16 -1.2398749e-16 -1.0000000e+00
      outer loop
         vertex 2.1046880e+01 4.2787890e+01 1.0000000e-06
         vertex 6.3779399e+00 3.9918795e+01 1.0000000e-06
         vertex 2.2425934e+01 4.7334021e+01 1.0000000e-06
      endloop
   endfacet
   facet normal 4.0227129e-16 3.9620264e-17 -1.0000000e+00
      outer loop
         vertex 2.0581231e+01 3.8060072e+01 1.0000000e-06
         vertex 2.1046880e+01 3.3332254e+01 1.0000000e-06
         vertex 6.3779399e+00 3.9918795e+01 1.0000000e-06
      endloop
   endfacet
   facet normal 4.4510789e-16 1.3502200e-16 -1.0000000e+00
      outer loop
         vertex 2.1046880e+01 3.3332254e+01 1.0000000e-06
         vertex 2.2425934e+01 2.8786124e+01 1.0000000e-06
         vertex 6.3779399e+00 3.9918795e+01 1.0000000e-06
      endloop
   endfacet
   facet normal 3.7502986e-16 3.0777906e-16 -1.0000000e+00
      outer loop
         vertex 2.7679204e+01 2.0924050e+01 1.0000000e-06
         vertex 2.5367239e+01 5.4165712e+00 1.0000000e-06
         vertex 2.4665395e+01 2.4596386e+01 1.0000000e-06
      endloop
   endfacet
   facet normal 2.6593570e-16 3.2404359e-16 -1.0000000e+00
      outer loop
         vertex 2.7679204e+01 2.0924050e+01 1.0000000e-06
         vertex 3.1351539e+01 1.7910242e+01 1.0000000e-06
         vertex 2.5367239e+01 5.4165712e+00 1.0000000e-06
      endloop
   endfacet
   facet normal 1.9210684e-16 3.5940662e-16 -1.0000000e+00
      outer loop
         vertex 3.1351539e+01 1.7910242e+01 1.0000000e-06
         vertex 3.5541277e+01 1.5670780e+01 1.0000000e-06
         vertex 2.5367239e+01 5.4165712e+00 1.0000000e-06
      endloop
   endfacet
   facet normal 1.2824548e-16 4.2276869e-16 -1.0000000e+00
      outer loop
         vertex 3.5541277e+01 1.5670780e+01 1.0000000e-06
         vertex 4.0087408e+01 1.4291727e+01 1.0000000e-06
         vertex 2.5367239e+01 5.4165712e+00 1.0000000e-06
      endloop
   endfacet
   facet normal 5.3800172e-17 5.4624231e-16 -1.0000000e+00
      outer loop
         vertex 4.0087408e+01 1.4291727e+01 1.0000000e-06
         vertex 4.4815226e+01 1.3826077e+01 1.0000000e-06
         vertex 2.5367239e+01 5.4165712e+00 1.0000000e-06
      endloop
   endfacet
   facet normal 0.0000000e+00 6.7066163e-16 -1.0000000e+00
      outer loop
         vertex 2.5367239e+01 5.4165712e+00 1.0000000e-06
         vertex 4.4815226e+01 1.3826077e+01 1.0000000e-06
         vertex 6.1895427e+01 5.4165712e+00 1.0000000e-06
      endloop
   endfacet
   facet normal -5.5043419e-17 5.5886521e-16 -1.0000000e+00
      outer loop
         vertex 4.4815226e+01 1.3826077e+01 1.0000000e-06
         vertex 4.9543044e+01 1.4291727e+01 1.0000000e-06
         vertex 6.1895427e+01 5.4165712e+00 1.0000000e-06
      endloop
   endfacet
   facet normal -1.3554322e-16 4.4682612e-16 -1.0000000e+00
      outer loop
         vertex 4.9543044e+01 1.4291727e+01 1.0000000e-06
         vertex 5.4089174e+01 1.5670780e+01 1.0000000e-06
         vertex 6.1895427e+01 5.4165712e+00 1.0000000e-06
      endloop
   endfacet
   facet normal -2.0895971e-16 3.9093612e-16 -1.0000000e+00
      outer loop
         vertex 5.4089174e+01 1.5670780e+01 1.0000000e-06
         vertex 5.8278912e+01 1.7910242e+01 1.0000000e-06
         vertex 6.1895427e+01 5.4165712e+00 1.0000000e-06
      endloop
   endfacet
   facet normal -2.9935797e-16 3.6476874e-16 -1.0000000e+00
      outer loop
         vertex 5.8278912e+01 1.7910242e+01 1.0000000e-06
         vertex 6.1951248e+01 2.0924050e+01 1.0000000e-06
         vertex 6.1895427e+01 5.4165712e+00 1.0000000e-06
      endloop
   endfacet
   facet normal -4.8397563e-16 2.5869036e-16 -1.0000000e+00
      outer loop
         vertex 6.7204518e+01 2.8786124e+01 1.0000000e-06
         vertex 8.1372830e+01 3.3491304e+01 1.0000000e-06
         vertex 6.4965056e+01 2.4596386e+01 1.0000000e-06
      endloop
   endfacet
   facet normal -4.4265976e-16 1.3427937e-16 -1.0000000e+00
      outer loop
         vertex 6.7204518e+01 2.8786124e+01 1.0000000e-06
         vertex 6.8583571e+01 3.3332254e+01 1.0000000e-06
         vertex 8.1372830e+01 3.3491304e+01 1.0000000e-06
      endloop
   endfacet
   facet normal -4.4153065e-16 4.3486973e-17 -1.0000000e+00
      outer loop
         vertex 6.8583571e+01 3.3332254e+01 1.0000000e-06
         vertex 6.9049221e+01 3.8060072e+01 1.0000000e-06
         vertex 8.1372830e+01 3.3491304e+01 1.0000000e-06
      endloop
   endfacet
   facet normal -4.7499674e-16 -4.6783095e-17 -1.0000000e+00
      outer loop
         vertex 6.9049221e+01 3.8060072e+01 1.0000000e-06
         vertex 6.8583571e+01 4.2787890e+01 1.0000000e-06
         vertex 8.1372830e+01 3.3491304e+01 1.0000000e-06
      endloop
   endfacet
   facet normal -5.6573747e-16 -1.7161458e-16 -1.0000000e+00
      outer loop
         vertex 6.8583571e+01 4.2787890e+01 1.0000000e-06
         vertex 6.7204518e+01 4.7334021e+01 1.0000000e-06
         vertex 8.1372830e+01 3.3491304e+01 1.0000000e-06
      endloop
   endfacet
   facet normal -6.2709856e-16 -2.3441896e-16 -1.0000000e+00
      outer loop
         vertex 8.1372830e+01 3.3491304e+01 1.0000000e-06
         vertex 6.7204518e+01 4.7334021e+01 1.0000000e-06
         vertex 6.8582475e+01 6.7707022e+01 1.0000000e-06
      endloop
   endfacet
   facet normal -4.5974390e-16 -2.4573824e-16 -1.0000000e+00
      outer loop
         vertex 6.7204518e+01 4.7334021e+01 1.0000000e-06
         vertex 6.4965056e+01 5.1523758e+01 1.0000000e-06
         vertex 6.8582475e+01 6.7707022e+01 1.0000000e-06
      endloop
   endfacet
   facet normal -3.3374991e-16 -2.7390147e-16 -1.0000000e+00
      outer loop
         vertex 6.4965056e+01 5.1523758e+01 1.0000000e-06
         vertex 6.1951248e+01 5.5196094e+01 1.0000000e-06
         vertex 6.8582475e+01 6.7707022e+01 1.0000000e-06
      endloop
   endfacet
   facet normal -2.5781565e-16 -3.1414928e-16 -1.0000000e+00
      outer loop
         vertex 6.1951248e+01 5.5196094e+01 1.0000000e-06
         vertex 5.8278912e+01 5.8209903e+01 1.0000000e-06
         vertex 6.8582475e+01 6.7707022e+01 1.0000000e-06
      endloop
   endfacet
   facet normal -2.0091368e-16 -3.7588306e-16 -1.0000000e+00
      outer loop
         vertex 5.8278912e+01 5.8209903e+01 1.0000000e-06
         vertex 5.4089174e+01 6.0449364e+01 1.0000000e-06
         vertex 6.8582475e+01 6.7707022e+01 1.0000000e-06
      endloop
   endfacet
   facet normal -5.7730178e-17 -5.8614433e-16 -1.0000000e+00
      outer loop
         vertex 4.4815226e+01 6.2294067e+01 1.0000000e-06
         vertex 2.9615357e+01 7.3413213e+01 1.0000000e-06
         vertex 4.9543044e+01 6.1828418e+01 1.0000000e-06
      endloop
   endfacet
   facet normal 4.4029489e-17 -4.4703890e-16 -1.0000000e+00
      outer loop
         vertex 4.4815226e+01 6.2294067e+01 1.0000000e-06
         vertex 4.0087408e+01 6.1828418e+01 1.0000000e-06
         vertex 2.9615357e+01 7.3413213e+01 1.0000000e-06
      endloop
   endfacet
   facet normal 1.1590015e-16 -3.8207157e-16 -1.0000000e+00
      outer loop
         vertex 4.0087408e+01 6.1828418e+01 1.0000000e-06
         vertex 3.5541277e+01 6.0449364e+01 1.0000000e-06
         vertex 2.9615357e+01 7.3413213e+01 1.0000000e-06
      endloop
   endfacet
   facet normal 1.8687914e-16 -3.4962628e-16 -1.0000000e+00
      outer loop
         vertex 3.5541277e+01 6.0449364e+01 1.0000000e-06
         vertex 3.1351539e+01 5.8209903e+01 1.0000000e-06
         vertex 2.9615357e+01 7.3413213e+01 1.0000000e-06
      endloop
   endfacet
   facet normal 2.7835755e-16 -3.3917966e-16 -1.0000000e+00
      outer loop
         vertex 3.1351539e+01 5.8209903e+01 1.0000000e-06
         vertex 2.7679204e+01 5.5196094e+01 1.0000000e-06
         vertex 2.9615357e+01 7.3413213e+01 1.0000000e-06
      endloop
   endfacet
   facet normal 4.3336600e-16 -3.5565428e-16 -1.0000000e+00
      outer loop
         vertex 2.7679204e+01 5.5196094e+01 1.0000000e-06
         vertex 2.4665395e+01 5.1523758e+01 1.0000000e-06
         vertex 2.9615357e+01 7.3413213e+01 1.0000000e-06
      endloop
   endfacet
   facet normal 5.5097478e-16 -3.8224969e-16 -1.0000000e+00
      outer loop
         vertex 2.9615357e+01 7.3413213e+01 1.0000000e-06
         vertex 2.4665395e+01 5.1523758e+01 1.0000000e-06
         vertex 6.3779399e+00 3.9918795e+01 1.0000000e-06
      endloop
   endfacet
   facet normal 4.6670905e-16 -2.4946119e-16 -1.0000000e+00
      outer loop
         vertex 2.4665395e+01 5.1523758e+01 1.0000000e-06
         vertex 2.2425934e+01 4.7334021e+01 1.0000000e-06
         vertex 6.3779399e+00 3.9918795e+01 1.0000000e-06
      endloop
   endfacet
   facet normal 5.7233082e-16 3.1499885e-16 -1.0000000e+00
      outer loop
         vertex 2.5367239e+01 5.4165712e+00 1.0000000e-06
         vertex 6.3779399e+00 3.9918795e+01 1.0000000e-06
         vertex 2.4665395e+01 2.4596386e+01 1.0000000e-06
      endloop
   endfacet
   facet normal -9.5294981e-17 -6.5076176e-16 -1.0000000e+00
      outer loop
         vertex 2.9615357e+01 7.3413213e+01 1.0000000e-06
         vertex 6.8582475e+01 6.7707022e+01 1.0000000e-06
         vertex 4.9543044e+01 6.1828418e+01 1.0000000e-06
      endloop
   endfacet
   facet normal -5.5094969e-16 3.8223228e-16 -1.0000000e+00
      outer loop
         vertex 8.1372830e+01 3.3491304e+01 1.0000000e-06
         vertex 6.1895427e+01 5.4165712e+00 1.0000000e-06
         vertex 6.4965056e+01 2.4596386e+01 1.0000000e-06
      endloop
   endfacet
   facet normal 5.5854984e-16 2.9855111e-16 -1.0000000e+00
      outer loop
         vertex 2.4665395e+01 2.4596386e+01 1.0000000e-06
         vertex 6.3779399e+00 3.9918795e+01 1.0000000e-06
         vertex 2.2425934e+01 2.8786124e+01 1.0000000e-06
      endloop
   endfacet
   facet normal -4.4511130e-16 3.6529340e-16 -1.0000000e+00
      outer loop
         vertex 6.1895427e+01 5.4165712e+00 1.0000000e-06
         vertex 6.1951248e+01 2.0924050e+01 1.0000000e-06
         vertex 6.4965056e+01 2.4596386e+01 1.0000000e-06
      endloop
   endfacet
   facet normal -1.4680218e-16 -4.8394192e-16 -1.0000000e+00
      outer loop
         vertex 6.8582475e+01 6.7707022e+01 1.0000000e-06
         vertex 5.4089174e+01 6.0449364e+01 1.0000000e-06
         vertex 4.9543044e+01 6.1828418e+01 1.0000000e-06
      endloop
   endfacet
   facet normal -8.6251898e-01 -4.7471232e-01 -1.7524046e-01
      outer loop
         vertex 1.0000000e-06 4.0227215e+01 3.0556201e+01
         vertex 6.3779399e+00 3.9918795e+01 1.0000000e-06
         vertex 2.2140214e+01 1.0000000e-06 3.0556201e+01
      endloop
   endfacet
   facet normal -8.6251898e-01 -4.7471232e-01 -1.7524046e-01
      outer loop
         vertex 6.3779399e+00 3.9918795e+01 1.0000000e-06
         vertex 2.5367239e+01 5.4165712e+00 1.0000000e-06
         vertex 2.2140214e+01 1.0000000e-06 3.0556201e+01
      endloop
   endfacet
endsolid AutoCAD
