solid AutoCAD
   facet normal 9.8728468e-01 -9.1485399e-02 1.2999761e-01
      outer loop
         vertex 1.7064605e+01 4.4801931e+01 3.0556201e+01
         vertex 1.6583470e+01 3.9609650e+01 3.0556201e+01
         vertex 2.0606861e+01 3.9609650e+01 1.0000000e-06
      endloop
   endfacet
   facet normal 9.8662337e-01 -9.7173920e-02 1.3088757e-01
      outer loop
         vertex 1.7064605e+01 4.4801931e+01 3.0556201e+01
         vertex 2.0606861e+01 3.9609650e+01 1.0000000e-06
         vertex 2.1072511e+01 4.4337468e+01 1.0000000e-06
      endloop
   endfacet
   facet normal 9.5376102e-01 -2.7136841e-01 1.2922499e-01
      outer loop
         vertex 1.7064605e+01 4.4801931e+01 3.0556201e+01
         vertex 2.1072511e+01 4.4337468e+01 1.0000000e-06
         vertex 1.8491628e+01 4.9817395e+01 3.0556201e+01
      endloop
   endfacet
   facet normal 9.5376102e-01 2.7136841e-01 1.2922499e-01
      outer loop
         vertex 1.8491628e+01 2.9401905e+01 3.0556201e+01
         vertex 2.1072511e+01 3.4881832e+01 1.0000000e-06
         vertex 1.7064605e+01 3.4417369e+01 3.0556201e+01
      endloop
   endfacet
   facet normal 9.4860146e-01 2.8775511e-01 1.3172797e-01
      outer loop
         vertex 2.1072511e+01 3.4881832e+01 1.0000000e-06
         vertex 1.8491628e+01 2.9401905e+01 3.0556201e+01
         vertex 2.2451564e+01 3.0335702e+01 1.0000000e-06
      endloop
   endfacet
   facet normal 7.9145413e-01 5.9767842e-01 1.2798777e-01
      outer loop
         vertex 2.3958396e+01 2.0572772e+01 3.0556201e+01
         vertex 2.4691026e+01 2.6145964e+01 1.0000000e-06
         vertex 2.0815942e+01 2.4734053e+01 3.0556201e+01
      endloop
   endfacet
   facet normal 7.6613802e-01 6.2875322e-01 1.3304856e-01
      outer loop
         vertex 2.4691026e+01 2.6145964e+01 1.0000000e-06
         vertex 2.3958396e+01 2.0572772e+01 3.0556201e+01
         vertex 2.7704834e+01 2.2473628e+01 1.0000000e-06
      endloop
   endfacet
   facet normal 5.2215855e-01 8.4331501e-01 1.2716226e-01
      outer loop
         vertex 3.2245455e+01 1.4314675e+01 3.0556201e+01
         vertex 3.1377170e+01 1.9459820e+01 1.0000000e-06
         vertex 2.7811976e+01 1.7059769e+01 3.0556201e+01
      endloop
   endfacet
   facet normal 4.6715244e-01 8.7398075e-01 1.3388890e-01
      outer loop
         vertex 3.1377170e+01 1.9459820e+01 1.0000000e-06
         vertex 3.2245455e+01 1.4314675e+01 3.0556201e+01
         vertex 3.5566908e+01 1.7220358e+01 1.0000000e-06
      endloop
   endfacet
   facet normal 1.8226754e-01 9.7504521e-01 1.2674929e-01
      outer loop
         vertex 4.2233593e+01 1.1472804e+01 3.0556201e+01
         vertex 4.0113038e+01 1.5841304e+01 1.0000000e-06
         vertex 3.7107855e+01 1.2430971e+01 3.0556201e+01
      endloop
   endfacet
   facet normal 9.7129852e-02 9.8617594e-01 1.3424904e-01
      outer loop
         vertex 4.0113038e+01 1.5841304e+01 1.0000000e-06
         vertex 4.2233593e+01 1.1472804e+01 3.0556201e+01
         vertex 4.4840856e+01 1.5375655e+01 1.0000000e-06
      endloop
   endfacet
   facet normal -1.8226754e-01 9.7504521e-01 1.2674929e-01
      outer loop
         vertex 5.2573857e+01 1.2430971e+01 3.0556201e+01
         vertex 4.9568674e+01 1.5841304e+01 1.0000000e-06
         vertex 4.7448119e+01 1.1472804e+01 3.0556201e+01
      endloop
   endfacet
   facet normal -2.8766163e-01 9.4829331e-01 1.3412899e-01
      outer loop
         vertex 4.9568674e+01 1.5841304e+01 1.0000000e-06
         vertex 5.2573857e+01 1.2430971e+01 3.0556201e+01
         vertex 5.4114805e+01 1.7220358e+01 1.0000000e-06
      endloop
   endfacet
   facet normal -5.2215855e-01 8.4331501e-01 1.2716226e-01
      outer loop
         vertex 6.1869736e+01 1.7059769e+01 3.0556201e+01
         vertex 5.8304542e+01 1.9459820e+01 1.0000000e-06
         vertex 5.7436257e+01 1.4314675e+01 3.0556201e+01
      endloop
   endfacet
   facet normal -6.2871225e-01 7.6608810e-01 1.3352876e-01
      outer loop
         vertex 5.8304542e+01 1.9459820e+01 1.0000000e-06
         vertex 6.1869736e+01 1.7059769e+01 3.0556201e+01
         vertex 6.1976878e+01 2.2473628e+01 1.0000000e-06
      endloop
   endfacet
   facet normal -7.9145413e-01 5.9767842e-01 1.2798777e-01
      outer loop
         vertex 6.8865770e+01 2.4734053e+01 3.0556201e+01
         vertex 6.4990687e+01 2.6145964e+01 1.0000000e-06
         vertex 6.5723317e+01 2.0572772e+01 3.0556201e+01
      endloop
   endfacet
   facet normal -8.7415146e-01 4.6724369e-01 1.3244830e-01
      outer loop
         vertex 6.4990687e+01 2.6145964e+01 1.0000000e-06
         vertex 6.8865770e+01 2.4734053e+01 3.0556201e+01
         vertex 6.7230148e+01 3.0335702e+01 1.0000000e-06
      endloop
   endfacet
   facet normal -9.5376102e-01 2.7136841e-01 1.2922499e-01
      outer loop
         vertex 7.2617107e+01 3.4417369e+01 3.0556201e+01
         vertex 6.8609202e+01 3.4881832e+01 1.0000000e-06
         vertex 7.1190084e+01 2.9401905e+01 3.0556201e+01
      endloop
   endfacet
   facet normal -9.8662337e-01 9.7173920e-02 1.3088757e-01
      outer loop
         vertex 6.8609202e+01 3.4881832e+01 1.0000000e-06
         vertex 7.2617107e+01 3.4417369e+01 3.0556201e+01
         vertex 6.9074851e+01 3.9609650e+01 1.0000000e-06
      endloop
   endfacet
   facet normal -9.8728468e-01 9.1485399e-02 1.2999761e-01
      outer loop
         vertex 7.2617107e+01 3.4417369e+01 3.0556201e+01
         vertex 7.3098243e+01 3.9609650e+01 3.0556201e+01
         vertex 6.9074851e+01 3.9609650e+01 1.0000000e-06
      endloop
   endfacet
   facet normal -9.5376102e-01 -2.7136841e-01 1.2922499e-01
      outer loop
         vertex 7.1190084e+01 4.9817395e+01 3.0556201e+01
         vertex 6.8609202e+01 4.4337468e+01 1.0000000e-06
         vertex 7.2617107e+01 4.4801931e+01 3.0556201e+01
      endloop
   endfacet
   facet normal -9.4860146e-01 -2.8775511e-01 1.3172797e-01
      outer loop
         vertex 6.8609202e+01 4.4337468e+01 1.0000000e-06
         vertex 7.1190084e+01 4.9817395e+01 3.0556201e+01
         vertex 6.7230148e+01 4.8883598e+01 1.0000000e-06
      endloop
   endfacet
   facet normal -7.9145413e-01 -5.9767842e-01 1.2798777e-01
      outer loop
         vertex 6.5723317e+01 5.8646528e+01 3.0556201e+01
         vertex 6.4990687e+01 5.3073336e+01 1.0000000e-06
         vertex 6.8865770e+01 5.4485247e+01 3.0556201e+01
      endloop
   endfacet
   facet normal -7.6613802e-01 -6.2875322e-01 1.3304856e-01
      outer loop
         vertex 6.4990687e+01 5.3073336e+01 1.0000000e-06
         vertex 6.5723317e+01 5.8646528e+01 3.0556201e+01
         vertex 6.1976878e+01 5.6745672e+01 1.0000000e-06
      endloop
   endfacet
   facet normal -5.2215855e-01 -8.4331501e-01 1.2716226e-01
      outer loop
         vertex 5.7436257e+01 6.4904625e+01 3.0556201e+01
         vertex 5.8304542e+01 5.9759480e+01 1.0000000e-06
         vertex 6.1869736e+01 6.2159531e+01 3.0556201e+01
      endloop
   endfacet
   facet normal -4.6715244e-01 -8.7398075e-01 1.3388890e-01
      outer loop
         vertex 5.8304542e+01 5.9759480e+01 1.0000000e-06
         vertex 5.7436257e+01 6.4904625e+01 3.0556201e+01
         vertex 5.4114805e+01 6.1998942e+01 1.0000000e-06
      endloop
   endfacet
   facet normal -1.8226754e-01 -9.7504521e-01 1.2674929e-01
      outer loop
         vertex 4.7448119e+01 6.7746496e+01 3.0556201e+01
         vertex 4.9568674e+01 6.3377996e+01 1.0000000e-06
         vertex 5.2573857e+01 6.6788329e+01 3.0556201e+01
      endloop
   endfacet
   facet normal -9.7129852e-02 -9.8617594e-01 1.3424904e-01
      outer loop
         vertex 4.9568674e+01 6.3377996e+01 1.0000000e-06
         vertex 4.7448119e+01 6.7746496e+01 3.0556201e+01
         vertex 4.4840856e+01 6.3843645e+01 1.0000000e-06
      endloop
   endfacet
   facet normal 1.8226754e-01 -9.7504521e-01 1.2674929e-01
      outer loop
         vertex 3.7107855e+01 6.6788329e+01 3.0556201e+01
         vertex 4.0113038e+01 6.3377996e+01 1.0000000e-06
         vertex 4.2233593e+01 6.7746496e+01 3.0556201e+01
      endloop
   endfacet
   facet normal 2.8766163e-01 -9.4829331e-01 1.3412899e-01
      outer loop
         vertex 4.0113038e+01 6.3377996e+01 1.0000000e-06
         vertex 3.7107855e+01 6.6788329e+01 3.0556201e+01
         vertex 3.5566908e+01 6.1998942e+01 1.0000000e-06
      endloop
   endfacet
   facet normal 5.2215855e-01 -8.4331501e-01 1.2716226e-01
      outer loop
         vertex 2.7811976e+01 6.2159531e+01 3.0556201e+01
         vertex 3.1377170e+01 5.9759480e+01 1.0000000e-06
         vertex 3.2245455e+01 6.4904625e+01 3.0556201e+01
      endloop
   endfacet
   facet normal 6.2871225e-01 -7.6608810e-01 1.3352876e-01
      outer loop
         vertex 3.1377170e+01 5.9759480e+01 1.0000000e-06
         vertex 2.7811976e+01 6.2159531e+01 3.0556201e+01
         vertex 2.7704834e+01 5.6745672e+01 1.0000000e-06
      endloop
   endfacet
   facet normal 7.9145413e-01 -5.9767842e-01 1.2798777e-01
      outer loop
         vertex 2.0815942e+01 5.4485247e+01 3.0556201e+01
         vertex 2.4691026e+01 5.3073336e+01 1.0000000e-06
         vertex 2.3958396e+01 5.8646528e+01 3.0556201e+01
      endloop
   endfacet
   facet normal 8.7415146e-01 -4.6724369e-01 1.3244830e-01
      outer loop
         vertex 2.4691026e+01 5.3073336e+01 1.0000000e-06
         vertex 2.0815942e+01 5.4485247e+01 3.0556201e+01
         vertex 2.2451564e+01 4.8883598e+01 1.0000000e-06
      endloop
   endfacet
   facet normal 9.4860146e-01 -2.8775511e-01 1.3172797e-01
      outer loop
         vertex 2.1072511e+01 4.4337468e+01 1.0000000e-06
         vertex 2.2451564e+01 4.8883598e+01 1.0000000e-06
         vertex 1.8491628e+01 4.9817395e+01 3.0556201e+01
      endloop
   endfacet
   facet normal 8.8773557e-01 -4.4203979e-01 1.2855498e-01
      outer loop
         vertex 1.8491628e+01 4.9817395e+01 3.0556201e+01
         vertex 2.2451564e+01 4.8883598e+01 1.0000000e-06
         vertex 2.0815942e+01 5.4485247e+01 3.0556201e+01
      endloop
   endfacet
   facet normal 7.6613802e-01 -6.2875322e-01 1.3304856e-01
      outer loop
         vertex 2.4691026e+01 5.3073336e+01 1.0000000e-06
         vertex 2.7704834e+01 5.6745672e+01 1.0000000e-06
         vertex 2.3958396e+01 5.8646528e+01 3.0556201e+01
      endloop
   endfacet
   facet normal 6.6819529e-01 -7.3297532e-01 1.2752349e-01
      outer loop
         vertex 2.3958396e+01 5.8646528e+01 3.0556201e+01
         vertex 2.7704834e+01 5.6745672e+01 1.0000000e-06
         vertex 2.7811976e+01 6.2159531e+01 3.0556201e+01
      endloop
   endfacet
   facet normal 4.6715244e-01 -8.7398075e-01 1.3388890e-01
      outer loop
         vertex 3.1377170e+01 5.9759480e+01 1.0000000e-06
         vertex 3.5566908e+01 6.1998942e+01 1.0000000e-06
         vertex 3.2245455e+01 6.4904625e+01 3.0556201e+01
      endloop
   endfacet
   facet normal 3.5832102e-01 -9.2493317e-01 1.2690417e-01
      outer loop
         vertex 3.2245455e+01 6.4904625e+01 3.0556201e+01
         vertex 3.5566908e+01 6.1998942e+01 1.0000000e-06
         vertex 3.7107855e+01 6.6788329e+01 3.0556201e+01
      endloop
   endfacet
   facet normal 9.7129852e-02 -9.8617594e-01 1.3424904e-01
      outer loop
         vertex 4.0113038e+01 6.3377996e+01 1.0000000e-06
         vertex 4.4840856e+01 6.3843645e+01 1.0000000e-06
         vertex 4.2233593e+01 6.7746496e+01 3.0556201e+01
      endloop
   endfacet
   facet normal 0.0000000e+00 -9.9194138e-01 1.2669766e-01
      outer loop
         vertex 4.2233593e+01 6.7746496e+01 3.0556201e+01
         vertex 4.4840856e+01 6.3843645e+01 1.0000000e-06
         vertex 4.7448119e+01 6.7746496e+01 3.0556201e+01
      endloop
   endfacet
   facet normal -2.8766163e-01 -9.4829331e-01 1.3412899e-01
      outer loop
         vertex 4.9568674e+01 6.3377996e+01 1.0000000e-06
         vertex 5.4114805e+01 6.1998942e+01 1.0000000e-06
         vertex 5.2573857e+01 6.6788329e+01 3.0556201e+01
      endloop
   endfacet
   facet normal -3.5832102e-01 -9.2493317e-01 1.2690417e-01
      outer loop
         vertex 5.2573857e+01 6.6788329e+01 3.0556201e+01
         vertex 5.4114805e+01 6.1998942e+01 1.0000000e-06
         vertex 5.7436257e+01 6.4904625e+01 3.0556201e+01
      endloop
   endfacet
   facet normal -6.2871225e-01 -7.6608810e-01 1.3352876e-01
      outer loop
         vertex 5.8304542e+01 5.9759480e+01 1.0000000e-06
         vertex 6.1976878e+01 5.6745672e+01 1.0000000e-06
         vertex 6.1869736e+01 6.2159531e+01 3.0556201e+01
      endloop
   endfacet
   facet normal -6.6819529e-01 -7.3297532e-01 1.2752349e-01
      outer loop
         vertex 6.1869736e+01 6.2159531e+01 3.0556201e+01
         vertex 6.1976878e+01 5.6745672e+01 1.0000000e-06
         vertex 6.5723317e+01 5.8646528e+01 3.0556201e+01
      endloop
   endfacet
   facet normal -8.7415146e-01 -4.6724369e-01 1.3244830e-01
      outer loop
         vertex 6.4990687e+01 5.3073336e+01 1.0000000e-06
         vertex 6.7230148e+01 4.8883598e+01 1.0000000e-06
         vertex 6.8865770e+01 5.4485247e+01 3.0556201e+01
      endloop
   endfacet
   facet normal -8.8773557e-01 -4.4203979e-01 1.2855498e-01
      outer loop
         vertex 6.8865770e+01 5.4485247e+01 3.0556201e+01
         vertex 6.7230148e+01 4.8883598e+01 1.0000000e-06
         vertex 7.1190084e+01 4.9817395e+01 3.0556201e+01
      endloop
   endfacet
   facet normal -9.8662337e-01 -9.7173920e-02 1.3088757e-01
      outer loop
         vertex 6.8609202e+01 4.4337468e+01 1.0000000e-06
         vertex 6.9074851e+01 3.9609650e+01 1.0000000e-06
         vertex 7.2617107e+01 4.4801931e+01 3.0556201e+01
      endloop
   endfacet
   facet normal -9.4860146e-01 2.8775511e-01 1.3172797e-01
      outer loop
         vertex 6.8609202e+01 3.4881832e+01 1.0000000e-06
         vertex 6.7230148e+01 3.0335702e+01 1.0000000e-06
         vertex 7.1190084e+01 2.9401905e+01 3.0556201e+01
      endloop
   endfacet
   facet normal -8.8773557e-01 4.4203979e-01 1.2855498e-01
      outer loop
         vertex 7.1190084e+01 2.9401905e+01 3.0556201e+01
         vertex 6.7230148e+01 3.0335702e+01 1.0000000e-06
         vertex 6.8865770e+01 2.4734053e+01 3.0556201e+01
      endloop
   endfacet
   facet normal -7.6613802e-01 6.2875322e-01 1.3304856e-01
      outer loop
         vertex 6.4990687e+01 2.6145964e+01 1.0000000e-06
         vertex 6.1976878e+01 2.2473628e+01 1.0000000e-06
         vertex 6.5723317e+01 2.0572772e+01 3.0556201e+01
      endloop
   endfacet
   facet normal -6.6819529e-01 7.3297532e-01 1.2752349e-01
      outer loop
         vertex 6.5723317e+01 2.0572772e+01 3.0556201e+01
         vertex 6.1976878e+01 2.2473628e+01 1.0000000e-06
         vertex 6.1869736e+01 1.7059769e+01 3.0556201e+01
      endloop
   endfacet
   facet normal -4.6715244e-01 8.7398075e-01 1.3388890e-01
      outer loop
         vertex 5.8304542e+01 1.9459820e+01 1.0000000e-06
         vertex 5.4114805e+01 1.7220358e+01 1.0000000e-06
         vertex 5.7436257e+01 1.4314675e+01 3.0556201e+01
      endloop
   endfacet
   facet normal -3.5832102e-01 9.2493317e-01 1.2690417e-01
      outer loop
         vertex 5.7436257e+01 1.4314675e+01 3.0556201e+01
         vertex 5.4114805e+01 1.7220358e+01 1.0000000e-06
         vertex 5.2573857e+01 1.2430971e+01 3.0556201e+01
      endloop
   endfacet
   facet normal -9.7129852e-02 9.8617594e-01 1.3424904e-01
      outer loop
         vertex 4.9568674e+01 1.5841304e+01 1.0000000e-06
         vertex 4.4840856e+01 1.5375655e+01 1.0000000e-06
         vertex 4.7448119e+01 1.1472804e+01 3.0556201e+01
      endloop
   endfacet
   facet normal 0.0000000e+00 9.9194138e-01 1.2669766e-01
      outer loop
         vertex 4.7448119e+01 1.1472804e+01 3.0556201e+01
         vertex 4.4840856e+01 1.5375655e+01 1.0000000e-06
         vertex 4.2233593e+01 1.1472804e+01 3.0556201e+01
      endloop
   endfacet
   facet normal 2.8766163e-01 9.4829331e-01 1.3412899e-01
      outer loop
         vertex 4.0113038e+01 1.5841304e+01 1.0000000e-06
         vertex 3.5566908e+01 1.7220358e+01 1.0000000e-06
         vertex 3.7107855e+01 1.2430971e+01 3.0556201e+01
      endloop
   endfacet
   facet normal 3.5832102e-01 9.2493317e-01 1.2690417e-01
      outer loop
         vertex 3.7107855e+01 1.2430971e+01 3.0556201e+01
         vertex 3.5566908e+01 1.7220358e+01 1.0000000e-06
         vertex 3.2245455e+01 1.4314675e+01 3.0556201e+01
      endloop
   endfacet
   facet normal 6.2871225e-01 7.6608810e-01 1.3352876e-01
      outer loop
         vertex 3.1377170e+01 1.9459820e+01 1.0000000e-06
         vertex 2.7704834e+01 2.2473628e+01 1.0000000e-06
         vertex 2.7811976e+01 1.7059769e+01 3.0556201e+01
      endloop
   endfacet
   facet normal 6.6819529e-01 7.3297532e-01 1.2752349e-01
      outer loop
         vertex 2.7811976e+01 1.7059769e+01 3.0556201e+01
         vertex 2.7704834e+01 2.2473628e+01 1.0000000e-06
         vertex 2.3958396e+01 2.0572772e+01 3.0556201e+01
      endloop
   endfacet
   facet normal 8.7415146e-01 4.6724369e-01 1.3244830e-01
      outer loop
         vertex 2.4691026e+01 2.6145964e+01 1.0000000e-06
         vertex 2.2451564e+01 3.0335702e+01 1.0000000e-06
         vertex 2.0815942e+01 2.4734053e+01 3.0556201e+01
      endloop
   endfacet
   facet normal 8.8773557e-01 4.4203979e-01 1.2855498e-01
      outer loop
         vertex 2.0815942e+01 2.4734053e+01 3.0556201e+01
         vertex 2.2451564e+01 3.0335702e+01 1.0000000e-06
         vertex 1.8491628e+01 2.9401905e+01 3.0556201e+01
      endloop
   endfacet
   facet normal 9.8662337e-01 9.7173920e-02 1.3088757e-01
      outer loop
         vertex 2.1072511e+01 3.4881832e+01 1.0000000e-06
         vertex 2.0606861e+01 3.9609650e+01 1.0000000e-06
         vertex 1.7064605e+01 3.4417369e+01 3.0556201e+01
      endloop
   endfacet
   facet normal 9.8728468e-01 9.1485399e-02 1.2999761e-01
      outer loop
         vertex 2.0606861e+01 3.9609650e+01 1.0000000e-06
         vertex 1.6583470e+01 3.9609650e+01 3.0556201e+01
         vertex 1.7064605e+01 3.4417369e+01 3.0556201e+01
      endloop
   endfacet
   facet normal -9.8728468e-01 -9.1485399e-02 1.2999761e-01
      outer loop
         vertex 6.9074851e+01 3.9609650e+01 1.0000000e-06
         vertex 7.3098243e+01 3.9609650e+01 3.0556201e+01
         vertex 7.2617107e+01 4.4801931e+01 3.0556201e+01
      endloop
   endfacet
   facet normal 0.0000000e+00 0.0000000e+00 1.0000000e+00
      outer loop
         vertex 1.7064605e+01 3.4417369e+01 3.0556201e+01
         vertex 1.6583470e+01 3.9609650e+01 3.0556201e+01
         vertex 1.0000000e-06 4.1162324e+01 3.0556201e+01
      endloop
   endfacet
   facet normal 0.0000000e+00 0.0000000e+00 1.0000000e+00
      outer loop
         vertex 1.7064605e+01 3.4417369e+01 3.0556201e+01
         vertex 1.0000000e-06 4.1162324e+01 3.0556201e+01
         vertex 1.8491628e+01 2.9401905e+01 3.0556201e+01
      endloop
   endfacet
   facet normal 0.0000000e+00 -0.0000000e+00 1.0000000e+00
      outer loop
         vertex 1.6583470e+01 3.9609650e+01 3.0556201e+01
         vertex 1.7064605e+01 4.4801931e+01 3.0556201e+01
         vertex 1.0000000e-06 4.1162324e+01 3.0556201e+01
      endloop
   endfacet
   facet normal 0.0000000e+00 -0.0000000e+00 1.0000000e+00
      outer loop
         vertex 1.7064605e+01 4.4801931e+01 3.0556201e+01
         vertex 1.8491628e+01 4.9817395e+01 3.0556201e+01
         vertex 1.0000000e-06 4.1162324e+01 3.0556201e+01
      endloop
   endfacet
   facet normal 0.0000000e+00 0.0000000e+00 1.0000000e+00
      outer loop
         vertex 2.3958396e+01 5.8646528e+01 3.0556201e+01
         vertex 2.1075778e+01 7.7666640e+01 3.0556201e+01
         vertex 2.0815942e+01 5.4485247e+01 3.0556201e+01
      endloop
   endfacet
   facet normal 0.0000000e+00 -0.0000000e+00 1.0000000e+00
      outer loop
         vertex 2.3958396e+01 5.8646528e+01 3.0556201e+01
         vertex 2.7811976e+01 6.2159531e+01 3.0556201e+01
         vertex 2.1075778e+01 7.7666640e+01 3.0556201e+01
      endloop
   endfacet
   facet normal 0.0000000e+00 -0.0000000e+00 1.0000000e+00
      outer loop
         vertex 2.7811976e+01 6.2159531e+01 3.0556201e+01
         vertex 3.2245455e+01 6.4904625e+01 3.0556201e+01
         vertex 2.1075778e+01 7.7666640e+01 3.0556201e+01
      endloop
   endfacet
   facet normal 0.0000000e+00 -0.0000000e+00 1.0000000e+00
      outer loop
         vertex 3.2245455e+01 6.4904625e+01 3.0556201e+01
         vertex 3.7107855e+01 6.6788329e+01 3.0556201e+01
         vertex 2.1075778e+01 7.7666640e+01 3.0556201e+01
      endloop
   endfacet
   facet normal 0.0000000e+00 -0.0000000e+00 1.0000000e+00
      outer loop
         vertex 3.7107855e+01 6.6788329e+01 3.0556201e+01
         vertex 4.2233593e+01 6.7746496e+01 3.0556201e+01
         vertex 2.1075778e+01 7.7666640e+01 3.0556201e+01
      endloop
   endfacet
   facet normal 0.0000000e+00 -0.0000000e+00 1.0000000e+00
      outer loop
         vertex 4.2233593e+01 6.7746496e+01 3.0556201e+01
         vertex 4.7448119e+01 6.7746496e+01 3.0556201e+01
         vertex 2.1075778e+01 7.7666640e+01 3.0556201e+01
      endloop
   endfacet
   facet normal -0.0000000e+00 0.0000000e+00 1.0000000e+00
      outer loop
         vertex 2.1075778e+01 7.7666640e+01 3.0556201e+01
         vertex 4.7448119e+01 6.7746496e+01 3.0556201e+01
         vertex 6.8605934e+01 7.7666640e+01 3.0556201e+01
      endloop
   endfacet
   facet normal -0.0000000e+00 0.0000000e+00 1.0000000e+00
      outer loop
         vertex 4.7448119e+01 6.7746496e+01 3.0556201e+01
         vertex 5.2573857e+01 6.6788329e+01 3.0556201e+01
         vertex 6.8605934e+01 7.7666640e+01 3.0556201e+01
      endloop
   endfacet
   facet normal -0.0000000e+00 0.0000000e+00 1.0000000e+00
      outer loop
         vertex 5.2573857e+01 6.6788329e+01 3.0556201e+01
         vertex 5.7436257e+01 6.4904625e+01 3.0556201e+01
         vertex 6.8605934e+01 7.7666640e+01 3.0556201e+01
      endloop
   endfacet
   facet normal -0.0000000e+00 0.0000000e+00 1.0000000e+00
      outer loop
         vertex 5.7436257e+01 6.4904625e+01 3.0556201e+01
         vertex 6.1869736e+01 6.2159531e+01 3.0556201e+01
         vertex 6.8605934e+01 7.7666640e+01 3.0556201e+01
      endloop
   endfacet
   facet normal -0.0000000e+00 0.0000000e+00 1.0000000e+00
      outer loop
         vertex 6.1869736e+01 6.2159531e+01 3.0556201e+01
         vertex 6.5723317e+01 5.8646528e+01 3.0556201e+01
         vertex 6.8605934e+01 7.7666640e+01 3.0556201e+01
      endloop
   endfacet
   facet normal -0.0000000e+00 -0.0000000e+00 1.0000000e+00
      outer loop
         vertex 7.1190084e+01 4.9817395e+01 3.0556201e+01
         vertex 8.9681711e+01 4.1162324e+01 3.0556201e+01
         vertex 6.8865770e+01 5.4485247e+01 3.0556201e+01
      endloop
   endfacet
   facet normal 0.0000000e+00 0.0000000e+00 1.0000000e+00
      outer loop
         vertex 7.1190084e+01 4.9817395e+01 3.0556201e+01
         vertex 7.2617107e+01 4.4801931e+01 3.0556201e+01
         vertex 8.9681711e+01 4.1162324e+01 3.0556201e+01
      endloop
   endfacet
   facet normal -0.0000000e+00 0.0000000e+00 1.0000000e+00
      outer loop
         vertex 7.2617107e+01 4.4801931e+01 3.0556201e+01
         vertex 7.3098243e+01 3.9609650e+01 3.0556201e+01
         vertex 8.9681711e+01 4.1162324e+01 3.0556201e+01
      endloop
   endfacet
   facet normal -0.0000000e+00 0.0000000e+00 1.0000000e+00
      outer loop
         vertex 7.3098243e+01 3.9609650e+01 3.0556201e+01
         vertex 7.2617107e+01 3.4417369e+01 3.0556201e+01
         vertex 8.9681711e+01 4.1162324e+01 3.0556201e+01
      endloop
   endfacet
   facet normal -0.0000000e+00 0.0000000e+00 1.0000000e+00
      outer loop
         vertex 7.2617107e+01 3.4417369e+01 3.0556201e+01
         vertex 7.1190084e+01 2.9401905e+01 3.0556201e+01
         vertex 8.9681711e+01 4.1162324e+01 3.0556201e+01
      endloop
   endfacet
   facet normal -0.0000000e+00 0.0000000e+00 1.0000000e+00
      outer loop
         vertex 7.1190084e+01 2.9401905e+01 3.0556201e+01
         vertex 6.8865770e+01 2.4734053e+01 3.0556201e+01
         vertex 8.9681711e+01 4.1162324e+01 3.0556201e+01
      endloop
   endfacet
   facet normal 0.0000000e+00 0.0000000e+00 1.0000000e+00
      outer loop
         vertex 8.9681711e+01 4.1162324e+01 3.0556201e+01
         vertex 6.8865770e+01 2.4734053e+01 3.0556201e+01
         vertex 6.5916633e+01 1.0000000e-06 3.0556201e+01
      endloop
   endfacet
   facet normal 0.0000000e+00 0.0000000e+00 1.0000000e+00
      outer loop
         vertex 6.8865770e+01 2.4734053e+01 3.0556201e+01
         vertex 6.5723317e+01 2.0572772e+01 3.0556201e+01
         vertex 6.5916633e+01 1.0000000e-06 3.0556201e+01
      endloop
   endfacet
   facet normal 0.0000000e+00 0.0000000e+00 1.0000000e+00
      outer loop
         vertex 6.5723317e+01 2.0572772e+01 3.0556201e+01
         vertex 6.1869736e+01 1.7059769e+01 3.0556201e+01
         vertex 6.5916633e+01 1.0000000e-06 3.0556201e+01
      endloop
   endfacet
   facet normal 0.0000000e+00 0.0000000e+00 1.0000000e+00
      outer loop
         vertex 6.1869736e+01 1.7059769e+01 3.0556201e+01
         vertex 5.7436257e+01 1.4314675e+01 3.0556201e+01
         vertex 6.5916633e+01 1.0000000e-06 3.0556201e+01
      endloop
   endfacet
   facet normal 0.0000000e+00 0.0000000e+00 1.0000000e+00
      outer loop
         vertex 5.7436257e+01 1.4314675e+01 3.0556201e+01
         vertex 5.2573857e+01 1.2430971e+01 3.0556201e+01
         vertex 6.5916633e+01 1.0000000e-06 3.0556201e+01
      endloop
   endfacet
   facet normal 0.0000000e+00 0.0000000e+00 1.0000000e+00
      outer loop
         vertex 5.2573857e+01 1.2430971e+01 3.0556201e+01
         vertex 4.7448119e+01 1.1472804e+01 3.0556201e+01
         vertex 6.5916633e+01 1.0000000e-06 3.0556201e+01
      endloop
   endfacet
   facet normal -0.0000000e+00 0.0000000e+00 1.0000000e+00
      outer loop
         vertex 3.7107855e+01 1.2430971e+01 3.0556201e+01
         vertex 2.3765079e+01 1.0000000e-06 3.0556201e+01
         vertex 4.2233593e+01 1.1472804e+01 3.0556201e+01
      endloop
   endfacet
   facet normal 0.0000000e+00 0.0000000e+00 1.0000000e+00
      outer loop
         vertex 3.7107855e+01 1.2430971e+01 3.0556201e+01
         vertex 3.2245455e+01 1.4314675e+01 3.0556201e+01
         vertex 2.3765079e+01 1.0000000e-06 3.0556201e+01
      endloop
   endfacet
   facet normal 0.0000000e+00 0.0000000e+00 1.0000000e+00
      outer loop
         vertex 3.2245455e+01 1.4314675e+01 3.0556201e+01
         vertex 2.7811976e+01 1.7059769e+01 3.0556201e+01
         vertex 2.3765079e+01 1.0000000e-06 3.0556201e+01
      endloop
   endfacet
   facet normal 0.0000000e+00 0.0000000e+00 1.0000000e+00
      outer loop
         vertex 2.7811976e+01 1.7059769e+01 3.0556201e+01
         vertex 2.3958396e+01 2.0572772e+01 3.0556201e+01
         vertex 2.3765079e+01 1.0000000e-06 3.0556201e+01
      endloop
   endfacet
   facet normal 0.0000000e+00 0.0000000e+00 1.0000000e+00
      outer loop
         vertex 2.3958396e+01 2.0572772e+01 3.0556201e+01
         vertex 2.0815942e+01 2.4734053e+01 3.0556201e+01
         vertex 2.3765079e+01 1.0000000e-06 3.0556201e+01
      endloop
   endfacet
   facet normal 0.0000000e+00 0.0000000e+00 1.0000000e+00
      outer loop
         vertex 2.3765079e+01 1.0000000e-06 3.0556201e+01
         vertex 2.0815942e+01 2.4734053e+01 3.0556201e+01
         vertex 1.0000000e-06 4.1162324e+01 3.0556201e+01
      endloop
   endfacet
   facet normal 0.0000000e+00 0.0000000e+00 1.0000000e+00
      outer loop
         vertex 2.0815942e+01 2.4734053e+01 3.0556201e+01
         vertex 1.8491628e+01 2.9401905e+01 3.0556201e+01
         vertex 1.0000000e-06 4.1162324e+01 3.0556201e+01
      endloop
   endfacet
   facet normal -0.0000000e+00 0.0000000e+00 1.0000000e+00
      outer loop
         vertex 2.1075778e+01 7.7666640e+01 3.0556201e+01
         vertex 1.0000000e-06 4.1162324e+01 3.0556201e+01
         vertex 2.0815942e+01 5.4485247e+01 3.0556201e+01
      endloop
   endfacet
   facet normal 0.0000000e+00 -0.0000000e+00 1.0000000e+00
      outer loop
         vertex 2.3765079e+01 1.0000000e-06 3.0556201e+01
         vertex 6.5916633e+01 1.0000000e-06 3.0556201e+01
         vertex 4.2233593e+01 1.1472804e+01 3.0556201e+01
      endloop
   endfacet
   facet normal 0.0000000e+00 0.0000000e+00 1.0000000e+00
      outer loop
         vertex 8.9681711e+01 4.1162324e+01 3.0556201e+01
         vertex 6.8605934e+01 7.7666640e+01 3.0556201e+01
         vertex 6.8865770e+01 5.4485247e+01 3.0556201e+01
      endloop
   endfacet
   facet normal -0.0000000e+00 0.0000000e+00 1.0000000e+00
      outer loop
         vertex 2.0815942e+01 5.4485247e+01 3.0556201e+01
         vertex 1.0000000e-06 4.1162324e+01 3.0556201e+01
         vertex 1.8491628e+01 4.9817395e+01 3.0556201e+01
      endloop
   endfacet
   facet normal 0.0000000e+00 0.0000000e+00 1.0000000e+00
      outer loop
         vertex 6.8605934e+01 7.7666640e+01 3.0556201e+01
         vertex 6.5723317e+01 5.8646528e+01 3.0556201e+01
         vertex 6.8865770e+01 5.4485247e+01 3.0556201e+01
      endloop
   endfacet
   facet normal 0.0000000e+00 0.0000000e+00 1.0000000e+00
      outer loop
         vertex 6.5916633e+01 1.0000000e-06 3.0556201e+01
         vertex 4.7448119e+01 1.1472804e+01 3.0556201e+01
         vertex 4.2233593e+01 1.1472804e+01 3.0556201e+01
      endloop
   endfacet
   facet normal -0.0000000e+00 -9.8340541e-01 -1.8142160e-01
      outer loop
         vertex 6.5916633e+01 1.0000000e-06 3.0556201e+01
         vertex 2.3765079e+01 1.0000000e-06 3.0556201e+01
         vertex 6.2917206e+01 5.6371009e+00 1.0000000e-06
      endloop
   endfacet
   facet normal 0.0000000e+00 -9.8340541e-01 -1.8142160e-01
      outer loop
         vertex 2.3765079e+01 1.0000000e-06 3.0556201e+01
         vertex 2.6764506e+01 5.6371009e+00 1.0000000e-06
         vertex 6.2917206e+01 5.6371009e+00 1.0000000e-06
      endloop
   endfacet
   facet normal -8.5273338e-01 -4.9232585e-01 -1.7453092e-01
      outer loop
         vertex 1.0000000e-06 4.1162324e+01 3.0556201e+01
         vertex 6.3815870e+00 4.0941353e+01 1.0000000e-06
         vertex 2.3765079e+01 1.0000000e-06 3.0556201e+01
      endloop
   endfacet
   facet normal -8.5273338e-01 -4.9232585e-01 -1.7453092e-01
      outer loop
         vertex 6.3815870e+00 4.0941353e+01 1.0000000e-06
         vertex 2.6764506e+01 5.6371009e+00 1.0000000e-06
         vertex 2.3765079e+01 1.0000000e-06 3.0556201e+01
      endloop
   endfacet
   facet normal -8.5165406e-01 4.9170270e-01 -1.8142163e-01
      outer loop
         vertex 1.0000000e-06 4.1162324e+01 3.0556201e+01
         vertex 2.1075778e+01 7.7666640e+01 3.0556201e+01
         vertex 6.3815870e+00 4.0941353e+01 1.0000000e-06
      endloop
   endfacet
   facet normal -8.5165406e-01 4.9170270e-01 -1.8142163e-01
      outer loop
         vertex 2.1075778e+01 7.7666640e+01 3.0556201e+01
         vertex 2.4457937e+01 7.2250509e+01 1.0000000e-06
         vertex 6.3815870e+00 4.0941353e+01 1.0000000e-06
      endloop
   endfacet
   facet normal 8.5273338e-01 -4.9232585e-01 -1.7453092e-01
      outer loop
         vertex 8.9681711e+01 4.1162324e+01 3.0556201e+01
         vertex 6.5916633e+01 1.0000000e-06 3.0556201e+01
         vertex 8.3300125e+01 4.0941353e+01 1.0000000e-06
      endloop
   endfacet
   facet normal 8.5273338e-01 -4.9232585e-01 -1.7453092e-01
      outer loop
         vertex 6.5916633e+01 1.0000000e-06 3.0556201e+01
         vertex 6.2917206e+01 5.6371009e+00 1.0000000e-06
         vertex 8.3300125e+01 4.0941353e+01 1.0000000e-06
      endloop
   endfacet
   facet normal 8.5165406e-01 4.9170270e-01 -1.8142163e-01
      outer loop
         vertex 8.9681711e+01 4.1162324e+01 3.0556201e+01
         vertex 8.3300125e+01 4.0941353e+01 1.0000000e-06
         vertex 6.8605934e+01 7.7666640e+01 3.0556201e+01
      endloop
   endfacet
   facet normal 8.5165406e-01 4.9170270e-01 -1.8142163e-01
      outer loop
         vertex 8.3300125e+01 4.0941353e+01 1.0000000e-06
         vertex 6.5223776e+01 7.2250509e+01 1.0000000e-06
         vertex 6.8605934e+01 7.7666640e+01 3.0556201e+01
      endloop
   endfacet
   facet normal 0.0000000e+00 9.8465169e-01 -1.7453096e-01
      outer loop
         vertex 6.8605934e+01 7.7666640e+01 3.0556201e+01
         vertex 6.5223776e+01 7.2250509e+01 1.0000000e-06
         vertex 2.1075778e+01 7.7666640e+01 3.0556201e+01
      endloop
   endfacet
   facet normal 0.0000000e+00 9.8465169e-01 -1.7453096e-01
      outer loop
         vertex 6.5223776e+01 7.2250509e+01 1.0000000e-06
         vertex 2.4457937e+01 7.2250509e+01 1.0000000e-06
         vertex 2.1075778e+01 7.7666640e+01 3.0556201e+01
      endloop
   endfacet
   facet normal 3.9285051e-16 -3.8692398e-17 -1.0000000e+00
      outer loop
         vertex 2.1072511e+01 4.4337468e+01 1.0000000e-06
         vertex 2.0606861e+01 3.9609650e+01 1.0000000e-06
         vertex 6.3815870e+00 4.0941353e+01 1.0000000e-06
      endloop
   endfacet
   facet normal 4.1285757e-16 -1.2523897e-16 -1.0000000e+00
      outer loop
         vertex 2.1072511e+01 4.4337468e+01 1.0000000e-06
         vertex 6.3815870e+00 4.0941353e+01 1.0000000e-06
         vertex 2.2451564e+01 4.8883598e+01 1.0000000e-06
      endloop
   endfacet
   facet normal 4.0016233e-16 3.9412550e-17 -1.0000000e+00
      outer loop
         vertex 2.0606861e+01 3.9609650e+01 1.0000000e-06
         vertex 2.1072511e+01 3.4881832e+01 1.0000000e-06
         vertex 6.3815870e+00 4.0941353e+01 1.0000000e-06
      endloop
   endfacet
   facet normal 4.3881009e-16 1.3311159e-16 -1.0000000e+00
      outer loop
         vertex 2.1072511e+01 3.4881832e+01 1.0000000e-06
         vertex 2.2451564e+01 3.0335702e+01 1.0000000e-06
         vertex 6.3815870e+00 4.0941353e+01 1.0000000e-06
      endloop
   endfacet
   facet normal 3.8216863e-16 3.1363769e-16 -1.0000000e+00
      outer loop
         vertex 2.7704834e+01 2.2473628e+01 1.0000000e-06
         vertex 2.6764506e+01 5.6371009e+00 1.0000000e-06
         vertex 2.4691026e+01 2.6145964e+01 1.0000000e-06
      endloop
   endfacet
   facet normal 2.6286415e-16 3.2030090e-16 -1.0000000e+00
      outer loop
         vertex 2.7704834e+01 2.2473628e+01 1.0000000e-06
         vertex 3.1377170e+01 1.9459820e+01 1.0000000e-06
         vertex 2.6764506e+01 5.6371009e+00 1.0000000e-06
      endloop
   endfacet
   facet normal 1.8507876e-16 3.4625801e-16 -1.0000000e+00
      outer loop
         vertex 3.1377170e+01 1.9459820e+01 1.0000000e-06
         vertex 3.5566908e+01 1.7220358e+01 1.0000000e-06
         vertex 2.6764506e+01 5.6371009e+00 1.0000000e-06
      endloop
   endfacet
   facet normal 1.2003105e-16 3.9568936e-16 -1.0000000e+00
      outer loop
         vertex 3.5566908e+01 1.7220358e+01 1.0000000e-06
         vertex 4.0113038e+01 1.5841304e+01 1.0000000e-06
         vertex 2.6764506e+01 5.6371009e+00 1.0000000e-06
      endloop
   endfacet
   facet normal 4.8223702e-17 4.8962346e-16 -1.0000000e+00
      outer loop
         vertex 4.0113038e+01 1.5841304e+01 1.0000000e-06
         vertex 4.4840856e+01 1.5375655e+01 1.0000000e-06
         vertex 2.6764506e+01 5.6371009e+00 1.0000000e-06
      endloop
   endfacet
   facet normal 0.0000000e+00 5.7913454e-16 -1.0000000e+00
      outer loop
         vertex 2.6764506e+01 5.6371009e+00 1.0000000e-06
         vertex 4.4840856e+01 1.5375655e+01 1.0000000e-06
         vertex 6.2917206e+01 5.6371009e+00 1.0000000e-06
      endloop
   endfacet
   facet normal -4.8223702e-17 4.8962346e-16 -1.0000000e+00
      outer loop
         vertex 4.4840856e+01 1.5375655e+01 1.0000000e-06
         vertex 4.9568674e+01 1.5841304e+01 1.0000000e-06
         vertex 6.2917206e+01 5.6371009e+00 1.0000000e-06
      endloop
   endfacet
   facet normal -1.2003105e-16 3.9568936e-16 -1.0000000e+00
      outer loop
         vertex 4.9568674e+01 1.5841304e+01 1.0000000e-06
         vertex 5.4114805e+01 1.7220358e+01 1.0000000e-06
         vertex 6.2917206e+01 5.6371009e+00 1.0000000e-06
      endloop
   endfacet
   facet normal -1.8507876e-16 3.4625801e-16 -1.0000000e+00
      outer loop
         vertex 5.4114805e+01 1.7220358e+01 1.0000000e-06
         vertex 5.8304542e+01 1.9459820e+01 1.0000000e-06
         vertex 6.2917206e+01 5.6371009e+00 1.0000000e-06
      endloop
   endfacet
   facet normal -2.6286415e-16 3.2030090e-16 -1.0000000e+00
      outer loop
         vertex 5.8304542e+01 1.9459820e+01 1.0000000e-06
         vertex 6.1976878e+01 2.2473628e+01 1.0000000e-06
         vertex 6.2917206e+01 5.6371009e+00 1.0000000e-06
      endloop
   endfacet
   facet normal -5.4224190e-16 2.8983433e-16 -1.0000000e+00
      outer loop
         vertex 6.7230148e+01 3.0335702e+01 1.0000000e-06
         vertex 8.3300125e+01 4.0941353e+01 1.0000000e-06
         vertex 6.4990687e+01 2.6145964e+01 1.0000000e-06
      endloop
   endfacet
   facet normal -4.3881009e-16 1.3311159e-16 -1.0000000e+00
      outer loop
         vertex 6.7230148e+01 3.0335702e+01 1.0000000e-06
         vertex 6.8609202e+01 3.4881832e+01 1.0000000e-06
         vertex 8.3300125e+01 4.0941353e+01 1.0000000e-06
      endloop
   endfacet
   facet normal -4.0016233e-16 3.9412550e-17 -1.0000000e+00
      outer loop
         vertex 6.8609202e+01 3.4881832e+01 1.0000000e-06
         vertex 6.9074851e+01 3.9609650e+01 1.0000000e-06
         vertex 8.3300125e+01 4.0941353e+01 1.0000000e-06
      endloop
   endfacet
   facet normal -3.9285051e-16 -3.8692398e-17 -1.0000000e+00
      outer loop
         vertex 6.9074851e+01 3.9609650e+01 1.0000000e-06
         vertex 6.8609202e+01 4.4337468e+01 1.0000000e-06
         vertex 8.3300125e+01 4.0941353e+01 1.0000000e-06
      endloop
   endfacet
   facet normal -4.1285757e-16 -1.2523897e-16 -1.0000000e+00
      outer loop
         vertex 6.8609202e+01 4.4337468e+01 1.0000000e-06
         vertex 6.7230148e+01 4.8883598e+01 1.0000000e-06
         vertex 8.3300125e+01 4.0941353e+01 1.0000000e-06
      endloop
   endfacet
   facet normal -4.7695968e-16 -2.5494026e-16 -1.0000000e+00
      outer loop
         vertex 6.7230148e+01 4.8883598e+01 1.0000000e-06
         vertex 6.4990687e+01 5.3073336e+01 1.0000000e-06
         vertex 8.3300125e+01 4.0941353e+01 1.0000000e-06
      endloop
   endfacet
   facet normal -4.9888683e-16 -2.8803245e-16 -1.0000000e+00
      outer loop
         vertex 8.3300125e+01 4.0941353e+01 1.0000000e-06
         vertex 6.4990687e+01 5.3073336e+01 1.0000000e-06
         vertex 6.5223776e+01 7.2250509e+01 1.0000000e-06
      endloop
   endfacet
   facet normal -3.5312729e-16 -2.8980408e-16 -1.0000000e+00
      outer loop
         vertex 6.4990687e+01 5.3073336e+01 1.0000000e-06
         vertex 6.1976878e+01 5.6745672e+01 1.0000000e-06
         vertex 6.5223776e+01 7.2250509e+01 1.0000000e-06
      endloop
   endfacet
   facet normal -2.5474418e-16 -3.1040668e-16 -1.0000000e+00
      outer loop
         vertex 6.1976878e+01 5.6745672e+01 1.0000000e-06
         vertex 5.8304542e+01 5.9759480e+01 1.0000000e-06
         vertex 6.5223776e+01 7.2250509e+01 1.0000000e-06
      endloop
   endfacet
   facet normal -1.8620828e-16 -3.4837119e-16 -1.0000000e+00
      outer loop
         vertex 5.8304542e+01 5.9759480e+01 1.0000000e-06
         vertex 5.4114805e+01 6.1998942e+01 1.0000000e-06
         vertex 6.5223776e+01 7.2250509e+01 1.0000000e-06
      endloop
   endfacet
   facet normal -1.2560019e-16 -4.1404832e-16 -1.0000000e+00
      outer loop
         vertex 5.4114805e+01 6.1998942e+01 1.0000000e-06
         vertex 4.9568674e+01 6.3377996e+01 1.0000000e-06
         vertex 6.5223776e+01 7.2250509e+01 1.0000000e-06
      endloop
   endfacet
   facet normal 5.3338125e-17 -5.4155108e-16 -1.0000000e+00
      outer loop
         vertex 4.0113038e+01 6.3377996e+01 1.0000000e-06
         vertex 2.4457937e+01 7.2250509e+01 1.0000000e-06
         vertex 4.4840856e+01 6.3843645e+01 1.0000000e-06
      endloop
   endfacet
   facet normal 1.2560019e-16 -4.1404832e-16 -1.0000000e+00
      outer loop
         vertex 4.0113038e+01 6.3377996e+01 1.0000000e-06
         vertex 3.5566908e+01 6.1998942e+01 1.0000000e-06
         vertex 2.4457937e+01 7.2250509e+01 1.0000000e-06
      endloop
   endfacet
   facet normal 1.8620828e-16 -3.4837119e-16 -1.0000000e+00
      outer loop
         vertex 3.5566908e+01 6.1998942e+01 1.0000000e-06
         vertex 3.1377170e+01 5.9759480e+01 1.0000000e-06
         vertex 2.4457937e+01 7.2250509e+01 1.0000000e-06
      endloop
   endfacet
   facet normal 2.5474418e-16 -3.1040668e-16 -1.0000000e+00
      outer loop
         vertex 3.1377170e+01 5.9759480e+01 1.0000000e-06
         vertex 2.7704834e+01 5.6745672e+01 1.0000000e-06
         vertex 2.4457937e+01 7.2250509e+01 1.0000000e-06
      endloop
   endfacet
   facet normal 3.5312729e-16 -2.8980408e-16 -1.0000000e+00
      outer loop
         vertex 2.7704834e+01 5.6745672e+01 1.0000000e-06
         vertex 2.4691026e+01 5.3073336e+01 1.0000000e-06
         vertex 2.4457937e+01 7.2250509e+01 1.0000000e-06
      endloop
   endfacet
   facet normal 4.9888683e-16 -2.8803245e-16 -1.0000000e+00
      outer loop
         vertex 2.4457937e+01 7.2250509e+01 1.0000000e-06
         vertex 2.4691026e+01 5.3073336e+01 1.0000000e-06
         vertex 6.3815870e+00 4.0941353e+01 1.0000000e-06
      endloop
   endfacet
   facet normal 4.7695968e-16 -2.5494026e-16 -1.0000000e+00
      outer loop
         vertex 2.4691026e+01 5.3073336e+01 1.0000000e-06
         vertex 2.2451564e+01 4.8883598e+01 1.0000000e-06
         vertex 6.3815870e+00 4.0941353e+01 1.0000000e-06
      endloop
   endfacet
   facet normal 0.0000000e+00 -6.7087239e-16 -1.0000000e+00
      outer loop
         vertex 2.4457937e+01 7.2250509e+01 1.0000000e-06
         vertex 6.5223776e+01 7.2250509e+01 1.0000000e-06
         vertex 4.4840856e+01 6.3843645e+01 1.0000000e-06
      endloop
   endfacet
   facet normal -5.7742911e-16 3.3337885e-16 -1.0000000e+00
      outer loop
         vertex 8.3300125e+01 4.0941353e+01 1.0000000e-06
         vertex 6.2917206e+01 5.6371009e+00 1.0000000e-06
         vertex 6.4990687e+01 2.6145964e+01 1.0000000e-06
      endloop
   endfacet
   facet normal 5.7742911e-16 3.3337885e-16 -1.0000000e+00
      outer loop
         vertex 2.6764506e+01 5.6371009e+00 1.0000000e-06
         vertex 6.3815870e+00 4.0941353e+01 1.0000000e-06
         vertex 2.4691026e+01 2.6145964e+01 1.0000000e-06
      endloop
   endfacet
   facet normal -5.3338125e-17 -5.4155108e-16 -1.0000000e+00
      outer loop
         vertex 4.4840856e+01 6.3843645e+01 1.0000000e-06
         vertex 6.5223776e+01 7.2250509e+01 1.0000000e-06
         vertex 4.9568674e+01 6.3377996e+01 1.0000000e-06
      endloop
   endfacet
   facet normal 5.4224190e-16 2.8983433e-16 -1.0000000e+00
      outer loop
         vertex 2.4691026e+01 2.6145964e+01 1.0000000e-06
         vertex 6.3815870e+00 4.0941353e+01 1.0000000e-06
         vertex 2.2451564e+01 3.0335702e+01 1.0000000e-06
      endloop
   endfacet
   facet normal -3.8216863e-16 3.1363769e-16 -1.0000000e+00
      outer loop
         vertex 6.2917206e+01 5.6371009e+00 1.0000000e-06
         vertex 6.1976878e+01 2.2473628e+01 1.0000000e-06
         vertex 6.4990687e+01 2.6145964e+01 1.0000000e-06
      endloop
   endfacet
endsolid AutoCAD
