solid AutoCAD
   facet normal 9.8728468e-01 -9.1485399e-02 1.2999761e-01
      outer loop
         vertex 1.7052046e+01 4.3408360e+01 3.0556201e+01
         vertex 1.6570911e+01 3.8216079e+01 3.0556201e+01
         vertex 2.0594302e+01 3.8216079e+01 1.0000000e-06
      endloop
   endfacet
   facet normal 9.8662337e-01 -9.7173920e-02 1.3088757e-01
      outer loop
         vertex 1.7052046e+01 4.3408360e+01 3.0556201e+01
         vertex 2.0594302e+01 3.8216079e+01 1.0000000e-06
         vertex 2.1059952e+01 4.2943897e+01 1.0000000e-06
      endloop
   endfacet
   facet normal 9.5376102e-01 -2.7136841e-01 1.2922499e-01
      outer loop
         vertex 1.7052046e+01 4.3408360e+01 3.0556201e+01
         vertex 2.1059952e+01 4.2943897e+01 1.0000000e-06
         vertex 1.8479069e+01 4.8423824e+01 3.0556201e+01
      endloop
   endfacet
   facet normal 9.5376102e-01 2.7136841e-01 1.2922499e-01
      outer loop
         vertex 1.8479069e+01 2.8008334e+01 3.0556201e+01
         vertex 2.1059952e+01 3.3488261e+01 1.0000000e-06
         vertex 1.7052046e+01 3.3023798e+01 3.0556201e+01
      endloop
   endfacet
   facet normal 9.4860146e-01 2.8775511e-01 1.3172797e-01
      outer loop
         vertex 2.1059952e+01 3.3488261e+01 1.0000000e-06
         vertex 1.8479069e+01 2.8008334e+01 3.0556201e+01
         vertex 2.2439005e+01 2.8942131e+01 1.0000000e-06
      endloop
   endfacet
   facet normal 7.9145413e-01 5.9767842e-01 1.2798777e-01
      outer loop
         vertex 2.3945837e+01 1.9179201e+01 3.0556201e+01
         vertex 2.4678467e+01 2.4752393e+01 1.0000000e-06
         vertex 2.0803383e+01 2.3340482e+01 3.0556201e+01
      endloop
   endfacet
   facet normal 7.6613802e-01 6.2875322e-01 1.3304856e-01
      outer loop
         vertex 2.4678467e+01 2.4752393e+01 1.0000000e-06
         vertex 2.3945837e+01 1.9179201e+01 3.0556201e+01
         vertex 2.7692275e+01 2.1080057e+01 1.0000000e-06
      endloop
   endfacet
   facet normal 5.2215855e-01 8.4331501e-01 1.2716226e-01
      outer loop
         vertex 3.2232896e+01 1.2921104e+01 3.0556201e+01
         vertex 3.1364611e+01 1.8066249e+01 1.0000000e-06
         vertex 2.7799417e+01 1.5666198e+01 3.0556201e+01
      endloop
   endfacet
   facet normal 4.6715244e-01 8.7398075e-01 1.3388890e-01
      outer loop
         vertex 3.1364611e+01 1.8066249e+01 1.0000000e-06
         vertex 3.2232896e+01 1.2921104e+01 3.0556201e+01
         vertex 3.5554349e+01 1.5826787e+01 1.0000000e-06
      endloop
   endfacet
   facet normal 1.8226754e-01 9.7504521e-01 1.2674929e-01
      outer loop
         vertex 4.2221035e+01 1.0079233e+01 3.0556201e+01
         vertex 4.0100479e+01 1.4447733e+01 1.0000000e-06
         vertex 3.7095296e+01 1.1037400e+01 3.0556201e+01
      endloop
   endfacet
   facet normal 9.7129852e-02 9.8617594e-01 1.3424904e-01
      outer loop
         vertex 4.0100479e+01 1.4447733e+01 1.0000000e-06
         vertex 4.2221035e+01 1.0079233e+01 3.0556201e+01
         vertex 4.4828297e+01 1.3982084e+01 1.0000000e-06
      endloop
   endfacet
   facet normal -1.8226754e-01 9.7504521e-01 1.2674929e-01
      outer loop
         vertex 5.2561298e+01 1.1037400e+01 3.0556201e+01
         vertex 4.9556115e+01 1.4447733e+01 1.0000000e-06
         vertex 4.7435560e+01 1.0079233e+01 3.0556201e+01
      endloop
   endfacet
   facet normal -2.8766163e-01 9.4829331e-01 1.3412899e-01
      outer loop
         vertex 4.9556115e+01 1.4447733e+01 1.0000000e-06
         vertex 5.2561298e+01 1.1037400e+01 3.0556201e+01
         vertex 5.4102246e+01 1.5826787e+01 1.0000000e-06
      endloop
   endfacet
   facet normal -5.2215855e-01 8.4331501e-01 1.2716226e-01
      outer loop
         vertex 6.1857177e+01 1.5666198e+01 3.0556201e+01
         vertex 5.8291984e+01 1.8066249e+01 1.0000000e-06
         vertex 5.7423698e+01 1.2921104e+01 3.0556201e+01
      endloop
   endfacet
   facet normal -6.2871225e-01 7.6608810e-01 1.3352876e-01
      outer loop
         vertex 5.8291984e+01 1.8066249e+01 1.0000000e-06
         vertex 6.1857177e+01 1.5666198e+01 3.0556201e+01
         vertex 6.1964319e+01 2.1080057e+01 1.0000000e-06
      endloop
   endfacet
   facet normal -7.9145413e-01 5.9767842e-01 1.2798777e-01
      outer loop
         vertex 6.8853212e+01 2.3340482e+01 3.0556201e+01
         vertex 6.4978128e+01 2.4752393e+01 1.0000000e-06
         vertex 6.5710758e+01 1.9179201e+01 3.0556201e+01
      endloop
   endfacet
   facet normal -8.7415146e-01 4.6724369e-01 1.3244830e-01
      outer loop
         vertex 6.4978128e+01 2.4752393e+01 1.0000000e-06
         vertex 6.8853212e+01 2.3340482e+01 3.0556201e+01
         vertex 6.7217589e+01 2.8942131e+01 1.0000000e-06
      endloop
   endfacet
   facet normal -9.5376102e-01 2.7136841e-01 1.2922499e-01
      outer loop
         vertex 7.2604548e+01 3.3023798e+01 3.0556201e+01
         vertex 6.8596643e+01 3.3488261e+01 1.0000000e-06
         vertex 7.1177526e+01 2.8008334e+01 3.0556201e+01
      endloop
   endfacet
   facet normal -9.8662337e-01 9.7173920e-02 1.3088757e-01
      outer loop
         vertex 6.8596643e+01 3.3488261e+01 1.0000000e-06
         vertex 7.2604548e+01 3.3023798e+01 3.0556201e+01
         vertex 6.9062292e+01 3.8216079e+01 1.0000000e-06
      endloop
   endfacet
   facet normal -9.8728468e-01 9.1485399e-02 1.2999761e-01
      outer loop
         vertex 7.2604548e+01 3.3023798e+01 3.0556201e+01
         vertex 7.3085684e+01 3.8216079e+01 3.0556201e+01
         vertex 6.9062292e+01 3.8216079e+01 1.0000000e-06
      endloop
   endfacet
   facet normal -9.5376102e-01 -2.7136841e-01 1.2922499e-01
      outer loop
         vertex 7.1177526e+01 4.8423824e+01 3.0556201e+01
         vertex 6.8596643e+01 4.2943897e+01 1.0000000e-06
         vertex 7.2604548e+01 4.3408360e+01 3.0556201e+01
      endloop
   endfacet
   facet normal -9.4860146e-01 -2.8775511e-01 1.3172797e-01
      outer loop
         vertex 6.8596643e+01 4.2943897e+01 1.0000000e-06
         vertex 7.1177526e+01 4.8423824e+01 3.0556201e+01
         vertex 6.7217589e+01 4.7490027e+01 1.0000000e-06
      endloop
   endfacet
   facet normal -7.9145413e-01 -5.9767842e-01 1.2798777e-01
      outer loop
         vertex 6.5710758e+01 5.7252957e+01 3.0556201e+01
         vertex 6.4978128e+01 5.1679765e+01 1.0000000e-06
         vertex 6.8853212e+01 5.3091676e+01 3.0556201e+01
      endloop
   endfacet
   facet normal -7.6613802e-01 -6.2875322e-01 1.3304856e-01
      outer loop
         vertex 6.4978128e+01 5.1679765e+01 1.0000000e-06
         vertex 6.5710758e+01 5.7252957e+01 3.0556201e+01
         vertex 6.1964319e+01 5.5352101e+01 1.0000000e-06
      endloop
   endfacet
   facet normal -5.2215855e-01 -8.4331501e-01 1.2716226e-01
      outer loop
         vertex 5.7423698e+01 6.3511054e+01 3.0556201e+01
         vertex 5.8291984e+01 5.8365909e+01 1.0000000e-06
         vertex 6.1857177e+01 6.0765960e+01 3.0556201e+01
      endloop
   endfacet
   facet normal -4.6715244e-01 -8.7398075e-01 1.3388890e-01
      outer loop
         vertex 5.8291984e+01 5.8365909e+01 1.0000000e-06
         vertex 5.7423698e+01 6.3511054e+01 3.0556201e+01
         vertex 5.4102246e+01 6.0605371e+01 1.0000000e-06
      endloop
   endfacet
   facet normal -1.8226754e-01 -9.7504521e-01 1.2674929e-01
      outer loop
         vertex 4.7435560e+01 6.6352925e+01 3.0556201e+01
         vertex 4.9556115e+01 6.1984425e+01 1.0000000e-06
         vertex 5.2561298e+01 6.5394758e+01 3.0556201e+01
      endloop
   endfacet
   facet normal -9.7129852e-02 -9.8617594e-01 1.3424904e-01
      outer loop
         vertex 4.9556115e+01 6.1984425e+01 1.0000000e-06
         vertex 4.7435560e+01 6.6352925e+01 3.0556201e+01
         vertex 4.4828297e+01 6.2450074e+01 1.0000000e-06
      endloop
   endfacet
   facet normal 1.8226754e-01 -9.7504521e-01 1.2674929e-01
      outer loop
         vertex 3.7095296e+01 6.5394758e+01 3.0556201e+01
         vertex 4.0100479e+01 6.1984425e+01 1.0000000e-06
         vertex 4.2221035e+01 6.6352925e+01 3.0556201e+01
      endloop
   endfacet
   facet normal 2.8766163e-01 -9.4829331e-01 1.3412899e-01
      outer loop
         vertex 4.0100479e+01 6.1984425e+01 1.0000000e-06
         vertex 3.7095296e+01 6.5394758e+01 3.0556201e+01
         vertex 3.5554349e+01 6.0605371e+01 1.0000000e-06
      endloop
   endfacet
   facet normal 5.2215855e-01 -8.4331501e-01 1.2716226e-01
      outer loop
         vertex 2.7799417e+01 6.0765960e+01 3.0556201e+01
         vertex 3.1364611e+01 5.8365909e+01 1.0000000e-06
         vertex 3.2232896e+01 6.3511054e+01 3.0556201e+01
      endloop
   endfacet
   facet normal 6.2871225e-01 -7.6608810e-01 1.3352876e-01
      outer loop
         vertex 3.1364611e+01 5.8365909e+01 1.0000000e-06
         vertex 2.7799417e+01 6.0765960e+01 3.0556201e+01
         vertex 2.7692275e+01 5.5352101e+01 1.0000000e-06
      endloop
   endfacet
   facet normal 7.9145413e-01 -5.9767842e-01 1.2798777e-01
      outer loop
         vertex 2.0803383e+01 5.3091676e+01 3.0556201e+01
         vertex 2.4678467e+01 5.1679765e+01 1.0000000e-06
         vertex 2.3945837e+01 5.7252957e+01 3.0556201e+01
      endloop
   endfacet
   facet normal 8.7415146e-01 -4.6724369e-01 1.3244830e-01
      outer loop
         vertex 2.4678467e+01 5.1679765e+01 1.0000000e-06
         vertex 2.0803383e+01 5.3091676e+01 3.0556201e+01
         vertex 2.2439005e+01 4.7490027e+01 1.0000000e-06
      endloop
   endfacet
   facet normal 9.4860146e-01 -2.8775511e-01 1.3172797e-01
      outer loop
         vertex 2.1059952e+01 4.2943897e+01 1.0000000e-06
         vertex 2.2439005e+01 4.7490027e+01 1.0000000e-06
         vertex 1.8479069e+01 4.8423824e+01 3.0556201e+01
      endloop
   endfacet
   facet normal 8.8773557e-01 -4.4203979e-01 1.2855498e-01
      outer loop
         vertex 1.8479069e+01 4.8423824e+01 3.0556201e+01
         vertex 2.2439005e+01 4.7490027e+01 1.0000000e-06
         vertex 2.0803383e+01 5.3091676e+01 3.0556201e+01
      endloop
   endfacet
   facet normal 7.6613802e-01 -6.2875322e-01 1.3304856e-01
      outer loop
         vertex 2.4678467e+01 5.1679765e+01 1.0000000e-06
         vertex 2.7692275e+01 5.5352101e+01 1.0000000e-06
         vertex 2.3945837e+01 5.7252957e+01 3.0556201e+01
      endloop
   endfacet
   facet normal 6.6819529e-01 -7.3297532e-01 1.2752349e-01
      outer loop
         vertex 2.3945837e+01 5.7252957e+01 3.0556201e+01
         vertex 2.7692275e+01 5.5352101e+01 1.0000000e-06
         vertex 2.7799417e+01 6.0765960e+01 3.0556201e+01
      endloop
   endfacet
   facet normal 4.6715244e-01 -8.7398075e-01 1.3388890e-01
      outer loop
         vertex 3.1364611e+01 5.8365909e+01 1.0000000e-06
         vertex 3.5554349e+01 6.0605371e+01 1.0000000e-06
         vertex 3.2232896e+01 6.3511054e+01 3.0556201e+01
      endloop
   endfacet
   facet normal 3.5832102e-01 -9.2493317e-01 1.2690417e-01
      outer loop
         vertex 3.2232896e+01 6.3511054e+01 3.0556201e+01
         vertex 3.5554349e+01 6.0605371e+01 1.0000000e-06
         vertex 3.7095296e+01 6.5394758e+01 3.0556201e+01
      endloop
   endfacet
   facet normal 9.7129852e-02 -9.8617594e-01 1.3424904e-01
      outer loop
         vertex 4.0100479e+01 6.1984425e+01 1.0000000e-06
         vertex 4.4828297e+01 6.2450074e+01 1.0000000e-06
         vertex 4.2221035e+01 6.6352925e+01 3.0556201e+01
      endloop
   endfacet
   facet normal 0.0000000e+00 -9.9194138e-01 1.2669766e-01
      outer loop
         vertex 4.2221035e+01 6.6352925e+01 3.0556201e+01
         vertex 4.4828297e+01 6.2450074e+01 1.0000000e-06
         vertex 4.7435560e+01 6.6352925e+01 3.0556201e+01
      endloop
   endfacet
   facet normal -2.8766163e-01 -9.4829331e-01 1.3412899e-01
      outer loop
         vertex 4.9556115e+01 6.1984425e+01 1.0000000e-06
         vertex 5.4102246e+01 6.0605371e+01 1.0000000e-06
         vertex 5.2561298e+01 6.5394758e+01 3.0556201e+01
      endloop
   endfacet
   facet normal -3.5832102e-01 -9.2493317e-01 1.2690417e-01
      outer loop
         vertex 5.2561298e+01 6.5394758e+01 3.0556201e+01
         vertex 5.4102246e+01 6.0605371e+01 1.0000000e-06
         vertex 5.7423698e+01 6.3511054e+01 3.0556201e+01
      endloop
   endfacet
   facet normal -6.2871225e-01 -7.6608810e-01 1.3352876e-01
      outer loop
         vertex 5.8291984e+01 5.8365909e+01 1.0000000e-06
         vertex 6.1964319e+01 5.5352101e+01 1.0000000e-06
         vertex 6.1857177e+01 6.0765960e+01 3.0556201e+01
      endloop
   endfacet
   facet normal -6.6819529e-01 -7.3297532e-01 1.2752349e-01
      outer loop
         vertex 6.1857177e+01 6.0765960e+01 3.0556201e+01
         vertex 6.1964319e+01 5.5352101e+01 1.0000000e-06
         vertex 6.5710758e+01 5.7252957e+01 3.0556201e+01
      endloop
   endfacet
   facet normal -8.7415146e-01 -4.6724369e-01 1.3244830e-01
      outer loop
         vertex 6.4978128e+01 5.1679765e+01 1.0000000e-06
         vertex 6.7217589e+01 4.7490027e+01 1.0000000e-06
         vertex 6.8853212e+01 5.3091676e+01 3.0556201e+01
      endloop
   endfacet
   facet normal -8.8773557e-01 -4.4203979e-01 1.2855498e-01
      outer loop
         vertex 6.8853212e+01 5.3091676e+01 3.0556201e+01
         vertex 6.7217589e+01 4.7490027e+01 1.0000000e-06
         vertex 7.1177526e+01 4.8423824e+01 3.0556201e+01
      endloop
   endfacet
   facet normal -9.8662337e-01 -9.7173920e-02 1.3088757e-01
      outer loop
         vertex 6.8596643e+01 4.2943897e+01 1.0000000e-06
         vertex 6.9062292e+01 3.8216079e+01 1.0000000e-06
         vertex 7.2604548e+01 4.3408360e+01 3.0556201e+01
      endloop
   endfacet
   facet normal -9.4860146e-01 2.8775511e-01 1.3172797e-01
      outer loop
         vertex 6.8596643e+01 3.3488261e+01 1.0000000e-06
         vertex 6.7217589e+01 2.8942131e+01 1.0000000e-06
         vertex 7.1177526e+01 2.8008334e+01 3.0556201e+01
      endloop
   endfacet
   facet normal -8.8773557e-01 4.4203979e-01 1.2855498e-01
      outer loop
         vertex 7.1177526e+01 2.8008334e+01 3.0556201e+01
         vertex 6.7217589e+01 2.8942131e+01 1.0000000e-06
         vertex 6.8853212e+01 2.3340482e+01 3.0556201e+01
      endloop
   endfacet
   facet normal -7.6613802e-01 6.2875322e-01 1.3304856e-01
      outer loop
         vertex 6.4978128e+01 2.4752393e+01 1.0000000e-06
         vertex 6.1964319e+01 2.1080057e+01 1.0000000e-06
         vertex 6.5710758e+01 1.9179201e+01 3.0556201e+01
      endloop
   endfacet
   facet normal -6.6819529e-01 7.3297532e-01 1.2752349e-01
      outer loop
         vertex 6.5710758e+01 1.9179201e+01 3.0556201e+01
         vertex 6.1964319e+01 2.1080057e+01 1.0000000e-06
         vertex 6.1857177e+01 1.5666198e+01 3.0556201e+01
      endloop
   endfacet
   facet normal -4.6715244e-01 8.7398075e-01 1.3388890e-01
      outer loop
         vertex 5.8291984e+01 1.8066249e+01 1.0000000e-06
         vertex 5.4102246e+01 1.5826787e+01 1.0000000e-06
         vertex 5.7423698e+01 1.2921104e+01 3.0556201e+01
      endloop
   endfacet
   facet normal -3.5832102e-01 9.2493317e-01 1.2690417e-01
      outer loop
         vertex 5.7423698e+01 1.2921104e+01 3.0556201e+01
         vertex 5.4102246e+01 1.5826787e+01 1.0000000e-06
         vertex 5.2561298e+01 1.1037400e+01 3.0556201e+01
      endloop
   endfacet
   facet normal -9.7129852e-02 9.8617594e-01 1.3424904e-01
      outer loop
         vertex 4.9556115e+01 1.4447733e+01 1.0000000e-06
         vertex 4.4828297e+01 1.3982084e+01 1.0000000e-06
         vertex 4.7435560e+01 1.0079233e+01 3.0556201e+01
      endloop
   endfacet
   facet normal 0.0000000e+00 9.9194138e-01 1.2669766e-01
      outer loop
         vertex 4.7435560e+01 1.0079233e+01 3.0556201e+01
         vertex 4.4828297e+01 1.3982084e+01 1.0000000e-06
         vertex 4.2221035e+01 1.0079233e+01 3.0556201e+01
      endloop
   endfacet
   facet normal 2.8766163e-01 9.4829331e-01 1.3412899e-01
      outer loop
         vertex 4.0100479e+01 1.4447733e+01 1.0000000e-06
         vertex 3.5554349e+01 1.5826787e+01 1.0000000e-06
         vertex 3.7095296e+01 1.1037400e+01 3.0556201e+01
      endloop
   endfacet
   facet normal 3.5832102e-01 9.2493317e-01 1.2690417e-01
      outer loop
         vertex 3.7095296e+01 1.1037400e+01 3.0556201e+01
         vertex 3.5554349e+01 1.5826787e+01 1.0000000e-06
         vertex 3.2232896e+01 1.2921104e+01 3.0556201e+01
      endloop
   endfacet
   facet normal 6.2871225e-01 7.6608810e-01 1.3352876e-01
      outer loop
         vertex 3.1364611e+01 1.8066249e+01 1.0000000e-06
         vertex 2.7692275e+01 2.1080057e+01 1.0000000e-06
         vertex 2.7799417e+01 1.5666198e+01 3.0556201e+01
      endloop
   endfacet
   facet normal 6.6819529e-01 7.3297532e-01 1.2752349e-01
      outer loop
         vertex 2.7799417e+01 1.5666198e+01 3.0556201e+01
         vertex 2.7692275e+01 2.1080057e+01 1.0000000e-06
         vertex 2.3945837e+01 1.9179201e+01 3.0556201e+01
      endloop
   endfacet
   facet normal 8.7415146e-01 4.6724369e-01 1.3244830e-01
      outer loop
         vertex 2.4678467e+01 2.4752393e+01 1.0000000e-06
         vertex 2.2439005e+01 2.8942131e+01 1.0000000e-06
         vertex 2.0803383e+01 2.3340482e+01 3.0556201e+01
      endloop
   endfacet
   facet normal 8.8773557e-01 4.4203979e-01 1.2855498e-01
      outer loop
         vertex 2.0803383e+01 2.3340482e+01 3.0556201e+01
         vertex 2.2439005e+01 2.8942131e+01 1.0000000e-06
         vertex 1.8479069e+01 2.8008334e+01 3.0556201e+01
      endloop
   endfacet
   facet normal 9.8662337e-01 9.7173920e-02 1.3088757e-01
      outer loop
         vertex 2.1059952e+01 3.3488261e+01 1.0000000e-06
         vertex 2.0594302e+01 3.8216079e+01 1.0000000e-06
         vertex 1.7052046e+01 3.3023798e+01 3.0556201e+01
      endloop
   endfacet
   facet normal 9.8728468e-01 9.1485399e-02 1.2999761e-01
      outer loop
         vertex 2.0594302e+01 3.8216079e+01 1.0000000e-06
         vertex 1.6570911e+01 3.8216079e+01 3.0556201e+01
         vertex 1.7052046e+01 3.3023798e+01 3.0556201e+01
      endloop
   endfacet
   facet normal -9.8728468e-01 -9.1485399e-02 1.2999761e-01
      outer loop
         vertex 6.9062292e+01 3.8216079e+01 1.0000000e-06
         vertex 7.3085684e+01 3.8216079e+01 3.0556201e+01
         vertex 7.2604548e+01 4.3408360e+01 3.0556201e+01
      endloop
   endfacet
   facet normal 0.0000000e+00 0.0000000e+00 1.0000000e+00
      outer loop
         vertex 1.7052046e+01 3.3023798e+01 3.0556201e+01
         vertex 1.6570911e+01 3.8216079e+01 3.0556201e+01
         vertex 1.0000000e-06 3.6361083e+01 3.0556201e+01
      endloop
   endfacet
   facet normal 0.0000000e+00 0.0000000e+00 1.0000000e+00
      outer loop
         vertex 1.7052046e+01 3.3023798e+01 3.0556201e+01
         vertex 1.0000000e-06 3.6361083e+01 3.0556201e+01
         vertex 1.8479069e+01 2.8008334e+01 3.0556201e+01
      endloop
   endfacet
   facet normal 0.0000000e+00 -0.0000000e+00 1.0000000e+00
      outer loop
         vertex 1.6570911e+01 3.8216079e+01 3.0556201e+01
         vertex 1.7052046e+01 4.3408360e+01 3.0556201e+01
         vertex 1.0000000e-06 3.6361083e+01 3.0556201e+01
      endloop
   endfacet
   facet normal 0.0000000e+00 -0.0000000e+00 1.0000000e+00
      outer loop
         vertex 1.7052046e+01 4.3408360e+01 3.0556201e+01
         vertex 1.8479069e+01 4.8423824e+01 3.0556201e+01
         vertex 1.0000000e-06 3.6361083e+01 3.0556201e+01
      endloop
   endfacet
   facet normal 0.0000000e+00 0.0000000e+00 1.0000000e+00
      outer loop
         vertex 2.3945837e+01 5.7252957e+01 3.0556201e+01
         vertex 2.2419294e+01 7.6433401e+01 3.0556201e+01
         vertex 2.0803383e+01 5.3091676e+01 3.0556201e+01
      endloop
   endfacet
   facet normal 0.0000000e+00 -0.0000000e+00 1.0000000e+00
      outer loop
         vertex 2.3945837e+01 5.7252957e+01 3.0556201e+01
         vertex 2.7799417e+01 6.0765960e+01 3.0556201e+01
         vertex 2.2419294e+01 7.6433401e+01 3.0556201e+01
      endloop
   endfacet
   facet normal 0.0000000e+00 -0.0000000e+00 1.0000000e+00
      outer loop
         vertex 2.7799417e+01 6.0765960e+01 3.0556201e+01
         vertex 3.2232896e+01 6.3511054e+01 3.0556201e+01
         vertex 2.2419294e+01 7.6433401e+01 3.0556201e+01
      endloop
   endfacet
   facet normal 0.0000000e+00 -0.0000000e+00 1.0000000e+00
      outer loop
         vertex 3.2232896e+01 6.3511054e+01 3.0556201e+01
         vertex 3.7095296e+01 6.5394758e+01 3.0556201e+01
         vertex 2.2419294e+01 7.6433401e+01 3.0556201e+01
      endloop
   endfacet
   facet normal 0.0000000e+00 -0.0000000e+00 1.0000000e+00
      outer loop
         vertex 3.7095296e+01 6.5394758e+01 3.0556201e+01
         vertex 4.2221035e+01 6.6352925e+01 3.0556201e+01
         vertex 2.2419294e+01 7.6433401e+01 3.0556201e+01
      endloop
   endfacet
   facet normal 0.0000000e+00 -0.0000000e+00 1.0000000e+00
      outer loop
         vertex 4.2221035e+01 6.6352925e+01 3.0556201e+01
         vertex 4.7435560e+01 6.6352925e+01 3.0556201e+01
         vertex 2.2419294e+01 7.6433401e+01 3.0556201e+01
      endloop
   endfacet
   facet normal -0.0000000e+00 0.0000000e+00 1.0000000e+00
      outer loop
         vertex 2.2419294e+01 7.6433401e+01 3.0556201e+01
         vertex 4.7435560e+01 6.6352925e+01 3.0556201e+01
         vertex 6.8336779e+01 7.6433401e+01 3.0556201e+01
      endloop
   endfacet
   facet normal -0.0000000e+00 0.0000000e+00 1.0000000e+00
      outer loop
         vertex 4.7435560e+01 6.6352925e+01 3.0556201e+01
         vertex 5.2561298e+01 6.5394758e+01 3.0556201e+01
         vertex 6.8336779e+01 7.6433401e+01 3.0556201e+01
      endloop
   endfacet
   facet normal -0.0000000e+00 0.0000000e+00 1.0000000e+00
      outer loop
         vertex 5.2561298e+01 6.5394758e+01 3.0556201e+01
         vertex 5.7423698e+01 6.3511054e+01 3.0556201e+01
         vertex 6.8336779e+01 7.6433401e+01 3.0556201e+01
      endloop
   endfacet
   facet normal -0.0000000e+00 0.0000000e+00 1.0000000e+00
      outer loop
         vertex 5.7423698e+01 6.3511054e+01 3.0556201e+01
         vertex 6.1857177e+01 6.0765960e+01 3.0556201e+01
         vertex 6.8336779e+01 7.6433401e+01 3.0556201e+01
      endloop
   endfacet
   facet normal -0.0000000e+00 0.0000000e+00 1.0000000e+00
      outer loop
         vertex 6.1857177e+01 6.0765960e+01 3.0556201e+01
         vertex 6.5710758e+01 5.7252957e+01 3.0556201e+01
         vertex 6.8336779e+01 7.6433401e+01 3.0556201e+01
      endloop
   endfacet
   facet normal -0.0000000e+00 -0.0000000e+00 1.0000000e+00
      outer loop
         vertex 7.1177526e+01 4.8423824e+01 3.0556201e+01
         vertex 8.9658722e+01 4.0072320e+01 3.0556201e+01
         vertex 6.8853212e+01 5.3091676e+01 3.0556201e+01
      endloop
   endfacet
   facet normal 0.0000000e+00 0.0000000e+00 1.0000000e+00
      outer loop
         vertex 7.1177526e+01 4.8423824e+01 3.0556201e+01
         vertex 7.2604548e+01 4.3408360e+01 3.0556201e+01
         vertex 8.9658722e+01 4.0072320e+01 3.0556201e+01
      endloop
   endfacet
   facet normal -0.0000000e+00 0.0000000e+00 1.0000000e+00
      outer loop
         vertex 7.2604548e+01 4.3408360e+01 3.0556201e+01
         vertex 7.3085684e+01 3.8216079e+01 3.0556201e+01
         vertex 8.9658722e+01 4.0072320e+01 3.0556201e+01
      endloop
   endfacet
   facet normal -0.0000000e+00 0.0000000e+00 1.0000000e+00
      outer loop
         vertex 7.3085684e+01 3.8216079e+01 3.0556201e+01
         vertex 7.2604548e+01 3.3023798e+01 3.0556201e+01
         vertex 8.9658722e+01 4.0072320e+01 3.0556201e+01
      endloop
   endfacet
   facet normal -0.0000000e+00 0.0000000e+00 1.0000000e+00
      outer loop
         vertex 7.2604548e+01 3.3023798e+01 3.0556201e+01
         vertex 7.1177526e+01 2.8008334e+01 3.0556201e+01
         vertex 8.9658722e+01 4.0072320e+01 3.0556201e+01
      endloop
   endfacet
   facet normal -0.0000000e+00 0.0000000e+00 1.0000000e+00
      outer loop
         vertex 7.1177526e+01 2.8008334e+01 3.0556201e+01
         vertex 6.8853212e+01 2.3340482e+01 3.0556201e+01
         vertex 8.9658722e+01 4.0072320e+01 3.0556201e+01
      endloop
   endfacet
   facet normal 0.0000000e+00 0.0000000e+00 1.0000000e+00
      outer loop
         vertex 8.9658722e+01 4.0072320e+01 3.0556201e+01
         vertex 6.8853212e+01 2.3340482e+01 3.0556201e+01
         vertex 6.7239429e+01 1.0000000e-06 3.0556201e+01
      endloop
   endfacet
   facet normal 0.0000000e+00 0.0000000e+00 1.0000000e+00
      outer loop
         vertex 6.8853212e+01 2.3340482e+01 3.0556201e+01
         vertex 6.5710758e+01 1.9179201e+01 3.0556201e+01
         vertex 6.7239429e+01 1.0000000e-06 3.0556201e+01
      endloop
   endfacet
   facet normal 0.0000000e+00 0.0000000e+00 1.0000000e+00
      outer loop
         vertex 6.5710758e+01 1.9179201e+01 3.0556201e+01
         vertex 6.1857177e+01 1.5666198e+01 3.0556201e+01
         vertex 6.7239429e+01 1.0000000e-06 3.0556201e+01
      endloop
   endfacet
   facet normal 0.0000000e+00 0.0000000e+00 1.0000000e+00
      outer loop
         vertex 6.1857177e+01 1.5666198e+01 3.0556201e+01
         vertex 5.7423698e+01 1.2921104e+01 3.0556201e+01
         vertex 6.7239429e+01 1.0000000e-06 3.0556201e+01
      endloop
   endfacet
   facet normal 0.0000000e+00 0.0000000e+00 1.0000000e+00
      outer loop
         vertex 5.7423698e+01 1.2921104e+01 3.0556201e+01
         vertex 5.2561298e+01 1.1037400e+01 3.0556201e+01
         vertex 6.7239429e+01 1.0000000e-06 3.0556201e+01
      endloop
   endfacet
   facet normal 0.0000000e+00 0.0000000e+00 1.0000000e+00
      outer loop
         vertex 5.2561298e+01 1.1037400e+01 3.0556201e+01
         vertex 4.7435560e+01 1.0079233e+01 3.0556201e+01
         vertex 6.7239429e+01 1.0000000e-06 3.0556201e+01
      endloop
   endfacet
   facet normal -0.0000000e+00 0.0000000e+00 1.0000000e+00
      outer loop
         vertex 3.7095296e+01 1.1037400e+01 3.0556201e+01
         vertex 2.1321944e+01 1.0000000e-06 3.0556201e+01
         vertex 4.2221035e+01 1.0079233e+01 3.0556201e+01
      endloop
   endfacet
   facet normal 0.0000000e+00 0.0000000e+00 1.0000000e+00
      outer loop
         vertex 3.7095296e+01 1.1037400e+01 3.0556201e+01
         vertex 3.2232896e+01 1.2921104e+01 3.0556201e+01
         vertex 2.1321944e+01 1.0000000e-06 3.0556201e+01
      endloop
   endfacet
   facet normal 0.0000000e+00 0.0000000e+00 1.0000000e+00
      outer loop
         vertex 3.2232896e+01 1.2921104e+01 3.0556201e+01
         vertex 2.7799417e+01 1.5666198e+01 3.0556201e+01
         vertex 2.1321944e+01 1.0000000e-06 3.0556201e+01
      endloop
   endfacet
   facet normal 0.0000000e+00 0.0000000e+00 1.0000000e+00
      outer loop
         vertex 2.7799417e+01 1.5666198e+01 3.0556201e+01
         vertex 2.3945837e+01 1.9179201e+01 3.0556201e+01
         vertex 2.1321944e+01 1.0000000e-06 3.0556201e+01
      endloop
   endfacet
   facet normal 0.0000000e+00 0.0000000e+00 1.0000000e+00
      outer loop
         vertex 2.3945837e+01 1.9179201e+01 3.0556201e+01
         vertex 2.0803383e+01 2.3340482e+01 3.0556201e+01
         vertex 2.1321944e+01 1.0000000e-06 3.0556201e+01
      endloop
   endfacet
   facet normal 0.0000000e+00 0.0000000e+00 1.0000000e+00
      outer loop
         vertex 2.1321944e+01 1.0000000e-06 3.0556201e+01
         vertex 2.0803383e+01 2.3340482e+01 3.0556201e+01
         vertex 1.0000000e-06 3.6361083e+01 3.0556201e+01
      endloop
   endfacet
   facet normal 0.0000000e+00 0.0000000e+00 1.0000000e+00
      outer loop
         vertex 2.0803383e+01 2.3340482e+01 3.0556201e+01
         vertex 1.8479069e+01 2.8008334e+01 3.0556201e+01
         vertex 1.0000000e-06 3.6361083e+01 3.0556201e+01
      endloop
   endfacet
   facet normal 0.0000000e+00 0.0000000e+00 1.0000000e+00
      outer loop
         vertex 8.9658722e+01 4.0072320e+01 3.0556201e+01
         vertex 6.8336779e+01 7.6433401e+01 3.0556201e+01
         vertex 6.8853212e+01 5.3091676e+01 3.0556201e+01
      endloop
   endfacet
   facet normal -0.0000000e+00 0.0000000e+00 1.0000000e+00
      outer loop
         vertex 2.2419294e+01 7.6433401e+01 3.0556201e+01
         vertex 1.0000000e-06 3.6361083e+01 3.0556201e+01
         vertex 2.0803383e+01 5.3091676e+01 3.0556201e+01
      endloop
   endfacet
   facet normal -0.0000000e+00 -0.0000000e+00 1.0000000e+00
      outer loop
         vertex 2.1321944e+01 1.0000000e-06 3.0556201e+01
         vertex 6.7239429e+01 1.0000000e-06 3.0556201e+01
         vertex 4.2221035e+01 1.0079233e+01 3.0556201e+01
      endloop
   endfacet
   facet normal -0.0000000e+00 0.0000000e+00 1.0000000e+00
      outer loop
         vertex 2.0803383e+01 5.3091676e+01 3.0556201e+01
         vertex 1.0000000e-06 3.6361083e+01 3.0556201e+01
         vertex 1.8479069e+01 4.8423824e+01 3.0556201e+01
      endloop
   endfacet
   facet normal 0.0000000e+00 0.0000000e+00 1.0000000e+00
      outer loop
         vertex 6.8336779e+01 7.6433401e+01 3.0556201e+01
         vertex 6.5710758e+01 5.7252957e+01 3.0556201e+01
         vertex 6.8853212e+01 5.3091676e+01 3.0556201e+01
      endloop
   endfacet
   facet normal 0.0000000e+00 0.0000000e+00 1.0000000e+00
      outer loop
         vertex 6.7239429e+01 1.0000000e-06 3.0556201e+01
         vertex 4.7435560e+01 1.0079233e+01 3.0556201e+01
         vertex 4.2221035e+01 1.0079233e+01 3.0556201e+01
      endloop
   endfacet
   facet normal 5.9830247e-16 9.8452507e-01 -1.7524379e-01
      outer loop
         vertex 6.8336779e+01 7.6433401e+01 3.0556201e+01
         vertex 6.4991137e+01 7.0994450e+01 1.0000000e-06
         vertex 2.2419294e+01 7.6433401e+01 3.0556201e+01
      endloop
   endfacet
   facet normal 7.1051258e-16 9.8452507e-01 -1.7524379e-01
      outer loop
         vertex 6.4991137e+01 7.0994450e+01 1.0000000e-06
         vertex 2.5608463e+01 7.0994450e+01 1.0000000e-06
         vertex 2.2419294e+01 7.6433401e+01 3.0556201e+01
      endloop
   endfacet
   facet normal 8.4831147e-01 4.9744528e-01 -1.8142726e-01
      outer loop
         vertex 8.9658722e+01 4.0072320e+01 3.0556201e+01
         vertex 8.3278617e+01 3.9808146e+01 1.0000000e-06
         vertex 6.8336779e+01 7.6433401e+01 3.0556201e+01
      endloop
   endfacet
   facet normal 8.4831147e-01 4.9744528e-01 -1.8142726e-01
      outer loop
         vertex 8.3278617e+01 3.9808146e+01 1.0000000e-06
         vertex 6.4991137e+01 7.0994450e+01 1.0000000e-06
         vertex 6.8336779e+01 7.6433401e+01 3.0556201e+01
      endloop
   endfacet
   facet normal 8.5919780e-01 -4.8069611e-01 -1.7524380e-01
      outer loop
         vertex 8.9658722e+01 4.0072320e+01 3.0556201e+01
         vertex 6.7239429e+01 1.0000000e-06 3.0556201e+01
         vertex 8.3278617e+01 3.9808146e+01 1.0000000e-06
      endloop
   endfacet
   facet normal 8.5919780e-01 -4.8069611e-01 -1.7524380e-01
      outer loop
         vertex 6.7239429e+01 1.0000000e-06 3.0556201e+01
         vertex 6.4049957e+01 5.4387755e+00 1.0000000e-06
         vertex 8.3278617e+01 3.9808146e+01 1.0000000e-06
      endloop
   endfacet
   facet normal -8.4831321e-01 -4.9744629e-01 -1.8141634e-01
      outer loop
         vertex 1.0000000e-06 3.6361083e+01 3.0556201e+01
         vertex 6.3798026e+00 3.6625079e+01 1.0000000e-06
         vertex 2.1321944e+01 1.0000000e-06 3.0556201e+01
      endloop
   endfacet
   facet normal -8.4831321e-01 -4.9744629e-01 -1.8141634e-01
      outer loop
         vertex 6.3798026e+00 3.6625079e+01 1.0000000e-06
         vertex 2.4667283e+01 5.4387755e+00 1.0000000e-06
         vertex 2.1321944e+01 1.0000000e-06 3.0556201e+01
      endloop
   endfacet
   facet normal -3.0089700e-16 2.9635767e-17 -1.0000000e+00
      outer loop
         vertex 2.1059952e+01 4.2943897e+01 1.0000000e-06
         vertex 2.0594302e+01 3.8216079e+01 1.0000000e-06
         vertex 6.3798026e+00 3.6625079e+01 1.0000000e-06
      endloop
   endfacet
   facet normal -3.3141358e-16 1.0053321e-16 -1.0000000e+00
      outer loop
         vertex 2.1059952e+01 4.2943897e+01 1.0000000e-06
         vertex 6.3798026e+00 3.6625079e+01 1.0000000e-06
         vertex 2.2439005e+01 4.7490027e+01 1.0000000e-06
      endloop
   endfacet
   facet normal -2.9433519e-16 -2.8989486e-17 -1.0000000e+00
      outer loop
         vertex 2.0594302e+01 3.8216079e+01 1.0000000e-06
         vertex 2.1059952e+01 3.3488261e+01 1.0000000e-06
         vertex 6.3798026e+00 3.6625079e+01 1.0000000e-06
      endloop
   endfacet
   facet normal -3.0811211e-16 -9.3464788e-17 -1.0000000e+00
      outer loop
         vertex 2.1059952e+01 3.3488261e+01 1.0000000e-06
         vertex 2.2439005e+01 2.8942131e+01 1.0000000e-06
         vertex 6.3798026e+00 3.6625079e+01 1.0000000e-06
      endloop
   endfacet
   facet normal -3.5557465e-16 -2.9181258e-16 -1.0000000e+00
      outer loop
         vertex 2.7692275e+01 2.1080057e+01 1.0000000e-06
         vertex 2.4667283e+01 5.4387755e+00 1.0000000e-06
         vertex 2.4678467e+01 2.4752393e+01 1.0000000e-06
      endloop
   endfacet
   facet normal -2.5538608e-16 -3.1118884e-16 -1.0000000e+00
      outer loop
         vertex 2.7692275e+01 2.1080057e+01 1.0000000e-06
         vertex 3.1364611e+01 1.8066249e+01 1.0000000e-06
         vertex 2.4667283e+01 5.4387755e+00 1.0000000e-06
      endloop
   endfacet
   facet normal -1.8600339e-16 -3.4798786e-16 -1.0000000e+00
      outer loop
         vertex 3.1364611e+01 1.8066249e+01 1.0000000e-06
         vertex 3.5554349e+01 1.5826787e+01 1.0000000e-06
         vertex 2.4667283e+01 5.4387755e+00 1.0000000e-06
      endloop
   endfacet
   facet normal -1.2496597e-16 -4.1195760e-16 -1.0000000e+00
      outer loop
         vertex 3.5554349e+01 1.5826787e+01 1.0000000e-06
         vertex 4.0100479e+01 1.4447733e+01 1.0000000e-06
         vertex 2.4667283e+01 5.4387755e+00 1.0000000e-06
      endloop
   endfacet
   facet normal -5.2757639e-17 -5.3565730e-16 -1.0000000e+00
      outer loop
         vertex 4.0100479e+01 1.4447733e+01 1.0000000e-06
         vertex 4.4828297e+01 1.3982084e+01 1.0000000e-06
         vertex 2.4667283e+01 5.4387755e+00 1.0000000e-06
      endloop
   endfacet
   facet normal -4.8767723e-31 -6.6015795e-16 -1.0000000e+00
      outer loop
         vertex 2.4667283e+01 5.4387755e+00 1.0000000e-06
         vertex 4.4828297e+01 1.3982084e+01 1.0000000e-06
         vertex 6.4049957e+01 5.4387755e+00 1.0000000e-06
      endloop
   endfacet
   facet normal 5.3225330e-17 -5.4040585e-16 -1.0000000e+00
      outer loop
         vertex 4.4828297e+01 1.3982084e+01 1.0000000e-06
         vertex 4.9556115e+01 1.4447733e+01 1.0000000e-06
         vertex 6.4049957e+01 5.4387755e+00 1.0000000e-06
      endloop
   endfacet
   facet normal 1.2762225e-16 -4.2071418e-16 -1.0000000e+00
      outer loop
         vertex 4.9556115e+01 1.4447733e+01 1.0000000e-06
         vertex 5.4102246e+01 1.5826787e+01 1.0000000e-06
         vertex 6.4049957e+01 5.4387755e+00 1.0000000e-06
      endloop
   endfacet
   facet normal 1.9194993e-16 -3.5911306e-16 -1.0000000e+00
      outer loop
         vertex 5.4102246e+01 1.5826787e+01 1.0000000e-06
         vertex 5.8291984e+01 1.8066249e+01 1.0000000e-06
         vertex 6.4049957e+01 5.4387755e+00 1.0000000e-06
      endloop
   endfacet
   facet normal 2.6673168e-16 -3.2501349e-16 -1.0000000e+00
      outer loop
         vertex 5.8291984e+01 1.8066249e+01 1.0000000e-06
         vertex 6.1964319e+01 2.1080057e+01 1.0000000e-06
         vertex 6.4049957e+01 5.4387755e+00 1.0000000e-06
      endloop
   endfacet
   facet normal 5.5007521e-16 -2.9402133e-16 -1.0000000e+00
      outer loop
         vertex 6.7217589e+01 2.8942131e+01 1.0000000e-06
         vertex 8.3278617e+01 3.9808146e+01 1.0000000e-06
         vertex 6.4978128e+01 2.4752393e+01 1.0000000e-06
      endloop
   endfacet
   facet normal 4.4183280e-16 -1.3402851e-16 -1.0000000e+00
      outer loop
         vertex 6.7217589e+01 2.8942131e+01 1.0000000e-06
         vertex 6.8596643e+01 3.3488261e+01 1.0000000e-06
         vertex 8.3278617e+01 3.9808146e+01 1.0000000e-06
      endloop
   endfacet
   facet normal 4.0114691e-16 -3.9509522e-17 -1.0000000e+00
      outer loop
         vertex 6.8596643e+01 3.3488261e+01 1.0000000e-06
         vertex 6.9062292e+01 3.8216079e+01 1.0000000e-06
         vertex 8.3278617e+01 3.9808146e+01 1.0000000e-06
      endloop
   endfacet
   facet normal 3.9239422e-16 3.8647457e-17 -1.0000000e+00
      outer loop
         vertex 6.9062292e+01 3.8216079e+01 1.0000000e-06
         vertex 6.8596643e+01 4.2943897e+01 1.0000000e-06
         vertex 8.3278617e+01 3.9808146e+01 1.0000000e-06
      endloop
   endfacet
   facet normal 4.1075186e-16 1.2460021e-16 -1.0000000e+00
      outer loop
         vertex 6.8596643e+01 4.2943897e+01 1.0000000e-06
         vertex 6.7217589e+01 4.7490027e+01 1.0000000e-06
         vertex 8.3278617e+01 3.9808146e+01 1.0000000e-06
      endloop
   endfacet
   facet normal 4.7176445e-16 2.5216335e-16 -1.0000000e+00
      outer loop
         vertex 6.7217589e+01 4.7490027e+01 1.0000000e-06
         vertex 6.4978128e+01 5.1679765e+01 1.0000000e-06
         vertex 8.3278617e+01 3.9808146e+01 1.0000000e-06
      endloop
   endfacet
   facet normal 4.9739087e-16 2.9166733e-16 -1.0000000e+00
      outer loop
         vertex 8.3278617e+01 3.9808146e+01 1.0000000e-06
         vertex 6.4978128e+01 5.1679765e+01 1.0000000e-06
         vertex 6.4991137e+01 7.0994450e+01 1.0000000e-06
      endloop
   endfacet
   facet normal 3.5551411e-16 2.9176289e-16 -1.0000000e+00
      outer loop
         vertex 6.4978128e+01 5.1679765e+01 1.0000000e-06
         vertex 6.1964319e+01 5.5352101e+01 1.0000000e-06
         vertex 6.4991137e+01 7.0994450e+01 1.0000000e-06
      endloop
   endfacet
   facet normal 2.5534994e-16 3.1114480e-16 -1.0000000e+00
      outer loop
         vertex 6.1964319e+01 5.5352101e+01 1.0000000e-06
         vertex 5.8291984e+01 5.8365909e+01 1.0000000e-06
         vertex 6.4991137e+01 7.0994450e+01 1.0000000e-06
      endloop
   endfacet
   facet normal 1.8597995e-16 3.4794400e-16 -1.0000000e+00
      outer loop
         vertex 5.8291984e+01 5.8365909e+01 1.0000000e-06
         vertex 5.4102246e+01 6.0605371e+01 1.0000000e-06
         vertex 6.4991137e+01 7.0994450e+01 1.0000000e-06
      endloop
   endfacet
   facet normal 1.2495118e-16 4.1190883e-16 -1.0000000e+00
      outer loop
         vertex 5.4102246e+01 6.0605371e+01 1.0000000e-06
         vertex 4.9556115e+01 6.1984425e+01 1.0000000e-06
         vertex 6.4991137e+01 7.0994450e+01 1.0000000e-06
      endloop
   endfacet
   facet normal -5.3220804e-17 5.4035989e-16 -1.0000000e+00
      outer loop
         vertex 4.0100479e+01 6.1984425e+01 1.0000000e-06
         vertex 2.5608463e+01 7.0994450e+01 1.0000000e-06
         vertex 4.4828297e+01 6.2450074e+01 1.0000000e-06
      endloop
   endfacet
   facet normal -1.2761736e-16 4.2069806e-16 -1.0000000e+00
      outer loop
         vertex 4.0100479e+01 6.1984425e+01 1.0000000e-06
         vertex 3.5554349e+01 6.0605371e+01 1.0000000e-06
         vertex 2.5608463e+01 7.0994450e+01 1.0000000e-06
      endloop
   endfacet
   facet normal -1.9194881e-16 3.5911096e-16 -1.0000000e+00
      outer loop
         vertex 3.5554349e+01 6.0605371e+01 1.0000000e-06
         vertex 3.1364611e+01 5.8365909e+01 1.0000000e-06
         vertex 2.5608463e+01 7.0994450e+01 1.0000000e-06
      endloop
   endfacet
   facet normal -2.6673830e-16 3.2502156e-16 -1.0000000e+00
      outer loop
         vertex 3.1364611e+01 5.8365909e+01 1.0000000e-06
         vertex 2.7692275e+01 5.5352101e+01 1.0000000e-06
         vertex 2.5608463e+01 7.0994450e+01 1.0000000e-06
      endloop
   endfacet
   facet normal -3.7798231e-16 3.1020207e-16 -1.0000000e+00
      outer loop
         vertex 2.7692275e+01 5.5352101e+01 1.0000000e-06
         vertex 2.4678467e+01 5.1679765e+01 1.0000000e-06
         vertex 2.5608463e+01 7.0994450e+01 1.0000000e-06
      endloop
   endfacet
   facet normal -4.9084206e-16 3.1563623e-16 -1.0000000e+00
      outer loop
         vertex 2.5608463e+01 7.0994450e+01 1.0000000e-06
         vertex 2.4678467e+01 5.1679765e+01 1.0000000e-06
         vertex 6.3798026e+00 3.6625079e+01 1.0000000e-06
      endloop
   endfacet
   facet normal -4.1260690e-16 2.2054298e-16 -1.0000000e+00
      outer loop
         vertex 2.4678467e+01 5.1679765e+01 1.0000000e-06
         vertex 2.2439005e+01 4.7490027e+01 1.0000000e-06
         vertex 6.3798026e+00 3.6625079e+01 1.0000000e-06
      endloop
   endfacet
   facet normal 4.7636364e-31 6.6007549e-16 -1.0000000e+00
      outer loop
         vertex 2.5608463e+01 7.0994450e+01 1.0000000e-06
         vertex 6.4991137e+01 7.0994450e+01 1.0000000e-06
         vertex 4.4828297e+01 6.2450074e+01 1.0000000e-06
      endloop
   endfacet
   facet normal 5.7100324e-16 -3.1945966e-16 -1.0000000e+00
      outer loop
         vertex 8.3278617e+01 3.9808146e+01 1.0000000e-06
         vertex 6.4049957e+01 5.4387755e+00 1.0000000e-06
         vertex 6.4978128e+01 2.4752393e+01 1.0000000e-06
      endloop
   endfacet
   facet normal -4.2047346e-16 -2.9177500e-16 -1.0000000e+00
      outer loop
         vertex 2.4667283e+01 5.4387755e+00 1.0000000e-06
         vertex 6.3798026e+00 3.6625079e+01 1.0000000e-06
         vertex 2.4678467e+01 2.4752393e+01 1.0000000e-06
      endloop
   endfacet
   facet normal -3.5389425e-16 -1.8916042e-16 -1.0000000e+00
      outer loop
         vertex 2.4678467e+01 2.4752393e+01 1.0000000e-06
         vertex 6.3798026e+00 3.6625079e+01 1.0000000e-06
         vertex 2.2439005e+01 2.8942131e+01 1.0000000e-06
      endloop
   endfacet
   facet normal 3.7795827e-16 -3.1018233e-16 -1.0000000e+00
      outer loop
         vertex 6.4049957e+01 5.4387755e+00 1.0000000e-06
         vertex 6.1964319e+01 2.1080057e+01 1.0000000e-06
         vertex 6.4978128e+01 2.4752393e+01 1.0000000e-06
      endloop
   endfacet
   facet normal 5.2751391e-17 5.3559386e-16 -1.0000000e+00
      outer loop
         vertex 6.4991137e+01 7.0994450e+01 1.0000000e-06
         vertex 4.9556115e+01 6.1984425e+01 1.0000000e-06
         vertex 4.4828297e+01 6.2450074e+01 1.0000000e-06
      endloop
   endfacet
   facet normal -7.5785055e-16 -9.8452606e-01 -1.7523826e-01
      outer loop
         vertex 2.1321944e+01 1.0000000e-06 3.0556201e+01
         vertex 2.4667283e+01 5.4387755e+00 1.0000000e-06
         vertex 6.7239429e+01 1.0000000e-06 3.0556201e+01
      endloop
   endfacet
   facet normal -7.1051330e-16 -9.8452606e-01 -1.7523826e-01
      outer loop
         vertex 2.4667283e+01 5.4387755e+00 1.0000000e-06
         vertex 6.4049957e+01 5.4387755e+00 1.0000000e-06
         vertex 6.7239429e+01 1.0000000e-06 3.0556201e+01
      endloop
   endfacet
   facet normal -8.5919867e-01 4.8069659e-01 -1.7523825e-01
      outer loop
         vertex 1.0000000e-06 3.6361083e+01 3.0556201e+01
         vertex 2.2419294e+01 7.6433401e+01 3.0556201e+01
         vertex 6.3798026e+00 3.6625079e+01 1.0000000e-06
      endloop
   endfacet
   facet normal -8.5919867e-01 4.8069659e-01 -1.7523825e-01
      outer loop
         vertex 2.2419294e+01 7.6433401e+01 3.0556201e+01
         vertex 2.5608463e+01 7.0994450e+01 1.0000000e-06
         vertex 6.3798026e+00 3.6625079e+01 1.0000000e-06
      endloop
   endfacet
endsolid AutoCAD
